<?xml version="1.0" encoding="UTF-8" standalone="no"?>
<!-- Created with Inkscape (http://www.inkscape.org/) -->

<svg
   width="33.866665mm"
   height="33.866669mm"
   viewBox="0 0 33.866665 33.866669"
   version="1.1"
   id="svg1"
   xml:space="preserve"
   xmlns="http://www.w3.org/2000/svg"
   xmlns:svg="http://www.w3.org/2000/svg"><defs
     id="defs1"><clipPath
       id="clipPath1"><rect
         x="-32.775002"
         y="17.648001"
         width="296.98999"
         height="175.98"
         stroke-width="0.26458"
         id="rect1" /></clipPath></defs><g
     id="layer1"
     transform="translate(-88.06667,-131.56667)"><g
       id="g19"><path
         transform="matrix(0.18065199,0,0,0.21115305,86.387683,124.5482)"
         d="m 97.792,220.5 c -0.42521,-0.22474 -0.87405,-0.73846 -0.97823,-1.1196 -0.04851,-0.17749 -0.04744,-1.0102 0.0026,-2.0392 0.11074,-2.276 0.02342,-8.6603 -0.1565,-11.442 -0.53648,-8.2939 -1.6546,-13.883 -3.5241,-17.615 -0.34661,-0.6919 -1.0094,-1.8722 -1.4728,-2.6228 -1.2006,-1.9446 -2.1533,-3.545 -2.5836,-4.3397 -0.20444,-0.37758 -0.58621,-1.0572 -0.84838,-1.5103 -0.95003,-1.6419 -2.1049,-3.9258 -3.6103,-7.1397 -2.0115,-4.2945 -3.9859,-9.6369 -5.9201,-16.019 -0.55683,-1.8372 -1.058,-3.3321 -1.1738,-3.501 -0.02448,-0.0357 -1.4649,0.28864 -3.7536,0.84519 -1.1579,0.28158 -2.4966,0.5939 -2.9749,0.69406 -0.47827,0.10015 -1.0137,0.2203 -1.19,0.26701 -1.4377,0.38105 -5.3054,0.87126 -7.872,0.99774 -5.4712,0.26962 -10.851,-0.34347 -16.43,-1.8724 -3.2719,-0.89662 -8.3625,-2.7437 -11.716,-4.2513 -3.2175,-1.4463 -7.2339,-2.8824 -10.755,-3.8459 -2.4533,-0.67122 -2.9213,-0.82475 -3.9146,-1.2843 -1.5455,-0.71496 -2.8988,-1.6662 -4.7812,-3.3608 -3.2512,-2.9268 -4.2887,-4.4918 -4.7163,-7.1143 -0.3149,-1.9313 -0.084474,-3.2206 1.0306,-5.7667 0.99362,-2.2687 1.9581,-5.3614 2.7262,-8.7416 0.13155,-0.57896 0.4219,-1.8147 0.6452,-2.746 0.22331,-0.93137 0.5135,-2.1465 0.64487,-2.7003 0.13137,-0.55378 0.48408,-1.8073 0.7838,-2.7855 1.427,-4.6575 3.294,-8.3357 6.3356,-12.482 1.6443,-2.2413 2.8032,-3.6066 4.8726,-5.7399 0.41509,-0.42792 0.843,-0.88102 0.95092,-1.0069 0.10792,-0.12588 0.39061,-0.43479 0.62822,-0.68651 0.86761,-0.91914 4.484,-5.1801 5.7877,-6.8193 0.72339,-0.90955 2.154,-2.7492 2.5634,-3.2965 1.0533,-1.4078 2.8219,-4.1348 5.0751,-7.825 1.9079,-3.1247 3.8327,-5.7839 4.8844,-6.748 2.517,-2.3073 8.7397,-4.2785 18.406,-5.8307 1.7262,-0.27718 6.5961,-0.9381 10.496,-1.4245 2.3746,-0.29614 3.6998,-0.1365 5.2935,0.63769 1.225,0.59511 2.0848,1.3845 2.7931,2.5644 0.12088,0.20138 0.71984,1.1282 1.331,2.0595 2.5597,3.9007 3.9857,6.7056 4.3511,8.5585 0.17554,0.8901 0.15313,2.3381 -0.04675,3.0206 -0.35856,1.2244 -1.2045,2.3496 -2.4444,3.2515 -0.45559,0.33137 -0.68302,0.56689 -0.77759,0.80526 -0.4201,1.0589 -0.83989,1.7389 -1.4526,2.3532 -0.79245,0.79439 -1.3296,1.1013 -2.7929,1.5956 -0.92257,0.31168 -1.2451,0.46924 -1.6661,0.81391 -1.6207,1.327 -3.2187,1.7751 -5.2774,1.4801 l -0.805,-0.11538 -0.82084,0.32841 c -1.373,0.54931 -1.8491,0.63772 -3.147,0.58435 -1.3554,-0.05573 -2.3197,-0.30783 -3.5494,-0.92787 -1.8515,-0.93355 -3.2187,-2.4062 -3.6871,-3.9714 -0.07125,-0.2381 -0.16123,-0.37606 -0.22844,-0.35027 -0.06099,0.0234 -0.59973,0.15559 -1.1972,0.29374 -0.93941,0.21722 -1.2951,0.25258 -2.6299,0.26148 l -1.5436,0.01029 -0.43327,0.7753 c -0.2383,0.42641 -0.81545,1.4549 -1.2826,2.2856 -1.9419,3.4534 -3.7356,7.468 -4.703,10.527 -0.73751,2.3316 -0.75017,2.4507 -0.71534,6.7278 0.03189,3.9167 -0.03696,5.3951 -0.35919,7.7131 -0.22159,1.594 -0.81625,4.3431 -1.1308,5.2277 -0.07833,0.22029 -0.14242,0.43576 -0.14242,0.47883 0,0.0431 0.25744,-0.0631 0.57209,-0.2358 1.3706,-0.75246 3.7797,-1.6575 5.6023,-2.1047 1.4959,-0.36704 2.6479,-0.51422 4.4436,-0.56776 4.0667,-0.12125 7.7172,0.88409 11.964,3.2948 0.87283,0.49548 0.7777,0.50771 2.0452,-0.26311 1.3536,-0.82322 3.9611,-2.0715 5.5022,-2.6341 3.1822,-1.1617 5.9875,-1.7626 9.2764,-1.987 3.3313,-0.22731 6.9206,0.26382 10.481,1.4341 1.1154,0.36666 2.0374,0.75899 3.5261,1.5006 1.2767,0.63592 2.1211,1.0041 2.3029,1.0041 0.15791,0 0.77486,-0.20176 1.371,-0.44836 1.0097,-0.41768 7.9559,-3.5035 9.5966,-4.2633 0.40275,-0.1865 0.83214,-0.37832 0.95421,-0.42627 0.20577,-0.0808 0.1591,-0.12189 -0.64088,-0.56392 -1.0538,-0.5823 -1.8476,-1.1842 -2.6224,-1.9885 -1.5352,-1.5938 -2.5131,-3.3877 -3.9661,-7.2756 -0.79791,-2.135 -1.2502,-3.3316 -1.7816,-4.714 -1.3471,-3.5042 -2.3917,-6.6238 -2.7422,-8.1895 -0.6083,-2.7169 -0.76978,-4.9907 -0.77805,-10.955 -0.005,-3.359 -0.0735,-4.9342 -0.28031,-6.4107 -0.19732,-1.409 -0.28157,-4.0786 -0.18479,-5.8557 0.29848,-5.4814 1.4,-10.172 3.3753,-14.373 4.1266,-8.7763 11.886,-14.995 20.985,-16.82 6.3222,-1.2677 13.662,-0.24325 19.124,2.6694 2.8296,1.5089 5.0302,3.1342 6.8262,5.0416 3.924,4.1674 6.1344,9.0532 6.965,15.396 0.13352,1.0195 0.16744,1.8897 0.16588,4.2564 -0.002,3.0979 -0.10243,4.4286 -0.50746,6.7263 -0.0978,0.55462 -0.20234,1.1558 -0.23239,1.336 l -0.0546,0.32764 0.54312,0.19803 c 0.7599,0.27708 1.7702,1.0148 2.3123,1.6885 0.57489,0.71441 1.1409,1.8275 1.384,2.7214 0.29227,1.0751 0.33129,2.7936 0.0949,4.1786 -0.69849,4.0924 -3.5442,9.1228 -6.407,11.326 -0.59609,0.45868 -1.5417,0.99159 -2.0361,1.1475 l -0.32854,0.10361 -0.0603,2.8125 c -0.21243,9.9034 0.083,15.413 0.89083,16.612 0.33717,0.50034 2.883,2.6283 4.4033,3.6806 2.4787,1.7156 5.8117,4.1162 7.6889,5.5379 3.0629,2.3197 5.5493,3.6045 9.6766,5.0002 0.94219,0.3186 2.1779,0.76893 2.746,1.0007 4.4248,1.8053 8.6887,5.2987 11.393,9.3342 2.5302,3.7757 4.0066,7.7859 4.713,12.801 l 0.19527,1.3864 0.038,35.08 0.038,35.08 -0.24744,0.45463 c -0.5139,0.94421 -1.5115,1.2678 -2.4066,0.78071 -0.26127,-0.1422 -0.57411,-0.41247 -0.71836,-0.62059 l -0.25552,-0.36869 -0.0458,-32.228 c -0.0252,-17.725 -0.0203,-32.949 0.0109,-33.83 0.32943,-9.311 -2.9986,-17.062 -9.3983,-21.888 -3.1863,-2.4029 -7.502,-4.0318 -10.704,-4.0403 -1.4632,-0.004 -1.7824,0.0487 -5.7209,0.94199 -5.5266,1.2535 -8.3027,1.7543 -13.181,2.378 -7.7119,0.98588 -10.027,1.5129 -11.778,2.6808 -0.66764,0.44548 -1.657,1.3798 -2.1534,2.0334 -0.45796,0.60313 -0.87856,0.80551 -1.5811,0.76077 -0.98734,-0.0629 -1.6089,-0.66435 -1.6783,-1.6241 -0.0436,-0.60341 0.10295,-0.96231 0.70336,-1.7219 1.315,-1.6637 3.407,-3.1128 5.5088,-3.8161 1.6044,-0.53686 4.4075,-1.047 9.1017,-1.6563 5.3461,-0.69396 9.0107,-1.3115 12.261,-2.0663 1.3066,-0.30339 2.6982,-0.61281 3.0925,-0.68761 1.2247,-0.23233 1.2147,-0.21215 0.3845,-0.77135 -0.39968,-0.26922 -1.4887,-1.0451 -2.4201,-1.7241 -0.93137,-0.67902 -2.4142,-1.7478 -3.2952,-2.3752 -0.88103,-0.62731 -1.952,-1.3954 -2.3799,-1.7068 -0.42792,-0.31141 -1.2929,-0.9301 -1.9222,-1.3749 -0.6293,-0.44478 -1.5439,-1.129 -2.0324,-1.5206 l -0.88816,-0.71189 -0.0272,2.3657 -0.0272,2.3657 -0.27991,0.35155 c -0.54323,0.68228 -1.4967,0.94976 -2.1984,0.61675 -0.42362,-0.20102 -0.922,-0.77508 -1.0392,-1.1969 -0.0664,-0.23925 -0.0981,-4.7306 -0.10011,-14.217 l -0.003,-13.868 -0.70691,-0.33633 c -0.89776,-0.42713 -1.6914,-1.1268 -1.9012,-1.6759 -0.23166,-0.60658 -0.14972,-1.3261 0.20027,-1.7585 0.49334,-0.60955 0.70467,-0.71442 1.4397,-0.71442 0.6459,0 0.6746,0.01003 1.2485,0.43651 0.32308,0.24008 0.75338,0.4812 0.95622,0.53582 1.6428,0.44236 3.7092,-1.1138 5.5236,-4.1596 0.9888,-1.6599 1.5368,-2.9751 2.0471,-4.9135 0.27511,-1.0448 0.29408,-2.6504 0.04,-3.3868 -0.51706,-1.4987 -1.439,-2.1757 -2.8406,-2.0857 -1.2232,0.0785 -2.2356,0.77452 -3.2292,2.22 -0.58088,0.84505 -0.90144,1.0557 -1.6065,1.0557 -0.86055,0 -1.4884,-0.46072 -1.7796,-1.3058 -0.25674,-0.74519 0.012,-1.4204 1.0989,-2.7617 0.95804,-1.1821 2.2772,-2.1166 3.588,-2.5416 0.35141,-0.11395 0.37216,-0.14282 0.51579,-0.71744 0.14736,-0.58955 0.41219,-2.3696 0.64631,-4.3442 0.0737,-0.62132 0.11647,-1.9883 0.11176,-3.5699 -0.007,-2.2972 -0.0334,-2.7339 -0.25585,-4.2106 -0.26018,-1.7269 -0.4348,-2.5125 -0.89531,-4.0275 -1.2008,-3.9507 -3.5468,-7.5751 -6.5298,-10.088 -3.6035,-3.0356 -8.4666,-5.0719 -13.398,-5.6099 -1.2163,-0.1327 -4.3789,-0.13416 -5.5043,-0.0025 -4.0186,0.47 -7.7996,1.8613 -11.18,4.114 -1.7562,1.1703 -2.5994,1.8672 -4.1529,3.4327 -2.1466,2.1632 -3.5667,4.1581 -4.9899,7.0094 -1.6428,3.2915 -2.5916,6.4764 -3.1219,10.481 -0.29767,2.2475 -0.30296,6.5955 -0.0117,9.6112 0.16953,1.7551 0.21116,2.897 0.25033,6.8651 0.05,5.0684 0.10687,6.0205 0.46726,7.8262 0.53846,2.6979 1.2988,4.9344 4.2476,12.494 0.19637,0.50344 0.54863,1.4508 0.78281,2.1053 0.947,2.6466 2.1741,4.5784 3.566,5.614 0.70979,0.52808 2.1813,1.2195 3.1127,1.4625 2.0511,0.53519 5.4047,0.62718 7.5058,0.20588 2.1186,-0.4248 3.1747,-0.7901 5.1717,-1.7888 1.5816,-0.79101 2.0045,-1.0359 7.8972,-4.5723 0.90594,-0.5437 2.3904,-1.5724 2.9384,-2.0361 1.5535,-1.3148 2.5973,-3.1557 3.1683,-5.588 0.22725,-0.96794 0.4177,-1.3077 0.91897,-1.6394 0.48873,-0.32342 1.3402,-0.36031 1.8183,-0.07876 1.1039,0.65002 1.1818,1.7035 0.311,4.2064 -0.86033,2.4728 -2.2312,4.4579 -4.1534,6.0143 -2.1957,1.7778 -9.8975,6.401 -12.533,7.523 -1.3183,0.56129 -2.6186,1.0012 -3.7072,1.254 -0.50344,0.11696 -0.9451,0.23682 -0.98146,0.26636 -0.0364,0.0296 0.0394,0.52649 0.16829,1.1043 0.56626,2.538 1.4706,5.4262 2.3924,7.6411 0.734,1.7635 0.79418,1.9897 0.66551,2.5016 -0.28768,1.1446 -1.4841,1.7067 -2.5422,1.1944 -0.53734,-0.26012 -0.73179,-0.58189 -1.4896,-2.465 -1.1441,-2.8428 -1.9086,-5.3075 -2.4688,-7.9589 -0.15423,-0.72999 -0.30058,-1.393 -0.32522,-1.4734 -0.0367,-0.11975 -0.25823,-0.15698 -1.2255,-0.20593 -0.64938,-0.0329 -1.2392,-0.0822 -1.3107,-0.10966 -0.10951,-0.042 -0.1396,0.34326 -0.19061,2.4405 -0.0333,1.3697 -0.0606,3.1958 -0.0606,4.058 0,1.444 -0.0162,1.5997 -0.20596,1.9748 -0.41221,0.81499 -1.3749,1.1948 -2.215,0.874 -0.4973,-0.18992 -1.0266,-0.75626 -1.1069,-1.1844 -0.0329,-0.17547 -0.0455,-1.5995 -0.0281,-3.1645 0.0209,-1.8733 5.2e-4,-2.8326 -0.0597,-2.8079 -0.0503,0.0206 -0.6888,0.30545 -1.4188,0.63294 -3.0281,1.3585 -8.6681,3.8482 -8.9044,3.9308 l -0.25442,0.0889 0.68671,0.71877 c 1.0459,1.0947 2.3841,2.9634 3.2797,4.5797 l 0.33481,0.60425 1.0787,0.24761 c 2.9874,0.68575 7.6068,1.8719 10.141,2.6039 3.5857,1.0358 4.6991,1.5129 6.2978,2.6986 1.3512,1.0021 3.1424,3.0277 3.3553,3.7941 0.13615,0.49022 0.11918,0.65182 -0.1222,1.1637 -0.35577,0.75443 -0.80096,1.0526 -1.5714,1.0526 -0.67273,0 -1.0648,-0.21965 -1.6022,-0.89771 -1.1882,-1.4991 -2.4735,-2.5707 -3.8617,-3.2195 -1.8083,-0.84514 -10.469,-3.1447 -17.05,-4.5269 -3.4894,-0.73292 -4.555,-0.97467 -4.8621,-1.103 -0.16404,-0.0685 -0.42236,-0.29594 -0.57405,-0.50535 -0.50344,-0.69497 -0.46012,-1.6114 0.10669,-2.2569 0.54926,-0.62557 1.0186,-0.69806 2.5276,-0.39031 0.51189,0.1044 0.96954,0.17648 1.017,0.16018 0.0475,-0.0163 -0.1428,-0.31797 -0.42279,-0.67038 -2.6666,-3.3563 -7.0281,-5.821 -11.889,-6.7184 -3.8201,-0.70528 -7.3347,-0.55027 -11.262,0.49668 -1.8691,0.49825 -3.1493,1.0031 -5.7176,2.2549 l -2.0595,1.0038 0.28204,0.24583 c 0.15512,0.1352 0.56703,0.48754 0.91535,0.78297 1.4263,1.2098 3.0473,2.8136 3.2345,3.2001 0.53978,1.115 -0.15216,2.3956 -1.357,2.5114 -0.73122,0.0703 -1.0384,-0.0951 -2.1488,-1.1568 -2.3931,-2.2882 -5.5591,-4.7291 -7.5166,-5.7951 -1.7282,-0.94111 -3.6912,-1.6748 -5.4891,-2.0514 -1.3787,-0.28888 -3.854,-0.3957 -5.2316,-0.22576 -3.3931,0.41858 -6.9073,1.8805 -10.921,4.5431 -0.54695,0.36286 -0.79758,0.61433 -1.2815,1.2858 -1.2588,1.7467 -3.1588,3.7358 -4.6052,4.8211 -0.91835,0.68908 -2.5642,1.7318 -3.4427,2.181 -1.0464,0.53512 -1.8054,0.47043 -2.4567,-0.2094 -0.36921,-0.38537 -0.48626,-0.69727 -0.48583,-1.2946 6e-4,-0.83221 0.18649,-1.0261 2.0216,-2.1081 1.5244,-0.89885 2.8773,-1.9334 4.0251,-3.0778 2.0698,-2.0638 2.8843,-3.4108 4.0449,-6.689 1.3147,-3.7135 1.9887,-7.7158 1.9879,-11.804 -3.59e-4,-1.7369 0.10468,-1.7369 -0.88296,0 -0.30058,0.52862 -0.88074,1.4966 -1.2892,2.1511 -1.3355,2.1396 -1.5453,2.3341 -2.5178,2.3341 -0.94683,0 -1.7147,-0.77917 -1.7147,-1.74 0,-0.56881 0.0015,-0.57175 1.343,-2.6537 0.72011,-1.1176 1.7263,-2.8216 3.0268,-5.126 0.94688,-1.6778 3.7378,-7.3084 4.5144,-9.1077 1.0913,-2.5284 3.413,-7.0615 4.7211,-9.2182 0.0216,-0.03561 -0.08213,-0.12753 -0.23051,-0.20427 l -0.26979,-0.13951 -1.541,1.7052 c -3.9208,4.3384 -6.0144,7.0675 -7.8531,10.237 -0.62159,1.0714 -0.81478,1.3064 -1.2137,1.4764 -0.37649,0.16042 -1.0464,0.1609 -1.4247,0.001 -0.69539,-0.2939 -1.2253,-1.1626 -1.1234,-1.8418 0.09226,-0.61524 2.4837,-4.4217 4.312,-6.8635 1.3825,-1.8464 3.7785,-4.6027 5.7717,-6.6395 l 0.67179,-0.68651 -0.26162,-0.54921 c -0.34022,-0.7142 -0.64883,-1.7216 -0.64883,-2.1179 0,-0.35712 0.20682,-0.90492 0.43828,-1.1609 0.26429,-0.29226 0.81429,-0.51994 1.256,-0.51994 0.79242,0 1.2162,0.39155 1.6575,1.5316 0.55746,1.4399 1.7119,2.5323 3.1858,3.0144 0.6084,0.19902 0.96146,0.24931 1.9931,0.28385 1.46,0.04889 2.1131,-0.04361 3.4487,-0.48852 1.2012,-0.40011 2.2314,-0.93514 3.1551,-1.6386 1.5072,-1.1478 1.5055,-1.1468 2.0153,-1.1461 0.8414,0.0011 1.1275,0.30888 1.7009,1.8301 0.21824,0.57896 0.46811,1.1556 0.55528,1.2815 0.08717,0.12586 0.25079,0.41115 0.3636,0.63398 0.47672,0.94165 -0.10934,1.9954 -1.1584,2.0829 -0.60185,0.05018 -1.0672,-0.22908 -1.5187,-0.91146 -0.19069,-0.28817 -0.39114,-0.52394 -0.44544,-0.52394 -0.0543,0 -0.2633,0.13034 -0.46445,0.28966 -0.34576,0.27385 -0.3625,0.30976 -0.30681,0.65803 0.08658,0.54147 0.57633,1.3955 1.0286,1.7935 0.51698,0.45506 1.4774,0.94692 2.2437,1.149 1.7045,0.44953 3.4236,-0.20948 3.8796,-1.4872 0.1651,-0.46264 0.16128,-1.6538 -0.0084,-2.627 -0.11267,-0.6461 -0.95921,-4.0912 -1.7322,-7.0493 -0.19198,-0.73472 -0.1795,-1.1029 0.0513,-1.5136 0.40258,-0.7163 1.3362,-0.93286 1.996,-0.46301 0.37029,0.26367 0.51436,0.55655 0.83435,1.6961 0.42904,1.5279 1.5274,5.9761 1.6957,6.8674 0.1522,0.80584 0.21754,2.3832 0.13651,3.2953 l -0.04066,0.45767 0.4068,-0.01941 c 0.89093,-0.0425 1.5982,-0.53365 1.8675,-1.2968 0.28182,-0.79876 0.10842,-2.1877 -0.54421,-4.3589 -0.98839,-3.2884 -1.6745,-5.5043 -2.0713,-6.69 -0.42184,-1.2605 -0.45354,-1.413 -0.36325,-1.7483 0.21178,-0.78648 0.98085,-1.2419 1.7483,-1.0352 0.72191,0.19439 0.9194,0.50851 1.5379,2.4462 2.0084,6.2916 2.3456,7.4774 2.6565,9.341 0.09471,0.5677 0.19839,1.0584 0.23042,1.0904 0.17081,0.17081 0.97145,-0.46429 1.3069,-1.0367 0.45228,-0.77176 0.45733,-1.4023 0.02259,-2.8214 -0.24513,-0.80017 -2.0284,-5.7941 -2.9578,-8.2834 -0.3809,-1.0201 -0.69255,-1.9965 -0.69255,-2.1697 0,-0.8475 0.87763,-1.5336 1.6708,-1.3061 0.1568,0.04497 0.30081,0.06603 0.32003,0.04681 0.01922,-0.01922 -0.09316,-0.26195 -0.24974,-0.53939 -0.7136,-1.2644 -1.6466,-1.8923 -2.9218,-1.9661 -1.7909,-0.10367 -12.202,1.3892 -17.675,2.5345 -4.4471,0.93054 -7.9851,2.0322 -9.7618,3.0398 -1.7929,1.0167 -2.8903,2.4517 -6.8528,8.9604 -1.9094,3.1363 -4.0742,6.2314 -6.3063,9.0162 -1.1493,1.4339 -3.9344,4.736 -4.5936,5.4463 -0.21023,0.22655 -0.7234,0.80322 -1.1404,1.2815 -0.41697,0.47827 -1.2984,1.4462 -1.9587,2.1511 -1.7375,1.8547 -2.6467,2.886 -3.5636,4.0424 -3.567,4.4988 -5.8572,8.8697 -7.2582,13.853 -0.56159,1.9974 -0.6592,2.3823 -1.1258,4.4394 -1.425,6.2818 -2.369,9.5232 -3.5722,12.266 -0.75216,1.7144 -0.77564,1.8021 -0.77262,2.8834 0.0033,1.1706 0.16881,1.683 0.89603,2.7737 0.74923,1.1237 3.6064,3.8603 5.1118,4.896 1.5402,1.0597 3.2345,1.5754 6.3648,1.9372 4.1963,0.48501 8.2724,0.23874 12.107,-0.7315 1.6501,-0.41749 3.9859,-1.2163 5.4888,-1.8771 1.0818,-0.47562 1.6633,-0.4217 2.3186,0.21499 0.39275,0.38161 0.66019,1.1165 0.56124,1.5423 -0.11411,0.49098 -0.49412,1.0294 -0.88802,1.2583 -0.80501,0.46766 -4.4611,1.7887 -6.0997,2.2039 -1.1011,0.27904 -3.4474,0.74445 -4.171,0.82736 -0.54749,0.0627 -0.5475,0.0627 -0.29172,0.19676 0.36063,0.18895 2.1364,0.94838 3.8599,1.6507 2.474,1.0082 7.4067,2.6026 9.7485,3.1511 4.6898,1.0984 9.7796,1.5639 13.868,1.2682 3.7965,-0.27459 6.4358,-0.72043 11.9,-2.0101 1.46,-0.34463 2.8279,-0.65409 3.0397,-0.68771 0.40704,-0.0646 0.43185,-0.0987 0.53304,-0.73282 0.08648,-0.542 0.29806,-1.5726 0.451,-2.1968 0.21081,-0.86045 0.24845,-0.80865 -0.79715,-1.0971 -2.0354,-0.56144 -4.4164,-1.5256 -4.8821,-1.977 -1.0828,-1.0495 -0.25721,-3.013 1.2668,-3.013 0.23706,0 0.85057,0.19581 1.7332,0.55317 2.2512,0.91149 4.3276,1.4949 6.8022,1.911 1.2761,0.21463 3.1662,0.44718 3.8902,0.47866 0.59002,0.0257 0.56789,0.18109 0.22218,-1.5607 -0.60692,-3.0578 -1.3392,-4.9976 -2.5592,-6.779 l -0.51991,-0.75915 0.03483,-0.61635 c 0.04269,-0.75556 0.29522,-1.1734 0.91226,-1.5094 0.88452,-0.48171 1.6855,-0.23413 2.4333,0.7521 1.8101,2.3872 2.7064,4.962 3.6249,10.413 l 0.216,1.2819 1.5679,3.0903 c 1.3674,2.6952 2.7665,5.5593 3.5202,7.2066 0.1267,0.27689 0.39958,0.86629 0.60641,1.3098 0.20683,0.44349 0.37605,0.82069 0.37605,0.83823 0,0.0175 0.17865,0.41671 0.39701,0.88705 0.21835,0.47033 0.61477,1.3395 0.88093,1.9314 1.1909,2.6486 2.4318,4.4307 4.5747,6.57 1.5687,1.566 2.4265,2.2562 3.9685,3.193 2.5316,1.538 4.8422,2.3928 7.8298,2.8966 1.652,0.27855 1.8299,0.33537 2.2103,0.70581 0.77776,0.75732 0.75437,1.9163 -0.053,2.6252 -0.49533,0.4349 -0.89717,0.49773 -2.0823,0.32558 -4.047,-0.58787 -7.8564,-2.075 -11.041,-4.3102 -1.0426,-0.7318 -1.029,-0.72078 -2.5265,-2.0503 -2.7643,-2.4542 -4.8509,-5.4086 -6.5309,-9.2469 -0.12119,-0.27689 -0.60994,-1.3478 -1.0861,-2.3799 -0.47617,-1.0321 -0.984,-2.1341 -1.1285,-2.449 -0.3283,-0.71534 -3.8311,-7.7107 -4.1225,-8.2329 -0.24534,-0.43969 -0.35088,-0.48239 -1.1965,-0.48411 -0.52587,-10e-4 -3.4425,-0.33574 -4.4775,-0.51377 l -0.33281,-0.0573 -0.24592,1.0285 c -0.13526,0.56567 -0.28412,1.2499 -0.33082,1.5206 -0.04669,0.27066 -0.12393,0.71869 -0.17164,0.99563 -0.04989,0.2896 -0.05333,0.61042 -0.0081,0.75516 0.34151,1.0927 0.85422,2.8085 1.1009,3.6842 1.3045,4.6317 3.7789,11.596 5.3332,15.012 0.08019,0.1762 0.27732,0.6293 0.43807,1.0069 0.53326,1.2526 2.7206,5.6026 3.7282,7.4143 0.88208,1.586 3.1673,5.4342 3.5877,6.0413 0.08715,0.12586 0.31685,0.51479 0.51045,0.86428 0.34526,0.62327 0.35335,0.6304 0.42247,0.37196 0.03876,-0.14492 0.11812,-1.0347 0.17636,-1.9773 0.17486,-2.83 -0.06341,-6.5595 -0.51699,-8.0921 -0.27291,-0.92211 0.06463,-1.7665 0.86901,-2.174 0.53839,-0.2727 0.78316,-0.30192 1.308,-0.15616 0.77898,0.21634 1.1443,0.79112 1.4434,2.2709 0.31934,1.5801 0.46393,3.447 0.46539,6.009 0.0019,3.2816 -0.20878,5.876 -0.79528,9.7942 -0.12811,0.85586 -0.21126,1.6797 -0.18478,1.8307 1.3392,7.6388 1.8017,12.96 1.7933,20.632 -0.002,1.9938 -0.0391,4.1694 -0.082,4.8346 -0.0905,1.4023 -0.21914,1.7062 -0.90742,2.1426 -0.50439,0.31988 -1.1586,0.35171 -1.6703,0.0813 z M 85.471,75.97 c 0.40572,-0.68682 0.37459,-1.4657 -0.11001,-2.753 -0.3737,-0.99271 -3.3009,-6.0377 -3.5047,-6.0404 -0.03497,-4.73e-4 0.03152,0.21539 0.14776,0.4797 0.11624,0.26431 0.34545,0.83068 0.50936,1.2586 0.16391,0.42792 0.35159,0.90162 0.41708,1.0526 0.14994,0.34579 1.9063,5.3568 2.0613,5.8811 0.13516,0.45712 0.26197,0.48925 0.47926,0.12141 z m 80.115,144.5 c -0.19928,-0.11287 -0.4818,-0.37521 -0.62782,-0.58297 -0.25569,-0.3638 -0.2701,-0.44149 -0.39049,-2.1045 -0.33282,-4.5974 -0.3316,-13.374 0.002,-17.15 0.23967,-2.7102 0.32105,-3.4081 0.64575,-5.5379 0.32362,-2.1227 1.1448,-5.4644 1.597,-6.499 0.044,-0.10069 0.43526,-1.151 0.86944,-2.3341 0.43417,-1.1831 0.82871,-2.2334 0.87676,-2.3341 0.28446,-0.59619 1.3208,-3.9008 1.7223,-5.4921 0.46761,-1.8532 0.54579,-2.7231 0.48277,-5.3717 l -0.0559,-2.351 -0.7412,0.7034 c -2.6605,2.5248 -5.5244,4.097 -9.5107,5.2211 -2.136,0.60234 -3.9014,0.83842 -6.7278,0.8997 -2.6192,0.0568 -2.8736,0.0219 -3.4531,-0.47418 -0.72683,-0.62214 -0.84707,-1.5645 -0.29658,-2.3244 0.50304,-0.69443 0.66857,-0.73267 3.3524,-0.77447 2.4793,-0.0386 3.3038,-0.12798 5.3402,-0.57872 2.6954,-0.59663 5.3962,-1.8051 7.4143,-3.3176 3.1973,-2.3962 5.289,-5.5128 6.9045,-10.288 0.50902,-1.5046 0.73364,-2.4969 0.96166,-4.2486 0.18623,-1.4306 0.29729,-1.7108 0.85769,-2.1637 0.29591,-0.23918 0.44073,-0.28665 0.96111,-0.31504 0.5571,-0.0304 0.64935,-0.009 1.0166,0.23954 0.55996,0.37847 0.83079,0.85493 0.83138,1.4626 6.9e-4,0.70413 -0.17039,2.1324 -0.3745,3.1266 l -0.17753,0.86477 0.43644,0.44745 c 0.54126,0.55493 2.5867,2.1852 3.869,3.0837 1.1975,0.83906 2.0242,1.4652 2.1755,1.6477 0.42151,0.50836 0.4986,1.3122 0.18155,1.8929 -0.51508,0.94344 -1.4844,1.2888 -2.3372,0.83277 -0.78843,-0.42171 -4.231,-2.9726 -5.1737,-3.8336 -0.35937,-0.32823 -0.40105,-0.32727 -0.47533,0.0109 -0.0331,0.15046 -0.0981,0.29706 -0.14458,0.32578 -0.0465,0.0287 -0.0845,0.12486 -0.0845,0.21364 0,0.0888 -0.18116,0.53366 -0.40259,0.9886 -0.39306,0.80758 -0.4066,0.86594 -0.57209,2.4648 -0.2372,2.2917 -0.23838,8.224 -0.002,10.242 0.78181,6.6752 2.2901,12.234 4.5106,16.625 0.7531,1.4891 1.3269,2.4075 2.2142,3.544 1.047,1.341 1.0855,1.5236 0.70792,3.3566 -0.53832,2.6132 -1.0778,7.2779 -1.232,10.652 -0.0428,0.93755 -0.0515,2.755 -0.0193,4.0388 0.0943,3.7579 0.0866,4.0192 -0.13088,4.4394 -0.27541,0.53229 -0.94607,0.96112 -1.5031,0.96112 -0.741,0 -1.3725,-0.38472 -1.7133,-1.0438 -0.30252,-0.585 -0.36631,-6.3782 -0.11198,-10.169 0.12086,-1.8015 0.42444,-4.8107 0.5956,-5.904 0.28586,-1.8258 0.60088,-3.6797 0.64466,-3.7938 0.0251,-0.0654 -0.24665,-0.52236 -0.60385,-1.0155 -1.1069,-1.5282 -2.4354,-3.9971 -3.3265,-6.1821 -0.8128,-1.9928 -2.3505,-6.9522 -2.3505,-7.5807 0,-0.3753 -0.16355,-0.18314 -0.44,0.51697 -0.62102,1.5727 -1.5699,4.1468 -1.832,4.97 -1.0965,3.4431 -1.7929,8.085 -2.0043,13.36 -0.10128,2.5273 -0.0663,9.4406 0.0577,11.396 0.17682,2.7891 0.22017,3.9453 0.1573,4.1957 -0.0836,0.3331 -0.56697,0.86037 -0.9836,1.0729 -0.47533,0.2425 -1.1276,0.22994 -1.5875,-0.0306 z m -103.3,-80.403 c -5.2278,-0.29165 -9.3661,-1.9367 -13.776,-5.4761 -1.184,-0.95035 -1.4231,-1.2042 -1.5872,-1.6854 -0.37914,-1.1114 0.49095,-2.2893 1.6957,-2.2956 0.56022,-0.003 0.71295,0.079 1.8654,1.001 3.3777,2.7022 6.6039,4.1983 10.166,4.7143 1.1096,0.16072 3.3851,0.18421 4.6108,0.0476 2.7064,-0.30165 5.5361,-1.1926 8.5585,-2.6947 1.1453,-0.56919 1.2711,-0.61134 1.7195,-0.57577 1.1955,0.0949 1.9987,1.3866 1.5419,2.4798 -0.19437,0.46519 -0.77072,0.89113 -2.0926,1.5465 -2.8006,1.3885 -5.3829,2.2278 -8.217,2.6708 -1.3205,0.20643 -3.3795,0.32926 -4.4852,0.26757 z m -38.765,-2.0846 c -2.0326,-0.46413 -3.6323,-1.7042 -4.5284,-3.5102 -0.69832,-1.4075 -0.54585,-2.5313 0.42022,-3.0975 0.56177,-0.32922 1.2493,-0.32789 1.8148,0.004 0.48243,0.28272 0.61172,0.45608 0.91248,1.2235 0.27864,0.71101 0.62273,1.1602 1.1054,1.4431 0.48371,0.28348 1.1812,0.49682 1.6285,0.4981 0.97567,0.003 1.7976,0.81923 1.8029,1.7908 0.0028,0.50834 -0.37205,1.2221 -0.79052,1.5054 -0.28227,0.19112 -0.45982,0.23212 -1.0771,0.24875 -0.40651,0.011 -0.98626,-0.0365 -1.2883,-0.1055 z m -0.77673,-11.053 c -0.22582,-0.11656 -0.54505,-0.3902 -0.70939,-0.60807 -0.27704,-0.3673 -0.2988,-0.44732 -0.2988,-1.099 0,-1.3041 0.34664,-3.7834 0.78213,-5.5943 0.98285,-4.0868 2.6989,-7.9299 5.106,-11.435 0.88545,-1.2894 2.182,-2.9458 2.5779,-3.2934 0.53899,-0.47324 1.2145,-0.58284 1.8316,-0.29717 0.98594,0.45647 1.3805,1.581 0.8641,2.4628 -0.09734,0.16621 -0.48539,0.68961 -0.86234,1.1631 -0.92913,1.1671 -2.3906,3.3663 -3.1136,4.6855 -1.0998,2.0066 -2.2505,4.8772 -2.7629,6.8929 -0.4089,1.6084 -0.75192,3.6378 -0.81939,4.8479 -0.06784,1.2167 -0.29582,1.7937 -0.85484,2.1636 -0.53328,0.35291 -1.1909,0.39494 -1.7405,0.11126 z m 115.93,-0.73533 c -0.19928,-0.11574 -0.48762,-0.3887 -0.64074,-0.60657 -0.23724,-0.33754 -0.27841,-0.47957 -0.27841,-0.96034 0,-0.48568 0.0592,-0.68523 0.42562,-1.4338 1.0031,-2.0494 2.2279,-5.2634 3.1569,-8.2839 0.28352,-0.92181 1.4374,-5.1617 1.7686,-6.499 0.29311,-1.1832 0.44683,-1.5117 0.85201,-1.8208 0.8644,-0.65931 2.1402,-0.37478 2.6307,0.58671 0.24269,0.47571 0.23007,0.98429 -0.0526,2.1207 -0.12917,0.51923 -0.3136,1.262 -0.40985,1.6506 -0.79639,3.2154 -2.3094,8.0408 -3.2655,10.415 -1.7705,4.3961 -2.1306,4.9504 -3.2558,5.0111 -0.46356,0.025 -0.63567,-0.008 -0.93102,-0.17973 z"
         clip-path="url(#clipPath1)"
         id="arms" /></g></g></svg>
