<?xml version="1.0" encoding="UTF-8" standalone="no"?>
<!-- Created with Inkscape (http://www.inkscape.org/) -->

<svg
   width="33.867027mm"
   height="33.866665mm"
   viewBox="0 0 33.867027 33.866665"
   version="1.1"
   id="svg1"
   xml:space="preserve"
   xmlns="http://www.w3.org/2000/svg"
   xmlns:svg="http://www.w3.org/2000/svg"><defs
     id="defs1" /><g
     id="layer1"
     transform="translate(-88.066671,-131.56667)"><g
       id="g18"><path
         d="m 102.69893,164.92819 c -0.87969,-0.75585 -1.80357,-1.20214 -3.269106,-1.57916 -0.946127,-0.2434 -2.488916,-0.17114 -2.592211,0.12141 -0.01651,0.0467 -0.09994,0.43615 -0.185398,0.86545 -0.08546,0.4293 -0.180055,0.8199 -0.210214,0.86801 -0.115042,0.18348 -0.460659,0.24779 -0.654847,0.12184 -0.272919,-0.17698 -0.245813,-0.54799 0.165463,-2.26465 0.271001,-1.13113 0.481341,-2.27113 0.52701,-2.85653 0.0499,-0.63946 -0.191267,-2.74398 -0.386835,-3.37585 -0.03002,-0.097 -0.225266,-0.39852 -0.433887,-0.67006 -1.363237,-1.77452 -2.40503,-4.4461 -2.557855,-6.5586 -0.03541,-0.49008 -0.04133,-0.50659 -0.247954,-0.69088 l -0.21167,-0.1888 -0.826411,0.26709 c -0.961833,0.31084 -1.373589,0.47226 -1.755337,0.68808 -0.451311,0.25516 -0.786431,0.81262 -1.020866,1.69822 -0.07701,0.29091 -0.185263,0.57161 -0.24057,0.62378 -0.243403,0.22956 -0.731571,0.0129 -0.731571,-0.3247 0,-0.34078 0.294181,-1.16702 0.61306,-1.72188 l 0.318543,-0.55424 -0.04295,-0.42829 c -0.110272,-1.09965 0.237625,-2.51679 0.845241,-3.44307 0.459187,-0.7 1.28417,-1.36424 2.129857,-1.71485 0.908892,-0.37681 1.81031,-0.51844 2.967022,-0.46613 l 0.721219,0.0326 0.670977,-0.34185 c 0.369031,-0.18802 1.172039,-0.54545 1.784429,-0.79429 0.612391,-0.24884 1.486724,-0.61115 1.942921,-0.80514 l 0.82947,-0.35271 0.0311,-0.75578 c 0.0171,-0.41568 0.0215,-0.80114 0.01,-0.85656 -0.0118,-0.0554 -0.13559,-0.16061 -0.27513,-0.23376 -0.839397,-0.43998 -1.598498,-2.12373 -1.333231,-2.95727 0.08814,-0.27695 0.37829,-0.54731 0.682132,-0.63561 l 0.236109,-0.0686 0.0362,-0.62208 c 0.0433,-0.7439 0.11051,-0.99398 0.41381,-1.53965 0.40678,-0.73182 1.18143,-1.28909 2.19273,-1.57741 0.6921,-0.19731 1.25615,-0.26745 2.16812,-0.26956 1.67832,-0.004 2.83048,0.32553 3.69411,1.0563 0.71004,0.60081 1.02481,1.2818 1.07206,2.31931 l 0.0301,0.66156 0.22556,0.0577 c 0.32468,0.083 0.56793,0.31471 0.6832,0.65074 0.0827,0.24118 0.0881,0.34617 0.0339,0.66692 -0.16139,0.95513 -0.72965,1.87074 -1.40841,2.26942 l -0.26322,0.15458 0.0205,1.65218 0.48491,0.2238 c 0.2667,0.12309 0.92083,0.39395 1.4536,0.60195 1.39193,0.54335 2.06105,0.84437 2.89496,1.30231 l 0.45059,0.24743 0.4027,-0.0599 c 0.85711,-0.12741 2.29326,0.0425 3.1696,0.37487 1.00333,0.38057 1.88375,1.11736 2.4173,2.02299 0.55146,0.93605 0.8705,2.45986 0.69782,3.33319 -0.0698,0.35292 -0.068,0.36482 0.0861,0.57314 0.33483,0.45274 0.69179,1.28439 0.76952,1.79283 0.057,0.37291 -0.1216,0.61924 -0.45149,0.62269 -0.23214,0.002 -0.33024,-0.13237 -0.45758,-0.62882 -0.25583,-0.99727 -0.61589,-1.5662 -1.17454,-1.85587 -0.40888,-0.21201 -1.12347,-0.4787 -1.90626,-0.71139 l -0.56304,-0.16737 -0.49723,0.39592 v 0.45219 c 0,0.99055 -0.47378,2.8072 -1.07693,4.1292 -0.33099,0.72553 -1.06497,1.94359 -1.51321,2.51128 -0.42231,0.53483 -0.41229,0.49916 -0.65935,2.35092 -0.19879,1.49 -0.12602,2.18524 0.50488,4.82296 0.14397,0.60195 0.2793,1.24058 0.30074,1.41917 0.0365,0.30384 0.0292,0.33311 -0.11356,0.45493 -0.15896,0.13568 -0.3805,0.16688 -0.57004,0.0803 -0.14354,-0.0656 -0.25786,-0.38567 -0.42235,-1.18255 -0.0885,-0.42876 -0.16976,-0.68286 -0.2366,-0.73991 -0.14287,-0.12195 -0.47354,-0.1955 -1.02962,-0.22902 -0.58178,-0.0351 -1.07003,0.033 -1.90251,0.26522 -1.31668,0.36727 -2.37335,0.92447 -3.00517,1.58472 -0.18732,0.19573 -0.39476,0.36747 -0.46095,0.38166 -0.19223,0.0412 -0.43304,-0.0631 -0.47499,-0.20573 -0.0669,-0.2274 0.10107,-0.44137 0.83112,-1.05892 l 0.7148,-0.60463 0.31305,-0.68021 c 0.38412,-0.83463 0.93509,-1.74546 1.51524,-2.50499 0.24099,-0.31549 0.43817,-0.59224 0.43817,-0.61497 0,-0.0719 -0.83355,-1.4148 -0.87822,-1.4148 -0.0235,0 -0.42349,0.55702 -0.88897,1.23782 -0.48301,0.70648 -0.90909,1.27295 -0.99257,1.31965 -0.13031,0.0729 -0.16323,0.0737 -0.30179,0.008 -0.0855,-0.0409 -0.16376,-0.12285 -0.17382,-0.18222 -0.0407,-0.24002 0.52233,-1.18338 1.8674,-3.12904 0.9725,-1.40671 1.40654,-2.20353 1.91118,-3.5082 0.21248,-0.54942 0.93249,-2.77007 0.93249,-2.87595 0,-0.005 -0.27227,-0.0223 -0.60505,-0.0374 -0.62727,-0.0285 -0.95284,-0.0999 -1.54078,-0.33805 l -0.34543,-0.1399 -0.15631,0.2262 c -0.086,0.12441 -0.63202,0.8414 -1.21342,1.5933 -1.3739,1.77676 -1.78503,2.34692 -2.00298,2.7775 l -0.17866,0.35305 -0.039,3.10809 c -0.035,2.79026 -0.0491,3.12143 -0.1381,3.23721 -0.12136,0.1581 -0.3977,0.17429 -0.56321,0.033 -0.1078,-0.092 -0.11371,-0.22789 -0.13753,-3.16179 -0.0246,-3.02507 -0.0266,-3.06982 -0.15822,-3.39318 -0.19101,-0.46916 -0.58905,-1.04724 -1.80551,-2.6221 -0.58952,-0.76325 -1.18561,-1.55117 -1.32462,-1.75092 -0.13902,-0.19975 -0.27725,-0.36318 -0.30714,-0.36318 -0.0299,0 -0.11518,0.034 -0.18949,0.0756 -0.33229,0.18585 -1.011303,0.33572 -1.649417,0.3641 -0.55396,0.0246 -0.632692,0.0389 -0.600186,0.10925 0.02059,0.0445 0.103195,0.30765 0.183583,0.58477 0.670709,2.31227 1.31931,3.75558 2.41151,5.36609 1.75792,2.59258 2.13998,3.24654 2.0563,3.51962 -0.0162,0.0527 -0.0968,0.12208 -0.17919,0.15412 -0.23305,0.0906 -0.37175,-0.0238 -0.80064,-0.66066 -0.21091,-0.31317 -0.59664,-0.87217 -0.8572,-1.24223 -0.462,-0.65616 -0.47583,-0.66989 -0.55865,-0.55424 -0.2215,0.30938 -0.811263,1.26285 -0.811263,1.31157 0,0.0302 0.169433,0.27297 0.376513,0.53946 0.64991,0.83638 1.14663,1.65083 1.55537,2.55031 0.31542,0.69416 0.37403,0.76835 1.04849,1.32734 0.34585,0.28664 0.67994,0.59273 0.74243,0.68021 0.20301,0.28417 0.11606,0.51052 -0.21758,0.56643 -0.17188,0.0288 -0.22464,-0.004 -0.79689,-0.49572 z m -1.58681,-1.87418 c 0,-0.0125 -0.10328,-0.22594 -0.22953,-0.47438 -0.48098,-0.94658 -1.195106,-1.91921 -2.373125,-3.23188 -0.435359,-0.48519 -0.894367,-1.00209 -1.019996,-1.14865 -0.125632,-0.14656 -0.238986,-0.25744 -0.251903,-0.24642 -0.01292,0.011 0.02197,0.26718 0.07752,0.56921 0.06628,0.36034 0.100295,0.83502 0.09892,1.38053 -0.002,0.79095 -0.08217,1.35273 -0.351563,2.46328 l -0.04143,0.17081 0.230397,-0.0448 c 0.126714,-0.0247 0.535866,-0.0426 0.909226,-0.0399 0.791942,0.006 1.43483,0.12352 2.302184,0.42166 0.58084,0.19965 0.64931,0.21869 0.64931,0.18055 z m 8.34688,-0.156 c 0.85145,-0.29306 1.52186,-0.42808 2.27831,-0.45879 0.38907,-0.0158 0.79154,-0.005 0.94287,0.025 0.14522,0.0289 0.27085,0.0467 0.27919,0.0396 0.008,-0.007 -0.0503,-0.29883 -0.13037,-0.64823 -0.27799,-1.21341 -0.31986,-2.20295 -0.1418,-3.35032 0.0354,-0.22799 0.0553,-0.43736 0.0442,-0.46526 -0.022,-0.0555 -0.66747,0.62619 -1.52284,1.60827 -1.01605,1.16653 -1.51941,1.87247 -2.00831,2.81654 -0.29229,0.56439 -0.31388,0.61188 -0.27828,0.61188 0.01,0 0.25164,-0.0804 0.53714,-0.17866 z m -9.792131,-4.09188 c 0.13047,-0.21458 0.353241,-0.57151 0.495041,-0.79322 l 0.25784,-0.40309 -1.285245,-2.10908 -0.383689,-0.10965 c -0.81182,-0.232 -1.84895,-0.78609 -2.365987,-1.26401 -0.325996,-0.30135 -0.641483,-0.69854 -0.658572,-0.82916 -0.02912,-0.22242 0.176026,-0.16431 0.796292,0.22558 0.332733,0.20913 0.775678,0.46555 0.984345,0.56982 0.408118,0.20391 1.198833,0.52341 1.229867,0.49692 0.01042,-0.009 -0.07791,-0.28543 -0.196269,-0.6145 -0.118357,-0.32909 -0.239097,-0.66847 -0.268279,-0.75418 -0.04239,-0.12442 -0.102276,-0.16841 -0.297104,-0.21824 -0.42996,-0.10996 -1.268731,-0.43975 -1.624243,-0.63864 -0.46994,-0.26292 -1.078337,-0.79471 -1.281939,-1.12058 -0.277426,-0.44402 -0.14859,-0.43796 0.68405,0.0321 0.638003,0.36019 1.70012,0.8354 2.103487,0.94111 0.11641,0.0305 0.133345,0.0214 0.105605,-0.0568 -0.04795,-0.13521 -0.257258,-0.82614 -0.297416,-0.98181 -0.02631,-0.10199 -0.08037,-0.14024 -0.23265,-0.16463 -0.556526,-0.0891 -2.222288,-0.73616 -2.998256,-1.16462 -0.23024,-0.12714 -0.43005,-0.22142 -0.444016,-0.2095 -0.04842,0.0413 0.227653,1.32233 0.425409,1.97386 0.647975,2.13516 1.459796,3.47449 3.703925,6.11031 0.465501,0.54678 0.935418,1.10186 1.044247,1.23349 0.108827,0.13163 0.213285,0.23916 0.232137,0.23897 0.01885,-1.9e-4 0.141013,-0.17591 0.271492,-0.39048 z m 11.161971,0.12632 c 0.12285,-0.14548 0.61159,-0.71799 1.0861,-1.27224 1.4092,-1.64599 1.87388,-2.26237 2.4501,-3.24997 0.54401,-0.93233 0.89477,-1.75802 1.24151,-2.92242 0.13786,-0.46291 0.44676,-1.82397 0.41939,-1.84781 -0.006,-0.005 -0.27546,0.12912 -0.59992,0.29759 -0.76559,0.39756 -1.42566,0.66251 -2.30173,0.92392 l -0.70835,0.21138 -0.18817,0.57169 c -0.1035,0.31443 -0.1774,0.58088 -0.16423,0.59214 0.0812,0.0693 1.45971,-0.53269 2.24083,-0.97859 0.5086,-0.29034 0.70159,-0.37611 0.75114,-0.33381 0.21933,0.18721 -0.84857,1.17567 -1.73916,1.60976 -0.35282,0.17198 -1.19525,0.46531 -1.33629,0.46531 -0.0648,0 -0.13633,0.0254 -0.15883,0.0565 -0.0529,0.073 -0.55552,1.52295 -0.53426,1.5411 0.009,0.008 0.23756,-0.0777 0.50825,-0.1894 0.52176,-0.21538 1.29345,-0.62807 1.83083,-0.97912 0.4458,-0.29124 0.5872,-0.35111 0.66743,-0.28261 0.18435,0.15736 -0.61799,0.99508 -1.46432,1.52889 -0.45508,0.28704 -1.29553,0.66573 -1.75672,0.79155 -0.21024,0.0574 -0.24354,0.0983 -0.6302,0.77448 -0.22453,0.39266 -0.50662,0.8633 -0.62684,1.04585 l -0.21862,0.33193 0.47989,0.72923 c 0.26393,0.40108 0.47989,0.7562 0.47989,0.78917 0,0.10053 0.0402,0.0704 0.27234,-0.20461 z m -4.08141,-6.48717 c 2.06935,-2.67981 2.48646,-3.45488 3.158,-5.86998 0.13101,-0.47112 0.25476,-0.9083 0.27499,-0.97153 0.0353,-0.11031 0.0263,-0.1136 -0.22146,-0.0813 -0.39213,0.0512 -1.21033,0.26032 -1.48737,0.38017 -0.13564,0.0587 -0.35781,0.17448 -0.49375,0.25735 -0.28865,0.17596 -0.49082,0.16264 -0.59869,-0.0394 -0.17864,-0.33467 0.48582,-0.80899 1.5819,-1.12919 0.21003,-0.0614 0.83426,-0.17562 1.38717,-0.25392 1.08628,-0.15384 1.58996,-0.25246 2.09733,-0.41069 0.44752,-0.13957 1.07238,-0.44317 1.03066,-0.50077 -0.085,-0.1174 -1.29758,-0.67047 -2.59489,-1.18358 -1.7438,-0.68968 -1.8477,-0.73502 -2.36219,-1.031 -0.81066,-0.46643 -1.44712,-1.18205 -1.85788,-2.08888 -0.21834,-0.48207 -0.19794,-0.64988 0.0864,-0.7108 0.24524,-0.0525 0.40342,0.0864 0.75998,0.66757 0.18419,0.30022 0.42344,0.6351 0.53167,0.74415 l 0.19677,0.19828 0.0385,-0.90369 c 0.0211,-0.49704 0.0551,-1.01013 0.0755,-1.14022 0.0473,-0.30157 0.21315,-0.46413 0.42759,-0.41895 0.21289,0.0448 0.23977,0.0752 0.29351,0.33158 l 0.0468,0.22313 0.12913,-0.17635 c 0.36687,-0.50103 0.68706,-1.43795 0.60643,-1.77451 -0.0486,-0.20274 -0.18264,-0.23311 -0.41247,-0.0934 -0.22725,0.13812 -0.4524,0.13449 -0.56259,-0.009 -0.0722,-0.0941 -0.0764,-0.17796 -0.0246,-0.49127 0.10173,-0.61503 0.0338,-1.52114 -0.14492,-1.93368 -0.37269,-0.86016 -1.06587,-1.34971 -2.27006,-1.60316 -0.75591,-0.15911 -2.13369,-0.15928 -2.87265,-3.8e-4 -1.3436,0.28896 -2.0893,0.88979 -2.37335,1.91235 -0.0766,0.27567 -0.0877,0.50924 -0.0586,1.23288 0.0341,0.84688 0.0301,0.89544 -0.0779,0.94473 -0.18302,0.0836 -0.44817,0.0607 -0.56425,-0.0488 -0.13472,-0.12708 -0.24427,-0.1282 -0.32258,-0.003 -0.15036,0.23982 0.0354,0.98516 0.39897,1.60124 0.25779,0.43678 0.36631,0.51233 0.36631,0.25499 0,-0.30403 0.28747,-0.47167 0.52255,-0.30471 0.15775,0.11203 0.22752,0.50779 0.28294,1.60502 l 0.0401,0.79471 0.19417,-0.19741 c 0.10679,-0.10857 0.35859,-0.46441 0.55953,-0.79072 0.38438,-0.62419 0.49747,-0.71242 0.75964,-0.59264 0.20312,0.0928 0.23468,0.24607 0.11291,0.54819 -0.20069,0.49791 -0.52261,1.00674 -0.87942,1.39001 -0.62845,0.67503 -1.36355,1.09441 -2.920615,1.66615 -1.239216,0.45505 -3.157997,1.30254 -3.157997,1.39483 0,0.0736 1.057053,0.49298 1.549705,0.61484 0.269685,0.0667 0.781724,0.1595 1.137883,0.2062 1.785104,0.23409 2.757304,0.53518 3.274454,1.01403 0.2692,0.24928 0.30331,0.42677 0.1048,0.54545 -0.18399,0.11 -0.20645,0.10541 -0.7294,-0.14921 -0.55936,-0.27234 -0.93794,-0.39834 -1.48012,-0.49258 -0.375954,-0.0653 -0.405403,-0.0641 -0.422292,0.018 -0.02685,0.13061 0.540782,2.0588 0.823272,2.79654 0.43714,1.14172 1.21623,2.3574 2.82334,4.40534 0.33706,0.42955 0.69741,0.90061 0.8008,1.04683 l 0.18796,0.26584 0.0364,-3.44021 c 0.0397,-3.74853 0.0677,-4.18843 0.2752,-4.33202 0.16313,-0.11276 0.19138,-0.11273 0.35502,3.8e-4 0.1212,0.0838 0.13572,0.1518 0.1801,0.84397 0.0266,0.41406 0.0499,2.16963 0.0518,3.90126 l 0.004,3.14827 0.22544,-0.32671 c 0.124,-0.17969 0.6194,-0.83686 1.1009,-1.46039 z m -2.0675,-7.61132 c -0.10275,-0.0969 -0.10902,-0.19594 -0.0934,-1.4738 0.0183,-1.49926 0.08,-2.31969 0.18213,-2.42481 0.10985,-0.11298 0.29084,-0.12526 0.42988,-0.0292 0.11939,0.0825 0.13479,0.15112 0.17145,0.76372 0.0222,0.37017 0.0427,1.19715 0.0457,1.83774 0.005,1.10572 -6.7e-4,1.1714 -0.11693,1.29743 -0.1543,0.16744 -0.45696,0.18156 -0.61884,0.0289 z m -4.716359,5.42226 c 0.261229,-0.0744 0.511819,-0.15463 0.556819,-0.17838 0.0658,-0.0347 0.0233,-0.15005 -0.21713,-0.58875 -0.45042,-0.82196 -0.76216,-1.70211 -1.230203,-3.47335 l -0.161209,-0.61012 -0.47844,-0.0877 c -1.019349,-0.18698 -1.830723,-0.49931 -2.693723,-1.03692 l -0.325125,-0.20255 -0.707878,-0.004 c -0.389333,-0.002 -0.880535,0.0224 -1.091567,0.0543 -1.941403,0.29304 -3.16045,1.37492 -3.600851,3.1955 -0.099,0.40932 -0.252863,1.5459 -0.213783,1.57924 0.0083,0.007 0.278966,-0.0859 0.601459,-0.20677 0.322492,-0.12082 0.93167,-0.32622 1.353733,-0.45646 2.455004,-0.75759 4.365196,-1.5564 5.50792,-2.3035 0.204851,-0.13391 0.407762,-0.24347 0.450932,-0.24347 0.04316,0 0.138548,0.0415 0.21197,0.0923 0.209184,0.14458 0.113733,0.33191 -0.381101,0.74791 -0.675037,0.56752 -1.908942,1.19112 -3.382436,1.70945 -0.285145,0.1003 -0.529776,0.19142 -0.54363,0.2025 -0.07002,0.0559 1.335862,0.84213 2.056613,1.15012 1.855152,0.79272 3.13167,0.98933 4.287334,0.66035 z m 12.004849,0.0959 c 1.23875,-0.20059 2.88046,-0.86243 4.1334,-1.66633 l 0.36309,-0.23298 -0.57827,-0.19765 c -0.9095,-0.31085 -2.00267,-0.77631 -2.54023,-1.08158 -0.5748,-0.32646 -1.1647,-0.77799 -1.29292,-0.98962 -0.11385,-0.18792 -0.0613,-0.37614 0.12525,-0.4487 0.12827,-0.0499 0.1885,-0.0264 0.57391,0.22422 1.18406,0.76979 2.78653,1.43074 5.50702,2.27132 0.5844,0.18057 1.27188,0.40993 1.52778,0.50966 l 0.46525,0.18135 -0.0421,-0.46782 c -0.18889,-2.09841 -1.14796,-3.49753 -2.78787,-4.06732 -0.6726,-0.23364 -1.26973,-0.31557 -2.16256,-0.29673 l -0.7799,0.0164 -0.34886,0.24273 c -0.50097,0.34855 -1.40429,0.7072 -2.27273,0.90232 l -0.73429,0.16499 -0.0993,0.3527 c -0.64701,2.29856 -0.82621,2.81254 -1.29639,3.71749 l -0.28221,0.54316 0.21556,0.0924 c 0.69559,0.29805 1.43211,0.37147 2.30642,0.22991 z"
         id="back"
         style="stroke-width:0.206122" /></g></g></svg>
