<?xml version="1.0" encoding="UTF-8" standalone="no"?>
<!-- Created with Inkscape (http://www.inkscape.org/) -->

<svg
   width="33.866669mm"
   height="28.575001mm"
   viewBox="0 0 33.866669 28.575001"
   version="1.1"
   id="svg1"
   xml:space="preserve"
   xmlns="http://www.w3.org/2000/svg"
   xmlns:svg="http://www.w3.org/2000/svg"><defs
     id="defs1" /><g
     id="layer1"
     style="display:inline"
     transform="translate(-77.603949,-139.12873)"><g
       id="g17"
       style="display:inline"
       transform="matrix(1.0000004,0,0,0.843749,-10.462757,28.119495)"><path
         d="m 96.25466,165.38239 c -0.108376,-0.082 -0.140831,-0.1926 -0.170424,-0.58085 -0.05074,-0.66575 -0.120366,-1.51744 -0.143623,-1.75697 -0.03461,-0.35647 -0.171364,-1.46056 -0.24571,-1.9838 -0.06572,-0.46255 -0.297435,-1.83427 -0.421023,-2.49232 -0.08585,-0.45714 -0.294139,-1.72811 -0.356,-2.17229 -0.05055,-0.36299 -0.04644,-0.36631 -0.09777,0.0793 -0.02938,0.25509 -0.09768,0.73481 -0.168577,1.18403 -0.126663,0.8026 -0.393894,1.97055 -0.644824,2.81819 -0.15075,0.50926 -0.400638,1.2542 -0.446,1.32953 -0.125618,0.20864 -0.396142,0.1387 -0.473721,-0.12247 -0.05272,-0.17748 -0.04176,-0.30021 0.05084,-0.56898 0.240033,-0.69669 0.43034,-1.32021 0.56435,-1.84906 0.392236,-1.54798 0.683327,-3.6742 0.762182,-5.5675 l 0.01063,-0.25524 -0.08377,-0.25495 c -0.238508,-0.72584 -0.453716,-1.77467 -0.563283,-2.74516 -0.0522,-0.46238 -0.105201,-1.18912 -0.109074,-1.49568 -0.0028,-0.22269 3.81e-4,-0.25214 0.03522,-0.33018 0.08979,-0.20082 0.255807,-0.27261 0.381224,-0.16486 0.124166,0.10666 0.139931,0.17001 0.176554,0.70951 0.05781,0.8516 0.09774,1.23297 0.191356,1.82784 0.220485,1.40104 0.605139,2.50278 1.19155,3.41271 0.277469,0.43057 0.563512,0.76395 0.945784,1.10228 0.431007,0.38146 1.214318,0.73906 1.867734,0.85266 0.307647,0.0535 0.787788,0.0893 0.983982,0.0735 0.749293,-0.0606 1.146373,-0.15012 1.781843,-0.40187 0.73124,-0.28969 1.64527,-0.85806 2.21933,-1.38013 0.1904,-0.17313 0.27443,-0.21286 0.36843,-0.17417 0.25137,0.10345 0.30438,0.61242 0.0857,0.82298 -0.23487,0.22619 -0.69692,0.5852 -1.08415,0.8424 -1.23991,0.82351 -2.46434,1.21419 -3.669557,1.17081 -0.867596,-0.0312 -1.574147,-0.21814 -2.235527,-0.59135 -0.500126,-0.28226 -1.073564,-0.80315 -1.459189,-1.32548 -0.05943,-0.0805 -0.111346,-0.14135 -0.115358,-0.13522 -0.01105,0.0169 0.158466,1.27596 0.247862,1.841 0.08951,0.56578 0.144978,0.88562 0.341312,1.96787 0.154446,0.85141 0.150308,0.82671 0.260608,1.55488 0.168133,1.10986 0.266781,1.97926 0.391455,3.44999 0.06367,0.751 0.06885,0.98124 0.02504,1.11245 -0.07594,0.22741 -0.244224,0.31104 -0.395532,0.19658 z m 17.22731,0.0128 c -0.13101,-0.0868 -0.18548,-0.26574 -0.16843,-0.5532 0.0212,-0.35822 0.0605,-0.84802 0.11407,-1.42457 0.15512,-1.66841 0.3471,-3.03038 0.68144,-4.83458 0.20039,-1.08129 0.52722,-3.27265 0.49539,-3.32127 -0.006,-0.009 -0.0517,0.0443 -0.10171,0.11843 -0.22085,0.32727 -0.73877,0.85132 -1.08297,1.0958 -0.48129,0.34185 -1.06644,0.59917 -1.63872,0.7206 -1.58977,0.33734 -3.17077,-0.034 -4.74063,-1.11327 -0.46088,-0.31687 -0.95625,-0.71428 -1.04289,-0.83667 -0.1363,-0.19251 -0.10784,-0.57413 0.0532,-0.71355 0.0997,-0.0863 0.21428,-0.0764 0.33377,0.0286 0.69312,0.60957 1.49291,1.11997 2.22543,1.42018 0.79987,0.32782 1.33585,0.44418 2.04253,0.44345 1.26766,-0.001 2.29668,-0.43431 3.09819,-1.30353 0.22081,-0.23948 0.30799,-0.35149 0.50765,-0.65231 0.8178,-1.23205 1.27107,-2.87879 1.40888,-5.11849 0.0144,-0.23384 0.0329,-0.48471 0.0412,-0.5575 0.0298,-0.26263 0.1395,-0.40315 0.3008,-0.38533 0.11269,0.0125 0.18786,0.0903 0.23695,0.24527 0.0405,0.1279 0.0419,0.23886 0.009,0.76046 -0.0928,1.48506 -0.33503,2.84604 -0.69459,3.90336 l -0.0476,0.13985 0.0262,0.49181 c 0.0717,1.34642 0.24138,2.85707 0.43175,3.84454 0.23729,1.23085 0.41571,1.92117 0.79901,3.09124 0.17697,0.54027 0.18772,0.60663 0.1298,0.80167 -0.0858,0.28875 -0.37023,0.33207 -0.49788,0.0758 -0.0449,-0.0901 -0.34744,-1.02888 -0.46086,-1.42996 -0.36154,-1.27848 -0.61927,-2.57307 -0.77626,-3.89928 -0.019,-0.16035 -0.0394,-0.30004 -0.0454,-0.31044 -0.006,-0.0104 -0.027,0.10988 -0.0468,0.26725 -0.0593,0.47131 -0.25788,1.67654 -0.44754,2.71561 -0.36012,1.97285 -0.57216,3.64245 -0.70657,5.56341 -0.0381,0.54417 -0.053,0.60745 -0.16808,0.71469 -0.0651,0.0606 -0.1869,0.066 -0.26857,0.0119 z m -11.91379,-4.56698 c -0.0717,-0.0571 -0.10482,-0.10955 -0.13705,-0.21682 -0.0546,-0.18185 -0.0221,-0.39761 0.0796,-0.52841 0.11251,-0.1447 0.74971,-0.62169 1.17014,-0.87595 0.49978,-0.30225 0.91814,-0.48276 1.47034,-0.63447 0.34935,-0.096 0.9481,-0.12454 1.36701,-0.0652 0.54524,0.0772 1.27824,0.36978 1.87568,0.74873 0.29359,0.18621 0.95278,0.67473 1.05383,0.78102 0.19627,0.20639 0.1836,0.62049 -0.024,0.78317 -0.1156,0.0906 -0.16484,0.0708 -0.53781,-0.21633 -0.44966,-0.34616 -0.75096,-0.54524 -1.12788,-0.74526 -0.70116,-0.37205 -1.19102,-0.49196 -1.90746,-0.46692 -0.90724,0.0317 -1.7044,0.38603 -2.77621,1.23391 -0.26307,0.20809 -0.31493,0.24081 -0.3815,0.24068 -0.0424,-8e-5 -0.0985,-0.0172 -0.1247,-0.0381 z m -13.318855,-3.9712 c -0.05523,-0.0252 -0.130407,-0.13004 -0.164108,-0.22872 -0.05593,-0.16377 0.01852,-1.02568 0.171107,-1.98118 0.112434,-0.70403 0.261694,-1.38541 0.467015,-2.13193 0.422833,-1.53735 0.446743,-1.6747 0.493724,-2.83639 0.09123,-2.25539 0.258208,-3.67536 0.612837,-5.21137 0.383491,-1.66105 0.886723,-3.03737 1.498397,-4.09816 0.548727,-0.95154 1.141597,-1.63936 1.891053,-2.19389 0.599824,-0.44383 1.144036,-0.71772 1.932224,-0.97254 0.492753,-0.15929 0.820861,-0.31727 1.385554,-0.66719 1.018237,-0.63098 2.412707,-1.75298 3.059894,-2.46193 0.184125,-0.20172 0.424208,-0.52088 0.524948,-0.69783 0.20894,-0.36704 0.38448,-0.83611 0.47704,-1.27464 0.0588,-0.27877 0.0923,-0.374 0.15836,-0.45105 0.0973,-0.11347 0.26733,-0.11088 0.35779,0.005 0.12031,0.15472 0.13154,0.36689 0.0409,0.77356 -0.1466,0.65806 -0.35859,1.18076 -0.68672,1.69331 -0.4508,0.70412 -1.151201,1.37545 -2.504539,2.4006 -0.609654,0.46183 -1.048834,0.75814 -1.5787,1.06522 -0.374442,0.21701 -0.678984,0.35062 -1.088843,0.47775 -1.472716,0.45679 -2.560739,1.31297 -3.388155,2.66602 -0.214655,0.35106 -0.387187,0.68493 -0.605901,1.17244 -0.160724,0.35828 -0.25474,0.60951 -0.449925,1.20225 -0.653473,1.98453 -0.945231,3.81047 -1.047806,6.55724 -0.04771,1.27755 -0.110433,1.65807 -0.508966,3.08774 -0.07915,0.28394 -0.272458,1.04749 -0.300274,1.18612 -0.182168,0.90737 -0.260646,1.43136 -0.336205,2.245 -0.02076,0.22352 -0.04801,0.43672 -0.06055,0.47382 -0.06075,0.17956 -0.209379,0.26441 -0.350266,0.19997 z m 33.290945,-0.012 c -0.0665,-0.0458 -0.12266,-0.12257 -0.15129,-0.20663 -0.0115,-0.0339 -0.0396,-0.25802 -0.0623,-0.49804 -0.09,-0.9514 -0.26754,-1.98936 -0.48187,-2.8173 -0.0631,-0.24391 -0.25676,-0.95328 -0.31889,-1.1683 -0.12778,-0.44222 -0.2575,-1.15045 -0.30599,-1.67056 -0.009,-0.0955 -0.0268,-0.47842 -0.0397,-0.85085 -0.0803,-2.31532 -0.30688,-3.93277 -0.80537,-5.7489 -0.55359,-2.01671 -1.38435,-3.59529 -2.36508,-4.49418 -0.6485,-0.59443 -1.42655,-1.0421 -2.26144,-1.30114 -0.27329,-0.0848 -0.75094,-0.28225 -0.95767,-0.3959 -1.01587,-0.55841 -2.3304,-1.53607 -3.32452,-2.47247 -0.67891,-0.63956 -1.05935,-1.1639 -1.32893,-1.83156 -0.15199,-0.37645 -0.33272,-1.03089 -0.35475,-1.28454 -0.0149,-0.17149 0.003,-0.28172 0.0614,-0.38379 0.0598,-0.10417 0.12968,-0.15378 0.21649,-0.15378 0.16979,0 0.24592,0.12949 0.34283,0.58308 0.1447,0.67727 0.42428,1.25757 0.85087,1.76604 0.62684,0.74716 2.25363,2.0614 3.36986,2.72237 0.52877,0.31311 0.80178,0.43605 1.31139,0.59055 0.3262,0.0989 0.48462,0.16206 0.77889,0.31056 0.95969,0.48427 1.58133,0.97285 2.20295,1.73142 0.41773,0.50972 0.83058,1.17983 1.13222,1.83774 0.0322,0.0702 0.0823,0.17948 0.1114,0.24295 0.10998,0.23981 0.35442,0.8846 0.49506,1.30586 0.31371,0.93963 0.57245,1.98877 0.74593,3.02484 0.20454,1.22139 0.30355,2.25621 0.35915,3.75369 0.0507,1.36643 0.0827,1.56382 0.49073,3.03213 0.30313,1.09076 0.47536,1.97719 0.61455,3.16317 0.0725,0.61775 0.0846,0.89097 0.0444,1.00651 -0.0698,0.20096 -0.24104,0.29678 -0.37059,0.20746 z m -16.66738,-3.96858 c -0.0784,-0.0544 -0.14359,-0.16829 -0.16555,-0.28915 -0.0239,-0.13154 -0.0227,-8.63165 0.001,-8.76356 0.0236,-0.13009 0.1302,-0.29085 0.21631,-0.3263 0.13665,-0.0562 0.27177,0.0542 0.33967,0.27762 0.0284,0.0935 0.0295,0.25879 0.0298,4.40944 1.9e-4,3.0729 -0.005,4.34014 -0.0173,4.40886 -0.0326,0.17974 -0.16946,0.32916 -0.30018,0.32785 -0.0219,-2.2e-4 -0.0686,-0.0205 -0.10398,-0.045 z m -0.93902,-11.31058 c -0.0272,-0.0181 -0.10592,-0.11189 -0.17486,-0.20838 -0.44097,-0.61726 -0.86237,-0.92533 -1.50824,-1.10261 -0.0787,-0.0216 -0.32546,-0.0877 -0.54841,-0.14686 -0.22294,-0.0592 -0.54482,-0.14714 -0.71529,-0.19546 -0.40777,-0.11559 -0.48369,-0.13672 -0.90604,-0.25222 -0.605067,-0.16547 -1.761181,-0.48672 -1.977951,-0.54962 -0.167663,-0.0487 -0.216028,-0.0724 -0.262285,-0.12884 -0.158968,-0.19399 -0.14911,-0.54808 0.02025,-0.72745 0.100204,-0.10613 0.163349,-0.0961 1.035746,0.16447 0.131138,0.0392 0.442285,0.12558 0.691462,0.19203 0.249158,0.0664 0.749878,0.20417 1.112698,0.30607 0.36282,0.10188 0.87783,0.24405 1.14447,0.31593 0.84194,0.22694 0.95851,0.26785 1.25576,0.44069 0.37553,0.21837 0.69159,0.51353 0.99743,0.9315 0.20237,0.27657 0.25381,0.4249 0.22325,0.64382 -0.0359,0.25761 -0.23399,0.41939 -0.38799,0.31695 z m 1.92974,0.0108 c -0.0733,-0.0338 -0.14214,-0.12471 -0.17303,-0.22868 -0.0681,-0.22926 -0.0209,-0.41576 0.17896,-0.70727 0.22556,-0.32892 0.45688,-0.5704 0.76832,-0.80198 0.3219,-0.23939 0.54955,-0.33956 1.12859,-0.49659 0.20107,-0.0545 0.49793,-0.13682 0.65966,-0.18285 0.5561,-0.15827 0.81934,-0.23174 1.13653,-0.31725 0.95142,-0.25645 1.91736,-0.52521 2.12998,-0.59265 0.31432,-0.0997 0.38932,-0.0913 0.48119,0.0537 0.0981,0.15496 0.12214,0.33839 0.0681,0.52026 -0.0672,0.22627 -0.0785,0.23074 -1.58251,0.62716 -0.13114,0.0346 -0.29208,0.0796 -0.35766,0.10012 -0.0656,0.0205 -0.15498,0.0467 -0.19869,0.0581 -0.42174,0.11065 -1.11206,0.29963 -1.23256,0.3374 -0.0827,0.0259 -0.40072,0.11403 -0.70671,0.19579 -0.65587,0.17524 -0.77921,0.21628 -0.99688,0.33166 -0.34546,0.18313 -0.64804,0.46249 -0.91317,0.8431 -0.18934,0.27182 -0.26091,0.31949 -0.39017,0.25994 z"
         id="chest"
         style="stroke-width:0.235534" /></g></g></svg>
