<?xml version="1.0" encoding="UTF-8" standalone="no"?>
<!-- Created with Inkscape (http://www.inkscape.org/) -->

<svg
   width="33.866661mm"
   height="33.867683mm"
   viewBox="0 0 33.866661 33.867683"
   version="1.1"
   id="svg1"
   xml:space="preserve"
   xmlns="http://www.w3.org/2000/svg"
   xmlns:svg="http://www.w3.org/2000/svg"><defs
     id="defs1" /><g
     id="layer1"
     transform="translate(-88.066668,-131.56566)"><g
       id="g16"><path
         d="m 89.703395,165.39027 c -0.198385,-0.11365 -0.219671,-0.20265 -0.156888,-0.65602 0.02685,-0.19392 0.08685,-0.5633 0.133327,-0.82086 0.253628,-1.40561 0.52311,-2.48841 0.916363,-3.6823 0.0679,-0.20613 0.123473,-0.38202 0.1235,-0.39085 5e-5,-0.0174 0.370736,-0.98111 0.491789,-1.27861 0.08,-0.19661 0.150979,-0.35892 0.329888,-0.75437 0.06364,-0.14069 0.109121,-0.27285 0.101605,-0.29527 -0.0075,-0.0223 -0.05278,-0.14223 -0.100653,-0.26643 -0.272344,-0.70651 -0.367921,-1.60339 -0.272416,-2.55667 0.04157,-0.41502 0.07667,-0.62437 0.224669,-1.34012 0.259763,-1.2563 0.307058,-1.56634 0.400783,-2.62741 0.06007,-0.6801 0.0228,-2.06593 -0.07474,-2.77845 -0.09181,-0.67073 -0.284758,-1.37725 -0.536607,-1.96473 -0.04284,-0.0999 -0.137979,-0.32992 -0.211419,-0.51107 -0.07344,-0.18114 -0.142927,-0.3498 -0.154419,-0.37477 -0.174078,-0.37849 -0.49559,-1.24217 -0.676423,-1.81709 -0.06287,-0.19988 -0.135679,-0.42985 -0.161798,-0.51107 -0.111346,-0.34616 -0.437373,-1.59824 -0.486689,-1.86903 -0.01186,-0.0651 -0.06012,-0.32796 -0.107246,-0.58405 -0.16027,-0.87093 -0.27605,-1.68361 -0.333304,-2.33959 -0.01472,-0.16865 -0.03215,-0.35263 -0.03874,-0.40884 -0.02059,-0.17578 -0.05782,-0.69647 -0.08445,-1.1811 -0.02235,-0.40674 -0.0337,-0.48717 -0.08979,-0.63599 -0.38873,-1.03131 -0.506222,-1.41433 -0.65494,-2.13508 -0.0348,-0.16865 -0.0741,-0.35774 -0.08733,-0.42021 -0.04792,-0.22626 -0.123906,-0.88733 -0.130528,-1.13568 -0.0078,-0.29179 0.15331,-0.45652 0.424189,-0.43381 0.117553,0.01 0.146017,0.0225 0.223635,0.0995 0.09247,0.0917 0.143604,0.23722 0.14383,0.4092 1.47e-4,0.1119 0.0878,0.79304 0.132638,1.03068 0.222019,1.17675 0.52708,2.05703 1.049421,3.02834 0.473001,0.8795 1.02676,1.61622 1.674363,2.2276 0.159755,0.15082 0.334555,0.30953 0.388418,0.35268 0.642984,0.51495 1.584944,0.98644 2.326561,1.16455 0.709453,0.17038 1.441471,0.23427 2.253093,0.19662 1.069123,-0.0496 1.985318,-0.15088 3.061201,-0.33844 2.389502,-0.41656 2.993852,-0.64436 3.844492,-1.44916 0.13568,-0.12836 0.20812,-0.15581 0.36106,-0.13678 0.23173,0.0288 0.37326,0.22887 0.32626,0.46116 -0.0139,0.0685 -0.0711,0.13415 -0.30312,0.34766 -0.28136,0.2589 -0.53665,0.44473 -0.82521,0.60067 -0.0805,0.0435 -0.18324,0.10055 -0.22839,0.12682 -0.25286,0.1471 -1.12616,0.42236 -1.69344,0.53374 -2.195671,0.43114 -3.530788,0.58777 -5.020613,0.58904 -0.728818,6.7e-4 -1.013095,-0.0219 -1.555138,-0.12316 -0.254543,-0.0476 -0.853023,-0.19596 -0.917903,-0.2276 -0.02047,-0.01 -0.152926,-0.0604 -0.294357,-0.11209 -0.579162,-0.21156 -1.23634,-0.59166 -1.824524,-1.05522 -0.51344,-0.40467 -1.103861,-1.02642 -1.493915,-1.57316 -0.107756,-0.15106 -0.19991,-0.27105 -0.204784,-0.26665 -0.0049,0.004 0.0038,0.1491 0.01917,0.32155 0.09151,1.02352 0.325366,2.50046 0.518949,3.27779 0.163272,0.65545 0.313915,1.20699 0.44358,1.62403 0.08156,0.26234 0.161985,0.5231 0.178714,0.57943 0.01672,0.0564 0.07114,0.20967 0.120923,0.3407 0.04978,0.13104 0.160079,0.42225 0.245112,0.6471 0.177805,0.47019 0.409492,1.02863 0.547769,1.32035 0.345693,0.72923 0.587895,1.7629 0.691194,2.94981 0.03101,0.35629 0.04085,1.78421 0.01434,2.07829 -0.0084,0.0937 -0.02639,0.30835 -0.03987,0.47698 -0.03918,0.49039 -0.108668,0.98287 -0.222732,1.57861 -0.07603,0.3971 -0.09396,0.48585 -0.204234,1.01075 -0.202828,0.96551 -0.249106,1.56502 -0.172793,2.23897 0.03524,0.31117 0.05778,0.4292 0.149415,0.78201 0.04228,0.16281 0.177165,0.47963 0.26532,0.62325 0.03114,0.0507 0.08488,0.13824 0.11941,0.19445 0.08483,0.13811 0.654772,0.65525 1.276659,1.1584 0.470066,0.38032 0.580077,0.47635 1.038548,0.90656 1.118126,1.04922 1.883775,2.04382 2.693376,3.49889 0.253604,0.45571 0.2773,0.54378 0.18901,0.70212 -0.110557,0.19828 -0.435809,0.23746 -0.615007,0.0741 -0.03984,-0.0363 -0.193658,-0.28367 -0.34182,-0.54966 -0.953868,-1.71248 -1.868163,-2.76038 -3.76197,-4.31193 -0.113018,-0.0926 -0.293659,-0.24056 -0.401408,-0.3288 -0.107757,-0.0883 -0.260389,-0.22015 -0.339198,-0.29311 -0.0788,-0.073 -0.146387,-0.12943 -0.150188,-0.12548 -0.0038,0.004 -0.03518,0.0787 -0.06974,0.16619 -0.03455,0.0874 -0.09704,0.24076 -0.138855,0.34069 -0.04182,0.0999 -0.126513,0.30949 -0.188211,0.46564 -0.0617,0.15616 -0.138429,0.35036 -0.170511,0.43155 -0.06306,0.1596 -0.31377,0.91547 -0.425657,1.28332 -0.327266,1.07588 -0.698989,2.73204 -0.820715,3.65641 -0.08507,0.6461 -0.08582,0.64831 -0.255914,0.75567 -0.103614,0.0654 -0.298182,0.0697 -0.404343,0.009 z m 30.205455,-0.007 c -0.14568,-0.0784 -0.18242,-0.16803 -0.24049,-0.58698 -0.0845,-0.6093 -0.24632,-1.48411 -0.40762,-2.20321 -0.0655,-0.2922 -0.37643,-1.42953 -0.46566,-1.70353 -0.0468,-0.14367 -0.13853,-0.42475 -0.20389,-0.62464 -0.0654,-0.19988 -0.12438,-0.38387 -0.13116,-0.40883 -0.0287,-0.10591 -0.61679,-1.55177 -0.63981,-1.57312 -0.004,-0.004 -0.0782,0.0573 -0.16475,0.13578 -0.2001,0.18145 -0.66083,0.57377 -0.91463,0.77885 -0.91463,0.73903 -1.62466,1.42183 -2.22001,2.13488 -0.50259,0.60197 -0.91649,1.22477 -1.41886,2.13508 -0.23806,0.43137 -0.31057,0.50897 -0.49201,0.52648 -0.23474,0.0227 -0.45551,-0.1788 -0.42758,-0.3902 0.0142,-0.10714 0.36518,-0.76794 0.65761,-1.23789 0.51727,-0.83135 0.95512,-1.40337 1.669,-2.1805 0.27935,-0.30411 1.14685,-1.10719 1.38696,-1.28399 0.55561,-0.4091 1.44491,-1.20002 1.50883,-1.3419 0.0182,-0.0404 0.065,-0.11768 0.10399,-0.17177 0.21031,-0.29166 0.38366,-0.84953 0.44637,-1.43659 0.0359,-0.33648 0.0169,-1.08506 -0.0367,-1.44416 -0.0462,-0.30919 -0.11258,-0.66986 -0.18395,-0.9994 -0.0514,-0.23744 -0.0838,-0.39893 -0.1751,-0.87448 -0.0637,-0.33182 -0.13804,-0.83684 -0.16959,-1.15248 -0.0141,-0.14067 -0.0308,-0.29665 -0.0372,-0.34663 -0.0674,-0.52744 -0.0798,-1.8934 -0.0233,-2.55869 0.0634,-0.74665 0.10503,-1.0234 0.23439,-1.55935 0.16665,-0.69041 0.2346,-0.90335 0.43271,-1.35607 0.0875,-0.19988 0.19152,-0.44007 0.23124,-0.53378 0.0397,-0.0937 0.10343,-0.2419 0.14158,-0.32934 0.0381,-0.0874 0.077,-0.17944 0.0864,-0.20442 0.009,-0.025 0.0941,-0.24985 0.18825,-0.49972 0.0941,-0.24984 0.23095,-0.63824 0.30401,-0.86312 0.073,-0.22485 0.16539,-0.50656 0.20522,-0.62599 0.0398,-0.11944 0.12237,-0.41073 0.18344,-0.64735 0.0611,-0.23659 0.12195,-0.47106 0.13529,-0.52104 0.1103,-0.41298 0.19585,-0.82155 0.33292,-1.58996 0.0468,-0.26234 0.0897,-0.50255 0.0953,-0.53378 0.0303,-0.1674 0.13639,-1.00264 0.15729,-1.23789 0.0494,-0.55612 0.0515,-0.617 0.0193,-0.56975 -0.0163,0.0239 -0.0873,0.12104 -0.15784,0.21578 -0.0705,0.0947 -0.14658,0.20291 -0.16898,0.24039 -0.14412,0.24109 -0.9938,1.10593 -1.40484,1.42992 -0.19038,0.15006 -0.3034,0.22887 -0.68202,0.47564 -0.10862,0.0708 -0.7268,0.39986 -0.75115,0.39986 -0.004,0 -0.0882,0.0346 -0.1871,0.0768 -0.35197,0.15042 -0.85403,0.30212 -1.20832,0.3651 -0.10775,0.0192 -0.25103,0.0452 -0.31836,0.0578 -0.84172,0.15777 -2.06257,0.13897 -3.77159,-0.0581 -0.84408,-0.0973 -2.35659,-0.35542 -3.0001,-0.51189 -0.27175,-0.0661 -0.81764,-0.22577 -0.91839,-0.26866 -0.48996,-0.20856 -0.64142,-0.28768 -0.95512,-0.49897 -0.45243,-0.30473 -0.78561,-0.61979 -0.82427,-0.77946 -0.0544,-0.22445 0.13724,-0.44957 0.38264,-0.44957 0.12877,0 0.16521,0.0232 0.47837,0.30444 0.56571,0.50808 1.08238,0.74478 2.18131,0.99938 0.25009,0.0579 0.53663,0.11928 0.63675,0.13632 0.10011,0.017 0.4789,0.0834 0.84174,0.14752 1.46028,0.25799 3.09608,0.39869 3.97872,0.34222 0.38212,-0.0245 0.96246,-0.10459 1.2393,-0.17113 0.89707,-0.21562 1.7556,-0.64441 2.47422,-1.23566 1.12123,-0.92263 2.07387,-2.33691 2.63179,-3.90742 0.28214,-0.79411 0.49908,-1.78769 0.56355,-2.58099 0.0384,-0.47243 0.13144,-0.61029 0.41195,-0.61029 0.16017,0 0.24249,0.0441 0.31788,0.17035 0.0777,0.13015 0.0817,0.18827 0.0411,0.60879 -0.10812,1.12069 -0.39012,2.26172 -0.79052,3.19836 -0.0897,0.20992 -0.0996,0.25399 -0.11398,0.51107 -0.0222,0.39594 -0.0823,1.22999 -0.11193,1.55328 -0.0547,0.59706 -0.0755,0.80172 -0.0971,0.95397 -0.0124,0.0874 -0.0277,0.19989 -0.0341,0.24985 -0.0866,0.67847 -0.33401,2.01602 -0.47681,2.5781 -0.0397,0.15615 -0.10741,0.42702 -0.15053,0.60192 -0.0431,0.17489 -0.0883,0.33574 -0.10048,0.35743 -0.0121,0.0217 -0.0221,0.0543 -0.0221,0.0725 0,0.0182 -0.0386,0.15375 -0.0857,0.30127 -0.0471,0.14752 -0.11457,0.36019 -0.14986,0.47262 -0.14121,0.44994 -0.56764,1.60344 -0.67336,1.82154 -0.0254,0.0524 -0.0462,0.10118 -0.0462,0.10838 0,0.0268 -0.29417,0.71638 -0.3685,0.86388 -0.0466,0.0925 -0.21608,0.59708 -0.26698,0.79498 -0.0289,0.11243 -0.0686,0.26575 -0.0881,0.3407 -0.0518,0.1987 -0.14882,0.77731 -0.1809,1.07889 -0.0764,0.7179 -0.0939,1.47993 -0.0506,2.20322 0.0617,1.03148 0.13233,1.52575 0.40639,2.84539 0.19463,0.93713 0.23415,1.23481 0.24798,1.86774 0.0212,0.96868 -0.0627,1.51382 -0.33783,2.19485 l -0.07,0.17334 0.0521,0.0992 c 0.0286,0.0546 0.0826,0.17589 0.11993,0.26959 0.0373,0.0937 0.11268,0.27093 0.16746,0.39386 0.0892,0.20008 0.27312,0.66872 0.50514,1.28695 0.23628,0.62954 0.57924,1.76692 0.78079,2.58948 0.12812,0.52285 0.36378,1.73102 0.47706,2.44556 0.078,0.49235 0.0755,0.55688 -0.0269,0.67758 -0.10814,0.12752 -0.35055,0.16331 -0.51327,0.0758 z m -15.05678,-1.25175 c -0.0329,-0.0155 -0.0825,-0.0639 -0.11018,-0.10755 -0.0501,-0.0792 -0.0503,-0.0895 -0.0447,-3.07765 0.003,-1.64903 0.006,-3.07765 0.006,-3.17449 4.8e-4,-0.16884 0.004,-0.17998 0.0844,-0.2612 0.0757,-0.0766 0.0959,-0.0848 0.20776,-0.0848 0.11065,0 0.13381,0.009 0.21617,0.0855 l 0.0922,0.0856 0.007,3.1399 c 0.005,2.16968 -7.2e-4,3.16555 -0.0188,3.22334 -0.0372,0.11914 -0.15024,0.2005 -0.27807,0.20009 -0.0562,-1.9e-4 -0.12916,-0.013 -0.16209,-0.0285 z m -4.76994,-0.87903 c -0.113936,-0.0644 -0.172124,-0.15942 -0.473505,-0.773 -0.454525,-0.92535 -0.734664,-1.61252 -0.990771,-2.4304 -0.06064,-0.19363 -0.125777,-0.39806 -0.144756,-0.45428 -0.08961,-0.2654 -0.285648,-1.06178 -0.330898,-1.34416 -0.01265,-0.079 -0.04551,-0.28157 -0.073,-0.45022 -0.175007,-1.07337 -0.19693,-2.05869 -0.0606,-2.72357 0.06624,-0.32303 0.174355,-0.65455 0.268544,-0.8235 0.03728,-0.0669 0.03664,-0.0737 -0.0122,-0.12999 -0.314708,-0.36272 -0.527657,-0.79043 -0.653425,-1.31239 -0.129415,-0.53713 -0.165702,-0.87086 -0.16753,-1.54081 -0.0017,-0.62249 0.02435,-0.82968 0.157982,-1.25636 0.118108,-0.37711 0.202506,-0.55975 0.361114,-0.78144 l 0.06039,-0.0844 -0.111642,-0.10354 c -0.299432,-0.27772 -0.518924,-0.69699 -0.654098,-1.24945 -0.104656,-0.42776 -0.125742,-0.60301 -0.138901,-1.15449 -0.01677,-0.70218 0.02981,-1.06575 0.198313,-1.54844 0.03489,-0.0999 0.06358,-0.19797 0.06374,-0.21785 1.71e-4,-0.0199 -0.06051,-0.12209 -0.134854,-0.22713 -0.402587,-0.56886 -0.725041,-1.36824 -0.764735,-1.89581 -0.01003,-0.13321 -0.0032,-0.17629 0.04008,-0.25507 0.08088,-0.14703 0.280596,-0.21995 0.422554,-0.15426 0.0426,0.0197 0.09021,0.0358 0.105813,0.0358 0.05898,0 0.139964,0.14106 0.161333,0.28101 0.03283,0.21499 0.09087,0.4359 0.17333,0.65971 0.079,0.21441 0.399845,0.81466 0.501677,0.93856 l 0.06045,0.0735 0.09081,-0.0555 c 0.198524,-0.12142 1.265737,-0.65399 1.4745,-0.73583 0.07408,-0.029 0.172999,-0.0733 0.21981,-0.0983 0.04681,-0.025 0.228653,-0.10131 0.404075,-0.16948 0.17543,-0.0682 0.34103,-0.13322 0.36795,-0.14455 0.1378,-0.0579 0.51413,-0.18619 0.6864,-0.23391 0.10738,-0.0298 0.36078,-0.10127 0.56312,-0.15894 0.67462,-0.19227 1.08057,-0.25203 1.71379,-0.25227 0.50971,-2e-4 0.71903,0.0286 0.97704,0.13443 0.16424,0.0674 0.36554,0.18549 0.46068,0.27032 0.0365,0.0325 0.0789,0.0591 0.0944,0.0591 0.0154,0 0.0813,-0.0444 0.1464,-0.0987 0.18647,-0.15549 0.49737,-0.28363 0.81766,-0.33698 0.2272,-0.0378 0.33684,-0.0431 0.67532,-0.0325 0.71451,0.0224 1.16234,0.10849 2.20411,0.4235 0.38152,0.11536 1.27005,0.44706 1.39596,0.52111 0.0202,0.0119 0.10286,0.0499 0.18368,0.0845 0.39652,0.16972 1.0861,0.50823 1.40153,0.688 0.12961,0.0739 0.24374,0.12965 0.25366,0.12397 0.0272,-0.0156 0.27075,-0.42691 0.3837,-0.64792 0.0548,-0.10718 0.13422,-0.30139 0.17657,-0.43155 0.0423,-0.13019 0.0871,-0.26736 0.0994,-0.30485 0.0123,-0.0375 0.03,-0.12947 0.0394,-0.20442 0.0205,-0.16478 0.0593,-0.25656 0.13551,-0.32088 0.18674,-0.1576 0.50995,-0.091 0.58523,0.12049 0.036,0.10117 0.0145,0.41993 -0.0413,0.61259 -0.0212,0.0731 -0.0523,0.18402 -0.0691,0.24648 -0.0577,0.21443 -0.38103,0.9054 -0.50939,1.08853 -0.0168,0.024 -0.082,0.11969 -0.14474,0.21256 l -0.11409,0.16886 0.0481,0.12814 c 0.0638,0.16984 0.1315,0.43757 0.18467,0.73005 0.0331,0.1822 0.0434,0.36719 0.0434,0.78363 7e-5,0.66535 -0.0411,0.94773 -0.23174,1.58996 -0.0987,0.33256 -0.4132,0.84927 -0.59114,0.97129 -0.0385,0.0264 -0.07,0.0655 -0.07,0.0868 0,0.0214 0.0421,0.10376 0.0937,0.18312 0.10573,0.16286 0.27087,0.54739 0.33022,0.7689 0.1152,0.42999 0.14037,0.66182 0.14058,1.29467 1.3e-4,0.38019 -0.011,0.5344 -0.0605,0.84041 -0.0568,0.35051 -0.18588,0.87162 -0.26732,1.07889 -0.10681,0.27189 -0.30193,0.59195 -0.47627,0.78122 l -0.071,0.0771 0.0692,0.15281 c 0.0958,0.21147 0.21147,0.638 0.26477,0.97631 0.034,0.21602 0.0447,0.41972 0.0445,0.85176 -2.4e-4,0.61464 -0.0386,1.05112 -0.1518,1.72624 -0.0356,0.21238 -0.071,0.42702 -0.0787,0.477 -0.008,0.05 -0.0468,0.22374 -0.087,0.38613 -0.0402,0.16238 -0.0868,0.35149 -0.1036,0.42021 -0.21281,0.87042 -0.67361,2.12903 -1.09773,2.99822 -0.0335,0.0687 -0.12835,0.26368 -0.21073,0.43329 -0.29421,0.60578 -0.3723,0.70239 -0.56749,0.70239 -0.26005,0 -0.42854,-0.19383 -0.36422,-0.41894 0.0145,-0.0507 0.10923,-0.25565 0.21057,-0.45554 0.34194,-0.6745 0.54654,-1.13677 0.79916,-1.80573 0.17671,-0.46794 0.19105,-0.51121 0.33138,-0.9994 0.15881,-0.55255 0.25635,-0.94682 0.32029,-1.2947 0.0287,-0.15615 0.0625,-0.34014 0.0751,-0.40883 0.0126,-0.0687 0.0449,-0.28847 0.0718,-0.48836 0.12875,-0.95772 0.13,-1.72258 0.004,-2.24855 -0.0995,-0.41424 -0.11735,-0.47328 -0.1791,-0.59115 l -0.0546,-0.10419 -0.35567,0.0118 c -2.20077,0.0732 -3.49879,0.046 -4.27414,-0.0895 -0.51245,-0.0896 -0.94472,-0.2689 -1.20297,-0.49893 l -0.153,-0.13628 -0.16047,0.13927 c -0.38086,0.33054 -1.09724,0.54208 -1.98565,0.58632 -0.14817,0.007 -0.35154,0.0194 -0.45193,0.0267 -0.20461,0.0149 -1.96976,0.0154 -2.04606,4.5e-4 -0.0269,-0.005 -0.34187,-0.017 -0.699831,-0.0261 l -0.650851,-0.0166 -0.05047,0.11057 c -0.146368,0.32066 -0.249924,0.84012 -0.268496,1.34692 -0.04225,1.15217 0.284037,2.96007 0.789442,4.37395 0.284565,0.79612 0.461092,1.20795 0.925716,2.15978 0.1164,0.23844 0.21164,0.46265 0.21164,0.49822 0,0.1068 -0.0907,0.25234 -0.18234,0.29268 -0.11112,0.0489 -0.25408,0.0454 -0.34944,-0.008 z m 2.60124,-9.47302 c 0.66714,-0.0454 1.09347,-0.12407 1.39911,-0.25837 0.23455,-0.10306 0.36857,-0.21926 0.45421,-0.39387 l 0.0696,-0.14195 -7.2e-4,-2.1351 c -4.8e-4,-1.44891 -0.009,-2.1351 -0.0259,-2.1351 -0.0139,0 -0.0567,0.0151 -0.0952,0.0335 -0.20927,0.10037 -0.77516,0.20766 -1.43375,0.27183 -0.20205,0.0197 -0.41695,0.0411 -0.47758,0.0477 -0.29238,0.0315 -0.52236,0.0554 -0.73471,0.0766 -0.12796,0.0128 -0.35387,0.0382 -0.50206,0.0565 -0.14817,0.0183 -0.42368,0.0498 -0.61226,0.0699 -0.18858,0.0201 -0.42001,0.046 -0.51431,0.0574 -0.0943,0.0114 -0.259594,0.0269 -0.367343,0.0344 -0.107757,0.008 -0.228983,0.0173 -0.269386,0.0218 -0.0404,0.005 -0.172657,0.0145 -0.293875,0.0223 -0.510433,0.0325 -0.510193,0.0324 -0.56853,0.0984 -0.08387,0.0947 -0.239414,0.38349 -0.308454,0.57258 -0.145075,0.39737 -0.200208,0.82729 -0.180592,1.40826 0.0078,0.2311 0.02468,0.47642 0.03749,0.54514 0.01282,0.0687 0.03653,0.20158 0.05269,0.29527 0.05454,0.31624 0.201435,0.78055 0.312567,0.98804 0.08932,0.16677 0.21223,0.31428 0.317331,0.38091 0.08814,0.0559 0.109578,0.0589 0.447669,0.0626 0.195311,0.002 0.492871,0.0115 0.661243,0.0208 0.47558,0.0261 2.25076,0.0265 2.63276,4.4e-4 z m 7.7022,-0.009 0.62451,-0.0246 0.14149,-0.13323 c 0.4729,-0.44532 0.75511,-1.80902 0.60228,-2.91032 -0.0648,-0.46678 -0.26058,-0.98626 -0.44238,-1.17374 l -0.081,-0.0835 -0.61226,-0.0472 c -0.33675,-0.0259 -0.63803,-0.0518 -0.6695,-0.0576 -0.0315,-0.006 -0.16924,-0.0213 -0.30612,-0.0346 -0.13688,-0.0133 -0.51887,-0.0547 -0.84888,-0.092 -0.72187,-0.0816 -0.9199,-0.10331 -1.22451,-0.13423 -1.34919,-0.13696 -1.42687,-0.14811 -1.85919,-0.26669 -0.0729,-0.02 -0.1611,-0.0502 -0.19592,-0.067 -0.0348,-0.0169 -0.0772,-0.0307 -0.0942,-0.0308 -0.0246,-1.2e-4 -0.0305,0.41749 -0.029,2.06113 0.001,1.21409 0.0116,2.11618 0.0256,2.1949 0.0436,0.24569 0.25868,0.45743 0.59754,0.58831 0.25774,0.0996 0.72915,0.18047 1.27348,0.21856 0.3813,0.0267 2.355,0.022 3.09801,-0.007 z m 1.08794,-5.18765 c 0.24273,-0.20768 0.37809,-0.46051 0.52669,-0.98367 0.11122,-0.39157 0.16225,-1.22251 0.10026,-1.63289 -0.07,-0.46359 -0.17011,-0.80991 -0.25519,-0.883 -0.0605,-0.0519 -0.42467,-0.26296 -0.56562,-0.32771 -0.0538,-0.0247 -0.13772,-0.0683 -0.18655,-0.0969 -0.0488,-0.0286 -0.23075,-0.12088 -0.40427,-0.2051 -0.17352,-0.0842 -0.34304,-0.16666 -0.37672,-0.18319 -0.0337,-0.0165 -0.075,-0.0301 -0.0918,-0.0302 -0.0168,-8e-5 -0.0306,-0.0104 -0.0306,-0.0229 0,-0.0125 -0.0139,-0.0227 -0.031,-0.0227 -0.017,0 -0.0749,-0.022 -0.12857,-0.0489 -0.0537,-0.0269 -0.20781,-0.0921 -0.3425,-0.14483 -0.24061,-0.0943 -0.29344,-0.11548 -0.53879,-0.21638 -0.18973,-0.078 -1.09701,-0.3506 -1.38369,-0.41571 -0.39677,-0.0901 -0.71123,-0.12961 -1.13879,-0.14307 -0.80075,-0.0252 -1.10297,0.12 -1.20962,0.58121 -0.0373,0.16138 -0.0378,3.50581 -4.8e-4,3.69278 0.0746,0.37448 0.31175,0.57312 0.80316,0.67287 0.11289,0.0229 0.39392,0.0624 0.62451,0.0879 0.23058,0.0254 0.55147,0.0608 0.71311,0.0786 0.16163,0.0178 0.37102,0.0387 0.4653,0.0465 0.17051,0.014 0.59227,0.0599 0.94287,0.10259 0.59509,0.0724 1.80603,0.19023 2.16738,0.21082 0.12152,0.007 0.24725,-0.0359 0.34098,-0.11607 z m -11.765604,0.0547 c 0.22225,-0.02 0.431644,-0.0414 0.465304,-0.0476 0.0337,-0.006 0.12184,-0.0164 0.19592,-0.0228 0.0741,-0.006 0.26693,-0.0276 0.42857,-0.0472 0.16164,-0.0196 0.43716,-0.0507 0.61226,-0.0691 0.17511,-0.0184 0.45063,-0.0477 0.61227,-0.065 0.16163,-0.0173 0.44817,-0.0474 0.63675,-0.0668 1.10502,-0.11388 1.31231,-0.15147 1.55514,-0.28197 0.15562,-0.0836 0.2589,-0.19248 0.32371,-0.3411 l 0.0559,-0.12821 v -3.81594 l -0.0551,-0.0865 c -0.0303,-0.0476 -0.0551,-0.0992 -0.0551,-0.11479 0,-0.0459 -0.14962,-0.166 -0.28163,-0.22615 -0.16057,-0.0732 -0.38323,-0.10636 -0.71323,-0.10636 -0.28902,0 -0.75644,0.0476 -1.01332,0.10312 -0.0876,0.0189 -0.18486,0.0388 -0.21624,0.0442 -0.0752,0.0129 -0.10229,0.0202 -0.51847,0.14059 -0.51178,0.148 -0.71766,0.21679 -1.07316,0.35855 -0.17356,0.0692 -0.32385,0.12582 -0.33398,0.12582 -0.0305,0 -1.054739,0.48215 -1.409237,0.66335 -0.181839,0.093 -0.436458,0.23219 -0.565835,0.30941 l -0.235218,0.14041 -0.06299,0.18729 c -0.26075,0.77523 -0.238882,1.83827 0.05453,2.65195 0.08859,0.24569 0.148438,0.34877 0.307948,0.53038 0.175738,0.20009 0.235661,0.22154 0.587294,0.21025 0.161636,-0.005 0.475719,-0.0258 0.697978,-0.0458 z m 4.503634,7.53416 c -0.0351,-0.005 -0.1012,-0.0451 -0.14694,-0.0889 -0.0749,-0.0717 -0.0832,-0.0925 -0.0832,-0.20982 0,-0.15754 0.0498,-0.22427 0.26938,-0.36082 0.43973,-0.27343 0.88805,-0.30696 1.32877,-0.0994 0.32147,0.15143 0.44659,0.27936 0.44659,0.45665 0,0.12993 -0.0721,0.24224 -0.18325,0.28527 -0.15312,0.0593 -0.20293,0.0456 -0.4941,-0.13586 -0.108,-0.0673 -0.174,-0.0916 -0.27032,-0.0993 -0.19134,-0.0153 -0.27915,0.008 -0.47945,0.12974 -0.18454,0.11173 -0.27179,0.13927 -0.38753,0.12233 z m -8.463108,-4.92772 c -0.06501,-0.0455 -0.221497,-0.17587 -0.347738,-0.28961 -0.64325,-0.57952 -1.352221,-1.4764 -1.752451,-2.21696 -0.120127,-0.22227 -0.139261,-0.27443 -0.128361,-0.34993 0.01799,-0.12469 0.120504,-0.21435 0.252931,-0.22124 0.149346,-0.008 0.242009,0.0695 0.375764,0.31343 0.152468,0.27803 0.462127,0.74137 0.710223,1.06266 0.292552,0.37887 0.596772,0.70125 0.999575,1.05919 0.208977,0.1857 0.357313,0.33606 0.37319,0.37827 0.04086,0.10873 -0.0074,0.24188 -0.108774,0.29998 -0.12552,0.072 -0.23555,0.0614 -0.374345,-0.0358 z m 18.149498,0.04 c -0.0932,-0.0527 -0.14355,-0.15922 -0.12509,-0.26469 0.0113,-0.0646 0.0753,-0.13619 0.33987,-0.38012 0.43615,-0.40209 0.6471,-0.62476 0.95375,-1.00674 0.22253,-0.2772 0.3231,-0.41856 0.60439,-0.84958 0.0285,-0.0437 0.10154,-0.16813 0.16221,-0.27648 0.14683,-0.26214 0.23295,-0.33655 0.3897,-0.33668 0.10029,-9e-5 0.12935,0.0104 0.18699,0.0676 0.085,0.0844 0.11328,0.20698 0.067,0.2909 -0.0186,0.0339 -0.0815,0.14842 -0.13977,0.2546 -0.27369,0.49915 -0.75299,1.15736 -1.17899,1.61915 -0.21949,0.23793 -0.73254,0.72195 -0.88684,0.83668 -0.13649,0.10148 -0.24961,0.11521 -0.37324,0.0453 z m -18.214451,-3.30992 c -0.03803,-0.0191 -0.137214,-0.0939 -0.220411,-0.16626 -0.0832,-0.0723 -0.189841,-0.1625 -0.236984,-0.20038 -0.215052,-0.17279 -0.937895,-0.86979 -1.025485,-0.9888 -0.02035,-0.0277 -0.04316,-0.0554 -0.05068,-0.0616 -0.220657,-0.1834 -1.277838,-1.59421 -1.455761,-1.94271 -0.07179,-0.14062 -0.06165,-0.21286 0.0445,-0.31725 0.09958,-0.0979 0.189674,-0.11959 0.298037,-0.0717 0.08775,0.0388 0.126023,0.0846 0.344755,0.41232 0.194967,0.2921 0.518396,0.75177 0.574616,0.81667 0.01131,0.013 0.08877,0.11063 0.172118,0.21681 0.493376,0.62857 1.314139,1.44715 1.823682,1.81886 0.103792,0.0757 0.180318,0.1866 0.180318,0.26129 0,0.0787 -0.07264,0.18967 -0.147719,0.22568 -0.08935,0.0429 -0.212391,0.0417 -0.30102,-0.003 z m 18.368891,0.003 c -0.0994,-0.0481 -0.1414,-0.0939 -0.16804,-0.18337 -0.0342,-0.11503 0.0362,-0.2132 0.30107,-0.41946 0.52482,-0.4087 1.13535,-1.03336 1.78717,-1.82845 0.18051,-0.2202 0.62234,-0.8405 0.7342,-1.03077 0.0322,-0.0547 0.0726,-0.12327 0.0899,-0.15231 0.12945,-0.21749 0.47269,-0.19394 0.54748,0.0375 0.0259,0.0802 0.0228,0.10255 -0.0279,0.20304 -0.0953,0.18874 -0.76062,1.13396 -0.88605,1.25881 -0.0245,0.0244 -0.0445,0.0505 -0.0445,0.058 0,0.008 -0.0724,0.10015 -0.16076,0.20582 -0.0884,0.10566 -0.20274,0.24321 -0.25404,0.30569 -0.27918,0.33989 -1.05912,1.08768 -1.50768,1.44554 -0.16709,0.1333 -0.28333,0.16157 -0.41083,0.0999 z m -18.466561,-3.19457 c -0.03793,-0.01 -0.142624,-0.0688 -0.232656,-0.13168 -0.395996,-0.27671 -0.482503,-0.33802 -0.624918,-0.44277 -0.569853,-0.41923 -1.433244,-1.17544 -1.804245,-1.58028 -0.07402,-0.0808 -0.156627,-0.1682 -0.183566,-0.19428 -0.04533,-0.0439 -0.246027,-0.26557 -0.2875,-0.31756 -0.01,-0.0125 -0.07159,-0.084 -0.136954,-0.15899 -0.178154,-0.20431 -0.292192,-0.36667 -0.309825,-0.44115 -0.0289,-0.12201 0.08928,-0.26689 0.235324,-0.28848 0.126177,-0.0187 0.202963,0.0216 0.331981,0.17393 0.337514,0.3986 0.559676,0.65089 0.751552,0.85353 0.211089,0.2229 0.964381,0.92405 1.10528,1.02874 0.0404,0.03 0.1294,0.10157 0.197776,0.15899 0.189771,0.15937 0.529582,0.40868 0.855285,0.62749 0.367296,0.24677 0.448727,0.31823 0.467347,0.41022 0.01537,0.076 -0.03722,0.21088 -0.101548,0.2604 -0.05167,0.0398 -0.186395,0.0612 -0.263323,0.0419 z m 18.698231,8.9e-4 c -0.10608,-0.0213 -0.19462,-0.10042 -0.22446,-0.20066 -0.0418,-0.14051 0.0189,-0.21169 0.41844,-0.49081 0.19672,-0.13742 0.4053,-0.28563 0.4635,-0.32934 0.0582,-0.0437 0.15073,-0.11197 0.2056,-0.15166 0.0549,-0.0397 0.12242,-0.0908 0.1501,-0.11357 0.0277,-0.0228 0.12125,-0.0976 0.2079,-0.16633 0.37967,-0.30103 0.83198,-0.72142 1.23293,-1.14588 0.25303,-0.26787 0.72521,-0.82628 0.72521,-0.85765 0,-0.0279 0.18905,-0.10885 0.25418,-0.10885 0.13567,0 0.28459,0.14363 0.28459,0.27445 0,0.0584 -0.0622,0.17125 -0.14421,0.26171 -0.0352,0.0388 -0.086,0.0997 -0.11294,0.13543 -0.0269,0.0357 -0.12061,0.14313 -0.20816,0.23877 -0.0876,0.0956 -0.20327,0.22284 -0.25715,0.28265 -0.0539,0.0598 -0.10898,0.12005 -0.12245,0.13388 -0.0135,0.0138 -0.10055,0.10494 -0.19351,0.20246 -0.34454,0.36143 -0.76262,0.72983 -1.45942,1.28604 -0.19409,0.15493 -0.86698,0.62907 -1.00427,0.70765 -0.0922,0.0528 -0.12707,0.0595 -0.21588,0.0417 z m -9.49033,-7.60555 c -0.0381,-0.0233 -0.0962,-0.0791 -0.12898,-0.12393 l -0.0597,-0.0815 0.007,-2.58836 c 0.007,-2.5868 0.007,-2.58836 0.0578,-2.65239 0.0689,-0.0862 0.22406,-0.1655 0.32462,-0.16596 0.17188,-9e-4 0.32257,0.10869 0.37047,0.26914 0.0158,0.053 0.0249,0.98229 0.0252,2.59862 7.3e-4,2.75414 0.0105,2.56962 -0.14533,2.70706 -0.0651,0.0574 -0.0982,0.068 -0.22872,0.0735 -0.11642,0.005 -0.16907,-0.004 -0.22192,-0.0361 z"
         id="core"
         style="stroke-width:0.231676" /></g></g></svg>
