<?xml version="1.0" encoding="UTF-8" standalone="no"?>
<!-- Created with Inkscape (http://www.inkscape.org/) -->

<svg
   width="33.865921mm"
   height="33.866886mm"
   viewBox="0 0 33.865921 33.866886"
   version="1.1"
   id="svg1"
   xml:space="preserve"
   xmlns="http://www.w3.org/2000/svg"
   xmlns:svg="http://www.w3.org/2000/svg"><defs
     id="defs1" /><g
     id="layer1"
     transform="translate(-88.066664,-131.56641)"><g
       id="g20"><path
         style="fill:#000000;stroke-width:0.416001"
         d="m 88.907626,165.39688 c -0.382221,-0.0933 -0.708186,-0.40734 -0.811159,-0.78147 -0.02066,-0.0751 -0.02874,-3.34398 -0.02918,-11.80734 l -6.23e-4,-11.70354 16.932486,-0.007 16.93248,-0.006 3e-5,7.02604 c 1e-5,3.86432 3.1e-4,9.13968 8.3e-4,11.72302 3.5e-4,2.64765 -0.009,4.73095 -0.0223,4.77484 -0.11917,0.40587 -0.45707,0.71283 -0.86858,0.78902 -0.23313,0.0432 -31.956653,0.0357 -32.133884,-0.008 z m 5.90684,-4.24822 v -1.84006 h 1.887086 1.887087 v 1.84056 c 0,1.67558 0.0037,1.84131 0.04186,1.84895 0.02302,0.005 0.110274,0.004 0.193889,-4e-4 l 0.15203,-0.009 -0.0065,-1.84016 -0.0065,-1.84017 1.893542,1e-5 1.89355,1e-5 v 1.8403 c 0,1.18144 0.009,1.8434 0.0254,1.84895 0.0139,0.005 0.0954,0.005 0.18095,-1.4e-4 l 0.15557,-0.009 v -1.84015 -1.84016 h 1.88708 1.88709 v 1.84246 1.84246 h 0.18095 c 0.12703,0 0.18124,-0.01 0.1819,-0.0324 4.2e-4,-0.0178 1.9e-4,-0.84695 -8.3e-4,-1.84247 l -0.002,-1.81002 h 1.90086 1.90086 l -0.003,1.83461 c -0.002,1.64265 0.001,1.83611 0.0374,1.84895 0.0222,0.008 0.10498,0.0103 0.18387,0.005 l 0.14342,-0.009 v -1.84006 -1.84006 h 1.88709 1.88708 v 1.84246 1.84246 h 0.18096 0.18095 v -1.84246 -1.84246 h 1.96033 c 1.07818,0 1.96517,-0.005 1.9711,-0.0108 0.006,-0.006 0.005,-0.0906 -0.002,-0.18814 -0.01,-0.13296 -0.0226,-0.17799 -0.0517,-0.17989 -0.0213,-0.001 -0.9025,-0.004 -1.95817,-0.006 l -1.9194,-0.004 v -1.75164 -1.75164 h 1.96464 1.96463 v -0.18149 -0.18149 l -1.95816,-0.007 -1.95818,-0.007 -0.007,-1.75812 -0.007,-1.75813 0.57535,-0.002 c 0.31645,-0.001 1.20278,-0.004 1.96963,-0.007 l 1.39426,-0.004 -0.002,-0.18165 -0.002,-0.18165 -1.96703,-0.007 -1.96704,-0.007 v -1.75147 -1.75148 h 1.96464 1.96464 v -0.19463 -0.19462 h -1.96464 -1.96464 v -1.85545 -1.85543 h -0.18095 -0.18095 v 1.85543 1.85545 h -1.88709 -1.88709 v -1.85658 -1.85658 l -0.18741,0.008 -0.18742,0.008 -0.007,1.84246 -0.007,1.84246 -1.88892,0.007 -1.88892,0.007 0.009,-1.84912 0.009,-1.84912 -0.18741,-0.008 -0.18742,-0.008 v 1.85658 1.85657 h -1.88708 -1.88709 v -1.85657 -1.85658 l -0.18742,0.008 -0.18741,0.008 0.003,1.84895 0.003,1.84895 -1.88986,1e-5 h -1.889858 v -1.84896 -1.84895 l -0.187417,-0.008 -0.187416,-0.008 v 1.85658 1.85657 h -1.887087 -1.887086 v -1.85544 -1.85544 h -0.180953 c -0.127191,0 -0.181142,0.01 -0.181587,0.0324 -3.49e-4,0.0178 -7.2e-5,0.85279 6.22e-4,1.85544 l 0.0012,1.823 h -1.963134 -1.963133 l -0.0086,0.18393 c -0.0047,0.10116 -0.0037,0.18874 0.0022,0.19462 0.0059,0.006 0.89292,0.0107 1.971101,0.0107 h 1.96033 v 1.75147 1.75148 l -1.971101,0.007 -1.9711,0.007 v 0.18165 0.18165 l 1.887086,0.006 c 1.037898,0.003 1.924974,0.006 1.971281,0.007 l 0.0842,8.3e-4 -0.0066,1.75812 -0.0066,1.75813 -1.955887,0.007 -1.955888,0.007 -0.01007,0.16203 c -0.0055,0.0891 -0.0059,0.17078 -7.47e-4,0.18148 0.0051,0.0107 0.892794,0.0195 1.972605,0.0195 h 1.963293 l -0.0066,1.75276 -0.0066,1.75277 -1.951713,0.005 -1.951713,0.005 -0.01484,0.16867 c -0.0082,0.0928 -0.01038,0.17744 -0.0049,0.18814 0.0054,0.0107 0.893304,0.0195 1.973017,0.0195 h 1.963112 v 1.84056 c 0,1.67991 0.0037,1.84129 0.0421,1.84895 0.02316,0.005 0.104584,0.004 0.180954,-4.2e-4 l 0.138853,-0.009 z m 0.0108,-2.22716 c -0.0059,-0.006 -0.0108,-0.7971 -0.0108,-1.75812 v -1.74731 h 1.887086 1.887087 l 6e-6,1.75813 6e-6,1.75812 h -1.876297 c -1.031963,0 -1.881155,-0.005 -1.887093,-0.0108 z m 4.140777,-0.002 c -0.003,-0.007 -0.0044,-0.79537 -0.0032,-1.75164 l 0.0022,-1.73866 h 1.886277 1.88627 v 1.74521 1.74521 l -1.8831,0.006 c -1.035707,0.003 -1.885536,4.2e-4 -1.888514,-0.007 z m 5.988277,0.006 -1.84184,-0.007 v -1.75147 -1.75147 h 1.88709 1.88708 v 1.74862 c 0,1.64441 -0.002,1.74917 -0.0452,1.75812 -0.0249,0.005 -0.87407,0.007 -1.88709,0.003 z m 4.09758,-1e-5 -1.80281,-0.007 -1.5e-4,-1.75146 -1.7e-4,-1.75146 h 1.88699 1.88697 l 4.3e-4,1.00557 c 2.4e-4,0.55306 0.003,1.34343 0.006,1.75637 l 0.006,0.75079 -0.0905,0.002 c -0.0498,8.3e-4 -0.90174,-10e-4 -1.89328,-0.005 z m 2.35859,-1.75795 v -1.75164 h 1.88708 1.88709 v 1.75164 1.75164 h -1.88709 -1.88708 z m -16.59602,-3.87938 v -1.76479 H 96.701732 98.589 l -0.0066,1.75813 -0.0066,1.75812 -1.880625,0.007 -1.880623,0.007 z m 4.158868,1.74515 c -0.0017,-0.0108 -0.0046,-0.80203 -0.0065,-1.7583 l -0.0034,-1.73866 1.331302,-0.013 c 0.73221,-0.007 1.58439,-0.01 1.89373,-0.006 l 0.56243,0.007 -0.007,1.75715 -0.007,1.75714 -1.88062,0.007 c -1.034346,0.004 -1.882005,-0.002 -1.88369,-0.013 z m 4.139142,-1.74497 v -1.76426 l 1.77722,-0.007 c 0.97748,-0.004 1.82666,-0.003 1.88709,0.001 l 0.10986,0.008 v 1.76313 1.76312 h -1.88708 -1.88709 z m 4.15264,1.74629 c -0.01,-0.01 -0.017,-0.80422 -0.0156,-1.76478 l 0.002,-1.74648 1.25838,-0.001 c 0.69212,-8.3e-4 1.32237,-0.002 1.40057,-0.002 0.0782,-8.3e-4 0.3632,-2e-5 0.63334,10e-4 l 0.49116,0.002 -0.007,1.75814 -0.007,1.75813 -1.86955,0.007 c -1.02826,0.004 -1.87776,-0.002 -1.88779,-0.0117 z m 4.14537,-1.74587 v -1.76419 l 1.00172,-0.007 c 0.55092,-0.004 1.40019,-0.004 1.88725,-2.6e-4 l 0.88556,0.007 -0.007,1.75779 -0.007,1.75779 -1.88063,0.007 -1.88062,0.007 z m -16.59602,-3.90628 v -1.75164 h 1.887087 1.887086 v 1.75164 1.75164 H 96.701557 94.81447 Z m 4.158961,1.7192 c -0.0016,-0.0178 -0.0045,-0.80615 -0.0065,-1.7518 l -0.0035,-1.71937 1.887089,0.007 1.88709,0.007 0.008,1.74515 0.008,1.74515 h -1.88852 c -1.491993,0 -1.889137,-0.007 -1.891484,-0.0324 z m 4.139049,-1.7192 v -1.75164 h 1.88709 1.88708 v 1.75164 1.75164 h -1.88708 -1.88709 z m 4.15613,1.53755 c -0.005,-0.11775 -0.0124,-0.90599 -0.0157,-1.75164 l -0.006,-1.53755 h 1.8879 1.8879 v 1.75164 1.75164 h -1.87219 -1.87221 z m 4.14188,-1.53755 v -1.75164 h 1.88708 1.88709 v 1.75164 1.75164 h -1.88709 -1.88708 z m -23.342694,-11.3078 c 2.53e-4,-1.96996 0.0067,-2.4181 0.03653,-2.53051 0.106203,-0.40049 0.468132,-0.72954 0.890957,-0.81004 0.08943,-0.017 1.171468,-0.0265 3.029067,-0.0265 h 2.889935 l 0.0096,0.90177 c 0.0096,0.89863 0.0099,0.90243 0.07793,1.09027 0.220992,0.60981 0.647597,1.00538 1.237329,1.1473 0.394268,0.0949 0.748196,0.0533 1.134512,-0.13343 0.177018,-0.0855 0.259952,-0.14714 0.426646,-0.31692 0.215406,-0.21939 0.325384,-0.39594 0.430337,-0.69082 0.05728,-0.16094 0.06064,-0.21033 0.0733,-1.07693 l 0.01326,-0.90826 6.686501,-0.007 6.68651,-0.007 0.0103,0.88884 c 0.0103,0.88003 0.011,0.89091 0.0792,1.09645 0.0972,0.29317 0.2333,0.50807 0.45772,0.72283 0.53494,0.51189 1.24392,0.62238 1.91195,0.29793 0.36437,-0.17696 0.68431,-0.54386 0.8507,-0.97556 l 0.0674,-0.17495 0.008,-0.92772 0.008,-0.92772 2.87438,2e-4 c 1.86675,1.2e-4 2.93249,0.01 3.04017,0.0272 0.43243,0.0704 0.78534,0.39011 0.89656,0.8121 0.0328,0.12442 0.0417,1.23727 0.0367,4.61654 l -4.2e-4,0.30491 h -16.9321 -16.932071 z m 8.349405,-0.82646 c -0.2773,-0.0544 -0.609658,-0.29452 -0.728431,-0.52636 -0.137678,-0.26874 -0.133334,-0.20132 -0.143155,-2.22182 -0.0062,-1.27708 -1.16e-4,-1.93459 0.01896,-2.04701 0.05895,-0.34732 0.280248,-0.63185 0.613022,-0.78818 0.240199,-0.11284 0.531092,-0.12991 0.763567,-0.0448 0.214908,0.0787 0.321969,0.14971 0.463201,0.3074 0.138305,0.15443 0.220633,0.31836 0.255808,0.50937 0.01547,0.084 0.02246,0.89154 0.01803,2.07988 l -0.0073,1.9426 -0.0804,0.16868 c -0.148797,0.31215 -0.401817,0.52609 -0.71993,0.60873 -0.168293,0.0437 -0.275349,0.0464 -0.453415,0.0115 z m 16.774399,0.002 c -0.27553,-0.0468 -0.58695,-0.2777 -0.72977,-0.54113 -0.14663,-0.27043 -0.14661,-0.27017 -0.14605,-2.24714 2.9e-4,-1.06763 0.0111,-1.89137 0.0263,-1.99647 0.0487,-0.338 0.26429,-0.62678 0.58785,-0.78731 0.19021,-0.0944 0.20636,-0.0977 0.47029,-0.0977 0.25713,0 0.2836,0.005 0.44714,0.0859 0.31719,0.15675 0.52717,0.42846 0.58824,0.76117 0.0175,0.0953 0.0243,0.82003 0.0196,2.07601 l -0.007,1.9296 -0.06,0.14927 c -0.13031,0.32397 -0.42278,0.57774 -0.75265,0.65306 -0.19303,0.0441 -0.25825,0.0462 -0.44364,0.0147 z"
         id="daily" /></g></g></svg>
