<?xml version="1.0" encoding="UTF-8" standalone="no"?>
<!-- Created with Inkscape (http://www.inkscape.org/) -->

<svg
   width="31.154848mm"
   height="63.253796mm"
   viewBox="0 0 31.154848 63.253796"
   version="1.1"
   id="svg1"
   xml:space="preserve"
   xmlns="http://www.w3.org/2000/svg"
   xmlns:svg="http://www.w3.org/2000/svg"><defs
     id="defs1"><clipPath
       clipPathUnits="userSpaceOnUse"
       id="clipPath142"><path
         style="fill:#000000;stroke:#000000;stroke-width:0.264583"
         d="m 115.46808,172.19365 0.88239,4.41199 5.04228,0.50423 -1.89085,15.37894 6.80707,6.30285 5.29438,6.55495 c 0,0 2.01691,5.29438 2.14297,5.79861 0.12606,0.50424 0.25211,8.06764 0.25211,8.69792 0,0.63029 -0.12605,7.3113 -0.25211,8.06764 -0.12606,0.75634 -0.8824,6.17679 -0.8824,6.17679 l -13.61414,14.62259 2.89931,12.98386 10.84089,0.63028 4.6641,-5.92467 8.19369,-3.40354 5.79862,-10.46272 2.26903,-7.81552 -0.37818,-13.99231 -2.39508,-8.69792 -1.7648,-12.47963 -0.25211,-2.14297 4.28594,-1.63874 2.89931,-3.15142 0.12605,-3.52959 -3.02536,-7.68947 4.53805,-0.50422 3.02535,-3.78171 -2.39507,-1.63874 -8.69792,-2.01691 -34.66564,-4.03382 z"
         id="path143" /></clipPath></defs><g
     id="layer1"
     transform="translate(-89.422581,-116.87311)"><path
       style="fill:#000000"
       d="m 166.84876,275.41873 c -1.24053,-0.2447 -1.7565,-0.60133 -2.29965,-1.58946 -0.18509,-0.33674 -0.52004,-0.77378 -0.74433,-0.97121 -0.45994,-0.40485 -0.67728,-0.76551 -0.67728,-1.12388 0,-0.13408 0.1054,-0.60129 0.23422,-1.03824 0.29394,-0.99699 0.57137,-2.01093 0.63222,-2.31053 0.0558,-0.27474 0.46494,-0.73506 0.65335,-0.73506 0.17279,0 0.16957,0.0534 -0.0448,0.74208 -0.30285,0.97307 0.0826,1.23131 0.74745,0.50076 0.55662,-0.61161 1.05293,-0.81775 1.98416,-0.82412 0.68334,-0.005 0.73919,-0.0174 0.50865,-0.11596 -0.39858,-0.17039 -1.30472,-0.14132 -1.7291,0.0555 -0.20214,0.0937 -0.56935,0.38373 -0.81601,0.64443 -0.24667,0.2607 -0.46662,0.45587 -0.48877,0.43372 -0.0952,-0.0952 0.20163,-1.20197 0.40129,-1.49619 0.49962,-0.73623 0.93948,-1.80161 1.68241,-4.07494 0.64436,-1.97175 1.67358,-4.82114 1.97472,-5.46703 0.58713,-1.25931 1.39798,-2.17795 3.21876,-3.64667 0.89712,-0.72366 1.16388,-1.21005 1.46435,-2.67003 0.13258,-0.64418 0.2649,-1.23338 0.29404,-1.30933 0.0392,-0.10219 -0.0126,-0.13809 -0.19924,-0.13809 h -0.25222 l 0.0634,-0.62021 c 0.0349,-0.34111 0.14329,-0.99233 0.24093,-1.44715 0.23022,-1.07245 0.32489,-1.77114 0.49797,-3.67532 0.2044,-2.24863 0.28735,-2.61822 0.84546,-3.76674 0.27001,-0.55563 0.49092,-1.0429 0.49092,-1.08282 0,-0.1553 -0.56145,0.57764 -0.82219,1.07332 -0.26732,0.50817 -0.27651,0.51547 -0.33502,0.26578 -0.0331,-0.14121 -0.12053,-0.48416 -0.19431,-0.7621 -0.19248,-0.72511 -0.26522,-2.98444 -0.11837,-3.67645 0.0646,-0.30434 0.30803,-0.93509 0.54098,-1.40168 l 0.42356,-0.84833 0.82694,-0.21435 c 0.5239,-0.1358 1.23102,-0.23386 1.92955,-0.26759 0.81822,-0.0395 1.0315,-0.073 0.82694,-0.12983 -0.32959,-0.0916 -2.69439,-0.11304 -2.91992,-0.0265 -0.12905,0.0495 -0.15816,0.007 -0.15816,-0.22947 0,-0.37483 0.2528,-0.48454 1.60795,-0.69781 0.98717,-0.15535 2.4592,-0.15507 5.09951,9.7e-4 l 0.68912,0.0407 -0.59724,-0.12742 c -2.32946,-0.49697 -4.62719,-0.54176 -6.01833,-0.11732 -0.40429,0.12335 -0.79536,0.24096 -0.86905,0.26137 -0.10328,0.0286 -0.15084,-0.1077 -0.20762,-0.59501 -0.0898,-0.77073 -0.29211,-1.48744 -0.51542,-1.82597 -0.0917,-0.13909 -0.62465,-0.7593 -1.18422,-1.37824 -1.38825,-1.53556 -2.61246,-3.01838 -3.12901,-3.78997 -0.23682,-0.35375 -0.6843,-0.91194 -0.99441,-1.24042 -1.23642,-1.30967 -1.75547,-2.28576 -2.15766,-4.05748 -0.2673,-1.17754 -0.20506,-2.27841 0.19398,-3.43099 0.36572,-1.05635 0.34587,-1.87642 -0.0636,-2.62885 -0.27149,-0.4988 -0.42219,-0.61687 -1.63949,-1.28442 -0.4718,-0.25874 -0.96542,-0.63416 -1.37824,-1.04825 -1.01306,-1.01614 -1.42099,-1.94624 -1.4231,-3.2447 -0.002,-0.9459 0.38098,-1.7103 1.41101,-2.81974 0.61212,-0.6593 0.91469,-0.90377 1.49252,-1.20594 0.87154,-0.45575 2.12375,-0.8093 2.54515,-0.71858 0.50415,0.10853 0.79828,0.30369 0.79828,0.52969 0,0.14832 0.27857,0.45885 0.96642,1.07726 0.82107,0.73819 0.97481,0.92044 1.02218,1.2117 0.0519,0.31894 0.10153,0.36456 0.71257,0.6546 0.85292,0.40485 0.94142,0.51053 0.69251,0.82697 l -0.19068,0.24242 0.18827,0.2644 c 0.10355,0.14543 0.41268,0.74199 0.68695,1.32571 l 0.49867,1.0613 -0.28977,0.41633 c -0.23626,0.33945 -0.39162,0.45294 -0.84129,0.61459 -1.91739,0.68926 -3.5749,1.994 -4.2523,3.34727 -0.19237,0.3843 -0.49873,1.3323 -0.43055,1.3323 0.0217,0 0.14845,-0.21707 0.28168,-0.48238 0.81543,-1.62386 2.04993,-2.74157 3.88092,-3.51378 0.8143,-0.34343 0.85641,-0.32444 0.60653,0.27361 -0.22714,0.54362 -0.10623,0.46089 0.26194,-0.17923 0.65828,-1.14455 1.19231,-1.80373 2.32219,-2.86639 0.96874,-0.9111 1.24216,-1.23411 1.79702,-2.12297 0.91135,-1.45995 1.43388,-2.04037 3.21267,-3.56863 0.85232,-0.73227 1.58163,-1.38764 1.62071,-1.45638 0.0391,-0.0687 0.67605,-0.75934 1.41551,-1.53468 0.73947,-0.77533 1.48272,-1.57509 1.65167,-1.77723 0.16896,-0.20214 0.52132,-0.60337 0.78302,-0.89161 0.26171,-0.28825 0.65117,-0.84644 0.86547,-1.24042 0.42902,-0.78874 0.74103,-1.17159 1.11337,-1.36613 0.14956,-0.0781 0.28875,-0.26288 0.35725,-0.47418 0.31142,-0.96054 0.84691,-1.80918 1.92038,-3.04337 l 0.47255,-0.54331 0.0249,-1.41188 c 0.022,-1.25015 0.0519,-1.48555 0.26049,-2.05506 0.38796,-1.05898 0.62995,-1.42959 1.50805,-2.30951 1.32066,-1.32341 2.60949,-1.87117 4.4027,-1.87117 0.91063,0 0.94552,0.008 1.74944,0.40136 1.0602,0.51876 1.82771,1.08715 2.79641,2.07096 1.78944,1.81733 2.18585,3.69182 1.28814,6.09117 -0.53666,1.43436 -2.12751,3.02665 -3.56422,3.56747 -0.67698,0.25483 -1.60827,0.45339 -2.13607,0.45542 l -0.41458,0.002 -0.50071,0.75804 c -1.01083,1.53033 -2.29686,2.54975 -3.21656,2.54975 -0.37605,0 -0.44015,0.0315 -0.59375,0.2915 -0.27222,0.46084 -0.76356,0.96317 -1.06368,1.08748 -0.44733,0.18529 -0.57014,0.54022 -1.47807,4.27183 -0.75982,3.12289 -1.55393,4.65835 -3.44648,6.66401 -0.4101,0.43461 -0.79797,0.89094 -0.86194,1.01406 -0.064,0.12313 -0.47168,0.76138 -0.90602,1.41834 -0.81178,1.22786 -1.93357,2.45748 -2.78789,3.05588 l -0.42742,0.29938 -0.68646,-0.80474 c -0.69498,-0.81473 -1.43843,-1.56287 -1.30189,-1.3101 0.041,0.0758 0.28958,0.42726 0.55251,0.78101 1.24098,1.66963 1.78524,2.70176 1.79273,3.39967 0.007,0.63582 0.15859,1.00484 0.77017,1.87267 0.76417,1.08436 1.36548,2.36532 1.69907,3.6195 0.15825,0.59498 0.40538,1.38058 0.54917,1.74578 0.14378,0.36519 0.45585,1.2842 0.69347,2.04223 0.46113,1.47105 0.88902,2.64695 1.1535,3.16997 0.0894,0.17687 0.19343,0.4663 0.23109,0.64318 0.0376,0.17687 0.22183,0.48888 0.40929,0.69334 0.36371,0.3967 0.86753,1.20899 1.20232,1.93845 0.14934,0.32539 0.20979,0.64542 0.22315,1.18135 0.0145,0.58055 0.0673,0.83164 0.25145,1.19448 0.12823,0.25268 0.32668,0.71784 0.441,1.03368 0.11433,0.31585 0.23334,0.57346 0.26447,0.57247 0.25166,-0.008 3.36478,-5.71389 4.15051,-7.60729 0.3236,-0.77978 0.55989,-1.32874 0.83138,-1.93154 0.63827,-1.41716 1.98807,-5.22117 2.48325,-6.99831 1.46736,-5.26616 2.18423,-9.43578 2.55916,-14.88504 0.12088,-1.75694 0.11856,-5.82562 -0.004,-7.31451 -0.0537,-0.65157 -0.0847,-1.51545 -0.0689,-1.91973 l 0.0287,-0.73507 0.11922,0.50536 c 0.384,1.62766 0.65793,4.35419 0.72466,7.21281 0.11405,4.88495 -0.43999,9.47644 -1.77946,14.74723 -1.5938,6.27152 -4.70498,13.09836 -8.28417,18.17789 -0.34408,0.4883 -0.65199,0.93314 -0.68425,0.98853 -0.0323,0.0554 0.15102,0.6756 0.40728,1.37824 0.54015,1.481 1.17573,3.79892 1.50607,5.49251 0.21971,1.12639 0.22294,1.18854 0.0678,1.30275 -0.23248,0.17118 -1.04123,0.54095 -2.00054,0.91469 -0.90445,0.35236 -0.638,0.34667 0.61869,-0.0132 0.44136,-0.1264 0.84846,-0.20138 0.90467,-0.16664 0.066,0.0408 0.0804,0.20827 0.0408,0.4724 -0.042,0.28017 0.002,0.7016 0.1403,1.33624 0.33218,1.52686 0.2705,1.86985 -0.68178,3.79104 -0.43615,0.87992 -0.79301,1.66456 -0.79301,1.74364 0,0.2398 -0.7045,2.2685 -1.0896,3.13763 -0.19889,0.44888 -0.6527,1.41589 -1.00846,2.14891 -0.71553,1.47427 -1.20972,2.8386 -1.20972,3.33968 0,0.22611 0.0708,0.39762 0.2297,0.55654 0.16464,0.16463 0.22971,0.32888 0.22971,0.57977 0,0.28183 0.0871,0.45776 0.44705,0.90256 0.67697,0.83666 1.67713,1.53563 3.16197,2.20977 1.40384,0.63737 1.66118,0.8207 1.81769,1.29494 0.13697,0.41503 -0.0577,0.71461 -0.63357,0.97508 -0.87453,0.39555 -3.14737,0.3057 -4.60926,-0.18221 -0.60081,-0.20052 -0.93089,-0.23961 -2.57284,-0.3047 -1.97611,-0.0783 -2.60056,-0.19192 -3.06544,-0.5576 -0.1555,-0.12232 -0.24169,-0.27878 -0.24051,-0.43663 0.004,-0.51318 0.79409,-3.4417 0.96184,-3.56436 0.2309,-0.16884 0.46742,-0.0186 0.59918,0.38064 0.22632,0.68576 0.93372,0.77075 2.05354,0.24672 0.71023,-0.33235 0.80322,-0.44211 0.17378,-0.20511 -0.61685,0.23226 -1.13898,0.30272 -1.42827,0.19273 -0.31822,-0.12099 -0.61785,-0.6083 -0.56474,-0.91849 0.0223,-0.13048 0.18453,-1.0435 0.36041,-2.02895 0.47368,-2.65384 0.5175,-3.04139 0.51305,-4.53691 -0.007,-2.25258 0.16726,-2.96297 1.28899,-5.26381 0.79486,-1.63039 0.80611,-1.78648 0.21815,-3.02802 -0.31756,-0.67058 -0.4503,-0.86623 -0.55933,-0.8244 -0.0786,0.0302 -0.29525,0.0792 -0.48139,0.10898 l -0.33844,0.0541 -0.43535,-1.08801 c -0.42936,-1.07303 -0.43349,-1.09323 -0.30062,-1.46845 0.0741,-0.20925 0.22374,-0.8281 0.33253,-1.37522 0.22591,-1.13616 0.80708,-3.0197 1.19923,-3.88666 0.14647,-0.32383 0.25013,-0.60496 0.23034,-0.62475 -0.0488,-0.0488 -0.53966,1.00425 -1.01538,2.17829 -0.49172,1.21352 -0.95743,2.69935 -1.38236,4.41038 -0.18199,0.73277 -0.37406,1.4928 -0.42684,1.68897 l -0.0959,0.35666 -0.47507,-0.0565 c -0.26129,-0.0311 -0.76451,-0.0993 -1.11826,-0.15159 -0.8356,-0.12347 -4.43894,-0.21095 -3.99691,-0.097 0.17688,0.0456 0.90046,0.14876 1.60795,0.22928 0.7075,0.0805 1.46058,0.16874 1.67351,0.19605 l 0.38714,0.0497 -0.18803,0.47726 c -0.30121,0.7645 -0.9684,2.00064 -1.35144,2.50389 -0.1945,0.25554 -0.4898,0.72009 -0.65622,1.03233 -0.22623,0.42444 -0.56042,0.80456 -1.32419,1.50618 -1.56913,1.44143 -1.66935,1.55803 -2.12946,2.47743 -0.6566,1.31202 -1.2721,2.19392 -2.63648,3.77758 -2.01479,2.3386 -2.81885,3.68534 -3.14605,5.26943 -0.13529,0.65497 -0.13451,0.71512 0.0113,0.87628 0.13665,0.151 0.14292,0.23224 0.0492,0.63809 -0.12905,0.55905 -0.13722,1.06429 -0.0231,1.42509 0.0464,0.14651 0.10874,0.37837 0.13862,0.51524 0.0299,0.13688 0.27105,0.50462 0.53592,0.8172 1.55779,1.83837 1.82318,2.70601 0.9405,3.07481 -0.45782,0.1913 -2.68632,0.24876 -3.49104,0.09 z m 3.67535,-17.14045 c 0.33501,-0.53062 0.76148,-1.12488 0.94772,-1.32057 0.22001,-0.23119 0.26999,-0.32058 0.14268,-0.25523 -0.51953,0.26669 -1.64407,1.79196 -2.15873,2.92801 -0.30915,0.6824 -0.90846,2.21073 -0.90505,2.30802 0.001,0.0336 0.30862,-0.55918 0.68321,-1.31721 0.37459,-0.75803 0.95517,-1.81239 1.29017,-2.34302 z m 16.26771,0.75377 c 0.52079,-1.03905 0.73134,-2.05109 0.50091,-2.40766 -0.0668,-0.10332 -0.0894,-0.0564 -0.0905,0.18743 -0.002,0.49043 -0.24092,1.31231 -0.69304,2.38529 -0.43772,1.0388 -0.27239,0.94223 0.28261,-0.16506 z m 3.45584,-6.97355 c 0.0548,-0.0661 0.0755,-0.12014 0.0458,-0.12014 -0.10879,0 -0.51986,0.69153 -0.51791,0.87124 10e-4,0.11477 0.0726,0.0299 0.1872,-0.22277 0.10184,-0.2245 0.23004,-0.46225 0.28488,-0.52833 z m -15.14586,-2.18751 c 0.0358,-0.30982 0.0276,-0.38462 -0.025,-0.22971 -0.078,0.22956 -0.12679,0.79976 -0.0622,0.72741 0.0188,-0.0211 0.0581,-0.24502 0.0872,-0.4977 z m 14.2089,-9.73194 c 0.002,-0.0463 -0.13954,0.0777 -0.31431,0.27565 -0.17477,0.19793 -0.31888,0.40122 -0.32023,0.45176 -0.001,0.0505 0.14009,-0.0735 0.31432,-0.27565 0.17422,-0.20215 0.31832,-0.40543 0.32022,-0.45176 z m -9.90482,-20.21025 c -0.18001,-1.15622 -1.02485,-2.44118 -2.27575,-3.4613 l -0.74459,-0.60722 0.35749,-0.40647 c 0.19662,-0.22356 0.60604,-0.72709 0.90981,-1.11896 0.57669,-0.74391 0.8749,-0.95292 1.71498,-1.20197 0.52816,-0.15658 0.55231,-0.13059 0.34335,0.3695 -0.21155,0.50632 -0.10042,0.46327 0.21111,-0.0818 0.68778,-1.2033 2.2017,-2.63671 3.16247,-2.99428 0.2677,-0.0996 0.72495,-0.23406 1.01613,-0.29873 0.29117,-0.0647 0.57962,-0.17809 0.64099,-0.25204 0.0966,-0.11644 0.0442,-0.12539 -0.39159,-0.0669 -0.27674,0.0372 -0.65962,0.12067 -0.85085,0.18557 -0.33661,0.11424 -0.34572,0.11172 -0.28606,-0.0791 0.15624,-0.49961 1.24591,-2.35899 1.80294,-3.07649 1.12183,-1.44499 1.91125,-2.70361 2.77557,-4.42528 0.46935,-0.93491 0.88428,-1.79811 0.92206,-1.91824 l 0.0687,-0.2184 -0.90575,0.0656 c -0.49816,0.0361 -0.95557,0.11366 -1.01646,0.17246 -0.3982,0.38452 -1.65787,2.75381 -2.23714,4.20782 -0.48366,1.21401 -1.21942,2.68181 -1.60596,3.20378 -0.41725,0.56347 -1.36562,1.47146 -1.94539,1.86258 -0.7751,0.52289 -0.87827,0.62246 -1.59465,1.53895 -1.03891,1.32913 -2.25673,2.81057 -2.97674,3.62111 -0.51062,0.57484 -0.91973,0.9066 -1.938,1.57163 -1.23441,0.80619 -1.82118,1.33448 -2.12353,1.9119 -0.20035,0.38265 -0.0969,0.38903 0.23208,0.0143 l 0.28788,-0.32787 0.004,0.62341 c 0.002,0.34287 0.0568,0.87149 0.12135,1.1747 l 0.11735,0.5513 0.0531,-1.05665 c 0.0781,-1.55478 0.14673,-1.70168 1.0367,-2.2184 0.40419,-0.23467 1.01288,-0.59914 1.35265,-0.80992 0.40824,-0.25326 0.662,-0.35785 0.74823,-0.30838 0.20025,0.11488 1.53118,1.57787 1.92126,2.1119 0.40199,0.55033 0.83638,1.46816 0.9973,2.1072 0.14992,0.5954 0.20912,0.36769 0.095,-0.36538 z m -0.18838,-13.6357 c 0.16329,-0.28927 0.41643,-0.71201 0.56254,-0.93942 l 0.26566,-0.41347 -0.42398,0.45941 c -0.47917,0.51923 -1.02463,1.56324 -1.10413,2.11331 -0.0511,0.35321 -0.0442,0.34685 0.17495,-0.16317 0.12544,-0.29189 0.36167,-0.76739 0.52496,-1.05666 z m 14.34707,-9.04809 c 0.17147,-0.21478 0.39863,-0.54281 0.5048,-0.72895 l 0.19304,-0.33844 -0.47567,-0.24592 c -0.68403,-0.35364 -1.04365,-0.63302 -1.6931,-1.31534 l -0.57425,-0.6033 -0.46981,0.50042 c -0.55825,0.5946 -1.02905,1.25736 -0.93193,1.31189 0.0382,0.0214 0.18512,0.0666 0.32657,0.10048 0.19388,0.0464 0.30173,0.16546 0.43821,0.48385 0.17277,0.40306 0.1951,0.42005 0.48936,0.3723 0.25855,-0.042 0.41776,0.0217 0.98598,0.39411 0.3727,0.24428 0.72656,0.44757 0.78635,0.45177 0.0598,0.004 0.24899,-0.1681 0.42045,-0.38287 z m -3.51535,-4.20461 c 0,-0.0511 0.35088,-0.36863 0.77974,-0.7057 0.42886,-0.33707 0.76537,-0.62723 0.74781,-0.64479 -0.0176,-0.0176 -0.14073,0.009 -0.27369,0.06 -0.43013,0.16354 -1.62231,1.38336 -1.352,1.38336 0.054,0 0.0981,-0.0418 0.0981,-0.0928 z m 2.95008,-5.72091 c 0.60935,-0.61537 0.84209,-0.77785 1.68103,-1.17357 0.83243,-0.39266 0.97375,-0.4908 0.97375,-0.67626 0,-0.7074 -1.7987,0.0443 -2.81895,1.17806 -0.47771,0.53087 -1.09837,1.76283 -1.18431,2.35079 -0.0603,0.41265 -0.0598,0.41211 0.29038,-0.27565 0.24441,-0.4801 0.56535,-0.90577 1.0581,-1.40337 z m 8.25842,1.15964 c -0.81504,-0.54259 -1.95299,-1.53364 -2.63019,-2.29066 -1.29143,-1.44364 -1.31489,-1.46699 -1.31726,-1.31083 -0.006,0.38445 1.40964,1.91432 2.66973,2.88551 0.57487,0.44307 1.55276,1.05099 1.69119,1.05135 0.0499,1.3e-4 -0.1362,-0.15079 -0.41347,-0.33537 z m -203.3623014,73.97983 0.05216,-0.50536 h -2.450277 -2.450277 l 0.02549,-1.30933 0.02549,-1.30933 2.836903,-0.0211 c 1.560296,-0.0116 2.891406,0.009 2.958021,0.0467 0.09168,0.0513 0.022,0.23188 -0.286617,0.74283 -0.391998,0.64899 -0.435876,0.83954 -0.19332,0.83954 0.103,0 1.01552702,-1.40666 2.11601602,-3.26185 0.23982,-0.40428 0.49557398,-0.81532 0.56833998,-0.91342 0.130965,-0.17655 0.133702,-0.17655 0.27072,0 0.07613,0.0981 0.352,0.52981 0.613045,0.95937 1.06471,1.75199 2.024999,3.11223 2.61089,3.69829 0.341018,0.34111 0.655294,0.62021 0.698393,0.62021 0.0431,0 -0.145585,-0.29977 -0.419297,-0.66616 -0.475207,-0.6361 -2.909768,-4.44481 -3.832281,-5.99536 -0.24053298,-0.40429 -0.40970098,-0.76299 -0.37592798,-0.79712 0.196813,-0.19889 1.43653498,-0.82018 1.46517098,-0.73427 0.01854,0.0556 0.124398,0.23689 0.23523,0.4028 0.258172,0.38645 1.27785,2.01665 1.855373,2.96625 0.89162,1.46606 1.799126,2.82283 1.852443,2.76952 0.02999,-0.03 0.0038,-0.11563 -0.05815,-0.19031 -0.21077,-0.25396 -0.378199,-1.0147 -0.469079,-2.13132 -0.09997,-1.22828 -0.348126,-2.31019 -0.680201,-2.96551 -0.119083,-0.235 -0.307669,-0.72737 -0.419079,-1.09417 -0.165331,-0.54432 -0.183411,-0.71313 -0.09837,-0.91844 0.111349,-0.26882 0.521884,-0.63423 0.97691,-0.86954 0.334354,-0.1729 1.311442,-0.4348 1.622135,-0.4348 0.219762,0 0.222037,0.009 0.220225,0.89586 -0.0019,0.92097 0.136273,1.41656 0.472685,1.69561 0.113859,0.0944 0.108422,0.0525 -0.02628,-0.20251 -0.224249,-0.42461 -0.308982,-2.0104 -0.121625,-2.2762 0.06888,-0.0977 0.437566,-0.42866 0.819293,-0.7354 0.582682,-0.46823 1.7963164,-1.74511 2.4505174,-2.57822 0.140251,-0.17861 0.299304,-0.2292 0.946899,-0.30116 0.765844,-0.0851 2.221149,-0.44999 3.213233,-0.80565 0.277946,-0.0996 0.484683,-0.18364 0.459415,-0.18666 -0.02527,-0.003 -0.500763,0.077 -1.056655,0.17778 -2.018789,0.36607 -10.8619114,1.676 -11.0011264,1.62959 -0.0528,-0.0176 0.540219,-0.16876 1.317826,-0.3359 0.777607,-0.16715 1.723936,-0.37966 2.102953,-0.47225 0.379018,-0.0926 1.019901,-0.23061 1.424187,-0.30671 1.45154,-0.27323 3.1849204,-0.69036 3.3140254,-0.79751 0.07237,-0.0601 0.131587,-0.14638 0.131587,-0.19181 0,-0.0454 0.109419,-0.24794 0.243153,-0.45003 0.133735,-0.20209 0.226766,-0.38312 0.206737,-0.4023 -0.02003,-0.0192 -0.263827,0.001 -0.541773,0.0451 -1.8970434,0.3001 -4.8801834,0.65697 -4.9455274,0.59163 -0.02573,-0.0257 -0.0062,-0.0468 0.04348,-0.0468 0.04964,0 0.728431,-0.14728 1.508413,-0.3273 0.779981,-0.18001 1.9556634,-0.45021 2.6126274,-0.60043 1.897746,-0.43393 1.869808,-0.42271 2.474047,-0.99349 0.876563,-0.82803 1.567831,-1.35103 2.522722,-1.90867 0.486058,-0.28384 1.204184,-0.71478 1.595836,-0.95763 0.391651,-0.24285 0.712093,-0.42856 0.712093,-0.41268 0,0.0159 -0.144716,0.3421 -0.321591,0.72492 -0.378304,0.81879 -0.412789,1.05116 -0.09133,0.61546 0.354705,-0.48078 1.015015,-1.9072 1.190604,-2.57199 0.241506,-0.91434 0.69482,-2.38895 0.734396,-2.38895 0.01941,0 0.366595,0.22822 0.77153,0.50716 0.654242,0.45067 1.750485,0.96309 2.059965,0.96289 0.06202,-4e-5 -0.153705,-0.12613 -0.47938,-0.28019 -0.713245,-0.33742 -1.769407,-1.10442 -2.035634,-1.4783 l -0.193141,-0.27124 0.542437,-1.077 c 0.29834,-0.59235 0.902034,-1.61685 1.341543,-2.27667 l 0.799106,-1.19967 v -1.4257 c 0,-1.11467 0.03924,-1.57914 0.179878,-2.12902 0.50336,-1.96812 1.435751,-3.20616 3.42239,-4.5443 0.962575,-0.64836 1.192884,-0.74984 1.904397,-0.83918 0.890016,-0.11176 2.001224,0.0332 3.038454,0.3963 0.480089,0.16807 0.955583,0.33433 1.056654,0.36946 0.101072,0.0351 -0.138387,-0.10502 -0.53213,-0.31146 -1.129111,-0.592 -2.280316,-0.94525 -3.117974,-0.95677 l -0.709849,-0.01 0.4342,-0.36478 c 0.23881,-0.20063 0.868347,-0.81096 1.398971,-1.3563 l 0.964771,-0.99152 1.607953,-0.32337 c 0.884374,-0.17785 1.690647,-0.35763 1.791718,-0.3995 0.447397,-0.18537 -2.476293,0.0671 -5.83457,0.50384 -1.339195,0.17416 -3.241173,0.42018 -4.226618,0.54673 -0.985445,0.12654 -2.163844,0.28893 -2.618665,0.36087 -1.744029,0.27583 -4.385694,0.60922 -4.435182,0.55973 -0.02847,-0.0285 -0.0099,-0.0518 0.04124,-0.0518 0.05115,0 0.647246,-0.1057 1.324647,-0.23489 0.677401,-0.12919 1.74848,-0.33352 2.380175,-0.45406 2.534183,-0.48359 5.425749,-1.00764 8.11871,-1.47139 l 2.835438,-0.48828 0.426409,-0.46039 c 0.234524,-0.25321 0.529777,-0.48429 0.656116,-0.51351 0.126339,-0.0292 1.160023,-0.24095 2.297075,-0.47051 1.137052,-0.22955 2.108715,-0.43599 2.15925,-0.45874 0.369657,-0.16644 -4.807107,0.42006 -10.199012,1.15548 -1.51607,0.20679 -2.983901,0.39254 -3.261847,0.41278 l -0.505356,0.0368 0.459415,-0.0968 c 0.252678,-0.0532 1.058951,-0.2364 1.791718,-0.40705 1.622467,-0.37786 5.480101,-1.15824 6.799342,-1.37548 0.530624,-0.0874 1.036117,-0.20851 1.123317,-0.26919 0.23284,-0.16204 1.596939,-1.73793 2.209449,-2.5525 0.593556,-0.78936 0.776931,-0.95699 0.670756,-0.61316 -0.03755,0.1216 -0.08458,0.57255 -0.104497,1.00211 l -0.03622,0.781 0.123547,-0.64445 c 0.156104,-0.81427 0.473161,-1.60241 0.908443,-2.25819 0.600225,-0.90427 0.529888,-0.88936 1.682822,-0.35674 0.551502,0.25478 1.064751,0.49633 1.140555,0.53679 0.2194,0.11709 0.450166,0.92071 0.465192,1.62 l 0.01382,0.64318 0.184514,-0.78101 c 0.101482,-0.42955 0.198266,-0.79606 0.215075,-0.81446 0.01681,-0.0184 0.171996,0.054 0.34486,0.1608 0.500995,0.30963 0.482528,0.23333 -0.09646,-0.39853 -0.298745,-0.32603 -0.742233,-0.94745 -0.985529,-1.38094 -0.243296,-0.43349 -0.455067,-0.77545 -0.470603,-0.75992 -0.01554,0.0155 0.0098,0.19248 0.05637,0.3932 0.04654,0.20072 0.0856,0.45882 0.08681,0.57356 l 0.0022,0.2086 -0.344561,-0.17352 c -0.189509,-0.0954 -0.809216,-0.3687 -1.377127,-0.60725 -1.63366,-0.68622 -3.120082,-1.65789 -4.008784,-2.62053 -0.390758,-0.42327 -0.376025,-0.48112 0.17377,-0.68238 l 0.365312,-0.13372 -0.325034,-0.006 c -0.178769,-0.004 -0.943695,0.20131 -1.699835,0.45526 -1.858883,0.62432 -2.215474,0.70874 -3.442169,0.81495 -0.952063,0.0824 -1.202173,0.14618 -2.526782,0.64396 -3.015619,1.13325 -3.069272,1.16705 -3.350409,2.11106 -0.125995,0.42307 -0.342114,0.83756 -0.65819,1.26232 -0.555324,0.74629 -0.700244,1.05843 -0.794059,1.71031 -0.06174,0.42902 -0.09455,0.48413 -0.288198,0.48413 -0.569998,0 -0.749687,-0.88486 -0.380279,-1.87265 0.170461,-0.4558 0.188636,-0.58843 0.09595,-0.70011 -0.246678,-0.29723 -1.131873,-0.0773 -2.784103,0.69167 -1.00767,0.46899 -1.26488,0.55324 -1.618867,0.53022 -0.378575,-0.0246 -0.420854,-0.0501 -0.420854,-0.2537 0,-0.19617 0.168415,-0.31813 1.263391,-0.91492 0.694865,-0.37872 1.263391,-0.72136 1.263391,-0.76141 0,-0.15447 -0.567252,-0.0587 -1.745777,0.2947 -1.603358,0.48082 -1.929543,0.47161 -1.929543,-0.0545 0,-0.23205 -0.08332,-0.19238 1.653894,-0.78744 1.266304,-0.43376 1.560307,-0.56865 1.459365,-0.66959 -0.02445,-0.0245 -0.67473,-9.1e-4 -1.445069,0.0523 -1.474642,0.10187 -1.66819,0.0686 -1.66819,-0.28657 0,-0.2833 0.209257,-0.35485 1.612162,-0.55124 0.75572,-0.10579 1.455882,-0.22525 1.555916,-0.26545 0.178938,-0.0719 0.178753,-0.0748 -0.01144,-0.17657 -0.106324,-0.0569 -0.556851,-0.20881 -1.001171,-0.33756 -0.88067,-0.25521 -1.052874,-0.35337 -1.052874,-0.60014 0,-0.28066 0.268797,-0.28683 1.507538,-0.0346 l 1.20301,0.24498 1.332304,-0.20036 c 0.732766,-0.1102 1.592374,-0.23649 1.910239,-0.28065 0.464211,-0.0645 0.849172,-0.22755 1.956314,-0.82861 2.94744,-1.60015 4.36672,-2.2369 6.653848,-2.98521 1.49104,-0.48784 2.263857,-0.69785 2.464453,-0.6697 0.76352,0.10713 5.034008,1.48616 5.751959,1.85743 0.538519,0.27848 1.844978,1.16362 1.844978,1.24999 0,0.0473 -0.08712,0.0861 -0.19359,0.0861 -0.295127,0 -1.494057,0.29429 -1.598129,0.39227 -0.0581,0.0547 0.0095,0.0679 0.183766,0.0359 0.151607,-0.0278 0.780273,-0.1017 1.397036,-0.16415 0.885476,-0.0897 1.252742,-0.0899 1.745777,-0.001 1.354805,0.24365 2.310561,0.99601 2.966694,2.33532 0.322074,0.65742 0.362732,0.70788 0.312769,0.38812 -0.03158,-0.20214 -0.133068,-0.54326 -0.225517,-0.75803 -0.160637,-0.37319 -0.160822,-0.39051 -0.0042,-0.39051 0.232552,0 1.2349,0.5154 1.437298,0.73905 0.09335,0.10315 0.265235,0.46489 0.381967,0.80387 0.195675,0.56823 0.207908,0.58406 0.156729,0.20286 -0.03053,-0.22741 -0.160743,-0.6799 -0.28936,-1.00554 -0.204824,-0.51858 -0.21974,-0.62692 -0.120171,-0.87289 0.06252,-0.15445 0.258686,-0.73564 0.435918,-1.29153 0.627984,-1.96969 1.375574,-2.98986 2.632382,-3.59217 0.75201,-0.36039 1.325367,-0.40186 2.402192,-0.17377 1.546137,0.32751 2.887106,1.43206 3.714916,3.05995 0.28509,0.56064 0.238558,1.11976 -0.106905,1.28458 -0.229539,0.10952 -0.252678,0.16596 -0.252678,0.61638 0,0.8626 -0.167307,1.40994 -0.561795,1.83791 l -0.357035,0.38734 v 0.92829 c 0,1.05091 -0.06642,1.15584 -0.66971,1.05794 -0.319124,-0.0518 -0.330705,-0.0432 -0.427313,0.31554 -0.07458,0.27699 -0.157051,0.38326 -0.331335,0.427 -0.13264,0.0333 -0.270478,0.15935 -0.321776,0.29427 -0.04936,0.12982 -0.166188,0.25603 -0.259625,0.28046 -0.09344,0.0244 -0.258532,0.20215 -0.366877,0.39493 -0.311214,0.55373 -0.695771,0.61223 -1.273492,0.19373 -0.852358,-0.61744 -1.275344,-0.74191 -1.872112,-0.55089 -0.171782,0.055 -0.373433,0.11932 -0.448112,0.14297 -0.07541,0.0239 0.240319,0.22172 0.710121,0.44498 0.569641,0.27069 0.989546,0.54659 1.28573,0.84477 0.531841,0.53542 1.196501,1.74147 1.043859,1.89411 -0.17427,0.17427 -0.116176,0.22673 0.380888,0.34389 1.062364,0.25043 1.914692,0.82973 2.612081,1.77536 0.361668,0.49041 0.39795,0.58876 0.406758,1.1026 l 0.0097,0.56416 0.108993,-0.68912 c 0.138664,-0.87673 0.304657,-1.18191 1.076368,-1.9789 0.710432,-0.7337 1.221355,-1.70672 1.743033,-3.3195 l 0.302101,-0.93395 -0.370538,-0.49077 c -0.506659,-0.67107 -0.624541,-0.9206 -0.903346,-1.91222 -0.132547,-0.47143 -0.324141,-1.02012 -0.425763,-1.21932 -0.101623,-0.19919 -0.162507,-0.42018 -0.135299,-0.49109 0.128108,-0.33384 0.837885,0.0696 1.12594,0.64007 0.165735,0.32819 0.485673,0.70114 0.601482,0.70114 0.19098,0 0.289771,-0.62395 0.349763,-2.20909 0.06892,-1.82095 0.143599,-2.14105 0.488081,-2.09201 0.177625,0.0253 0.203094,0.0915 0.223066,0.57984 0.03111,0.76059 0.204609,2.00645 0.30119,2.16272 0.115089,0.18622 0.148006,0.0444 0.275358,-1.18609 0.05947,-0.57464 0.15756,-1.21552 0.217974,-1.42419 0.09678,-0.33426 0.142151,-0.37938 0.381451,-0.37938 0.26501,0 0.271548,0.0112 0.269097,0.45941 -0.0014,0.25268 -0.03364,0.97626 -0.07168,1.60795 -0.06399,1.06257 -0.05854,1.12985 0.07282,0.89879 0.0781,-0.13736 0.248754,-0.65087 0.379243,-1.14114 0.264979,-0.99556 0.378035,-1.22777 0.597746,-1.22777 0.330904,0 0.352292,0.20396 0.130363,1.24317 -0.118392,0.55438 -0.265927,1.20594 -0.327855,1.44792 -0.205678,0.80367 0.09388,0.66155 0.617976,-0.2932 0.376376,-0.68564 0.646655,-1.01965 0.825101,-1.01965 0.287516,0 0.163865,0.56271 -0.347625,1.58197 -0.27304,0.5441 -0.523875,1.21611 -0.635594,1.70282 -0.233541,1.01742 -0.313975,1.2176 -0.789747,1.96542 -0.534854,0.8407 -0.622128,1.1072 -1.130126,3.45098 -0.261329,1.20572 -1.069488,3.62115 -1.50027,4.48402 -0.201837,0.40428 -0.641042,1.15894 -0.976012,1.677 -0.530179,0.81998 -0.659714,0.96143 -1.000426,1.09245 -0.374526,0.14402 -0.425988,0.14127 -1.194478,-0.0639 -0.901311,-0.24059 -4.573083,-2.05751 -5.432692,-2.68828 -0.592184,-0.43454 -1.786396,-1.5561 -2.047831,-1.92325 l -0.186943,-0.26254 0.692077,-0.67873 c 0.380642,-0.37331 0.819084,-0.74442 0.974317,-0.82469 0.388538,-0.20092 0.355424,-0.26616 -0.04927,-0.0971 -0.532664,0.22256 -1.200533,0.7516 -2.38786,1.89149 -1.37957,1.32444 -2.084271,1.82851 -3.012313,2.15465 -0.645877,0.22699 -0.732909,0.23866 -0.806004,0.10804 -0.220383,-0.3938 -0.824598,-0.66048 -1.348283,-0.59508 -0.201788,0.0252 -0.154639,0.0585 0.263936,0.18632 0.280285,0.0856 0.607528,0.25986 0.727205,0.38725 0.215136,0.22901 0.215607,0.23384 0.04169,0.42819 -0.514241,0.57465 -2.696943,2.01179 -3.668199,2.41523 -0.732767,0.30438 -1.324923,0.71953 -2.319496,1.62615 -0.382394,0.34858 -0.738901,0.63378 -0.792238,0.63378 -0.05334,0 -0.430925,-0.16315 -0.839084,-0.36256 -0.741545,-0.36228 -2.073194,-0.78384 -2.269428,-0.71843 -0.05715,0.019 0.172282,0.1094 0.509846,0.20077 0.337564,0.0914 0.630075,0.19242 0.650024,0.22456 0.01995,0.0321 -0.425012,0.0504 -0.988803,0.0405 l -1.025075,-0.0179 0.891435,0.12597 c 0.490288,0.0693 1.213867,0.21333 1.607952,0.32011 1.08453,0.29385 3.028085,0.99735 3.730976,1.35048 0.84144,0.42274 2.57779,1.45765 2.707167,1.61354 0.08154,0.0983 -0.0098,0.2738 -0.4218,0.81046 -0.65257,0.85007 -1.84763,2.52089 -2.067262,2.89024 -0.154999,0.26066 -0.148164,0.25816 0.125695,-0.0459 0.420334,-0.46676 2.425347,-2.95303 2.576139,-3.19448 0.07048,-0.11286 0.162013,-0.20519 0.203409,-0.20519 0.138374,0 2.019258,1.3987 3.11581,2.31705 1.421364,1.19037 1.93846,1.81405 2.181971,2.63171 0.24906,0.8363 0.239948,1.41447 -0.03134,1.9884 -0.307081,0.64967 -1.265885,1.5746 -2.130826,2.05557 -0.39729,0.22092 -1.017009,0.61958 -1.377152,0.88592 -1.067766,0.78965 -2.395191,1.50231 -4.995667,2.68206 -2.118294,0.961 -3.864033,2.03899 -5.076595,3.13477 -0.206248,0.18639 -0.229064,0.25056 -0.139871,0.39338 0.085,0.1361 0.07226,0.22875 -0.06293,0.4576 -0.290541,0.49185 -0.29893,1.61234 -0.02014,2.6904 0.25479,0.98526 0.517285,1.50718 1.031333,2.05059 0.604659,0.63919 0.678476,0.76969 0.678476,1.19941 0,0.341 -0.04847,0.45543 -0.287453,0.67868 -0.245375,0.22921 -0.336162,0.26001 -0.62021,0.21039 -0.183017,-0.032 -0.374105,-0.10879 -0.424641,-0.1707 -0.141315,-0.17315 -0.470242,-0.32615 -0.706052,-0.32841 -0.23807,-0.002 -0.572816,-0.24248 -0.650877,-0.46702 -0.08075,-0.2323 -0.534103,-0.26314 -4.064167,-0.27645 -4.170424,-0.0157 -3.952836,-0.056 2.553027,-0.47263 l 0.347836,-0.0223 -0.273744,-0.29862 -0.273744,-0.29862 -1.406395,-0.0197 c -0.773518,-0.0108 -1.611796,-0.009 -1.862841,0.005 -0.88646,0.0473 -0.317941,-0.0978 1.249656,-0.31882 0.87268,-0.12307 1.597552,-0.23462 1.610827,-0.2479 0.01328,-0.0133 -0.166345,-0.39433 -0.399156,-0.84679 -0.347345,-0.67505 -0.607599,-1.01223 -1.450541,-1.87931 -1.314986,-1.35262 -1.366151,-1.43167 -1.283492,-1.98288 0.06263,-0.41766 0.36796,-0.8673 0.912918,-1.3444 0.338391,-0.29626 1.71157,-0.90799 1.902309,-0.84745 0.131195,0.0416 0.548432,-0.18803 1.52804,-0.84111 2.789676,-1.85979 3.19187,-2.22611 4.278465,-3.89681 0.482951,-0.74256 1.603687,-1.70405 2.526597,-2.16758 0.939295,-0.47176 1.809289,-0.69063 2.99574,-0.75366 0.680855,-0.0362 0.920752,-0.0745 0.735064,-0.11737 -0.54327,-0.12548 -1.855291,-0.0794 -2.840968,0.0998 -1.743619,0.31694 -2.843706,0.24773 -5.781204,-0.36371 -2.018872,-0.42023 -2.699336,-0.64744 -4.425213,-1.47762 -1.61721,-0.7779 -2.291154,-1.19676 -2.953117,-1.83538 -1.073467,-1.03562 -1.573091,-2.09075 -1.675065,-3.5375 l -0.06476,-0.91883 -0.111398,0.48691 c -0.06127,0.2678 -0.111398,0.71533 -0.111398,0.99451 0,0.60895 0.359504,1.74247 0.742844,2.3422 0.316909,0.49579 1.135089,1.29396 1.773843,1.73046 0.490575,0.33523 1.93756,1.00132 3.20303,1.47444 0.442187,0.16531 0.803976,0.33137 0.803976,0.36901 0,0.0376 -0.06731,0.1243 -0.149579,0.19258 -0.08227,0.0683 -0.399323,0.49715 -0.704567,0.95305 -0.975172,1.45648 -2.068087,2.76769 -3.404052,4.08397 -1.921407,1.89308 -2.148393,2.04702 -3.597798,2.43986 -1.155832,0.31328 -1.380137,0.43977 -0.643181,0.3627 0.303214,-0.0317 0.732511,-0.0963 0.953993,-0.14347 0.221482,-0.0472 0.426406,-0.0621 0.455385,-0.0331 0.104216,0.10421 -0.316196,0.74362 -0.787426,1.19761 -0.264354,0.25467 -0.822543,0.66582 -1.240421,0.91366 -0.799905,0.47441 -2.675767,1.75509 -4.067564,2.77699 -0.454821,0.33394 -1.447157,1.02109 -2.205192,1.52699 -1.859015,1.24069 -2.62192,1.81811 -3.481059,2.63472 -0.605228,0.57526 -1.8022133,2.01118 -1.8022133,2.16195 0,0.0238 0.08026,0.0432 0.178343,0.0432 0.2994083,0 0.2893753,0.13496 -0.05197,0.69898 -0.512157,0.84627 -0.84037,1.53145 -1.090462,2.27646 -0.277097,0.82546 -0.295058,1.33473 -0.05742,1.62819 0.153692,0.18981 0.200262,0.20118 0.417797,0.10207 0.296867,-0.13527 1.0300733,-0.14749 1.1097903,-0.0185 0.03163,0.0512 -0.0073,0.22292 -0.08646,0.38165 -0.1839833,0.3688 -0.1811263,0.44419 0.01683,0.44386 0.09816,-1.6e-4 0.250276,-0.17017 0.390503,-0.43644 0.223311,-0.42404 0.2425,-0.43685 0.689122,-0.46007 0.630181,-0.0328 0.748464,0.0561 0.559963,0.42061 -0.188239,0.36401 -0.184865,0.47623 0.01431,0.4759 0.09808,-1.6e-4 0.250588,-0.17038 0.391031,-0.43644 l 0.230237,-0.43618 0.538939,0.0188 c 0.296416,0.0103 0.562009,0.0419 0.590207,0.0701 0.0282,0.0282 -0.01816,0.19687 -0.103024,0.37482 -0.193087,0.40491 -0.192793,0.40921 0.02793,0.40921 0.126398,0 0.253628,-0.14092 0.415326,-0.46002 l 0.233107,-0.46001 0.523075,0.0508 c 0.287691,0.0279 0.540354,0.0681 0.561474,0.0892 0.02112,0.0211 -0.02903,0.18051 -0.111453,0.35419 -0.191163,0.40285 -0.188905,0.42585 0.04182,0.42585 0.142634,0 0.240874,-0.11646 0.383994,-0.45522 l 0.192322,-0.45521 0.593489,0.0391 c 0.326418,0.0215 0.609182,0.0548 0.628363,0.074 0.01918,0.0192 -0.02763,0.15473 -0.104028,0.30122 -0.185927,0.35652 -0.175763,0.49606 0.03613,0.49606 0.124141,0 0.2228,-0.12211 0.334074,-0.41348 0.114599,-0.30007 0.211184,-0.41679 0.352161,-0.42557 0.303631,-0.0189 1.017304,0.0235 1.056609,0.0628 0.01948,0.0195 -0.0322,0.13863 -0.114845,0.26477 -0.198928,0.3036 -0.190295,0.51146 0.02125,0.51146 0.119107,0 0.229855,-0.14038 0.36244,-0.45942 l 0.190924,-0.45941 h 0.559274 c 0.423032,0 0.572735,0.0351 0.614532,0.144 0.03039,0.0792 0.0084,0.19084 -0.04883,0.24808 -0.05725,0.0573 -0.104084,0.19918 -0.104084,0.31542 0,0.36571 0.26071,0.2347 0.509344,-0.25596 l 0.23679,-0.46728 1.165974,0.0615 c 1.02212,0.0539 1.205649,0.0887 1.487563,0.28203 0.43488,0.29821 0.706547,0.72441 0.83063,1.30313 l 0.103428,0.48239 h 1.278748 1.278748 v 0.27564 0.27565 l -5.260302,0.006 c -2.893165,0.003 -7.273099,10e-4 -9.733185,-0.005 l -4.4728833,-0.0102 -0.384984,0.50991 -0.384984,0.50991 h -4.39271 -4.392706 z M 36.420843,240.31757 c 1.596223,-0.55145 2.22473,-0.79451 2.177241,-0.842 -0.06733,-0.0673 -2.45511,0.74912 -3.096071,1.05864 -0.688499,0.33246 -0.632223,0.31919 0.91883,-0.21664 z m 9.71256,-5.21677 c -0.0219,-0.11371 -0.03982,-0.0207 -0.03982,0.20674 0,0.22741 0.01792,0.32044 0.03982,0.20673 0.0219,-0.1137 0.0219,-0.29977 0,-0.41347 z m 6.507441,-13.84707 c -0.02977,-0.0482 -0.414677,-0.29119 -0.85534,-0.54004 -0.440663,-0.24884 -0.956258,-0.54429 -1.145767,-0.65655 -0.546936,-0.32398 -0.400097,-0.1387 0.229707,0.28984 0.469955,0.31978 1.686993,0.99296 1.797141,0.99406 0.01562,1.5e-4 0.004,-0.0391 -0.02574,-0.0873 z M 31.964517,205.78162 c 0.555893,-0.16787 1.134755,-0.37252 1.286362,-0.45478 l 0.275649,-0.14957 -0.305544,-0.004 c -0.168049,-0.002 -0.726238,0.1619 -1.24042,0.36428 -1.569667,0.61781 -1.576055,0.71484 -0.01605,0.24375 z m 95.971793,55.3545 c -0.49508,-0.10636 -1.01816,-0.41108 -1.44228,-0.84019 -0.46218,-0.46762 -1.07433,-1.6525 -1.2797,-2.477 -0.20791,-0.83467 -0.12978,-2.09633 0.19347,-3.12408 0.22362,-0.71098 0.23887,-0.85103 0.17011,-1.56201 -0.0415,-0.42956 -0.0753,-1.2565 -0.0751,-1.83766 4.6e-4,-1.19535 0.12994,-1.57089 0.72042,-2.08933 0.30377,-0.26672 1.51806,-0.79814 2.08098,-0.91072 0.20659,-0.0413 0.31167,-0.15476 0.48611,-0.52479 0.25849,-0.54831 1.12474,-2.86407 1.86075,-4.97434 0.78838,-2.26047 1.12605,-2.88519 2.06102,-3.81314 0.57824,-0.5739 1.13365,-0.99778 2.09446,-1.59844 1.23449,-0.77176 1.31322,-0.83849 1.40932,-1.19448 0.1746,-0.64678 0.26182,-1.44404 0.26374,-2.41073 0.002,-1.02029 -0.01,-1.03975 -0.64674,-1.04314 -0.46835,-0.002 -0.54377,-0.15604 -0.45196,-0.92009 0.0455,-0.37902 0.147,-1.39203 0.22544,-2.25113 0.0785,-0.85911 0.20979,-2.03751 0.29187,-2.61867 0.12421,-0.87949 0.13901,-1.52651 0.0883,-3.85908 -0.0657,-3.02201 0.005,-4.24619 0.32035,-5.57566 0.2817,-1.18611 0.51849,-1.76326 0.96175,-2.34417 0.22314,-0.29243 0.46376,-0.74512 0.54549,-1.02625 l 0.14623,-0.50301 0.70773,-0.0673 c 0.88182,-0.0839 2.51885,0.0645 4.15334,0.37658 2.52844,0.48273 3.38008,0.60542 4.45633,0.64196 1.25431,0.0426 1.0499,-0.0342 -0.73506,-0.27611 -0.60643,-0.0822 -1.95022,-0.33621 -2.9862,-0.56449 -2.53054,-0.5576 -3.23464,-0.64138 -4.42078,-0.526 -0.52491,0.0511 -0.98543,0.0769 -1.02338,0.0574 -0.038,-0.0195 -0.0424,-0.50073 -0.01,-1.06947 0.0462,-0.80896 0.0248,-1.18807 -0.0983,-1.74146 -0.14772,-0.66395 -0.21777,-0.78771 -1.14084,-2.01555 -0.54091,-0.7195 -1.48707,-2.0357 -2.10259,-2.92489 -1.25029,-1.8062 -1.31192,-1.87745 -2.44627,-2.82822 -1.29143,-1.08243 -1.65796,-1.62772 -2.44723,-3.64077 -0.52352,-1.33523 -0.96176,-1.7796 -2.44497,-2.47922 -0.56634,-0.26713 -1.23018,-0.6236 -1.4752,-0.79215 -0.24502,-0.16855 -1.23165,-1.09331 -2.19251,-2.05503 -1.52203,-1.52339 -1.79147,-1.83734 -2.09215,-2.43771 -0.53045,-1.05918 -0.58052,-1.44828 -0.45302,-3.52041 0.12688,-2.06208 0.35905,-3.543 0.7461,-4.75922 0.57666,-1.81199 0.93578,-3.24147 1.01947,-4.05808 0.0478,-0.46612 0.11426,-1.08367 0.14773,-1.37233 0.0529,-0.45608 0.0285,-0.591 -0.18629,-1.02999 -0.13594,-0.27784 -0.31729,-0.79198 -0.403,-1.14253 l -0.15584,-0.63736 -0.36753,-0.0494 c -0.20215,-0.0272 -1.3392,-0.19599 -2.52679,-0.37517 -1.18758,-0.17919 -2.20798,-0.32663 -2.26754,-0.32766 -0.26433,-0.005 -0.40067,-0.28861 -0.34654,-0.72201 0.0885,-0.70863 0.11395,-0.74998 0.46174,-0.74998 0.34596,0 2.36312,0.26955 4.18205,0.55884 l 1.15682,0.18399 0.37141,-0.37142 c 0.2948,-0.2948 0.43886,-0.37141 0.69839,-0.37141 0.17984,0 0.35575,-0.0465 0.39091,-0.10344 0.0414,-0.067 0.24023,-0.0853 0.56507,-0.0517 0.28224,0.0291 0.59619,0.008 0.71874,-0.0474 0.17378,-0.0792 0.26921,-0.0649 0.47403,0.071 0.14104,0.0936 0.39967,0.17579 0.57473,0.18269 0.23343,0.009 0.36817,0.0806 0.50536,0.26796 0.10288,0.14049 0.35626,0.43113 0.56305,0.64588 l 0.37598,0.39045 2.7021,0.38345 c 1.48615,0.21089 3.38433,0.48384 4.21816,0.60655 0.83384,0.12271 2.71515,0.39106 4.18068,0.59633 1.46553,0.20528 3.28482,0.47284 4.04285,0.59459 0.75804,0.12175 2.16385,0.3278 3.12402,0.45788 0.96018,0.13009 1.82028,0.25296 1.91134,0.27305 0.12077,0.0266 0.21836,-0.0721 0.36071,-0.36514 0.21676,-0.44616 0.5602,-0.64692 0.96611,-0.56473 0.13937,0.0282 0.38631,0.005 0.54875,-0.0524 0.22383,-0.0786 0.3462,-0.0768 0.50536,0.007 0.1155,0.0611 0.31337,0.1304 0.43971,0.15402 0.12634,0.0236 0.27561,0.10546 0.33172,0.18186 0.0561,0.0764 0.15271,0.13889 0.21469,0.13889 0.23898,0 0.9259,0.59024 1.03363,0.88816 0.086,0.23787 0.16311,0.30642 0.34499,0.30675 0.24115,4.3e-4 4.48508,0.60315 4.84732,0.68841 0.24675,0.0581 0.36072,0.52467 0.21913,0.8971 -0.0862,0.22668 -0.1401,0.25172 -0.54196,0.25172 -0.24544,0 -1.51157,-0.14471 -2.81363,-0.32159 -1.30206,-0.17687 -2.43718,-0.32159 -2.52248,-0.32159 -0.13336,0 -0.15635,0.11558 -0.16402,0.82449 -0.007,0.62462 -0.0532,0.91406 -0.19174,1.19399 -0.26115,0.52783 -0.19417,0.77831 1.03317,3.86371 0.58405,1.46825 1.14624,3.00917 1.24931,3.42427 0.13421,0.54052 0.2111,1.28551 0.27092,2.62485 0.0968,2.16817 0.0901,2.19569 -0.67376,2.76872 -4.02279,3.0176 -4.15393,3.09361 -6.23605,3.61462 l -0.88821,0.22225 -0.3202,-0.83818 c -0.17611,-0.46101 -0.42626,-1.22616 -0.55587,-1.70034 -0.12962,-0.47419 -0.26172,-0.88766 -0.29356,-0.91883 -0.0758,-0.0742 0.0352,0.87776 0.19553,1.67735 0.0697,0.34729 0.39029,1.21558 0.71251,1.92954 0.32223,0.71396 0.67602,1.66304 0.7862,2.10907 0.11018,0.44603 0.37992,1.16961 0.59942,1.60796 0.42174,0.8422 1.19168,3.0256 1.28547,3.64536 0.0306,0.20214 0.12001,1.19448 0.19871,2.20519 0.0815,1.04716 0.23722,2.27244 0.36193,2.84837 0.39253,1.81284 0.52293,2.55901 0.59876,3.42619 0.0411,0.46941 0.13403,0.9449 0.20663,1.05666 0.0726,0.11175 0.16122,0.42625 0.19694,0.69888 0.0399,0.30445 0.20193,0.74758 0.42,1.14854 0.50738,0.93292 0.92465,2.58591 0.96499,3.82281 0.0173,0.53062 0.17811,1.89508 0.35734,3.03213 0.37769,2.39612 0.60124,4.9382 0.67554,7.68194 l 0.0525,1.93924 -0.21991,0.0541 c -0.51426,0.1265 -2.03622,0.33244 -2.93046,0.39652 -0.8973,0.0643 -0.93585,0.0748 -0.5513,0.14991 0.22741,0.0444 0.94065,0.0623 1.58498,0.0397 1.02569,-0.0359 1.17151,-0.0229 1.17151,0.10473 0,0.2916 -0.65894,3.36801 -0.78709,3.67472 -0.0772,0.18483 -0.13174,0.62014 -0.13174,1.05204 0,1.45446 -0.49482,2.00069 -2.88362,3.18321 -0.91552,0.45321 -1.85065,0.97449 -2.07806,1.1584 -0.55295,0.44717 -2.53327,1.70421 -3.95097,2.50793 -3.17002,1.79716 -5.28886,3.33315 -6.2998,4.56686 l -0.33674,0.41095 0.28613,0.26729 c 0.15737,0.14701 0.28613,0.29476 0.28613,0.32834 0,0.12987 -0.18443,0.39375 -0.55044,0.78754 -0.77836,0.83743 -1.19935,1.59753 -1.52517,2.75364 -0.12575,0.4462 -0.18064,1.05244 -0.21777,2.40489 -0.0453,1.65042 -0.0665,1.83091 -0.24279,2.06737 -0.57631,0.773 -1.38834,0.39036 -2.22669,-1.04925 -0.75247,-1.29211 -0.94159,-2.73664 -0.52041,-3.97495 0.23379,-0.68738 0.30545,-1.21539 0.14277,-1.05206 -0.0478,0.048 -0.23233,0.52204 -0.41003,1.05339 -0.36968,1.10544 -0.51157,2.13287 -0.51374,3.71993 -0.003,2.07547 -0.23449,3.21937 -0.748,3.6937 -0.24733,0.22845 -0.79543,0.32348 -1.27343,0.22079 z m 3.07133,-9.10344 c -0.0492,-0.0492 -0.39858,-0.14963 -0.77641,-0.22319 -0.37783,-0.0736 -0.86269,-0.19686 -1.07747,-0.27401 -0.4254,-0.15281 -0.50207,-0.0951 -0.18088,0.13618 0.3524,0.25375 0.98653,0.41565 1.71532,0.43795 0.26517,0.008 0.37744,-0.0189 0.31944,-0.0769 z m 1.10321,-3.26429 c 0.20488,-0.31337 1.33553,-1.52282 2.61984,-2.80243 1.24267,-1.23812 2.56761,-2.63717 2.9443,-3.109 0.54649,-0.68452 0.91027,-1.02289 1.80022,-1.67447 1.3758,-1.00729 1.68972,-1.32144 2.21447,-2.2161 0.45458,-0.77503 0.60692,-0.90005 2.01058,-1.65004 0.63491,-0.33924 0.9062,-0.53757 0.97295,-0.71128 0.0872,-0.2271 -0.0257,-2.1592 -0.16781,-2.86958 -0.0512,-0.25589 -0.0426,-0.26351 0.23401,-0.20819 0.15793,0.0316 0.28714,0.0327 0.28714,0.003 0,-0.23314 0.531,-2.96365 0.90641,-4.66093 0.45409,-2.053 1.00121,-3.9156 1.44479,-4.91862 0.30453,-0.6886 0.22869,-0.72543 -0.1253,-0.0609 -0.92385,1.73446 -1.93824,5.05774 -2.54567,8.34003 -0.19602,1.05917 -0.21274,1.10175 -0.42453,1.08118 -0.62346,-0.0606 -3.63533,-0.29769 -4.35521,-0.34291 -1.18455,-0.0744 -0.73735,0.0764 1.07703,0.36319 2.28078,0.36053 2.1423,0.31534 2.11935,0.69167 -0.0217,0.35542 -0.55103,2.26858 -0.82611,2.98567 -0.20826,0.54287 -1.19578,2.05455 -1.67001,2.55642 -0.183,0.19367 -0.79368,0.69942 -1.35707,1.12389 -0.66241,0.49908 -1.45781,1.23141 -2.25113,2.07262 -0.67474,0.71546 -1.74444,1.84293 -2.37713,2.50549 -1.88791,1.97704 -2.77916,3.16859 -3.29134,4.40032 -0.43298,1.04128 -0.43015,1.29398 0.005,0.4337 0.21721,-0.42956 0.55712,-1.02909 0.75536,-1.33231 z m 5.01376,-15.80387 c 0.002,0.0505 0.0429,0.0299 0.0919,-0.0459 0.049,-0.0758 0.0857,-0.40658 0.0815,-0.73507 l -0.008,-0.59724 -0.11207,0.5513 c -0.0616,0.30322 -0.14299,0.65467 -0.18078,0.78101 -0.0519,0.17364 -0.0452,0.19607 0.0278,0.0919 0.0531,-0.0758 0.0978,-0.0965 0.0993,-0.0459 z m 9.96334,-23.24586 c -0.0629,-0.33534 -0.1014,-0.36783 -0.29225,-0.24663 -0.0896,0.0569 -0.0811,0.15772 0.0391,0.46365 0.11965,0.3046 0.17126,0.3594 0.23357,0.24804 0.044,-0.0786 0.0528,-0.28789 0.0196,-0.46506 z m -3.04098,-7.29045 c 0.53819,-0.38659 1.08484,-0.48043 1.36251,-0.2339 0.10727,0.0953 0.27519,0.35233 0.37315,0.57131 0.24276,0.54267 0.30506,0.42567 0.0836,-0.15706 -0.0984,-0.25893 -0.15185,-0.47063 -0.1188,-0.47044 0.12762,7.3e-4 0.6321,0.35837 1.09377,0.77541 0.54034,0.48811 0.62937,0.45515 0.19477,-0.0721 -0.47398,-0.57501 -1.60281,-1.16292 -2.23313,-1.16302 -0.64796,-1.2e-4 -1.33136,0.55977 -1.79437,1.47008 -0.3534,0.6948 -0.29471,0.76587 0.15195,0.18399 0.25175,-0.32795 0.65068,-0.73488 0.88651,-0.90427 z m -0.86334,-3.01163 c 0.42482,-0.15746 0.65211,-0.29213 0.6591,-0.3905 0.009,-0.1235 0.0174,-0.12549 0.0485,-0.0112 0.0247,0.0906 0.38612,0.22934 1.0385,0.39869 1.17862,0.30594 1.60925,0.29267 0.74004,-0.0228 -1.25561,-0.45573 -1.41386,-0.57567 -2.10479,-1.59518 -0.35076,-0.51757 -0.80785,-1.1271 -1.01576,-1.35451 l -0.37802,-0.41347 0.49914,0.82694 c 0.65858,1.0911 0.78429,1.5075 0.58272,1.93021 -0.0828,0.17373 -0.32344,0.44105 -0.53464,0.59405 -0.47059,0.34089 -0.37365,0.34877 0.46525,0.0378 z m -4.95643,-0.533 c 0,-0.0211 -0.32044,-0.26318 -0.71209,-0.53804 -0.39165,-0.27486 -1.14624,-0.90361 -1.67686,-1.39723 -1.04121,-0.96859 -1.01241,-0.93932 -2.5625,-2.60432 -0.57554,-0.6182 -1.06251,-1.10792 -1.08217,-1.08827 -0.0196,0.0197 0.11013,0.34008 0.2884,0.71207 0.36079,0.75284 0.41475,1.05755 0.17068,0.96389 -0.0844,-0.0324 -0.17898,-0.0176 -0.21017,0.0329 -0.0701,0.11338 -1.51275,-0.32557 -2.16316,-0.65817 -0.25268,-0.12921 -0.68683,-0.38717 -0.96478,-0.57325 l -0.50535,-0.33831 0.39069,0.4012 c 0.50013,0.51358 1.14847,0.90388 2.43688,1.467 0.89797,0.39247 1.08677,0.44413 1.45833,0.39905 0.42655,-0.0517 0.42726,-0.0514 1.14854,0.62121 1.1886,1.10835 1.90236,1.60816 3.29444,2.30694 0.7087,0.35575 0.68912,0.34741 0.68912,0.29334 z m 0.50536,-5.16335 c -0.40383,-0.31256 -1.10887,-0.60377 -2.31635,-0.95674 -0.96062,-0.2808 -1.4671,-0.48892 -2.09403,-0.86044 -0.45482,-0.26952 -1.25294,-0.70748 -1.7736,-0.97324 -1.90495,-0.97235 -2.56834,-1.68464 -2.95393,-3.17172 -0.54133,-2.08767 0.92918,-4.6388 3.33076,-5.77841 1.31053,-0.62188 1.93713,-0.61055 2.56459,0.0464 0.18748,0.19629 0.38788,0.35688 0.44533,0.35688 0.0574,0 0.45197,0.22653 0.87673,0.5034 0.73736,0.48064 1.13839,0.92225 1.13915,1.25444 2.3e-4,0.0999 0.13258,0.18319 0.39693,0.24975 0.21812,0.0549 0.47426,0.18569 0.5692,0.2906 0.15125,0.16714 0.15975,0.23857 0.0686,0.5772 -0.099,0.36771 -0.0909,0.40007 0.16652,0.66716 0.14879,0.15438 0.35447,0.51954 0.45707,0.81145 0.1026,0.29192 0.30904,0.74781 0.45876,1.01309 0.47805,0.84706 0.34978,1.35268 -0.59643,2.35108 -0.50003,0.52761 -0.53315,0.63571 -0.37765,1.23269 0.12155,0.46665 0.76635,2.26408 0.83973,2.34078 0.0189,0.0198 0.11364,-0.14886 0.21048,-0.37478 0.50425,-1.17637 2.05638,-1.71979 4.40597,-1.54259 l 1.04275,0.0786 0.27586,-0.31418 c 0.35203,-0.40095 1.24523,-0.84147 1.98515,-0.97908 0.70886,-0.13182 2.14933,0.0127 2.887,0.28975 0.46816,0.1758 0.47842,0.1761 0.25866,0.007 -0.23775,-0.18242 -1.11247,-0.46305 -1.44335,-0.46305 -0.36201,0 -0.3966,-0.7327 -0.11112,-2.35408 0.23074,-1.31049 0.19208,-2.33144 -0.16309,-4.30744 -0.12716,-0.70749 -0.30544,-1.76185 -0.39617,-2.34301 -0.12402,-0.7944 -0.25857,-1.26797 -0.54212,-1.90805 -0.20744,-0.46827 -0.37717,-0.93099 -0.37717,-1.02826 0,-0.0973 -0.0429,-0.20336 -0.0953,-0.23575 -0.0524,-0.0324 -0.97238,-0.17859 -2.0444,-0.32492 -1.07202,-0.14633 -3.43764,-0.47206 -5.25692,-0.72385 -1.81928,-0.25179 -4.2381,-0.58238 -5.37515,-0.73463 -1.13706,-0.15226 -2.50152,-0.33826 -3.03214,-0.41334 -2.04951,-0.28998 -3.7827,-0.51171 -3.99988,-0.51171 -0.17615,0 -0.22674,0.0477 -0.22674,0.21395 0,0.31334 -0.46512,0.96324 -1.05168,1.46949 -0.28232,0.24367 -0.59012,0.59512 -0.684,0.78101 -0.22203,0.43967 -0.50482,1.69853 -0.70863,3.1546 l -0.16275,1.16273 0.25683,1.58447 c 0.14125,0.87146 0.27762,1.81606 0.30303,2.09912 0.0541,0.60203 -0.20907,2.92037 -0.39157,3.45008 -0.16287,0.47274 -0.0957,0.53695 0.11016,0.10529 0.10042,-0.21057 0.20677,-0.31785 0.28524,-0.28774 0.0866,0.0332 0.11633,-0.0145 0.0965,-0.15524 -0.0264,-0.18711 0.004,-0.20112 0.38485,-0.17629 1.23195,0.0804 2.16408,0.51955 3.12509,1.47243 0.38844,0.38514 0.83653,0.88219 0.99577,1.10455 0.36798,0.51386 0.38133,0.3561 0.0156,-0.18372 -0.15069,-0.22238 -0.27473,-0.43677 -0.27565,-0.47641 -0.002,-0.0975 0.81181,0.0127 1.64546,0.22261 0.44144,0.11116 1.10647,0.40389 1.8836,0.82911 0.97812,0.5352 1.48027,0.74046 2.70354,1.10512 0.82626,0.24632 1.69455,0.54798 1.92954,0.67036 0.49619,0.25843 0.59296,0.28238 0.33536,0.083 z m 2.35438,-0.2118 c 0.24054,-0.10675 0.32827,-0.17878 0.21835,-0.17929 -0.10108,-4.7e-4 -0.39051,0.10016 -0.64319,0.22362 -0.53884,0.26328 -0.18522,0.22638 0.42484,-0.0443 z m 6.07136,0.16507 c 0.4511,-0.0953 1.85713,-0.71674 1.785,-0.78887 -0.0175,-0.0175 -0.37882,0.0983 -0.80282,0.25748 -0.42401,0.15917 -0.99833,0.36323 -1.27627,0.45347 -0.57918,0.18805 -0.42286,0.22947 0.29409,0.0779 z m -10.44716,-3.92877 c 0.35375,-0.0932 1.02319,-0.31736 1.48765,-0.49812 0.46446,-0.18076 1.08107,-0.3724 1.37024,-0.42585 0.73151,-0.13523 0.75055,-0.2231 0.0364,-0.16813 -0.41532,0.032 -0.86312,0.15884 -1.47013,0.4165 -1.20652,0.51214 -1.77166,0.66421 -2.47455,0.66585 -0.42358,9.8e-4 -0.56243,0.028 -0.4657,0.0905 0.21272,0.13748 0.80825,0.10577 1.51607,-0.0807 z m -13.53895,68.89086 c -0.40984,-1.08082 -0.80726,-2.63156 -0.94332,-3.68085 -0.15978,-1.23223 -0.13262,-3.28264 0.0619,-4.67028 0.16329,-1.16516 0.17767,-1.21254 0.23705,-0.781 0.0348,0.25268 0.0668,1.02167 0.0713,1.70888 0.0151,2.34627 0.30704,5.75425 0.60126,7.01924 0.13256,0.56994 0.1174,0.78776 -0.0281,0.40401 z m 15.56112,-4.30827 c 0.27318,-0.9594 2.38589,-4.22847 3.8004,-5.88052 0.86329,-1.00824 2.95225,-2.99137 2.95225,-2.80267 0,0.0345 -0.1964,0.2954 -0.43644,0.57966 -0.24005,0.28427 -0.48573,0.5803 -0.54597,0.65784 -0.0602,0.0775 -0.37298,0.47177 -0.69499,0.87605 -0.322,0.40429 -1.28723,1.66538 -2.14494,2.80243 -0.85771,1.13705 -1.74799,2.31545 -1.9784,2.61867 -0.23042,0.30321 -0.55357,0.73736 -0.71812,0.96477 -0.21533,0.29758 -0.28086,0.34909 -0.23379,0.18377 z m -168.498223,-0.88427 c -0.86314,-0.6478 -1.745138,-1.61047 -2.259438,-2.46609 -0.334062,-0.55577 -0.865262,-1.90427 -0.96048,-2.43827 l -0.05734,-0.32159 0.169257,0.27564 c 0.09309,0.15161 0.450506,0.75115 0.794254,1.33231 0.81074,1.37068 1.714958,2.55793 2.886622,3.79017 0.228244,0.24005 0.375182,0.43645 0.326529,0.43645 -0.04865,0 -0.453383,-0.27388 -0.899401,-0.60862 z m 153.312153,0.0573 c 0,-0.17688 0.0189,-0.24923 0.042,-0.1608 0.0231,0.0884 0.0231,0.23316 0,0.32159 -0.0231,0.0884 -0.042,0.0161 -0.042,-0.16079 z m 18.22709,-0.36753 c 0.41752,-0.81133 2.19215,-3.47964 3.05545,-4.59415 1.58987,-2.05249 2.92313,-3.43453 4.07761,-4.2268 0.65455,-0.44918 0.64166,-0.42884 -0.65269,1.03013 -0.52497,0.59174 -1.01866,1.17061 -1.09708,1.28636 -0.0784,0.11576 -0.33452,0.43788 -0.56909,0.71583 -0.72512,0.85919 -1.58723,1.93143 -2.40096,2.98619 -1.6347,2.11891 -2.49914,3.22077 -2.6311,3.35373 -0.0752,0.0758 0.0228,-0.17228 0.21786,-0.55129 z m -18.40972,-0.91883 c -0.23176,-1.93796 -0.0927,-3.98619 0.38039,-5.60487 0.32164,-1.10039 0.63951,-1.83098 0.54967,-1.26339 -0.018,0.11371 -0.0967,0.65801 -0.17493,1.20957 -0.0782,0.55155 -0.15709,1.02704 -0.1753,1.05665 -0.066,0.10725 -0.34792,3.11583 -0.40548,4.32639 l -0.059,1.24042 z m -148.585888,0.13069 c -1.302586,-0.35035 -2.731938,-1.48682 -3.503578,-2.78568 -0.514241,-0.8656 -0.62598,-1.28837 -0.676352,-2.55904 -0.04721,-1.19099 -0.112234,-1.43478 -0.617815,-2.31643 -0.659301,-1.14971 -0.956019,-2.43719 -0.70187,-3.04545 0.111828,-0.26764 0.404031,-0.50675 1.595126,-1.30527 1.067673,-0.71578 1.562805,-0.9937 1.848721,-1.03771 0.491782,-0.0757 0.506869,0.0445 0.07395,0.58903 -0.238343,0.2998 -0.330499,0.52186 -0.379568,0.9146 -0.08077,0.64647 0.02084,0.84622 0.690925,1.35821 l 0.498135,0.3806 0.199214,-0.2316 0.199214,-0.2316 0.725823,0.14842 c 0.399203,0.0816 0.921729,0.1741 1.16117,0.20549 0.777515,0.10193 0.871927,0.38904 0.460513,1.40045 -0.247093,0.60744 -0.252596,0.6618 -0.248953,2.45883 0.0034,1.67292 0.02585,1.92892 0.250569,2.85555 0.270187,1.11415 0.400334,2.18656 0.309351,2.54907 -0.03203,0.12761 -0.165291,0.35925 -0.296138,0.51475 -0.205061,0.24371 -0.297021,0.2819 -0.666178,0.27669 -0.235552,-0.003 -0.65057,-0.0658 -0.922262,-0.13891 z m 8.061835,-1.48597 c -1.113996,-1.14236 -1.910508,-2.48752 -2.329901,-3.93475 -0.340949,-1.17655 -0.296888,-1.43723 0.09225,-0.5458 0.526647,1.20643 2.101968,3.86257 2.770518,4.67137 0.217677,0.26334 0.2731,0.42939 0.143315,0.42939 -0.03926,0 -0.34354,-0.27909 -0.676185,-0.62021 z m -12.995635,-0.13782 c -1.422137,-1.5356 -2.25381,-3.63121 -2.239215,-5.64227 l 0.0052,-0.72063 0.350692,1.24042 c 0.192881,0.68223 0.381455,1.32312 0.419053,1.42419 0.555633,1.49365 1.162582,2.81903 1.62133,3.54046 0.175705,0.27631 0.350564,0.55407 0.388574,0.61724 0.147901,0.2458 -0.03578,0.0911 -0.545663,-0.45941 z m 91.453628,-0.78825 c -0.860936,-0.30364 -1.666881,-1.15871 -1.97175,-2.09194 -0.0969,-0.29663 -0.148962,-0.7959 -0.152371,-1.46128 l -0.0052,-1.01072 0.522373,-1.29408 c 0.517595,-1.28224 0.522888,-1.30494 0.578575,-2.48084 0.0672,-1.41891 0.219919,-2.03585 0.615504,-2.4864 0.543418,-0.61892 0.971026,-0.68645 2.622832,-0.41425 l 0.94698,0.15606 -0.211916,0.18961 c -0.116553,0.10429 -0.343065,0.27959 -0.50336,0.38956 -0.160294,0.10998 -0.42682,0.41651 -0.59228,0.68119 -0.243008,0.38873 -0.301494,0.57846 -0.304263,0.987 -0.0038,0.55748 0.261061,1.11128 0.621931,1.30049 0.195175,0.10233 0.195665,0.10087 0.02899,-0.087 -0.213365,-0.24045 -0.418678,-0.80766 -0.422777,-1.16798 -0.0053,-0.46152 0.413599,-1.20819 1.024785,-1.82687 0.31803,-0.32193 0.622753,-0.60077 0.677162,-0.61965 0.129883,-0.0451 1.935625,-2.25292 2.290033,-2.79999 0.631762,-0.97519 1.130942,-1.56701 1.594248,-1.89011 0.553827,-0.38623 1.632631,-0.77067 3.313363,-1.18074 1.547627,-0.37759 1.824305,-0.51286 2.210021,-1.08051 0.17506,-0.25762 0.393297,-0.48803 0.48497,-0.512 0.146148,-0.0382 0.165013,-0.14141 0.153151,-0.83776 -0.01649,-0.96793 -0.04237,-0.92562 1.680058,-2.74667 1.603215,-1.69502 2.62074,-2.96201 3.109282,-3.87159 0.52928,-0.98543 1.136978,-1.80167 1.895504,-2.54599 1.437308,-1.41039 2.395395,-1.98888 3.891404,-2.34965 0.810459,-0.19544 2.380161,-0.42571 2.446919,-0.35896 0.02107,0.0211 -0.06167,0.10383 -0.183867,0.1839 -0.505319,0.33109 -0.800536,1.07689 -0.801993,2.02603 -0.0014,0.88824 0.158622,1.55833 0.56239,2.35555 0.487124,0.96179 0.689315,1.18291 0.378043,0.41342 -0.393183,-0.97197 -0.514225,-1.56642 -0.514498,-2.52673 -3.46e-4,-1.22206 0.1544,-1.52636 1.399449,-2.75191 1.615635,-1.59034 1.583902,-1.54352 3.185383,-4.69926 1.038845,-2.04706 2.406661,-3.61421 3.674811,-4.21033 0.58267,-0.2739 1.82243,-0.65082 2.140668,-0.65082 0.07188,0 0.420731,-0.1273 0.775218,-0.28289 1.300734,-0.57089 2.345808,-0.57086 4.127758,1.4e-4 0.92679,0.29698 1.73506,0.35456 2.8159,0.20063 0.26531,-0.0378 0.48239,-0.0558 0.48239,-0.04 0,0.0158 -0.14552,0.21931 -0.32338,0.45232 -0.17786,0.23301 -0.37069,0.51246 -0.42852,0.62101 -0.0971,0.18223 -0.0926,0.18704 0.058,0.0628 0.29622,-0.24445 1.21537,-1.42078 1.40252,-1.79495 0.1011,-0.20214 0.33902,-0.92572 0.52871,-1.60795 0.18968,-0.68223 0.49424,-1.52985 0.67679,-1.8836 0.43509,-0.84312 1.21342,-1.62571 1.96324,-1.97401 0.69908,-0.32474 1.8143,-0.48342 2.55449,-0.36347 1.14882,0.18616 2.67069,1.23237 3.49025,2.39938 0.50544,0.71972 0.92013,1.83994 0.92013,2.48557 0,0.3182 -0.54828,2.28928 -0.83137,2.98878 -0.0461,0.11388 -0.26698,0.29604 -0.49087,0.40482 -0.50504,0.24537 -0.60471,0.4573 -0.70239,1.49363 -0.0647,0.68622 -0.11354,0.85546 -0.30115,1.04307 -0.19207,0.19207 -0.25286,0.20847 -0.42708,0.11523 -0.22987,-0.12303 -0.23864,-0.118 -0.44811,0.2569 -0.14975,0.26801 -1.05801,1.4052 -1.45791,1.8254 -0.13473,0.14156 -0.3078,0.21283 -0.51684,0.21283 -0.68489,0 -0.91001,-0.11045 -1.63314,-0.80133 l -0.71163,-0.67989 -0.48934,0.19821 c -1.06301,0.43057 -1.21951,0.50577 -1.54843,0.74404 -0.18752,0.13584 -0.43066,0.37297 -0.54031,0.52696 l -0.19936,0.27997 0.45665,-0.3073 c 0.25116,-0.16902 0.77992,-0.42982 1.17503,-0.57957 1.19661,-0.45353 1.13096,-0.45866 1.63744,0.12799 0.31943,0.37 0.6124,0.59378 1.03829,0.79307 l 0.59329,0.27764 -0.0476,0.78973 c -0.0563,0.93395 -0.18992,1.35368 -0.65346,2.05203 -0.31634,0.47658 -0.33664,0.54579 -0.25471,0.8682 0.16201,0.63754 0.20781,1.71531 0.11445,2.69336 -0.10394,1.08902 -0.0532,1.55365 0.31596,2.89431 0.34772,1.2627 0.36845,2.99557 0.0542,4.53383 -0.11709,0.57324 -0.18569,1.13143 -0.15245,1.24042 0.0332,0.10898 0.0958,1.14914 0.13911,2.31146 0.0867,2.32977 0.18358,3.01294 0.47043,3.31828 0.20882,0.22227 1.07428,0.48067 2.42505,0.72403 1.05188,0.18952 1.43141,0.30327 2.61866,0.78486 1.14998,0.46647 1.21178,0.50933 1.17616,0.81577 -0.0239,0.20543 -0.0773,0.24151 -0.39515,0.26668 -0.20215,0.016 -0.40682,0.0677 -0.45482,0.11485 -0.048,0.0472 -0.22426,0.0857 -0.39167,0.0857 -0.32986,0 -1.45195,-0.28803 -1.75598,-0.45075 -0.10334,-0.0553 -0.5736,-0.10055 -1.04503,-0.10055 -0.79458,0 -0.86376,0.0148 -0.94784,0.20229 -0.1438,0.32073 -0.61158,0.39138 -1.11548,0.16849 -0.25968,-0.11487 -0.61955,-0.18701 -0.93289,-0.18701 -0.28057,0 -0.64234,-0.0478 -0.80394,-0.10625 -0.34047,-0.12312 -0.62943,-0.5503 -0.54729,-0.80909 0.0311,-0.0979 -0.0141,-0.31452 -0.10033,-0.48129 -0.0863,-0.16676 -0.33389,-0.94901 -0.55026,-1.73833 -0.21638,-0.78932 -0.60765,-1.98839 -0.86948,-2.66461 -0.95796,-2.47402 -1.16835,-3.62386 -1.22907,-6.7171 -0.0256,-1.30614 -0.0829,-2.00031 -0.21802,-2.64403 -0.10079,-0.48009 -0.20624,-1.14898 -0.23433,-1.48643 l -0.0511,-0.61354 0.31751,-0.18734 0.31751,-0.18733 0.009,0.24958 c 0.009,0.23355 0.014,0.23011 0.0812,-0.0536 0.0441,-0.18603 0.29953,-0.54107 0.66114,-0.91883 0.56785,-0.59321 1.51667,-1.91534 1.43392,-1.9981 -0.0221,-0.0221 -0.29947,0.28893 -0.61633,0.69121 -1.29148,1.63961 -2.6267,2.56975 -3.96042,2.7589 -0.56196,0.0797 -0.75722,0.15843 -1.22887,0.49546 -0.3084,0.22039 -0.66411,0.50201 -0.79045,0.62584 -0.27558,0.27009 -1.13244,0.90248 -1.51606,1.11889 -0.15161,0.0855 -0.44104,0.27763 -0.643183,0.4269 -0.202142,0.14927 -0.637983,0.35583 -0.968535,0.45902 -0.486135,0.15175 -0.694021,0.28245 -1.087686,0.68381 -0.290959,0.29664 -0.769817,0.64355 -1.190716,0.86261 -0.691824,0.36006 -0.705942,0.37449 -0.814219,0.83228 -0.126921,0.53661 -0.491567,1.31089 -0.625567,1.32832 -0.157401,0.0205 -0.164844,-1.31041 -0.0087,-1.54878 0.123797,-0.18893 0.122136,-0.20781 -0.01734,-0.19705 -0.119408,0.009 -0.172329,-0.10632 -0.234271,-0.51147 l -0.08002,-0.52338 0.397042,-0.42361 c 0.780483,-0.83272 1.306967,-1.73493 1.769244,-3.0319 0.239197,-0.67109 0.913786,-2.99238 1.023374,-3.52147 0.04789,-0.23121 0.199992,-0.41009 0.625028,-0.73507 0.308956,-0.23622 0.70812,-0.5657 0.887032,-0.73217 l 0.325294,-0.30269 -0.437105,0.26873 c -0.240408,0.1478 -0.979062,0.50983 -1.641452,0.80453 -1.239733,0.55155 -1.399029,0.69882 -0.502697,0.46476 l 0.512948,-0.13395 -0.05792,0.24383 c -0.34391,1.44768 -1.074426,3.56503 -1.57407,4.56233 -0.352431,0.70346 -1.343896,2.07787 -1.422476,1.9719 -0.108949,-0.14693 -0.252378,-0.5912 -0.252378,-0.78174 0,-0.12396 -0.04135,-0.22538 -0.09188,-0.22538 -0.139462,0 -0.110023,1.1329 0.05372,2.06736 0.225244,1.28544 0.27614,4.19001 0.09502,5.42244 -0.08181,0.55662 -0.148736,1.22784 -0.148736,1.49159 0,0.55294 0.518524,4.20079 0.637932,4.48788 0.13358,0.32118 0.631822,0.47996 1.833369,0.5843 0.62413,0.0542 1.264065,0.15621 1.422078,0.2267 0.158014,0.0705 0.461678,0.15299 0.674811,0.18332 0.557689,0.0794 0.828338,0.22681 1.023549,0.55767 0.0944,0.16002 0.37374,0.40716 0.62072,0.54919 1.062,0.61073 1.26754,0.91117 0.82275,1.2026 -0.1706,0.11179 -0.2671,0.12317 -0.40743,0.0481 -0.24527,-0.13126 -0.25879,-0.12759 -0.31448,0.0854 -0.037,0.14153 -0.12533,0.18376 -0.38428,0.18376 -0.37954,0 -0.620911,-0.10841 -0.962096,-0.43213 -0.30159,-0.28614 -0.826769,-0.59773 -1.521311,-0.9026 -0.735438,-0.32281 -0.54306,-0.15101 0.361598,0.32292 0.401021,0.21009 0.855842,0.48347 1.010713,0.60751 0.273253,0.21886 0.276307,0.22953 0.103226,0.36086 -0.0981,0.0744 -0.309483,0.13532 -0.469748,0.13532 -0.312277,0 -1.425864,-0.42681 -1.935718,-0.74192 -0.362724,-0.22417 -0.413271,-0.11564 -0.08078,0.17345 0.126339,0.10985 0.229708,0.28844 0.229708,0.39686 0,0.18458 -0.03409,0.19405 -0.534979,0.14863 -0.294238,-0.0267 -0.697375,-0.12998 -0.895859,-0.22955 -0.247967,-0.12439 -0.640089,-0.19861 -1.253251,-0.23721 -1.398109,-0.088 -1.707649,-0.28336 -1.905127,-1.20232 -0.06424,-0.29894 -0.255306,-0.86713 -0.424592,-1.26264 -0.652226,-1.52383 -1.33743,-3.90193 -1.645392,-5.71059 -0.138896,-0.81573 -0.297866,-3.09573 -0.215846,-3.09573 0.0243,0 0.161692,0.41332 0.305313,0.91848 0.14362,0.50517 0.27807,0.90154 0.298779,0.88084 0.02071,-0.0207 -0.0469,-0.46504 -0.150233,-0.9874 -0.212781,-1.0756 -0.333218,-1.95963 -0.470234,-3.4516 -0.05211,-0.56745 -0.13511,-1.13788 -0.18444,-1.26763 -0.06566,-0.17271 -0.05498,-0.29015 0.03989,-0.4384 0.30928,-0.48333 0.870087,-2.86346 1.298666,-5.51169 l 0.16033,-0.99069 0.227145,0.39345 c 0.456528,0.79078 0.755712,1.50363 0.762865,1.81764 0.0073,0.32027 0.0077,0.32057 0.09829,0.0729 0.134045,-0.3665 -0.127947,-1.27796 -0.584969,-2.03508 l -0.380218,-0.62988 0.111591,-0.54027 c 0.176272,-0.85342 0.589645,-1.76219 1.165163,-2.56151 0.292233,-0.40588 0.555697,-0.7378 0.585476,-0.73761 0.02978,1.8e-4 0.136838,0.19658 0.237909,0.43644 l 0.183766,0.4361 0.05432,-1.19448 c 0.04511,-0.99204 0.09413,-1.29059 0.289265,-1.76157 0.297372,-0.71775 0.710638,-1.32182 1.3289,-1.94245 l 0.486254,-0.48812 -0.378458,0.21247 c -0.899191,0.50481 -1.734225,1.73675 -2.061372,3.04117 -0.120248,0.47946 -0.26221,0.75542 -0.614471,1.19448 -1.437785,1.79205 -1.826299,2.73465 -2.184322,5.29951 -0.375434,2.6896 -0.786729,4.62442 -1.123432,5.28489 -0.170894,0.33522 -0.177672,0.42332 -0.08129,1.05665 0.05783,0.38002 0.104876,1.4825 0.104542,2.44995 -6.59e-4,1.9092 0.113145,3.35351 0.331079,4.20179 0.07626,0.29684 0.118634,0.59189 0.09416,0.65567 -0.118688,0.30929 -3.554086,2.70965 -3.878063,2.70965 -0.258174,0 -1.025017,-0.36625 -1.509465,-0.72093 l -0.321591,-0.23545 0.261505,0.2857 0.261505,0.28569 -0.94441,0.70806 c -1.285621,0.96388 -1.508202,1.0676 -2.48427,1.15767 -0.902331,0.0833 -1.30274,0.22981 -2.176628,0.79667 -0.556303,0.36084 -1.95575,0.94527 -3.416879,1.42693 -1.828356,0.60272 -3.068286,1.20633 -4.180362,2.03506 -0.530918,0.39565 -0.689444,0.55742 -0.570169,0.58186 0.09087,0.0186 0.226996,-0.0174 0.302514,-0.0801 0.2649,-0.21985 0.450362,0.26168 0.254757,0.66144 -0.06488,0.1326 -0.317926,0.4085 -0.562331,0.61313 -0.381216,0.31917 -0.505786,0.51691 -0.876462,1.39128 -0.237649,0.56058 -0.475693,1.21499 -0.528986,1.45425 -0.172807,0.77579 -0.456521,1.63007 -0.643443,1.93744 -0.187531,0.30837 -0.654068,0.5652 -1.025592,0.56459 -0.232249,-3.8e-4 -0.783819,-0.30776 -0.968312,-0.53961 -0.273247,-0.3434 -0.563948,-1.0196 -0.669939,-1.55834 -0.172659,-0.87761 -0.06891,-1.68183 0.340777,-2.64159 l 0.349617,-0.81904 0.0016,-1.36024 c 0.0015,-1.33926 0.0051,-1.36311 0.23126,-1.54608 0.273089,-0.22094 2.229308,-1.16312 3.583437,-1.72589 0.379018,-0.15752 0.95788,-0.45077 1.286362,-0.65167 0.919599,-0.5624 1.083411,-0.62008 2.352731,-0.8284 1.19168,-0.19557 1.468782,-0.29741 3.728652,-1.37029 0.311088,-0.14769 0.384255,-0.14967 0.897636,-0.0242 0.520867,0.12725 0.585419,0.1247 0.947666,-0.0374 0.2138,-0.0957 1.236347,-0.73322 2.272328,-1.41677 2.975591,-1.96333 3.326848,-2.18892 3.790174,-2.43423 0.522104,-0.27642 0.572059,-0.36707 0.09188,-0.16672 -0.944947,0.39427 -2.665144,1.36034 -5.269726,2.95951 -0.772621,0.47438 -1.152007,0.65449 -1.378245,0.65432 -0.474483,-3.5e-4 -1.989194,-0.42661 -2.609241,-0.73427 l -0.551298,-0.27355 0.314731,0.27149 c 0.173102,0.14932 0.534793,0.38647 0.803758,0.527 0.494876,0.25856 0.611737,0.39333 0.341067,0.39333 -0.08162,0 -0.619417,0.23255 -1.195109,0.51677 -0.905851,0.44722 -1.167188,0.53285 -1.941942,0.63629 -1.73169,0.23119 -1.492485,0.1357 -5.538227,2.21087 -0.885973,0.45444 -1.80294,0.9584 -2.037705,1.11993 -0.571043,0.39289 -1.408149,1.23311 -1.888173,1.8952 -0.381961,0.52684 -0.38689,0.54278 -0.206737,0.66897 0.293535,0.2056 0.21911,0.46509 -0.297833,1.03842 -0.265313,0.29426 -0.564509,0.69356 -0.664882,0.88734 -0.100372,0.19378 -0.313847,0.58056 -0.474388,0.8595 -0.320818,0.55743 -0.533473,1.29894 -0.624705,2.17829 -0.136317,1.31391 -0.560382,2.05358 -1.169213,2.0394 -0.168129,-0.004 -0.501915,-0.0763 -0.741747,-0.16092 z m 8.786165,-9.82546 c 0.191528,-0.37037 0.18765,-0.41639 -0.02548,-0.30233 -0.191886,0.10269 -0.468632,0.81388 -0.468632,1.20429 0,0.13629 0.02909,0.38735 0.06465,0.5579 0.05683,0.2726 0.07769,0.22051 0.172519,-0.43074 0.05933,-0.40747 0.174955,-0.87057 0.256943,-1.02912 z m 5.32839,-8.24528 c 0.340493,-0.51282 0.337019,-0.67563 -0.0064,-0.29862 -0.280909,0.30842 -0.504103,0.80398 -0.362098,0.80398 0.01811,0 0.183925,-0.22741 0.36847,-0.50536 z m 16.72496,-4.61712 c -0.322166,-0.7395 -0.502851,-1.46606 -0.507254,-2.03971 -0.0043,-0.55914 -0.01306,-0.58397 -0.131011,-0.37089 -0.205347,0.37099 -0.160786,1.0835 0.103236,1.65071 0.404622,0.86927 0.871651,1.53259 0.535029,0.75989 z M 108.977,226.11922 c 0.5096,-0.83006 0.563,-1.03724 0.14957,-0.58029 -0.19133,0.21146 -0.51325,0.46805 -0.7154,0.5702 l -0.36753,0.18573 0.29635,0.004 c 0.27968,0.004 0.2913,0.0173 0.20673,0.23975 -0.20246,0.53252 -0.0822,0.41528 0.43028,-0.41945 z m -10.106307,-1.93493 c 0.518804,-0.22099 1.039776,-0.55741 1.040674,-0.67202 3.45e-4,-0.0441 -0.06175,-0.0284 -0.137999,0.0349 -0.07625,0.0633 -0.438034,0.27399 -0.803977,0.46825 -0.737413,0.39145 -0.775924,0.45735 -0.0987,0.16888 z m 3.260647,-2.32453 c 0.37016,-0.0105 0.41653,-0.0329 0.34504,-0.1665 -0.063,-0.11769 0.0175,-0.27045 0.33915,-0.64364 0.44299,-0.51398 1.03029,-1.34092 1.22849,-1.72975 0.1609,-0.31565 0.0268,-0.17211 -0.67129,0.71873 -1.08726,1.38742 -1.72579,1.71996 -3.15786,1.64455 -0.495063,-0.0261 -1.003483,-0.0752 -1.129822,-0.10906 -0.214294,-0.0575 -0.217377,-0.0539 -0.04594,0.0547 0.471343,0.29838 0.825635,0.35953 1.745772,0.30132 0.50536,-0.032 1.11126,-0.0636 1.34646,-0.0703 z m -0.78055,-7.96206 c 0.0448,-0.42821 0.0328,-0.56196 -0.046,-0.5133 -0.0586,0.0362 -0.10648,0.24286 -0.10648,0.45926 0,0.21639 -0.057,0.57574 -0.12678,0.79855 -0.0697,0.22281 -0.15302,0.4878 -0.18509,0.58887 -0.0321,0.10107 0.0457,-0.0273 0.17274,-0.28525 0.12818,-0.26021 0.25798,-0.72684 0.29156,-1.04813 z m 3.03559,0.76343 c -0.35518,-0.48091 -0.82455,-0.94357 -1.39631,-1.37638 -0.78669,-0.5955 -0.78842,-0.45999 -0.003,0.26594 0.45295,0.41886 1.01115,0.9536 1.24043,1.18832 0.22927,0.23471 0.43215,0.41238 0.45083,0.39482 0.0187,-0.0176 -0.11252,-0.23028 -0.29156,-0.4727 z m -5.194226,-0.42987 c 0.393587,-0.76039 0.544758,-1.66029 0.356836,-2.1242 -0.06148,-0.15178 -0.08497,-0.1198 -0.134935,0.18377 -0.18789,1.1415 -0.275978,1.52451 -0.475091,2.06573 -0.231411,0.62901 -0.104828,0.56636 0.25319,-0.1253 z m -111.755575,35.07141 c -0.523852,-0.26143 -0.890016,-0.54938 -1.606527,-1.26339 -1.002312,-0.9988 -1.425754,-1.65146 -2.164864,-3.33675 -0.259032,-0.59063 -0.581248,-1.12513 -0.955336,-1.58472 -1.136725,-1.39654 -2.147017,-3.13888 -2.292525,-3.95366 -0.07734,-0.43309 0.199205,-0.79468 0.670962,-0.87727 0.187318,-0.0328 0.505969,-0.15284 0.708111,-0.26676 1.55285,-0.87517 2.365226,-1.25202 2.641152,-1.22518 l 0.294815,0.0287 0.0021,0.93761 0.0021,0.93761 0.403566,0.41149 c 0.594457,0.60611 1.755685,1.14015 1.755685,0.80742 0,-0.0358 -0.237747,-0.20594 -0.528327,-0.37821 -1.236096,-0.73281 -1.461661,-1.05915 -1.359036,-1.96624 0.07959,-0.70348 0.137177,-0.8122 0.786459,-1.48474 0.628272,-0.65078 2.264861,-2.91398 2.975534,-4.1148 0.275664,-0.46578 0.607837,-1.16911 0.738162,-1.56296 0.481656,-1.45555 1.1447606,-2.52588 2.1777836,-3.5152 0.778098,-0.74517 1.117894,-0.99718 1.824142,-1.3529 0.278418,-0.14023 0.414699,-0.23096 0.302847,-0.20161 -0.111852,0.0293 -1.193547,0.0623 -2.403768,0.0733 l -2.2004016,0.0199 -0.181328,-0.37323 c -0.26439,-0.5442 -1.138707,-1.61079 -2.341429,-2.85634 -0.580527,-0.6012 -1.25674,-1.33422 -1.502696,-1.62892 -0.49075,-0.58802 -2.101756,-1.91578 -3.1118,-2.56469 -0.66581,-0.42776 -1.607952,-0.93058 -1.607952,-0.85817 0,0.0227 0.360681,0.25918 0.801514,0.52546 0.542679,0.32779 1.154614,0.82679 1.894929,1.54521 l 1.093416,1.06107 -0.777143,0.0474 c -0.657429,0.0401 -0.884392,0.10043 -1.473369,0.39152 -1.43208,0.70777 -2.443094,1.70792 -3.04559,3.01284 -0.36596,0.79262 -0.817088,2.29363 -0.774306,2.57631 0.03117,0.20595 0.316061,0.38836 1.223894,0.78362 l 0.551298,0.24003 -0.689122,0.32362 c -0.789303,0.37066 -1.390461,0.47648 -1.623432,0.28575 -0.08513,-0.0697 -0.493263,-0.58335 -0.906954,-1.14146 -0.596786,-0.80512 -0.897577,-1.1183 -1.45608,-1.51607 -2.698484,-1.92187 -3.375677,-2.57135 -3.971653,-3.80912 -0.981429,-2.0383 -0.865015,-4.79105 0.29783,-7.04253 0.323211,-0.6258 0.549651,-0.92967 0.956384,-1.28344 0.293099,-0.25493 0.64826,-0.62996 0.789247,-0.8334 l 0.256341,-0.3699 0.555054,0.0619 c 0.810407,0.0904 1.725884,0.43274 3.587193,1.34137 1.468824,0.71703 3.368141,1.47396 3.661242,1.4591 0.05828,-0.003 -0.18347,-0.12058 -0.53722,-0.26138 -1.16035,-0.46186 -1.898581,-0.82866 -3.363049,-1.67099 -1.37689,-0.79197 -2.467903,-1.27202 -2.90045,-1.27623 -0.479418,-0.005 -0.493104,-0.0671 -0.168001,-0.76682 1.294921,-2.78692 1.546406,-3.38925 1.781385,-4.26656 0.145382,-0.54279 0.293548,-1.15228 0.329258,-1.35443 0.08391,-0.47501 0.594383,-2.00432 1.131849,-3.39089 0.492228,-1.26987 0.482804,-1.27828 0.662028,0.59052 0.06532,0.6811 0.153515,1.30038 0.195991,1.37619 0.04278,0.0763 0.074,-1.27611 0.06999,-3.03214 -0.0061,-2.6777 0.01654,-3.26169 0.145906,-3.76064 0.174037,-0.67126 0.470948,-1.29503 0.965318,-2.02799 0.506844,-0.75145 0.536889,-0.82739 0.696302,-1.75985 0.08075,-0.47235 0.223183,-1.03308 0.316513,-1.24606 0.171843,-0.39216 1.061497,-1.61437 1.64879,-2.26511 0.29169,-0.3232 2.049182,-1.71209 2.166471,-1.71209 0.02718,0 0.01192,0.0724 -0.03392,0.1608 -0.247952,0.47836 -0.71492,2.13628 -0.601701,2.13628 0.06283,0 0.5867,-1.0984 0.5867,-1.23014 0,-0.073 0.03187,-0.14658 0.07082,-0.16342 0.03895,-0.0169 0.187017,-0.30665 0.329031,-0.64402 0.412441,-0.97978 0.893394,-1.61823 1.985121,-2.63519 1.060776,-0.98812 1.205045,-1.17968 2.247738,-2.98455 0.345601,-0.59822 0.8645076,-1.40617 1.1531266,-1.79543 0.288619,-0.38926 1.819437,-2.00851 3.401818,-3.59835 1.582381,-1.58983 3.041716,-3.11801 3.242967,-3.39596 0.20125,-0.27794 0.563742,-0.71209 0.805538,-0.96477 0.435596,-0.4552 0.75044,-1.00558 1.235191,-2.15925 0.65418902,-1.55691 1.30480002,-2.79838 2.708598,-5.16842 0.23992,-0.40505 0.408102,-0.43543 0.581241,-0.10499 l 0.125525,0.23958 0.118264,-0.28552 c 0.122466,-0.29566 0.34423,-0.36803 0.537008,-0.17525 0.174654,0.17465 0.132694,0.38396 -0.211408,1.05457 -0.313733,0.61142 -0.315192,0.61915 -0.05913,0.31338 0.178039,-0.21261 0.311144,-0.29486 0.41355,-0.25557 0.320238,0.12289 0.159672,0.56012 -0.739559,2.01383 -0.272807,0.44102 -0.578285,0.98786 -0.678842,1.21518 -0.207345,0.46874 -0.34979,1.61263 -0.200815,1.61263 0.05171,0 0.288308,-0.22743 0.525784,-0.5054 0.463468,-0.5425 0.759193,-0.68033 1.113393,-0.51895 0.346189,0.15774 0.271262,0.40795 -0.339997,1.13541 -0.309611,0.36847 -0.685434,0.92517 -0.835164,1.23711 -0.363889,0.75813 -0.792998,1.16654 -1.53103198,1.45718 -0.529758,0.20863 -0.663244,0.31297 -1.033026,0.80746 -0.62941602,0.84168 -1.86736702,2.9734 -2.53077502,4.35793 -1.403177,2.92843 -2.761156,4.8059 -4.465932,6.17437 -0.462885,0.37156 -0.684802,0.62999 -0.86742,1.01012 -0.303201,0.63113 -0.850479,1.46612 -1.358594,2.07283 -0.7396316,0.88314 -1.5648766,1.93486 -1.8751546,2.38976 -0.568339,0.83325 -1.309833,1.39921 -2.888068,2.20439 -0.594332,0.30321 -1.212977,0.66603 -1.374765,0.80625 l -0.294161,0.25496 0.367532,-0.14736 c 0.202143,-0.0811 0.627735,-0.25258 0.945759,-0.38117 0.318025,-0.12859 0.593769,-0.21826 0.612764,-0.19927 0.019,0.019 -0.108834,0.2655 -0.284065,0.54777 -0.248989,0.4011 -1.514397,3.72233 -1.501243,3.94021 0.009,0.1492 0.383036,-0.51044 1.152724,-2.03294 0.903944,-1.78806 1.625128,-2.84057 2.226726,-3.24973 0.409739,-0.27866 0.382821,-0.3243 0.651379,1.10446 0.170018,0.90451 0.817293,3.18702 0.830699,2.92932 0.0029,-0.0566 -0.05415,-0.44935 -0.126868,-0.87289 -0.07272,-0.42354 -0.198252,-1.28691 -0.27896,-1.91861 -0.08071,-0.63169 -0.189323,-1.30778 -0.241364,-1.50241 -0.08448,-0.31595 -0.0692,-0.38979 0.142568,-0.68912 0.236908,-0.33485 0.661101,-0.87674 1.161513,-1.48379 1.2395766,-1.50371 1.8712356,-2.44877 2.4565306,-3.67532 0.232023,-0.48623 0.387944,-0.67167 0.838876,-0.99768 0.304634,-0.22024 0.531091,-0.43731 0.503236,-0.48238 -0.02785,-0.0451 0.01123,-0.082 0.08685,-0.082 0.07562,0 0.373446,-0.27909 0.661831,-0.62021 0.288386,-0.34111 0.576968,-0.63292 0.641294,-0.64845 0.122041,-0.0295 1.158073,0.86508 1.534409,1.32485 0.513818,0.62774 0.642372,0.8888 0.706816,1.43535 0.0562,0.47668 0.04092,0.58517 -0.102645,0.72874 -0.09278,0.0928 -0.168681,0.24793 -0.168681,0.34479 0,0.0969 -0.03964,0.18989 -0.08808,0.20674 -0.04845,0.0168 -0.209267,0.50192 -0.357379,1.07794 -0.148618,0.578 -0.32902,1.08075 -0.402572,1.12191 -0.550471,0.30806 -0.575545,0.37118 -0.586162,1.47548 -0.0055,0.57273 -0.01584,1.09863 -0.02297,1.16867 -0.0098,0.0967 -0.110251,0.11401 -0.417049,0.072 l -0.40409,-0.0554 -0.0783,0.41507 c -0.04306,0.2283 -0.09897,0.406 -0.124237,0.39491 -0.140595,-0.0617 -0.459415,0.22756 -0.459415,0.41687 0,0.13445 -0.06557,0.2329 -0.174016,0.26126 -0.10035,0.0262 -0.199326,0.16074 -0.233803,0.31771 -0.03288,0.14972 -0.171649,0.40561 -0.30837,0.56866 -0.503386,0.60033 -1.281151,0.46164 -2.351494,-0.41931 -0.7891646,-0.64952 -0.9422416,-0.75585 -0.8393346,-0.58301 0.04513,0.0758 0.2463486,0.33435 0.4471476,0.57455 0.398969,0.47725 0.399293,0.46714 -0.03751,1.17122 -0.165009,0.26598 -0.128886,0.24337 0.20888,-0.13073 l 0.40839,-0.45232 0.452314,0.22261 c 0.664204,0.3269 1.295876,0.30763 1.737755,-0.053 0.185749,-0.15161 0.448008,-0.48239 0.582797,-0.73507 0.134789,-0.25267 0.286419,-0.48866 0.336954,-0.52441 0.40486,-0.28638 0.505732,-0.39912 0.508279,-0.56808 0.0046,-0.30742 0.219467,-0.51546 0.532302,-0.51546 0.3971,0 0.489792,-0.22582 0.506987,-1.23514 l 0.01444,-0.84783 0.393375,-0.50976 c 0.272305,-0.35288 0.449948,-0.71392 0.577194,-1.17311 0.256008,-0.92383 0.457458,-1.2792 1.167862,-2.06017 0.339932,-0.3737 0.907491,-1.14814 1.26124,-1.72097 0.74382702,-1.2045 1.47560002,-2.01785 2.731016,-3.03546 1.779398,-1.44235 2.851546,-2.54319 4.32471,-4.44043 0.854598,-1.10061 0.940673,-1.31387 0.799255,-1.98027 -0.113553,-0.53508 -0.09643,-0.96203 0.08189,-2.04189 0.06476,-0.39221 0.07281,-0.75594 0.02174,-0.98322 -0.09363,-0.4167 -0.0679,-0.46166 0.264212,-0.46166 0.243045,0 0.643883,0.32922 0.643883,0.52883 0,0.0569 0.03786,0.12691 0.08413,0.1555 0.04627,0.0286 0.192618,-0.26873 0.325218,-0.66073 0.134534,-0.39771 0.498773,-1.11882 0.824117,-1.63155 0.469891,-0.74053 0.6252,-0.91883 0.80035,-0.91883 0.3346494,0 0.3191584,0.42154 -0.04981,1.35528 -0.17473,0.44218 -0.301798,0.80397 -0.282374,0.80397 0.01942,0 0.167766,-0.1964 0.329649,-0.43644 0.161882,-0.24005 0.5225324,-0.73814 0.8014424,-1.10689 0.525684,-0.695 0.752938,-0.80231 0.969007,-0.4576 0.102106,0.1629 -0.05927,0.54026 -0.77713,1.81717 l -0.284102,0.50535 0.720089,-0.75945 c 0.70936,-0.74815 0.968647,-0.8957 1.07714,-0.61297 0.0718,0.18712 -0.0982,0.50879 -0.933313,1.76598 -0.378772,0.57021 -0.663937,1.06148 -0.633701,1.09171 0.03024,0.0302 0.371106,-0.24025 0.757489,-0.60109 0.693299,-0.64747 1.070602,-0.8541 1.243621,-0.68108 0.166078,0.16608 -0.08592,0.56224 -0.86351,1.35754 -0.761736,0.77907 -1.017225,1.19473 -1.3949,2.2694 -0.232589,0.66183 -0.7894324,1.45245 -1.3726264,1.94891 -0.669763,0.57014 -0.766926,0.72695 -2.169386,3.50124 -1.222172,2.41764 -1.640852,3.12543 -2.690402,4.5482 -1.044507,1.41594 -1.684716,2.0841 -2.537567,2.64834 -0.682801,0.45175 -0.89573698,0.66318 -1.58947998,1.57828 -0.78225,1.03185 -2.48246502,2.76502 -3.41778102,3.48404 -0.257118,0.19766 -0.953764,0.631 -1.548102,0.96298 -0.594337,0.33198 -1.18896,0.6746 -1.321385,0.76136 -0.239635,0.15702 -0.240443,0.1567 -0.171363,-0.0674 0.153929,-0.49943 -0.06061,-0.0674 -0.460216,0.92679 -0.420457,1.04606 -0.881826,2.54641 -1.418025,4.61136 -0.438712,1.68951 -0.890676,2.94872 -1.481207,4.12676 -0.2996736,0.59781 -0.6933596,1.53077 -0.8748576,2.07325 -0.440309,1.31603 -0.547117,1.50888 -1.632131,2.94689 -1.211852,1.60611 -1.188717,1.56957 -2.071512,3.27184 -0.530973,1.02386 -0.706988,1.43899 -0.589801,1.39106 0.09187,-0.0376 0.332425,-0.0884 0.534567,-0.11307 0.4526,-0.0551 0.808856,0.18987 0.965246,0.66373 0.0823,0.24939 0.155265,0.32016 0.330068,0.32016 0.123424,0 0.473086,0.10104 0.777027,0.22455 0.303941,0.1235 0.747604,0.25208 0.985917,0.28574 1.262622,0.1783 2.9723396,0.70311 4.5051846,1.38289 l 0.522261,0.23162 -0.477806,0.16235 c -0.864028,0.29358 -1.589013,0.93252 -2.461317,2.16917 -0.8767506,1.24296 -0.8623416,1.3171 0.04039,0.20783 0.839144,-1.03112 2.058555,-1.98947 2.78404,-2.18802 0.441508,-0.12083 0.925832,0.0681 2.662756,1.03856 1.827312,1.02099 3.01008102,1.82229 3.50911002,2.37733 0.558894,0.62162 0.974285,1.44523 1.037416,2.05691 0.04235,0.41036 0.0026,0.58852 -0.274293,1.22894 -0.619959,1.43396 -1.070267,2.11697 -2.00596802,3.04257 -0.485328,0.48008 -1.48741,1.60348 -2.226849,2.49644 -0.73944,0.89296 -1.706816,1.94566 -2.149725,2.33934 -0.44291,0.39368 -1.61194,1.52372 -2.597845,2.51118 -1.7346906,1.73744 -2.8509906,3.09652 -3.2723746,3.98407 -0.155629,0.3278 -0.187025,0.3472 -0.474671,0.29323 -0.169411,-0.0318 -0.357953,-0.0769 -0.418984,-0.10036 -0.06103,-0.0234 -0.192474,0.0204 -0.292095,0.0975 -0.137152,0.10607 -0.143516,0.12703 -0.02621,0.0863 0.166985,-0.0579 1.416905,0.19304 1.636094,0.3285 0.113273,0.07 0.100669,0.15549 -0.08401,0.56973 -0.627012,1.40643 -0.666985,1.62185 -0.634475,3.41923 l 0.03007,1.66228 0.491764,1.1026 c 0.804486,1.80375 0.804222,1.80268 0.563297,2.30037 -0.33576,0.69358 -0.679127,0.74631 -1.662926,0.25533 z m 6.2057326,-19.79214 c 0.502053,-0.54227 0.786655,-0.9929 0.923205,-1.46175 0.0368,-0.12634 -0.0923,0.0296 -0.286875,0.34652 -0.194576,0.31693 -0.746555,0.99916 -1.226619,1.51607 -0.673023,0.72468 -0.764422,0.85017 -0.399245,0.54814 0.26048,-0.21544 0.70577,-0.64248 0.989534,-0.94898 z m 6.27198102,-42.90098 c 0.161592,0 0.319357,-0.0413 0.35059,-0.0919 0.03233,-0.0523 -0.04674,-0.0919 -0.183597,-0.0919 -0.337722,0 -1.056823,0.19062 -1.056823,0.28015 0,0.041 0.134105,0.0361 0.298013,-0.0109 0.163907,-0.047 0.430225,-0.0855 0.591817,-0.0855 z M -17.321262,247.81604 c -0.915225,-1.20229 -1.468235,-2.60836 -1.61301,-4.10121 -0.04909,-0.50619 -0.04296,-0.5325 0.07494,-0.32159 0.07062,0.12634 0.302537,0.7052 0.515369,1.28636 0.212832,0.58116 0.614139,1.55282 0.891793,2.15925 0.70255,1.53445 0.772999,1.69984 0.724064,1.69984 -0.02368,0 -0.290594,-0.3252 -0.593153,-0.72265 z m 92.881101,-0.96612 c 0.407594,-0.5131 4.815339,-3.58876 6.316468,-4.40754 1.400061,-0.76365 2.987753,-1.48707 2.645285,-1.20531 -1.149802,0.94601 -3.275366,2.30702 -7.580347,4.85373 -0.530624,0.31391 -1.088813,0.65127 -1.24042,0.74969 -0.255303,0.16575 -0.265709,0.16644 -0.140986,0.009 z m 5.722189,-2.19634 c 0.05795,-0.18218 2.262984,-1.80009 3.52826,-2.58881 1.301601,-0.81135 2.193986,-1.27413 2.732704,-1.41713 l 0.356792,-0.0947 -0.218968,0.23621 c -0.286214,0.30873 -2.506578,1.76915 -3.848346,2.5312 -2.04361,1.16064 -2.585673,1.44401 -2.550442,1.33325 z m -105.51683,-2.59081 c -0.183951,-0.0677 -0.646767,-0.17342 -1.02848,-0.235 -0.614634,-0.0992 -0.711135,-0.0949 -0.843615,0.0376 -0.230385,0.23039 -0.467556,0.17991 -0.822525,-0.17506 -0.376431,-0.37643 -0.431562,-0.81366 -0.163715,-1.29838 0.466167,-0.84362 0.597722,-1.05141 1.066616,-1.68475 0.853954,-1.15345 3.181052,-5.52997 3.639801,-6.84529 0.391319,-1.12198 0.606851,-1.46048 1.424453,-2.23712 1.077852,-1.02385 2.516345,-1.84321 3.246476,-1.84918 0.178785,-0.001 0.280648,-0.0403 0.247255,-0.0944 -0.03123,-0.0505 -0.275185,-0.0919 -0.542117,-0.0919 -0.625533,0 -1.062617,-0.13782 -2.329226,-0.73448 -1.204856,-0.56757 -1.184198,-0.52169 -0.794557,-1.76458 0.653219,-2.08367 1.786656,-3.3766 3.610875,-4.11897 0.542542,-0.22079 0.806295,-0.27319 1.375067,-0.27319 h 0.703761 l 1.29902,1.30933 c 2.496828,2.51665 3.147049,3.46704 3.227273,4.71711 0.0384,0.59833 0.01084,0.77719 -0.204183,1.32525 -0.136715,0.34846 -0.415967,0.89391 -0.62056,1.21212 -0.461747,0.71815 -1.722293,1.97782 -2.694249,2.69238 -0.403716,0.2968 -1.250871,1.03873 -1.882566,1.64873 -0.631696,0.60999 -1.984967,1.88668 -3.00727,2.83708 -1.022303,0.9504 -2.069508,1.963 -2.327123,2.25021 -0.602873,0.67215 -1.344386,1.7905 -1.82361,2.75038 -0.20815,0.41691 -0.388329,0.75512 -0.400399,0.75156 -0.01207,-0.004 -0.172451,-0.0618 -0.356402,-0.12952 z m 2.046012,-7.46733 c 0.114291,-0.14573 0.111041,-0.14898 -0.03469,-0.0347 -0.08844,0.0694 -0.160795,0.14172 -0.160795,0.1608 0,0.0756 0.07545,0.0269 0.195486,-0.12611 z m 2.922764,-3.19293 c 1.028453,-1.22535 1.005727,-1.34365 -0.05295,-0.27565 -0.855169,0.86269 -2.025323,2.22738 -2.636266,3.07454 -0.285174,0.39544 2.034576,-2.01892 2.689219,-2.79889 z m 83.803066,0.36619 c 0,-0.0587 1.475233,-1.18415 2.251134,-1.7174 0.404285,-0.27785 1.658561,-1.16252 2.787281,-1.96594 3.443088,-2.45079 3.61747,-2.57013 4.471476,-3.06015 0.454821,-0.26098 1.054357,-0.53705 1.332303,-0.61349 0.277946,-0.0764 0.660409,-0.1957 0.849918,-0.265 0.189509,-0.0693 0.344561,-0.11377 0.344561,-0.0988 0,0.0326 -2.044531,1.48982 -3.07808,2.19386 -0.983966,0.67026 -4.427875,2.82858 -5.742688,3.59897 -0.58116,0.34052 -1.542486,0.92141 -2.136279,1.29086 -0.593794,0.36945 -1.079626,0.65615 -1.079626,0.6371 z m 5.788629,-2.51427 c 0,-0.16081 4.256353,-2.84802 5.076536,-3.20503 0.635549,-0.27665 7.74e-4,0.26607 -1.306836,1.11731 -0.664414,0.43253 -3.651194,2.16843 -3.730981,2.16843 -0.02129,0 -0.03872,-0.0363 -0.03872,-0.0807 z m 123.712121,-3.18114 c 0.42633,-1.17144 1.16265,-4.13445 1.51841,-6.11021 0.78581,-4.36417 1.05186,-7.42411 1.21032,-13.92028 l 0.009,-0.36753 0.0799,0.32159 c 0.17002,0.68406 0.36285,2.45877 0.41719,3.83967 0.16398,4.16622 -0.69277,9.38583 -2.28804,13.93969 -0.38205,1.09058 -0.88718,2.37037 -0.96106,2.4349 -0.0289,0.0253 -0.0225,-0.0368 0.0143,-0.13783 z m 5.87745,-4.34147 c 0.2419,-0.82876 0.38463,-1.46019 0.74251,-3.28481 1.24804,-6.36304 1.5914,-11.86304 1.10303,-17.66855 -0.0863,-1.02557 -0.13128,-1.89024 -0.10003,-1.9215 0.15311,-0.15311 0.50636,0.16963 0.64243,0.58695 0.37272,1.14311 0.51906,3.87163 0.40543,7.55921 -0.13257,4.30252 -1.10042,9.79534 -2.47381,14.03958 -0.15126,0.46746 -0.2956,0.84992 -0.32075,0.84992 -0.0252,0 -0.0246,-0.0724 0.001,-0.1608 z M 83.101632,217.37707 c 0.750211,-0.65777 3.754697,-2.78177 5.324988,-3.76446 0.981506,-0.61423 2.664607,-1.56132 2.664607,-1.49939 0,0.0187 -0.431628,0.38129 -0.959172,0.80567 -1.277628,1.02779 -2.95503,2.14193 -4.967282,3.2993 -0.909641,0.52319 -1.777936,1.026 -1.929543,1.11734 -0.151606,0.0914 -0.211726,0.11004 -0.133598,0.0415 z m -120.830554,-1.87032 c 0.551791,-1.02915 2.036242,-3.26648 3.109143,-4.68603 1.397182,-1.84861 4.321633,-4.86029 5.89568,-6.07154 0.957573,-0.73687 2.090145,-1.47061 2.160839,-1.39992 0.02027,0.0203 -0.405962,0.44425 -0.947188,0.94217 -4.186428,3.85146 -7.351143,7.36243 -9.819386,10.89373 -0.802518,1.14816 -0.872495,1.20455 -0.399088,0.32159 z m -3.955959,-1.59134 c 0.562917,-1.12748 2.10118,-3.40862 3.573926,-5.29988 3.133416,-4.02387 7.111259,-7.69846 10.98537,-10.1479 1.594795,-1.00832 3.577694,-2.11848 3.783898,-2.11848 0.0322,0 -0.762559,0.58567 -1.766127,1.3015 -6.671303,4.75852 -12.403169,10.37641 -16.0622,15.74279 -0.789661,1.15813 -0.876374,1.24604 -0.514867,0.52197 z m 8.320708,-6.72407 c 0.04561,-0.0758 0.514469,-0.68777 1.041917,-1.35993 1.367677,-1.7429 3.427283,-3.62848 5.389772,-4.93437 1.095166,-0.72874 2.321045,-1.42756 2.221382,-1.2663 -0.03408,0.0551 -0.731873,0.65212 -1.550654,1.32661 -2.575036,2.12128 -4.206125,3.54123 -5.719752,4.97934 -0.806072,0.76586 -1.428271,1.33045 -1.382665,1.25465 z m 55.726917,-2.67469 c 1.860164,-0.46873 4.641187,-0.91169 6.835656,-1.08878 1.38402,-0.11169 1.483235,-0.11441 1.407422,-0.0386 -0.119163,0.11917 -1.403451,0.40489 -3.2693,0.72734 -1.417219,0.24493 -4.626044,0.60036 -5.270301,0.58379 -0.369744,-0.01 -0.352481,-0.0202 0.296523,-0.18375 z m -36.972185,-10.28642 c 0.368757,-0.62249 0.446651,-0.72664 0.582379,-0.77873 0.08762,-0.0336 0.0672,0.0242 -0.05619,0.15903 -0.106605,0.11651 -0.260391,0.34359 -0.341746,0.50463 -0.08136,0.16103 -0.198255,0.3239 -0.259776,0.36192 -0.06152,0.038 -0.02762,-0.0731 0.07533,-0.24685 z"
       id="path69-0"
       clip-path="url(#clipPath142)"
       transform="matrix(0.68085187,0,0,0.68085187,10.977579,1.5229122)" /></g></svg>
