<?xml version="1.0" encoding="UTF-8" standalone="no"?>
<!-- Created with Inkscape (http://www.inkscape.org/) -->

<svg
   width="37.478519mm"
   height="60.98439mm"
   viewBox="0 0 37.478519 60.98439"
   version="1.1"
   id="svg1"
   xml:space="preserve"
   xmlns="http://www.w3.org/2000/svg"
   xmlns:svg="http://www.w3.org/2000/svg"><defs
     id="defs1" /><g
     id="layer1"
     transform="translate(-86.259233,-118.00781)"><path
       id="path65"
       style="fill:#000000"
       d="m 116.91972,118.00781 c -0.0842,8e-5 -0.16301,0.0671 -0.21549,0.19378 l -0.0811,0.19586 -0.0863,-0.16434 c -0.11872,-0.22657 -0.23392,-0.20591 -0.39843,0.0718 -0.96256,1.62509 -1.40868,2.47642 -1.85725,3.54397 -0.33238,0.79105 -0.5483,1.16841 -0.84698,1.48053 -0.16579,0.17326 -0.41442,0.47088 -0.55242,0.66146 -0.13799,0.19059 -1.13863,1.23842 -2.22363,2.32854 -1.08501,1.09012 -2.13426,2.20064 -2.33216,2.46755 -0.1979,0.26691 -0.55368,0.82074 -0.79065,1.23093 -0.71496,1.23757 -0.81416,1.36886 -1.54151,2.04639 -0.74858,0.69731 -1.07835,1.13531 -1.36116,1.80713 -0.0974,0.23133 -0.1986,0.42981 -0.22531,0.44131 -0.0267,0.0115 -0.0486,0.062 -0.0486,0.11214 0,0.0889 -0.34852,0.82002 -0.40049,0.84284 l -5.2e-4,5.2e-4 h -5.2e-4 -5.1e-4 -5.2e-4 c -3e-4,0 -7.4e-4,4e-5 -0.001,0 -2.8e-4,-7e-5 -10e-4,10e-5 -0.002,0 -2.6e-4,-1.4e-4 -0.001,-8.6e-4 -0.002,-0.001 -0.0579,-0.051 0.25049,-1.14317 0.41652,-1.46348 0.0265,-0.0512 0.0382,-0.0947 0.03,-0.10697 l -5.2e-4,-5.2e-4 -5.1e-4,-5.1e-4 -5.2e-4,-5.2e-4 -5.2e-4,-5.2e-4 -5.1e-4,-5.1e-4 c -2.4e-4,-1e-4 -0.001,-4.5e-4 -0.002,-5.2e-4 -2.7e-4,-5e-5 -10e-4,2e-5 -0.002,0 l -5.1e-4,-5.2e-4 c -0.0804,0 -1.28569,0.95248 -1.4857,1.17409 -0.4027,0.4462 -1.01285,1.28451 -1.13068,1.5534 -0.064,0.14605 -0.16167,0.53033 -0.21704,0.85421 -0.10931,0.63937 -0.12996,0.69139 -0.47749,1.20664 -0.33898,0.50258 -0.54264,0.93034 -0.66198,1.39061 -0.0887,0.34213 -0.10393,0.74261 -0.0997,2.57866 0.003,1.20408 -0.0187,2.13124 -0.0481,2.07894 -0.0291,-0.052 -0.0896,-0.47659 -0.13436,-0.94361 -0.12289,-1.2814 -0.11672,-1.27536 -0.454236,-0.40463 -0.368531,0.95075 -0.718123,1.99923 -0.775663,2.32493 -0.02448,0.13861 -0.126136,0.55644 -0.225826,0.92862 -0.16112,0.60155 -0.333728,1.01446 -1.221631,2.9254 -0.222916,0.47979 -0.213488,0.52307 0.115239,0.52607 0.29659,0.003 1.044918,0.33185 1.989025,0.87488 1.004162,0.57758 1.510172,0.82899 2.305802,1.14567 0.20845,0.083 0.35991,0.15448 0.37311,0.17415 l 5.1e-4,5.1e-4 5.2e-4,5.2e-4 v 5.2e-4 5.2e-4 5.1e-4 5.2e-4 5.2e-4 h -5.2e-4 v 5.1e-4 h -5.1e-4 l -5.2e-4,5.2e-4 h -5.2e-4 c -8.5e-4,2.1e-4 -0.002,4.5e-4 -0.004,5.2e-4 -0.20097,0.0102 -1.50329,-0.5088 -2.510437,-1.00046 -1.276265,-0.62303 -1.904117,-0.85784 -2.459798,-0.91984 l -0.380856,-0.0424 -0.1757,0.25374 c -0.09667,0.1395 -0.34008,0.39674 -0.541052,0.57154 -0.278889,0.24257 -0.434155,0.45095 -0.655774,0.88005 -0.797341,1.5438 -0.87707,3.43101 -0.204122,4.82864 0.408649,0.84872 0.873048,1.29394 2.723348,2.61173 0.382955,0.27275 0.589184,0.48768 0.998389,1.03973 0.28366,0.38269 0.563297,0.7351 0.621667,0.7829 0.159744,0.13078 0.571905,0.0578 1.113115,-0.19637 l 0.47284,-0.22169 -0.37828,-0.16434 c -0.62248,-0.27102 -0.81785,-0.39621 -0.83922,-0.53743 -0.02934,-0.19383 0.2803,-1.22333 0.53123,-1.76682 0.41312,-0.89476 1.1063,-1.5802 2.08825,-2.0655 0.40385,-0.19957 0.55949,-0.24122 1.01027,-0.26872 l 0.53279,-0.0326 -0.74983,-0.7276 c -0.50762,-0.49261 -0.92704,-0.83461 -1.29915,-1.05937 -0.30227,-0.18258 -0.54983,-0.34458 -0.54983,-0.36018 v -5.2e-4 -5.2e-4 l 5.1e-4,-5.1e-4 v -5.2e-4 l 5.2e-4,-5.2e-4 v -5.1e-4 h 5.2e-4 l 5.1e-4,-5.2e-4 h 5.2e-4 c 0.0473,-0.0187 0.66149,0.31037 1.10019,0.59221 0.69257,0.44494 1.79722,1.35536 2.13372,1.75855 0.16865,0.20207 0.63237,0.70449 1.03043,1.11673 0.82468,0.85405 1.42378,1.58538 1.60507,1.95853 l 0.12454,0.2558 1.50895,-0.0134 c 0.82983,-0.008 1.57127,-0.0306 1.64796,-0.0507 0.0132,-0.004 0.0213,-0.004 0.0248,-0.003 h 5.2e-4 l 5.1e-4,5.2e-4 h 5.2e-4 v 5.2e-4 h 5.2e-4 v 5.1e-4 5.2e-4 5.2e-4 5.1e-4 c -0.006,0.0149 -0.0944,0.0679 -0.23462,0.1385 -0.48426,0.24391 -0.71704,0.41664 -1.25056,0.92759 -0.70833,0.67836 -1.16319,1.41214 -1.49345,2.41019 -0.0894,0.27005 -0.3169,0.75239 -0.50592,1.07177 -0.48729,0.82338 -1.60939,2.3753 -2.04018,2.82153 -0.4452,0.46115 -0.48493,0.53567 -0.5395,1.01803 -0.0704,0.62197 0.0842,0.84576 0.93172,1.34823 0.19769,0.1172 0.35973,0.23317 0.36225,0.2589 v 5.2e-4 c 0,0.22815 -0.79593,-0.13837 -1.20354,-0.55397 l -0.27699,-0.28216 -0.002,-0.64285 -0.001,-0.64286 -0.20257,-0.0196 c -0.1892,-0.0184 -0.74598,0.24017 -1.81074,0.84026 -0.13861,0.0781 -0.35732,0.16043 -0.48576,0.18293 -0.32348,0.0566 -0.51295,0.30454 -0.45992,0.60151 0.0998,0.55868 0.79256,1.75337 1.572,2.71095 0.2565,0.31513 0.47764,0.68177 0.65525,1.08675 0.5068,1.15557 0.79688,1.60284 1.48415,2.28772 0.4913,0.48956 0.74255,0.68683 1.10174,0.86609 v 5.2e-4 c 0.67457,0.33665 0.90976,0.30039 1.13998,-0.17518 0.1652,-0.34126 0.1656,-0.34037 -0.38602,-1.57717 l -0.33745,-0.75603 -0.0202,-1.13998 c -0.0223,-1.23241 0.005,-1.38018 0.4346,-2.34455 0.12663,-0.28403 0.13555,-0.34267 0.0579,-0.39067 -0.1503,-0.0929 -1.0074,-0.26501 -1.1219,-0.22531 -0.0289,0.01 -0.047,0.0146 -0.0537,0.0129 -2.6e-4,-1e-4 -10e-4,-4e-4 -0.002,-5.2e-4 l -5.2e-4,-5.2e-4 h -5.2e-4 v -5.2e-4 -5.1e-4 h -5.1e-4 v -5.2e-4 -5.2e-4 c 10e-4,-0.009 0.0264,-0.0312 0.0749,-0.0687 0.0683,-0.0529 0.15814,-0.0833 0.19999,-0.0672 0.0418,0.016 0.17115,0.0469 0.28732,0.0687 0.19723,0.037 0.21885,0.0237 0.32556,-0.20103 0.28893,-0.60858 1.05434,-1.54028 2.24379,-2.73161 0.67602,-0.67709 1.47759,-1.45192 1.78128,-1.72186 0.3037,-0.26994 0.96731,-0.99176 1.47433,-1.60404 0.50702,-0.61228 1.19375,-1.38285 1.52653,-1.71204 0.64159,-0.63466 0.95053,-1.10295 1.37562,-2.08618 0.18988,-0.43913 0.21714,-0.56094 0.1881,-0.84232 -0.0433,-0.41941 -0.32836,-0.98453 -0.71158,-1.41077 -0.34217,-0.38058 -1.1531,-0.92979 -2.40605,-1.62987 -1.19098,-0.66542 -1.523,-0.795 -1.82573,-0.7121 -0.49745,0.13614 -1.33355,0.79313 -1.90893,1.50016 -0.28532,0.35059 -0.44137,0.52912 -0.46767,0.53589 h -5.2e-4 -5.2e-4 -5.1e-4 -5.2e-4 l -5.2e-4,-5.2e-4 h -5.1e-4 v -5.2e-4 h -5.2e-4 v -5.1e-4 c -0.005,-0.0242 0.1428,-0.25083 0.44338,-0.67696 0.59813,-0.84795 1.09531,-1.28595 1.68776,-1.48725 l 0.32762,-0.11111 -0.35811,-0.15916 c -1.05104,-0.46611 -2.22346,-0.82548 -3.08922,-0.94774 -0.16341,-0.0231 -0.46752,-0.11168 -0.67593,-0.19638 -0.2084,-0.0847 -0.44815,-0.15399 -0.53278,-0.15399 -0.11986,0 -0.16991,-0.0481 -0.22634,-0.21911 -0.10724,-0.32492 -0.35112,-0.49307 -0.66146,-0.45527 -0.13861,0.0168 -0.30392,0.0517 -0.36691,0.0775 -0.009,0.004 -0.0152,0.003 -0.0191,-0.001 -0.0288,-0.0379 0.10234,-0.33314 0.42375,-0.95291 0.60532,-1.16721 0.58913,-1.14199 1.42007,-2.24327 0.74397,-0.98602 0.8174,-1.11817 1.11931,-2.02055 0.12445,-0.37197 0.39448,-1.01171 0.59996,-1.42162 0.40492,-0.80776 0.71463,-1.67133 1.01545,-2.8298 0.36766,-1.41589 0.68425,-2.44482 0.97255,-3.16208 0.19051,-0.47398 0.31965,-0.76157 0.3452,-0.77773 l 5.1e-4,-5.2e-4 h 5.2e-4 5.2e-4 5.1e-4 5.2e-4 l 5.2e-4,5.2e-4 5.1e-4,5.1e-4 v 5.2e-4 c 0.003,0.01 -0.007,0.056 -0.0336,0.14159 -0.0215,0.0696 -0.0328,0.10749 -0.0238,0.11834 l 5.2e-4,5.2e-4 5.2e-4,5.1e-4 5.1e-4,5.2e-4 5.2e-4,5.2e-4 c 0.0142,0.007 0.0561,-0.0197 0.13953,-0.0744 0.0908,-0.0595 0.49836,-0.2943 0.90588,-0.52193 0.40753,-0.22763 0.88514,-0.52489 1.06144,-0.66042 0.64133,-0.49302 1.80715,-1.68148 2.34352,-2.389 0.47569,-0.62746 0.62168,-0.77236 1.08986,-1.08211 0.58478,-0.3869 1.02375,-0.84503 1.73994,-1.81591 0.71966,-0.97557 1.00683,-1.46094 1.84485,-3.11867 0.96164,-1.90227 1.02852,-2.00996 1.48777,-2.40089 0.39988,-0.34041 0.78154,-0.88255 0.94103,-1.33635 0.25896,-0.73688 0.43422,-1.02178 0.95653,-1.55598 0.53318,-0.54532 0.70609,-0.81681 0.59221,-0.93069 -0.11864,-0.11863 -0.3778,0.0232 -0.85318,0.46715 -0.25666,0.23969 -0.48396,0.42112 -0.51676,0.41342 l -5.2e-4,-5.2e-4 c -2.1e-4,-1.1e-4 -10e-4,-3.8e-4 -0.002,-5.2e-4 l -5.2e-4,-5.1e-4 v -5.2e-4 h -5.1e-4 c -1.1e-4,-2.4e-4 -4.4e-4,-0.001 -5.2e-4,-0.001 -0.007,-0.039 0.18403,-0.36745 0.43563,-0.74621 0.57263,-0.86203 0.68951,-1.083 0.64027,-1.2113 -0.0744,-0.19386 -0.25258,-0.0923 -0.73897,0.42065 l -0.49351,0.52038 0.19482,-0.34623 c 0.49222,-0.87555 0.60279,-1.13423 0.53278,-1.24592 -0.14815,-0.23637 -0.3041,-0.16286 -0.66456,0.31368 -0.19124,0.25284 -0.43832,0.59453 -0.54932,0.75912 -0.10753,0.15946 -0.20661,0.29064 -0.22479,0.29869 l -5.2e-4,5.2e-4 h -5.1e-4 -5.2e-4 c -0.0133,0 0.074,-0.24819 0.19379,-0.55139 0.25299,-0.64024 0.26357,-0.92914 0.0341,-0.92914 -0.12009,0 -0.2266,0.12218 -0.5488,0.62994 -0.22308,0.35157 -0.47257,0.84608 -0.56482,1.11879 -0.0859,0.25408 -0.18069,0.45011 -0.21756,0.45424 -5.9e-4,1e-5 -0.002,9e-5 -0.003,0 -2.8e-4,-7e-5 -10e-4,-4.2e-4 -0.002,-5.2e-4 -2.6e-4,-1.2e-4 -0.001,-8.8e-4 -0.002,-0.001 -0.0317,-0.0196 -0.0574,-0.0675 -0.0574,-0.10645 0,-0.13687 -0.27518,-0.36277 -0.44183,-0.36277 -0.22772,0 -0.24507,0.0311 -0.18087,0.31677 0.035,0.15583 0.0294,0.40545 -0.015,0.67438 -0.12227,0.74044 -0.13419,1.03302 -0.0563,1.39992 0.097,0.45693 0.0382,0.60287 -0.54777,1.35754 -1.01012,1.3009 -1.74561,2.05578 -2.96571,3.04477 -0.86082,0.69776 -1.36221,1.25563 -1.87224,2.08153 -0.24256,0.39279 -0.63198,0.92405 -0.86506,1.18029 -0.48711,0.5355 -0.62545,0.77887 -0.80099,1.41231 -0.0872,0.31486 -0.20861,0.56265 -0.39532,0.80461 l -0.26975,0.34933 -0.01,0.58136 c -0.0118,0.69208 -0.0755,0.84697 -0.34778,0.84697 -0.21451,0 -0.36164,0.14267 -0.36484,0.35347 -0.002,0.11585 -0.0712,0.19327 -0.34881,0.38964 -0.0347,0.0245 -0.13858,0.18589 -0.231,0.35915 -0.0924,0.17326 -0.27209,0.4004 -0.39946,0.50436 -0.30299,0.24733 -0.73622,0.26033 -1.19166,0.0362 l -0.31005,-0.15245 -0.28009,0.31006 c -0.12304,0.13625 -0.18801,0.20466 -0.20464,0.21136 h -5.2e-4 l -5.1e-4,5.1e-4 h -5.2e-4 -5.2e-4 -5.1e-4 -5.2e-4 v -5.1e-4 h -5.2e-4 v -5.2e-4 l -5.1e-4,-5.2e-4 v -5.1e-4 c 0,-0.0105 0.0232,-0.052 0.0656,-0.12041 0.2995,-0.48278 0.29888,-0.4758 0.0253,-0.80305 -0.13769,-0.1647 -0.27549,-0.34177 -0.30644,-0.39377 -0.0132,-0.0222 -0.0199,-0.0379 -0.0191,-0.0455 6e-5,-2.9e-4 -9e-5,-0.001 0,-0.002 1.1e-4,-2.3e-4 8.8e-4,-0.001 10e-4,-0.001 l 5.2e-4,-5.2e-4 5.1e-4,-5.1e-4 h 5.2e-4 c 0.0251,-0.009 0.18638,0.11555 0.59221,0.44958 0.73392,0.60405 1.26714,0.69895 1.61231,0.28732 0.0937,-0.1118 0.1888,-0.2875 0.21135,-0.39016 0.0236,-0.10763 0.0914,-0.19955 0.1602,-0.21755 0.0744,-0.0194 0.11937,-0.0871 0.11937,-0.17932 0,-0.12981 0.21883,-0.32807 0.31523,-0.28577 h 5.2e-4 v 5.2e-4 h 5.1e-4 5.2e-4 5.2e-4 5.1e-4 l 5.2e-4,-5.2e-4 h 5.2e-4 c 0.0188,-0.0111 0.0544,-0.12648 0.0816,-0.27079 l 0.0538,-0.28473 0.27698,0.0382 c 0.21037,0.0289 0.27907,0.0167 0.28577,-0.0496 0.005,-0.048 0.0122,-0.40828 0.016,-0.80099 0.007,-0.7572 0.0241,-0.80059 0.40153,-1.01182 0.0504,-0.0282 0.17456,-0.37314 0.27647,-0.76946 0.1,-0.3888 0.20834,-0.7168 0.24339,-0.73794 2.7e-4,-1.3e-4 0.001,-9.4e-4 0.002,-0.001 0.0332,-0.0115 0.0605,-0.0752 0.0605,-0.14159 0,-0.0664 0.0516,-0.17308 0.11524,-0.23668 0.0984,-0.0984 0.10933,-0.17287 0.0708,-0.49971 -0.0442,-0.37476 -0.13241,-0.55349 -0.48472,-0.98392 -0.25805,-0.31526 -0.96846,-0.92867 -1.05214,-0.90847 -0.0441,0.0107 -0.24202,0.21051 -0.43976,0.44441 -0.19774,0.2339 -0.40187,0.4253 -0.45372,0.4253 -0.0519,0 -0.0785,0.0254 -0.0594,0.0563 2.6e-4,5.1e-4 8.6e-4,0.002 10e-4,0.003 0.008,0.037 -0.14387,0.18185 -0.34623,0.32815 -0.30919,0.22354 -0.41606,0.35079 -0.57516,0.68419 -0.40132,0.84102 -0.83469,1.4892 -1.68465,2.52027 -0.34312,0.41624 -0.63389,0.78739 -0.79633,1.01699 -0.14521,0.20524 -0.1556,0.2562 -0.0977,0.47284 0.0357,0.13345 0.11002,0.59677 0.16536,1.02991 0.0553,0.43314 0.14135,1.02527 0.19121,1.31568 0.0499,0.29042 0.0893,0.55962 0.0873,0.59842 -2.9e-4,0.006 -9.5e-4,0.01 -0.002,0.0119 l -5.1e-4,5.2e-4 -5.2e-4,5.1e-4 -5.2e-4,5.2e-4 -5.1e-4,5.2e-4 c -2e-4,2e-5 -10e-4,2e-5 -0.002,0 h -5.2e-4 c -2.4e-4,-1.2e-4 -0.001,-8.7e-4 -0.002,-0.001 -0.0619,-0.0511 -0.45386,-1.44498 -0.56224,-2.02158 -0.18415,-0.97968 -0.16553,-0.94814 -0.44648,-0.75706 -0.41251,0.28054 -0.90723,1.00225 -1.52704,2.22829 -0.47829,0.94608 -0.73356,1.40636 -0.78187,1.40818 h -5.1e-4 -5.2e-4 l -5.2e-4,-5.1e-4 h -5.1e-4 -5.2e-4 l -5.2e-4,-5.2e-4 h -5.2e-4 l -5.1e-4,-5.2e-4 -5.2e-4,-5.1e-4 c -0.002,-0.002 -0.003,-0.007 -0.004,-0.0124 -0.009,-0.1494 0.85867,-2.42661 1.0294,-2.70164 0.11639,-0.1875 0.20243,-0.3517 0.19585,-0.37362 l -5.1e-4,-5.2e-4 v -5.1e-4 l -5.2e-4,-5.2e-4 v -5.2e-4 h -5.2e-4 l -5.1e-4,-5.1e-4 c -0.0207,-0.009 -0.20615,0.0513 -0.4191,0.13745 -0.21806,0.0882 -0.50994,0.20589 -0.64854,0.26149 l -0.25218,0.10077 0.20205,-0.17467 c 0.11094,-0.0962 0.53506,-0.34503 0.94258,-0.55294 1.08217,-0.55209 1.59054,-0.94019 1.98024,-1.51153 0.21275,-0.31192 0.77856,-1.03311 1.28571,-1.63867 0.34841,-0.41601 0.72383,-0.98834 0.93173,-1.4211 0.12522,-0.26065 0.27689,-0.4382 0.59428,-0.69298 1.16893,-0.93833 2.10021,-2.22536 3.06234,-4.23333 0.45489,-0.94934 1.30372,-2.41133 1.7353,-2.98845 0.25355,-0.33906 0.34524,-0.41041 0.70848,-0.55346 0.50606,-0.1993 0.80004,-0.47958 1.04955,-0.99942 0.10267,-0.21389 0.3608,-0.59536 0.57309,-0.84801 0.41913,-0.49881 0.47044,-0.6706 0.23306,-0.77876 -0.24287,-0.11066 -0.44598,-0.0159 -0.76378,0.35605 -0.16283,0.1906 -0.32473,0.34675 -0.36018,0.34675 -0.10215,0 -0.005,-0.78448 0.13746,-1.10588 0.069,-0.15587 0.27855,-0.53114 0.4656,-0.83354 0.61659,-0.99678 0.72653,-1.29649 0.50695,-1.38079 -0.0702,-0.0269 -0.16111,0.0294 -0.28319,0.17518 -0.0686,0.0819 -0.11053,0.13147 -0.12299,0.13591 -2.2e-4,5e-5 -10e-4,-2e-5 -0.002,0 h -5.1e-4 -5.2e-4 l -5.2e-4,-5.2e-4 -5.1e-4,-5.2e-4 v -5.1e-4 c -0.003,-0.0166 0.051,-0.12282 0.16691,-0.34882 0.23595,-0.45983 0.26445,-0.60372 0.14469,-0.72347 -0.0496,-0.0496 -0.10192,-0.0734 -0.15244,-0.0734 z m -17.943093,21.41884 c -0.14139,0 -1.500635,0.76125 -2.594156,1.45263 -2.656404,1.67954 -5.384349,4.19914 -7.532874,6.95823 -1.009834,1.29681 -2.064514,2.8608 -2.450496,3.63389 -0.09489,0.19006 -0.144511,0.29828 -0.139526,0.31522 v 5.2e-4 5.2e-4 l 5.16e-4,5.1e-4 5.17e-4,5.2e-4 h 5.17e-4 v 5.2e-4 h 5.17e-4 5.16e-4 5.17e-4 5.17e-4 c 0.02765,-0.008 0.180061,-0.22304 0.488859,-0.67593 2.508929,-3.67963 6.439413,-7.53135 11.013798,-10.79417 0.688128,-0.49083 1.232858,-0.89246 1.210778,-0.89246 z m -0.947745,2.23398 c -0.105574,0.0103 -0.845319,0.43914 -1.51412,0.88418 -1.345642,0.89542 -2.758107,2.18818 -3.695898,3.38326 -0.36166,0.46089 -0.682899,0.88075 -0.714169,0.93275 -0.03127,0.052 0.395038,-0.33528 0.947746,-0.86041 1.037865,-0.98609 2.156588,-1.95974 3.922241,-3.41426 0.561423,-0.46249 1.039615,-0.8717 1.062985,-0.9095 0.0021,-0.004 0.0037,-0.006 0.0041,-0.009 2.2e-5,-2.7e-4 4e-6,-0.001 0,-0.002 -3.1e-5,-2.4e-4 -4.6e-4,-0.001 -5.17e-4,-0.001 v -5.2e-4 -5.1e-4 l -5.17e-4,-5.2e-4 -5.17e-4,-5.2e-4 -5.16e-4,-5.1e-4 c -2.13e-4,-1.2e-4 -0.0013,-4.2e-4 -0.0016,-5.2e-4 -0.0021,-6.9e-4 -0.0056,-0.001 -0.0093,-0.001 z m -1.272791,2.56263 c -0.109486,0.002 -0.843866,0.48117 -1.469678,0.96273 -1.079294,0.83054 -3.084625,2.89602 -4.042647,4.16357 -0.735668,0.97336 -1.753816,2.50706 -2.132169,3.21273 -0.134408,0.25068 -0.204614,0.391 -0.202055,0.41341 v 5.1e-4 5.2e-4 5.2e-4 l 5.16e-4,5.1e-4 v 5.2e-4 h 5.17e-4 l 5.17e-4,5.2e-4 h 5.17e-4 5.16e-4 5.17e-4 c 0.02503,-0.006 0.176209,-0.21227 0.47284,-0.63666 1.692428,-2.42135 3.862368,-4.82895 6.732922,-7.46982 0.371108,-0.34141 0.663473,-0.63206 0.649573,-0.64596 -2.12e-4,-1.7e-4 -0.0013,-8.8e-4 -0.0016,-0.001 -0.0023,-0.001 -0.0063,-0.002 -0.01033,-0.002 z m 7.153049,11.89902 c -0.38999,0 -0.57108,0.0357 -0.94309,0.18706 -1.25083,0.50903 -2.02792,1.39591 -2.47582,2.82464 -0.26717,0.85223 -0.28148,0.82057 0.54467,1.20974 0.86849,0.40912 1.1684,0.50385 1.59732,0.50385 0.18303,0 0.35013,0.0279 0.37155,0.0625 0.0229,0.037 -0.0469,0.0641 -0.1695,0.0651 -0.50063,0.004 -1.48664,0.56558 -2.2257,1.26762 -0.56061,0.53252 -0.708882,0.76496 -0.977202,1.53428 -0.314556,0.90189 -1.909916,3.90235 -2.495455,4.69325 -0.321512,0.43427 -0.41158,0.57703 -0.731222,1.15548 -0.183658,0.33237 -0.145974,0.63228 0.112138,0.89039 0.243395,0.24339 0.40582,0.27786 0.56379,0.11989 0.09084,-0.0908 0.157334,-0.0938 0.578776,-0.0258 0.261733,0.0422 0.578736,0.11483 0.704867,0.16123 0.126132,0.0464 0.236129,0.0869 0.244429,0.0889 0.0083,0.002 0.131678,-0.22934 0.274402,-0.51521 0.328595,-0.65817 0.837192,-1.42531 1.250567,-1.88619 0.17665,-0.19694 0.8948,-0.89138 1.59577,-1.54306 0.70098,-0.65167 1.62875,-1.52684 2.06189,-1.9451 0.43314,-0.41826 1.01406,-0.92717 1.29088,-1.13068 0.66645,-0.48996 1.53082,-1.35345 1.84743,-1.84588 0.14029,-0.21818 0.33156,-0.59255 0.4253,-0.83148 0.1474,-0.3758 0.16637,-0.49821 0.14004,-0.90847 -0.055,-0.85715 -0.50076,-1.50881 -2.21278,-3.23443 l -0.89039,-0.89761 z m -7.47551,12.7372 c -0.04037,-7.4e-4 -0.0918,0.005 -0.155029,0.0145 -0.196048,0.0302 -0.53554,0.22027 -1.267623,0.71107 -0.816711,0.54753 -1.01731,0.71152 -1.09399,0.89504 -0.174266,0.41707 0.02904,1.2999 0.481108,2.08823 0.346664,0.60453 0.391376,0.7719 0.423746,1.58853 0.03454,0.87129 0.11145,1.1609 0.464055,1.75442 0.529099,0.89061 1.508762,1.67025 2.40192,1.91048 0.186294,0.05 0.471006,0.0931 0.63252,0.0951 0.253124,0.004 0.316212,-0.0226 0.456819,-0.18965 0.08972,-0.10664 0.181129,-0.26546 0.203089,-0.35296 0.06239,-0.24856 -0.02713,-0.98375 -0.21239,-1.7477 -0.15408,-0.63536 -0.169266,-0.81094 -0.171566,-1.95802 -0.0025,-1.23219 0.0011,-1.26969 0.170532,-1.6862 0.282099,-0.69349 0.217384,-0.89024 -0.315743,-0.96014 -0.16418,-0.0215 -0.522092,-0.0851 -0.795817,-0.14108 l -0.498161,-0.1018 -0.136426,0.15917 -0.136425,0.15864 -0.341582,-0.26096 c -0.459464,-0.35106 -0.529252,-0.48794 -0.473872,-0.93121 0.03365,-0.26929 0.09702,-0.42178 0.260449,-0.62736 0.241181,-0.30337 0.279337,-0.41483 0.104386,-0.41806 z m 5.55522,2.73885 -5.2e-4,5.2e-4 h -5.2e-4 c -1.9e-4,1.2e-4 -10e-4,3.7e-4 -0.002,5.2e-4 l -5.1e-4,5.1e-4 c -0.0126,0.0148 -0.006,0.10643 0.0129,0.30437 0.0993,1.02362 0.47884,1.98785 1.10639,2.81223 0.20746,0.27253 0.39046,0.49558 0.40669,0.49558 0.0336,0 -0.0149,-0.11368 -0.49661,-1.16582 -0.19038,-0.41581 -0.4654,-1.08204 -0.61133,-1.48052 -0.14594,-0.3985 -0.30505,-0.79552 -0.35347,-0.88212 -0.0278,-0.0497 -0.0466,-0.0802 -0.0579,-0.0848 -2.4e-4,-8e-5 -10e-4,-4.7e-4 -0.002,-5.2e-4 -2.3e-4,-2e-5 -0.001,0 -0.002,0 z m -9.215462,0.74672 -0.0036,0.49454 c -0.01001,1.37895 0.560174,2.81558 1.535307,3.86851 0.245827,0.26543 0.381244,0.39679 0.404626,0.39273 l 5.17e-4,-5.2e-4 h 5.17e-4 5.17e-4 v -5.1e-4 h 5.16e-4 v -5.2e-4 h 5.17e-4 v -5.1e-4 c 9.4e-5,-2.5e-4 4.51e-4,-0.001 5.17e-4,-0.002 0.0012,-0.009 -0.0098,-0.0344 -0.03359,-0.0739 -0.02606,-0.0433 -0.146172,-0.23377 -0.26665,-0.42323 -0.314554,-0.49467 -0.730573,-1.40358 -1.11156,-2.42775 -0.02578,-0.0693 -0.155067,-0.5089 -0.287321,-0.97668 z m 8.701282,1.02061 c -2.7e-4,3e-5 -7.8e-4,4.5e-4 -0.001,5.1e-4 -2.5e-4,9e-5 -0.001,4.2e-4 -0.002,5.2e-4 h -5.1e-4 c -0.0333,0.0215 0.0134,0.27785 0.14676,0.73794 0.28757,0.99234 0.83347,1.91473 1.59732,2.69803 0.22452,0.23024 0.43045,0.41944 0.4625,0.42529 2.3e-4,3e-5 0.001,0 0.002,0 0.089,0 0.0506,-0.11399 -0.0987,-0.29455 -0.45841,-0.55458 -1.53852,-2.37568 -1.89963,-3.20291 -0.1084,-0.24831 -0.17772,-0.36641 -0.20619,-0.36483 z m -9.149316,1.62575 0.03927,0.22065 c 0.06529,0.36615 0.429814,1.29065 0.658874,1.67173 0.352646,0.58669 0.957421,1.24667 1.54926,1.69085 0.305825,0.22953 0.58314,0.41756 0.6165,0.41756 5.21e-4,0 0.0011,-4.6e-4 0.0015,-5.3e-4 h 5.17e-4 5.17e-4 l 5.16e-4,-5.2e-4 h 5.17e-4 l 5.17e-4,-5.1e-4 h 5.17e-4 l 5.16e-4,-5.2e-4 v -5.1e-4 l 5.17e-4,-5.2e-4 v -5.2e-4 l 5.17e-4,-5.2e-4 c 0.0044,-0.0251 -0.09058,-0.14847 -0.22996,-0.29507 -0.803388,-0.84492 -1.423815,-1.65947 -1.979724,-2.59932 -0.235702,-0.39849 -0.480323,-0.80918 -0.544153,-0.91313 z" /></g></svg>
