<?xml version="1.0" encoding="UTF-8" standalone="no"?>
<!-- Created with Inkscape (http://www.inkscape.org/) -->

<svg
   width="48.158478mm"
   height="40.955299mm"
   viewBox="0 0 48.158478 40.955299"
   version="1.1"
   id="svg1"
   xml:space="preserve"
   xmlns="http://www.w3.org/2000/svg"
   xmlns:svg="http://www.w3.org/2000/svg"><defs
     id="defs1" /><g
     id="layer1"
     transform="translate(-80.920744,-128.02236)"><path
       id="path66"
       style="fill:#000000"
       d="m 120.88193,128.02525 c -0.34076,-0.008 -0.61514,0.0605 -0.93741,0.21498 -0.86177,0.413 -1.37446,1.11284 -1.80506,2.46341 -0.12152,0.38117 -0.25634,0.77931 -0.29921,0.88522 -0.0683,0.16865 -0.0578,0.24335 0.0827,0.59893 0.0882,0.22328 0.17751,0.53343 0.19844,0.68936 0.0137,0.1021 0.0205,0.16251 0.016,0.17518 -1e-4,2.2e-4 -4.1e-4,10e-4 -5.1e-4,0.002 h -5.2e-4 v 5.2e-4 h -5.2e-4 v 5.2e-4 h -5.1e-4 -5.2e-4 -5.2e-4 v -5.2e-4 h -5.2e-4 -5.1e-4 l -5.2e-4,-5.2e-4 c -0.0136,-0.0141 -0.0497,-0.11484 -0.11885,-0.31574 -0.08,-0.23243 -0.19799,-0.48069 -0.262,-0.55139 -0.13878,-0.15335 -0.82602,-0.50694 -0.98547,-0.50694 -0.10738,0 -0.10756,0.0118 0.003,0.26768 0.0634,0.14727 0.13337,0.38127 0.15503,0.51987 0.0115,0.0737 0.0157,0.11898 0.008,0.12919 l -5.2e-4,5.2e-4 -5.2e-4,5.1e-4 -5.1e-4,5.2e-4 h -5.2e-4 -5.2e-4 v 5.2e-4 h -5.1e-4 -5.2e-4 c -2.5e-4,0 -7.7e-4,3e-5 -0.001,0 -0.0217,-0.005 -0.0852,-0.12622 -0.21808,-0.3974 -0.4499,-0.91834 -1.10553,-1.43386 -2.0345,-1.60093 -0.33806,-0.0608 -0.58967,-0.061 -1.19683,5.1e-4 -0.4229,0.0429 -0.85412,0.0936 -0.95808,0.11266 -0.084,0.0155 -0.13185,0.0154 -0.13901,0.001 -0.002,-0.006 0.002,-0.0153 0.0129,-0.0258 0.0714,-0.0672 0.8937,-0.26871 1.09606,-0.26871 0.073,0 0.13281,-0.0264 0.13281,-0.0589 0,-2.4e-4 3e-5,-7.9e-4 0,-0.001 -0.0138,-0.0672 -0.89867,-0.66682 -1.26504,-0.85628 -0.49229,-0.25457 -3.42093,-1.1998 -3.94446,-1.2733 -0.13755,-0.0193 -0.66744,0.12438 -1.68982,0.45888 -1.56824,0.5131 -2.54099,0.94972 -4.562,2.04691 -0.75914,0.41214 -1.02322,0.52424 -1.34152,0.56844 -0.21795,0.0303 -0.80755,0.11663 -1.309994,0.19223 l -0.91364,0.13746 -0.824755,-0.16795 c -0.849381,-0.17297 -1.033529,-0.16866 -1.033529,0.0238 0,0.16921 0.118061,0.23634 0.72192,0.41134 0.304661,0.0883 0.613363,0.19251 0.686263,0.23151 0.130368,0.0698 0.130446,0.0716 0.0078,0.12092 -0.06859,0.0276 -0.548419,0.1094 -1.066601,0.1819 -0.961946,0.13466 -1.105359,0.18402 -1.105359,0.37828 0,0.24359 0.132465,0.26627 1.143599,0.19637 0.528206,-0.0365 0.974394,-0.0525 0.991154,-0.0357 0.06921,0.0692 -0.132691,0.16147 -1.000972,0.45889 -1.191173,0.40802 -1.133781,0.38091 -1.133781,0.54002 0,0.36077 0.223523,0.36689 1.322916,0.0372 0.808092,-0.24237 1.196827,-0.30797 1.196827,-0.20205 0,0.0275 -0.389641,0.26277 -0.866097,0.52245 -0.750804,0.40921 -0.866097,0.49285 -0.866097,0.62735 0,0.13956 0.02877,0.15673 0.288354,0.17363 0.242722,0.0158 0.41907,-0.0417 1.11001,-0.36328 1.132903,-0.52726 1.739784,-0.6782 1.908932,-0.47439 0.0636,0.0766 0.0512,0.16753 -0.0656,0.48007 -0.2533,0.67731 -0.129875,1.28416 0.26096,1.28416 0.13279,0 0.15507,-0.0381 0.19741,-0.33228 0.0643,-0.44698 0.16389,-0.66083 0.54467,-1.17254 0.21672,-0.29126 0.36474,-0.57549 0.45113,-0.86558 0.19277,-0.64728 0.22927,-0.67041 2.29702,-1.44746 0.90826,-0.34132 1.0799,-0.38533 1.73271,-0.44183 0.84112,-0.0728 1.08598,-0.13054 2.36058,-0.55862 0.51847,-0.17414 1.04272,-0.31413 1.1653,-0.31213 l 0.22273,0.004 -0.25012,0.0915 c -0.37698,0.138 -0.3873,0.17796 -0.11937,0.46819 0.60937,0.66006 1.6285,1.32626 2.74867,1.79679 0.38941,0.16357 0.81419,0.35111 0.94413,0.41651 l 0.23668,0.11886 -0.002,-0.14314 c -8.3e-4,-0.0787 -0.0275,-0.25562 -0.0594,-0.39326 -0.0305,-0.13118 -0.048,-0.2478 -0.0403,-0.26768 1.4e-4,-2.8e-4 8.8e-4,-0.001 0.001,-0.002 l 5.1e-4,-5.1e-4 c 0.0107,-0.0106 0.15564,0.22367 0.32246,0.5209 0.16683,0.29724 0.47109,0.72368 0.67593,0.94723 0.397,0.43326 0.40967,0.48567 0.0661,0.27336 -0.11483,-0.071 -0.2183,-0.12009 -0.23513,-0.11162 l -5.2e-4,5.2e-4 h -5.1e-4 v 5.2e-4 h -5.2e-4 c -0.0115,0.0126 -0.0777,0.26408 -0.14728,0.55862 l -0.12661,0.53537 -0.009,-0.4408 c -0.0103,-0.47948 -0.16892,-1.03075 -0.31936,-1.11105 -0.052,-0.0277 -0.40371,-0.19323 -0.78186,-0.36793 -0.79055,-0.36521 -0.74237,-0.37562 -1.15394,0.24443 -0.29846,0.44965 -0.51566,0.99041 -0.6227,1.54874 l -0.0847,0.44183 0.0248,-0.53537 c 0.0137,-0.29454 0.0461,-0.60389 0.0718,-0.68729 0.0728,-0.23575 -0.0529,-0.12112 -0.45992,0.42013 -0.41999,0.55853 -1.3555,1.63917 -1.51516,1.75028 -0.0598,0.0416 -0.40665,0.12458 -0.77049,0.18448 -0.90458,0.14895 -3.54975,0.68452 -4.66225,0.94361 -0.50244,0.11702 -1.05509,0.24256 -1.22835,0.27906 l -0.31471,0.0661 0.34623,-0.0253 c 0.19059,-0.0139 1.19702,-0.14088 2.23656,-0.28267 3.69713,-0.50427 7.24684,-0.90632 6.99337,-0.7922 -0.0346,0.0156 -0.70087,0.15679 -1.48053,0.31419 -0.77965,0.1574 -1.48847,0.30298 -1.5751,0.32298 -0.0866,0.02 -0.28929,0.1783 -0.4501,0.35192 l -0.29197,0.31574 -1.94458,0.33487 c -1.84652,0.31798 -3.82895,0.67713 -5.566589,1.00872 -0.433142,0.0827 -1.167461,0.22301 -1.631942,0.31161 -0.464481,0.0886 -0.873392,0.16071 -0.908472,0.16071 -0.03508,0 -0.04794,0.0162 -0.02842,0.0357 0.03393,0.0339 1.84531,-0.19482 3.041153,-0.38396 0.31187,-0.0493 1.12006,-0.16073 1.79576,-0.24753 0.6757,-0.0868 1.97975,-0.25524 2.89801,-0.37465 2.30271,-0.29948 4.30757,-0.47282 4.00079,-0.34572 -0.0693,0.0287 -0.62246,0.15194 -1.22886,0.27389 l -1.10226,0.22221 -0.66146,0.67954 c -0.36384,0.37392 -0.79588,0.79261 -0.95963,0.93018 l -0.29766,0.25011 0.4868,0.007 c 0.57436,0.008 1.36364,0.25037 2.13785,0.65629 0.21936,0.11502 0.36915,0.20007 0.38034,0.21497 v 5.2e-4 h 5.1e-4 v 5.2e-4 5.1e-4 5.2e-4 h -5.1e-4 -5.2e-4 c -0.002,1.4e-4 -0.007,-9.8e-4 -0.015,-0.004 -0.0693,-0.0241 -0.39532,-0.13797 -0.72451,-0.25321 -0.71121,-0.24894 -1.47281,-0.34842 -2.08308,-0.27182 -0.48787,0.0613 -0.64584,0.13112 -1.30586,0.57568 -1.3622,0.91754 -2.00148,1.76607 -2.34663,3.11557 -0.0964,0.37704 -0.1235,0.69555 -0.1235,1.45986 v 0.97772 l -0.54777,0.82269 c -0.30137,0.45242 -0.715275,1.15497 -0.919841,1.56114 l -0.372071,0.73846 0.132292,0.18603 c 0.182548,0.25637 0.90672,0.78202 1.39578,1.01338 0.19191,0.0908 0.32836,0.16729 0.3359,0.18707 v 5.1e-4 5.2e-4 5.2e-4 5.1e-4 5.2e-4 5.2e-4 h -5.2e-4 v 5.1e-4 h -5.2e-4 l -5.1e-4,5.2e-4 c -10e-4,5.1e-4 -0.003,0.001 -0.006,0.001 -0.2122,1.3e-4 -0.96371,-0.3514 -1.412314,-0.66042 -0.277656,-0.19127 -0.515857,-0.34778 -0.529167,-0.34778 -0.02714,0 -0.337733,1.01119 -0.503329,1.63814 -0.120398,0.45583 -0.573273,1.43406 -0.816487,1.76372 -0.08093,0.10969 -0.129161,0.15729 -0.144694,0.14624 -0.02409,-0.0231 0.0451,-0.21755 0.207222,-0.56844 0.121279,-0.26249 0.220659,-0.48623 0.220659,-0.49713 0,-0.0109 -0.219795,0.11667 -0.488343,0.28319 -0.268548,0.16652 -0.760709,0.46218 -1.09399,0.65681 -0.654751,0.38236 -1.129084,0.74068 -1.730127,1.30844 -0.414315,0.39137 -0.394771,0.38356 -1.69602,0.6811 -0.450468,0.103 -1.256804,0.28843 -1.791622,0.41186 -0.534819,0.12344 -1.000522,0.22428 -1.034562,0.22428 -0.03401,0 -0.0471,0.0143 -0.02946,0.032 0.0448,0.0448 2.090242,-0.19988 3.391008,-0.40566 0.187605,-0.0297 0.352315,-0.0436 0.37052,-0.0315 l 5.16e-4,5.2e-4 5.17e-4,5.2e-4 5.17e-4,5.1e-4 v 5.2e-4 c 0.0087,0.0194 -0.05379,0.14017 -0.142627,0.2744 -0.0917,0.13857 -0.166398,0.27793 -0.166398,0.30903 0,0.0311 -0.04081,0.0901 -0.09043,0.13125 -0.08853,0.0735 -1.27692,0.35939 -2.272213,0.54674 -0.277211,0.0522 -0.716799,0.14682 -0.976684,0.21032 -0.259885,0.0635 -0.908583,0.20941 -1.441773,0.32402 -0.53319,0.11461 -0.94003,0.21837 -0.90382,0.23047 0.09546,0.0318 6.158963,-0.86676 7.543208,-1.11776 0.381165,-0.0691 0.707184,-0.12396 0.724504,-0.12196 0.01733,0.002 -0.124127,0.0599 -0.314709,0.12816 -0.680253,0.24387 -1.678359,0.49402 -2.203484,0.55242 -0.444043,0.0493 -0.552886,0.0842 -0.649056,0.20671 -0.448573,0.57125 -1.280983,1.44679 -1.680517,1.76785 -0.261743,0.21033 -0.514493,0.43684 -0.561723,0.50384 -0.128464,0.18225 -0.07005,1.27 0.08372,1.56115 0.0534,0.10108 0.07688,0.15332 0.07235,0.16691 v 5.2e-4 l -5.17e-4,5.2e-4 v 5.1e-4 h -5.17e-4 v 5.2e-4 l -5.16e-4,5.2e-4 h -5.17e-4 l -5.17e-4,5.2e-4 h -5.17e-4 l -5.16e-4,5.1e-4 c -0.0078,7.5e-4 -0.02554,-0.0108 -0.05116,-0.032 -0.230671,-0.19133 -0.325311,-0.53123 -0.324011,-1.16272 0.0012,-0.60828 -2.1e-4,-0.61391 -0.150896,-0.61391 -0.213036,0 -0.882816,0.17962 -1.112076,0.29817 -0.312003,0.16134 -0.593894,0.41151 -0.670244,0.59583 -0.05831,0.14078 -0.04567,0.25671 0.0677,0.62993 0.07639,0.25151 0.205671,0.58922 0.287321,0.75035 0.227698,0.44934 0.398089,1.19125 0.466639,2.03346 0.06231,0.76564 0.176907,1.28727 0.321427,1.46141 0.04248,0.0512 0.06035,0.10963 0.03979,0.13023 -0.03656,0.0366 -0.65884,-0.89334 -1.270207,-1.89859 -0.395997,-0.65113 -1.09525,-1.76901 -1.272274,-2.03399 -0.07599,-0.11376 -0.14851,-0.23837 -0.16123,-0.27647 v -5.1e-4 l -5.17e-4,-5.2e-4 -5.17e-4,-5.2e-4 -5.16e-4,-5.1e-4 -5.17e-4,-5.2e-4 -5.17e-4,-5.2e-4 c -0.06215,-0.0321 -0.870745,0.3743 -1.002006,0.50695 l -5.17e-4,5.1e-4 -5.16e-4,5.2e-4 c -0.01629,0.0329 0.09784,0.27448 0.258898,0.54519 0.63255,1.06318 2.301906,3.6747 2.627747,4.11086 0.17302,0.23159 0.296371,0.42449 0.291455,0.4532 -6e-5,2.2e-4 -4.38e-4,0.001 -5.17e-4,0.002 v 5.2e-4 l -5.16e-4,5.1e-4 -5.17e-4,5.2e-4 h -5.17e-4 v 5.2e-4 h -5.17e-4 c -2.11e-4,2e-5 -0.0013,0 -0.0016,0 -0.03219,-0.003 -0.246522,-0.19324 -0.478524,-0.4253 -0.401735,-0.40185 -1.060537,-1.33445 -1.790588,-2.53576 -0.178994,-0.29454 -0.36793,-0.59054 -0.42013,-0.65784 -0.09395,-0.12106 -0.09572,-0.12106 -0.185518,0 -0.0499,0.0673 -0.225717,0.34911 -0.390157,0.62632 -0.754585,1.27206 -1.379937,2.23655 -1.450557,2.23655 -0.166316,0 -0.136495,-0.13067 0.132291,-0.57567 0.211618,-0.35035 0.259747,-0.47382 0.196887,-0.50902 -0.04568,-0.026 -0.958435,-0.04 -2.0283,-0.032 l -1.945617,0.0145 -0.01705,0.89762 -0.01757,0.89762 h 1.68 1.680001 l -0.03566,0.34675 -0.03566,0.34623 h 3.011702 3.012219 l 0.264067,-0.34985 0.264067,-0.34933 3.066996,0.007 c 1.686835,0.004 4.689705,0.005 6.673494,0.003 l 3.60702,-0.004 v -0.18862 -0.18914 h -0.87695 -0.87643 l -0.0713,-0.33073 c -0.0851,-0.39682 -0.27128,-0.689 -0.56947,-0.89348 -0.1933,-0.13258 -0.31925,-0.15627 -1.02009,-0.19327 l -0.799441,-0.0424 -0.162264,0.3204 c -0.170483,0.33643 -0.349333,0.42646 -0.349333,0.1757 0,-0.0797 0.03206,-0.17723 0.07131,-0.21653 0.03928,-0.0393 0.05443,-0.11571 0.03359,-0.17001 -0.02866,-0.0746 -0.131097,-0.0987 -0.421162,-0.0987 h -0.38344 l -0.131258,0.31471 c -0.09091,0.21872 -0.166893,0.31523 -0.248563,0.31523 -0.145051,0 -0.150871,-0.14271 -0.01447,-0.35088 0.05313,-0.0811 0.08752,-0.15795 0.08061,-0.17829 -2.76e-4,-6.1e-4 -6.63e-4,-0.002 -0.001,-0.003 l -5.17e-4,-5.2e-4 c -0.02695,-0.027 -0.516309,-0.0559 -0.724503,-0.0429 -0.09667,0.006 -0.163266,0.0857 -0.241846,0.29146 -0.0763,0.19981 -0.143807,0.2837 -0.228927,0.2837 -0.145297,0 -0.15229,-0.0956 -0.0248,-0.34003 0.05156,-0.0989 0.08339,-0.19085 0.07183,-0.20619 l -5.17e-4,-5.2e-4 c -0.01315,-0.0131 -0.207161,-0.0358 -0.430981,-0.0506 l -0.406694,-0.0269 -0.131775,0.31212 c -0.09813,0.23224 -0.16575,0.31213 -0.26355,0.31213 -0.158199,0 -0.159499,-0.0157 -0.02842,-0.29197 0.05474,-0.11537 0.08861,-0.22163 0.07752,-0.24133 -2.02e-4,-2.7e-4 -8.07e-4,-0.001 -10e-4,-0.002 -0.01448,-0.0145 -0.187726,-0.0418 -0.38499,-0.061 l -0.359151,-0.0351 -0.15968,0.31574 c -0.110873,0.21883 -0.198067,0.31523 -0.284737,0.31523 -0.151345,0 -0.151517,-0.003 -0.01912,-0.2806 0.05819,-0.12202 0.09013,-0.23754 0.0708,-0.25684 -0.01933,-0.0193 -0.201379,-0.041 -0.404626,-0.048 l -0.369487,-0.0129 -0.15813,0.2992 c -0.0963,0.18244 -0.200951,0.2991 -0.268201,0.29921 -0.136558,2.3e-4 -0.138889,-0.077 -0.0098,-0.3266 0.129252,-0.24999 0.04815,-0.31085 -0.383956,-0.28835 -0.30624,0.0159 -0.319203,0.025 -0.472323,0.31574 -0.09615,0.18258 -0.200373,0.2991 -0.267683,0.29921 -0.135734,2.3e-4 -0.138039,-0.0515 -0.01189,-0.30437 0.05429,-0.10884 0.08112,-0.22639 0.05943,-0.26149 -0.05466,-0.0884 -0.557121,-0.0804 -0.760677,0.0124 -0.14916,0.0679 -0.18142,0.0604 -0.286804,-0.0698 -0.162946,-0.20123 -0.150727,-0.55073 0.03927,-1.11673 0.171483,-0.51084 0.396582,-0.98035 0.747758,-1.56062 0.234048,-0.38678 0.240954,-0.47956 0.03566,-0.47956 -0.06095,0 -0.111913,-0.0111 -0.120922,-0.0253 l -5.17e-4,-5.2e-4 c -1.05e-4,-2.5e-4 -4.38e-4,-0.001 -5.17e-4,-0.002 -5.3e-5,-2.5e-4 2.7e-5,-0.001 0,-0.002 v -5.2e-4 c 0,-0.10338 0.82059,-1.08814 1.235584,-1.48259 0.589095,-0.55993 1.112243,-0.9559 2.386934,-1.80661 0.51977,-0.34689 1.20019,-0.81799 1.512052,-1.04697 0.954329,-0.7007 2.240497,-1.57898 2.788984,-1.90427 0.28653,-0.16994 0.66933,-0.45169 0.85059,-0.62632 0.32311,-0.31129 0.61148,-0.74964 0.54002,-0.82114 -0.0199,-0.0199 -0.16078,-0.01 -0.31264,0.0227 -0.15187,0.0324 -0.4458,0.0765 -0.65371,0.0982 -0.1816,0.019 -0.27813,0.0202 -0.29042,0.004 l -5.2e-4,-5.2e-4 -5.1e-4,-5.1e-4 v -5.2e-4 c -6e-5,-2e-4 -4.9e-4,-0.001 -5.2e-4,-0.002 v -5.2e-4 -5.1e-4 -5.2e-4 c 0.007,-0.0336 0.25292,-0.11747 0.73277,-0.24753 0.99383,-0.26937 1.14956,-0.37472 2.46703,-1.67277 0.91605,-0.90255 1.66557,-1.80166 2.33423,-2.80034 0.2093,-0.3126 0.42625,-0.60691 0.48266,-0.65371 0.0564,-0.0468 0.10283,-0.10597 0.10283,-0.13177 0,-2.1e-4 3e-5,-8.3e-4 0,-0.001 v -5.1e-4 c -0.0113,-0.0292 -0.25529,-0.14098 -0.55139,-0.25167 -0.8677,-0.32441 -1.85987,-0.78092 -2.19624,-1.01079 -0.43799,-0.29929 -0.99917,-0.84705 -1.21647,-1.18701 -0.26285,-0.41122 -0.50901,-1.18803 -0.50901,-1.60558 0,-0.19143 0.0345,-0.4985 0.0765,-0.68213 l 0.076,-0.33383 0.0444,0.62993 c 0.0699,0.99201 0.41271,1.71559 1.14876,2.42569 0.4539,0.43789 0.9158,0.72493 2.02469,1.25833 1.1834,0.56923 1.65013,0.72523 3.03444,1.01337 2.01418,0.41925 2.76853,0.46692 3.9641,0.2496 0.67586,-0.1229 1.57569,-0.15473 1.9482,-0.0687 0.0239,0.006 0.037,0.0112 0.0403,0.0165 l 5.2e-4,5.2e-4 5.2e-4,5.2e-4 v 5.1e-4 5.2e-4 5.2e-4 5.1e-4 5.2e-4 c -1.2e-4,2.2e-4 -8.8e-4,0.001 -0.001,0.002 l -5.1e-4,5.2e-4 c -0.0209,0.0205 -0.20131,0.0402 -0.54415,0.0584 -0.81353,0.0432 -1.41009,0.19329 -2.05414,0.51677 -0.63283,0.31784 -1.40105,0.97705 -1.7322,1.48621 -0.74505,1.14557 -1.02084,1.39697 -2.93367,2.67219 -0.6717,0.4478 -0.95804,0.60521 -1.048,0.57671 -0.13078,-0.0415 -1.07228,0.3777 -1.30431,0.58084 -0.37367,0.32714 -0.58285,0.63553 -0.6258,0.92191 -0.0567,0.37796 -0.0216,0.43214 0.88005,1.35961 0.57799,0.59453 0.7566,0.82594 0.99477,1.28881 0.15963,0.31025 0.28247,0.57132 0.27337,0.58032 -0.009,0.009 -0.50595,0.0856 -1.10433,0.17002 -0.70538,0.0995 -1.11558,0.17674 -1.14256,0.20877 l -5.2e-4,5.2e-4 -5.2e-4,5.1e-4 -5.1e-4,5.2e-4 v 5.2e-4 5.2e-4 5.1e-4 5.2e-4 5.2e-4 l 5.1e-4,5.1e-4 v 5.2e-4 l 5.2e-4,5.2e-4 c 0.0128,0.0115 0.10584,0.0137 0.28629,0.004 0.17213,-0.009 0.74654,-0.0101 1.27692,-0.003 l 0.9648,0.0134 0.18759,0.20515 0.18758,0.20464 -0.23874,0.0155 c -2.49186,0.15958 -3.63825,0.23848 -3.66645,0.27905 -1.7e-4,5.6e-4 -2.6e-4,0.002 0,0.003 0.0261,0.0293 0.69861,0.0378 1.91617,0.0424 2.42049,0.009 2.73154,0.0299 2.78691,0.18914 0.0535,0.15397 0.28272,0.31839 0.44596,0.32039 0.16169,0.002 0.38731,0.10658 0.48421,0.22531 0.0346,0.0425 0.16597,0.0949 0.29146,0.11679 0.19476,0.034 0.25653,0.013 0.42478,-0.14418 0.16386,-0.15307 0.1974,-0.23126 0.1974,-0.46508 0,-0.29465 -0.0505,-0.38441 -0.46509,-0.82269 -0.35247,-0.3726 -0.53274,-0.73054 -0.70745,-1.40612 -0.19116,-0.73921 -0.18526,-1.50708 0.014,-1.84433 0.0927,-0.15692 0.10117,-0.22089 0.0429,-0.31419 -0.0612,-0.0979 -0.0453,-0.14195 0.0961,-0.26975 0.83143,-0.75136 2.02845,-1.49029 3.48092,-2.14923 1.7831,-0.80893 2.69348,-1.29772 3.42563,-1.83916 0.24694,-0.18263 0.67172,-0.45572 0.94413,-0.6072 0.59307,-0.32978 1.25033,-0.96427 1.46089,-1.40973 0.18602,-0.39353 0.19248,-0.78979 0.0217,-1.36323 -0.16697,-0.56065 -0.52143,-0.98833 -1.49604,-1.80454 -0.75188,-0.62969 -2.04194,-1.58853 -2.13682,-1.58853 -0.0284,0 -0.0912,0.0632 -0.13952,0.14056 -0.1034,0.16556 -1.47809,1.87 -1.7663,2.19005 -0.0939,0.10426 -0.14212,0.15708 -0.15348,0.16123 h -5.2e-4 -5.2e-4 -5.1e-4 -5.2e-4 v -5.2e-4 h -5.2e-4 v -5.2e-4 c -7e-5,-0.009 0.0249,-0.0533 0.0698,-0.12867 0.15059,-0.25326 0.97003,-1.39891 1.41748,-1.98179 0.28252,-0.36798 0.3453,-0.48812 0.28939,-0.55552 -0.0887,-0.10689 -1.27926,-0.81654 -1.85622,-1.1064 -0.48196,-0.24214 -1.81434,-0.72455 -2.55798,-0.92604 -0.27022,-0.0732 -0.7666,-0.17212 -1.10278,-0.21962 l -0.61133,-0.0863 0.7028,0.0124 c 0.36242,0.006 0.6533,-0.004 0.67696,-0.0238 l 5.2e-4,-5.2e-4 5.2e-4,-5.2e-4 5.1e-4,-5.1e-4 v -5.2e-4 -5.2e-4 -5.1e-4 -5.2e-4 l -5.1e-4,-5.2e-4 c -0.0137,-0.022 -0.21399,-0.0913 -0.44546,-0.15399 -0.19891,-0.0539 -0.34327,-0.10696 -0.35501,-0.12919 v -5.2e-4 l -5.2e-4,-5.2e-4 c -4e-5,-1.8e-4 2e-5,-0.001 0,-0.002 v -5.1e-4 -5.2e-4 -5.2e-4 l 5.2e-4,-5.1e-4 v -5.2e-4 l 5.1e-4,-5.2e-4 c 9.9e-4,-8.2e-4 0.003,-0.002 0.005,-0.003 0.13456,-0.0448 1.04804,0.24407 1.5565,0.49248 0.27987,0.13673 0.53859,0.24856 0.57516,0.24856 0.0366,0 0.28092,-0.19559 0.54312,-0.4346 0.68196,-0.62165 1.08815,-0.90595 1.5906,-1.11466 0.66597,-0.27663 2.16248,-1.26221 2.51509,-1.65623 0.11925,-0.13327 0.11909,-0.13649 -0.0284,-0.29352 -0.0821,-0.0874 -0.30649,-0.20692 -0.49868,-0.26562 -0.17041,-0.0521 -0.25099,-0.0815 -0.25942,-0.10025 l -5.1e-4,-5.2e-4 c -6e-5,-2.4e-4 -4.8e-4,-0.001 -5.2e-4,-0.002 v -5.2e-4 c 10e-6,-2.2e-4 -4e-5,-0.001 0,-0.002 l 5.2e-4,-5.1e-4 c 8e-5,-2.2e-4 4e-4,-0.001 5.1e-4,-0.002 0.006,-0.009 0.0332,-0.0155 0.0786,-0.0212 0.35908,-0.0448 0.77338,0.13771 0.92449,0.40773 0.0501,0.0895 0.10956,0.0817 0.55242,-0.0739 0.63635,-0.22363 1.11957,-0.56928 2.06551,-1.47743 0.81413,-0.7816 1.27187,-1.14448 1.63711,-1.29708 0.13007,-0.0543 0.20454,-0.0734 0.21911,-0.0641 l 5.2e-4,5.2e-4 5.1e-4,5.2e-4 c 1.5e-4,2e-4 9.3e-4,0.001 0.001,0.002 v 5.1e-4 c 4e-5,2.5e-4 5e-4,0.001 5.1e-4,0.002 -10e-4,0.0167 -0.0627,0.0615 -0.18758,0.1261 -0.10644,0.055 -0.40718,0.30937 -0.66818,0.56534 l -0.47439,0.4656 0.12816,0.17983 c 0.17926,0.25175 0.998,1.02083 1.40405,1.31879 0.58942,0.43251 3.10682,1.67832 3.72484,1.84329 0.52693,0.1407 0.56226,0.14273 0.81907,0.0439 0.23362,-0.0898 0.32273,-0.18706 0.68626,-0.74931 0.22968,-0.35522 0.53081,-0.87259 0.66921,-1.1498 0.29538,-0.59166 0.84917,-2.24802 1.02836,-3.07475 0.34832,-1.60709 0.40841,-1.78981 0.77515,-2.36626 0.32623,-0.51277 0.38143,-0.64958 0.54157,-1.34721 0.0766,-0.33372 0.24841,-0.79481 0.43563,-1.16788 0.35072,-0.69889 0.43589,-1.08469 0.23874,-1.08469 -0.12235,0 -0.30778,0.22905 -0.56585,0.69918 -0.35937,0.65465 -0.56478,0.75209 -0.42375,0.20102 0.0425,-0.16592 0.14361,-0.61257 0.22479,-0.9927 0.15217,-0.71256 0.1375,-0.85266 -0.0894,-0.85266 -0.15065,0 -0.2281,0.15917 -0.40979,0.84181 -0.0895,0.33616 -0.2069,0.68869 -0.26045,0.78289 -0.0267,0.047 -0.0459,0.076 -0.0584,0.0744 -0.0285,-0.007 -0.0217,-0.18433 0.009,-0.69092 0.0261,-0.43314 0.0481,-0.92952 0.0491,-1.10277 0.002,-0.30702 -0.003,-0.31471 -0.18448,-0.31471 -0.16409,0 -0.19513,0.0307 -0.26149,0.25993 -0.0414,0.14308 -0.10856,0.58267 -0.14934,0.97669 -0.0873,0.84378 -0.11023,0.94107 -0.18914,0.81338 -0.0662,-0.10715 -0.18486,-0.96159 -0.20619,-1.48311 -0.0137,-0.33489 -0.0312,-0.38009 -0.15296,-0.39739 -0.2362,-0.0336 -0.2876,0.18595 -0.33486,1.43454 -0.0411,1.0869 -0.10883,1.51463 -0.23978,1.51463 -0.0794,0 -0.29874,-0.25607 -0.41238,-0.48111 -0.19751,-0.39108 -0.6842,-0.66764 -0.77204,-0.43873 -0.0187,0.0486 0.0228,0.20035 0.0925,0.33693 0.0697,0.13659 0.20108,0.51288 0.29197,0.83613 0.19117,0.67993 0.27219,0.85089 0.6196,1.31103 l 0.25373,0.33641 -0.2067,0.64027 c -0.35771,1.10584 -0.70815,1.77326 -1.19528,2.27635 -0.52915,0.54648 -0.64286,0.75587 -0.73794,1.35702 l -0.0749,0.47233 -0.007,-0.38706 c -0.006,-0.35233 -0.0305,-0.41977 -0.27853,-0.75603 -0.47819,-0.6484 -1.06267,-1.04527 -1.79111,-1.21698 -0.34083,-0.0803 -0.38098,-0.11667 -0.26148,-0.23616 0.10466,-0.10467 -0.35105,-0.9315 -0.71572,-1.29863 -0.20309,-0.20446 -0.49101,-0.39368 -0.8816,-0.57929 -0.28942,-0.13753 -0.49356,-0.26107 -0.49454,-0.29662 4e-5,-5.9e-4 3.4e-4,-0.002 5.1e-4,-0.003 1.2e-4,-2.5e-4 3.7e-4,-0.001 5.2e-4,-0.002 l 5.2e-4,-5.1e-4 c 2.1e-4,-2.2e-4 0.001,-8.4e-4 0.002,-0.001 0.001,-7.4e-4 0.003,-0.002 0.005,-0.003 0.0512,-0.0162 0.18968,-0.0605 0.30747,-0.0982 0.40919,-0.13098 0.6992,-0.0456 1.28364,0.37776 0.39614,0.28695 0.65943,0.24687 0.87282,-0.13281 0.0743,-0.13218 0.18759,-0.25398 0.25166,-0.27078 0.0641,-0.0168 0.14445,-0.10324 0.17829,-0.19224 0.0352,-0.0925 0.12971,-0.17874 0.22066,-0.20154 0.1195,-0.03 0.17572,-0.10307 0.22686,-0.293 0.0662,-0.24596 0.0742,-0.25203 0.293,-0.21653 0.41367,0.0671 0.4594,-0.004 0.4594,-0.72502 v -0.63665 l 0.24495,-0.26562 c 0.27049,-0.29345 0.38499,-0.66892 0.38499,-1.26039 0,-0.30884 0.0157,-0.34761 0.17312,-0.42271 0.23687,-0.11302 0.26886,-0.49616 0.0734,-0.88057 -0.56762,-1.11622 -1.48698,-1.87349 -2.54714,-2.09806 -0.27688,-0.0587 -0.50506,-0.0912 -0.70951,-0.0961 z m -14.31489,0.0677 c -0.12914,0.004 -0.38333,0.0232 -0.85783,0.0615 -1.5047,0.12143 -3.41157,0.42533 -4.68705,0.74673 -0.23989,0.0605 -0.35403,0.0902 -0.36846,0.10593 -1.6e-4,2.3e-4 -9e-4,10e-4 -0.001,0.002 v 5.2e-4 l -5.2e-4,5.2e-4 v 5.1e-4 5.2e-4 l 5.2e-4,5.2e-4 v 5.1e-4 c 1.2e-4,1.9e-4 3.6e-4,8.6e-4 5.2e-4,10e-4 l 5.1e-4,5.1e-4 c 0.0116,0.008 0.0703,0.0108 0.16537,0.0134 0.44175,0.0114 2.64197,-0.23204 3.61373,-0.39998 1.27938,-0.2211 2.16002,-0.41697 2.24173,-0.49867 0.007,-0.007 0.0115,-0.0131 0.0124,-0.0181 5e-5,-5.7e-4 6e-5,-0.002 0,-0.003 -6e-5,-2.7e-4 -4.3e-4,-0.001 -5.2e-4,-0.002 -1.2e-4,-2.5e-4 -3.6e-4,-0.001 -5.2e-4,-0.002 l -5.1e-4,-5.2e-4 c -2.2e-4,-2.3e-4 -0.001,-10e-4 -0.002,-0.002 -0.0104,-0.008 -0.0442,-0.0113 -0.11679,-0.009 z" /></g></svg>
