<?xml version="1.0" encoding="UTF-8" standalone="no"?>
<!-- Created with Inkscape (http://www.inkscape.org/) -->

<svg
   width="40.02726mm"
   height="32.969173mm"
   viewBox="0 0 40.02726 32.969173"
   version="1.1"
   id="svg1"
   xml:space="preserve"
   xmlns="http://www.w3.org/2000/svg"
   xmlns:svg="http://www.w3.org/2000/svg"><defs
     id="defs1" /><g
     id="layer1"
     transform="translate(-84.987301,-132.01477)"><path
       id="path62"
       style="fill:#000000"
       d="m 121.00881,132.01557 c -0.45166,0.006 -0.97168,0.10947 -1.33119,0.27647 -0.51414,0.23882 -1.04783,0.77531 -1.34617,1.35341 -0.12517,0.24256 -0.334,0.8236 -0.46406,1.29139 -0.13007,0.46779 -0.29295,0.96417 -0.36225,1.10277 -0.12832,0.25656 -0.75859,1.06332 -0.9617,1.23094 -0.0452,0.0373 -0.0712,0.0573 -0.0806,0.0579 h -5.2e-4 -5.2e-4 -5.1e-4 -5.2e-4 -5.2e-4 v -5.1e-4 h -5.1e-4 v -5.2e-4 l -5.2e-4,-5.2e-4 c -0.003,-0.009 0.0132,-0.0412 0.0444,-0.0997 0.0397,-0.0744 0.17157,-0.26604 0.29352,-0.42581 0.12194,-0.15977 0.22221,-0.29926 0.22221,-0.31006 h -5.1e-4 v -5.2e-4 -5.2e-4 h -5.2e-4 c -0.0131,-0.008 -0.15682,0.004 -0.33021,0.0284 -0.74111,0.10555 -1.29514,0.0662 -1.93063,-0.13746 -1.22185,-0.39152 -1.93843,-0.39145 -2.83032,0 -0.24307,0.10666 -0.48245,0.19378 -0.53175,0.19378 -0.21821,0 -1.06808,0.25868 -1.46761,0.44649 -0.86955,0.40875 -1.80743,1.48301 -2.51975,2.88664 -1.0981,2.16384 -1.07655,2.13208 -2.18436,3.22254 -0.85371,0.84033 -0.95935,1.04876 -0.95911,1.88671 1.9e-4,0.65847 0.0828,1.06625 0.35243,1.73271 0.0784,0.19374 0.10958,0.29565 0.10077,0.31471 l -5.2e-4,5.2e-4 -5.2e-4,5.1e-4 v 5.2e-4 l -5.1e-4,5.2e-4 -5.2e-4,5.2e-4 h -5.2e-4 v 5.1e-4 h -5.1e-4 -5.2e-4 l -5.2e-4,5.2e-4 c -0.0289,-4.3e-4 -0.15852,-0.21304 -0.35553,-0.60203 -0.27686,-0.54664 -0.38695,-1.00584 -0.38602,-1.61489 0.001,-0.65081 0.20386,-1.16255 0.55035,-1.38958 0.0772,-0.0506 0.13151,-0.10276 0.12816,-0.12196 -1.8e-4,-6.1e-4 -7.2e-4,-0.002 -10e-4,-0.003 -2e-4,-2.5e-4 -8.1e-4,-0.001 -0.001,-0.002 -1.8e-4,-1.8e-4 -8.2e-4,-3.4e-4 -0.001,-5.2e-4 -0.0613,-0.0423 -1.12552,0.11405 -1.6769,0.24702 -1.02578,0.24737 -1.68304,0.64367 -2.66857,1.61075 -0.520112,0.51036 -0.936745,1.07046 -1.299665,1.74615 -0.33498,0.62369 -1.032362,1.49238 -2.131652,2.65462 -1.18099,1.24866 -1.163685,1.2194 -1.152385,1.88309 0.0081,0.47744 -0.0047,0.54844 -0.104903,0.57464 -0.06286,0.0164 -0.21225,0.17423 -0.33228,0.35088 -0.264482,0.38922 -0.454491,0.48213 -1.515669,0.74104 -1.152447,0.28118 -1.891947,0.54494 -2.271696,0.80977 -0.317679,0.22155 -0.65977,0.62737 -1.092957,1.29604 -0.243011,0.37511 -1.481387,1.88888 -1.570447,1.91978 -0.03731,0.013 -0.246504,0.20404 -0.464571,0.42478 -0.419079,0.42421 -0.705882,0.93619 -0.702282,1.25264 0.0028,0.24707 0.143604,0.63612 0.289904,0.80099 0.05357,0.0604 0.08194,0.0928 0.0832,0.10283 v 5.2e-4 5.2e-4 l -5.16e-4,5.1e-4 v 5.2e-4 l -5.17e-4,5.2e-4 h -5.17e-4 l -5.17e-4,5.1e-4 c -0.009,0.001 -0.04274,-0.0158 -0.101285,-0.0465 -0.247442,-0.12974 -0.428931,-0.50915 -0.426331,-0.89141 0.0019,-0.28013 0.04215,-0.41042 0.208773,-0.67697 0.113453,-0.18148 0.296266,-0.39175 0.406177,-0.46715 0.10991,-0.0754 0.264761,-0.19567 0.344681,-0.26717 l 0.145728,-0.12971 -0.649573,-0.10748 c -1.132613,-0.18664 -1.425729,-0.14017 -1.79834,0.28422 -0.271245,0.30893 -0.376116,0.73188 -0.422196,1.7048 -0.03818,0.8063 -0.04145,0.82198 -0.396358,1.7012 l -0.358635,0.88729 0.0036,0.69298 c 0.0023,0.45624 0.03846,0.79862 0.104903,1.002 0.208991,0.63974 0.761176,1.2262 1.351338,1.43454 h 5.17e-4 c 0.164417,0.058 0.392799,0.10759 0.507979,0.11059 0.417464,0.01 0.708549,-0.49745 0.802019,-1.39837 0.06256,-0.60295 0.208418,-1.11123 0.428397,-1.49345 0.11008,-0.19126 0.256225,-0.45675 0.325045,-0.58962 0.06882,-0.13288 0.273867,-0.40646 0.455786,-0.60823 0.354459,-0.39312 0.40591,-0.57114 0.204639,-0.71212 -0.123527,-0.0865 -0.120311,-0.0976 0.141593,-0.45888 0.329143,-0.45399 0.902942,-1.02975 1.294495,-1.29915 0.160974,-0.11075 0.789836,-0.45631 1.397331,-0.76791 2.774089,-1.42295 2.6098,-1.35767 3.797184,-1.51619 0.53124,-0.0709 0.710572,-0.1295 1.331702,-0.43615 0.39474,-0.19489 0.763588,-0.3545 0.819588,-0.3545 0.18559,0 0.105226,-0.0925 -0.234094,-0.26975 -0.18443,-0.0964 -0.432181,-0.25884 -0.550871,-0.36122 l -0.216008,-0.18603 0.378272,0.18758 c 0.42516,0.21096 1.463698,0.50309 1.789038,0.50333 0.15513,1.2e-4 0.415392,-0.12328 0.945156,-0.44855 1.78591,-1.09652 2.96529,-1.75899 3.61322,-2.02933 0.1389,-0.058 0.21333,-0.0805 0.22582,-0.0729 l 5.2e-4,5.2e-4 5.2e-4,5.2e-4 v 5.1e-4 l 5.1e-4,5.2e-4 v 5.2e-4 5.2e-4 c -2e-5,2.6e-4 7e-5,0.001 0,0.002 -0.007,0.0201 -0.10582,0.0847 -0.29042,0.18241 -0.3177,0.1682 -0.5585,0.32293 -2.5988,1.66915 -0.71035,0.4687 -1.411455,0.90592 -1.558045,0.97152 -0.24839,0.1111 -0.29294,0.11262 -0.65009,0.0253 -0.35202,-0.086 -0.402166,-0.0847 -0.615466,0.0165 -1.54955,0.73566 -1.739323,0.80589 -2.556433,0.93999 -0.870349,0.14284 -0.982787,0.1823 -1.613339,0.56793 -0.225233,0.13775 -0.622231,0.33899 -0.882116,0.447 -0.9285,0.38589 -2.269447,1.0319 -2.456698,1.18339 -0.155071,0.12546 -0.157647,0.14158 -0.158647,1.05988 l -0.001,0.93277 -0.239779,0.56172 c -0.280914,0.65809 -0.351966,1.2095 -0.233577,1.81126 0.07267,0.36941 0.271526,0.83269 0.458886,1.06815 0.126504,0.15898 0.504795,0.36975 0.664043,0.37001 0.254747,4.2e-4 0.57473,-0.17562 0.703316,-0.38706 0.128169,-0.21076 0.322827,-0.79614 0.441317,-1.32808 0.03654,-0.16406 0.199817,-0.61298 0.362768,-0.99736 0.254166,-0.59954 0.339604,-0.7351 0.600997,-0.95395 0.167584,-0.14031 0.341016,-0.32974 0.385506,-0.42064 0.134122,-0.27412 0.007,-0.60396 -0.174666,-0.45321 -0.05178,0.043 -0.145439,0.0676 -0.207739,0.0548 -0.08178,-0.0168 0.02715,-0.12766 0.39119,-0.39894 0.76253,-0.56825 1.612822,-0.98199 2.866492,-1.39526 1.00187,-0.33027 1.961559,-0.73132 2.343009,-0.97875 0.59921,-0.38868 0.873706,-0.48912 1.492421,-0.54622 0.66927,-0.0618 0.82173,-0.13284 1.70325,-0.79375 l 0.64751,-0.48525 -0.17932,-0.19585 -0.17932,-0.19637 0.22066,0.16175 c 0.33218,0.2432 0.85806,0.49402 1.03508,0.49402 0.22215,0 2.57735,-1.64568 2.65875,-1.85776 0.0168,-0.0437 -0.0123,-0.24605 -0.0646,-0.44959 -0.14941,-0.58165 -0.22732,-1.57185 -0.22686,-2.88096 2e-4,-0.66336 -0.0321,-1.41943 -0.0718,-1.68 -0.0661,-0.43426 -0.0614,-0.49464 0.0558,-0.7245 0.23087,-0.45287 0.51307,-1.77936 0.7705,-3.62356 0.24549,-1.75868 0.51171,-2.4051 1.49758,-3.63388 0.24154,-0.30105 0.33876,-0.49031 0.42116,-0.81907 0.22432,-0.89442 0.79731,-1.739 1.41387,-2.08515 l 0.25941,-0.14573 -0.33331,0.33435 c -0.42393,0.42556 -0.70767,0.84007 -0.91157,1.33222 -0.13375,0.32294 -0.16754,0.52746 -0.19844,1.20768 l -0.0372,0.81907 -0.12557,-0.29921 c -0.0682,-0.1619 -0.14057,-0.29445 -0.16226,-0.29869 l -5.2e-4,-5.1e-4 h -5.2e-4 c -0.0204,-1.3e-4 -0.20115,0.22761 -0.40152,0.50591 -0.39463,0.54808 -0.67806,1.1713 -0.79892,1.75648 l -0.0765,0.37052 0.26096,0.43201 c 0.3134,0.51914 0.49291,1.14396 0.40101,1.39527 -0.0263,0.0716 -0.0415,0.11299 -0.0506,0.1204 l -5.2e-4,5.2e-4 h -5.1e-4 l -5.2e-4,5.2e-4 h -5.2e-4 -5.1e-4 -5.2e-4 -5.2e-4 -5.1e-4 l -5.2e-4,-5.2e-4 -5.2e-4,-5.2e-4 c -0.008,-0.009 -0.009,-0.0642 -0.0119,-0.17053 -0.005,-0.21531 -0.20993,-0.70421 -0.52297,-1.24643 l -0.15554,-0.26975 -0.11007,0.67954 c -0.29387,1.81585 -0.67832,3.4477 -0.89039,3.7791 -0.0651,0.10165 -0.0724,0.18233 -0.0274,0.30076 0.0339,0.089 0.0909,0.4801 0.12661,0.86919 0.094,1.02301 0.17604,1.62925 0.32194,2.36678 0.0708,0.35817 0.11756,0.66276 0.10336,0.67696 h -5.2e-4 l -5.2e-4,5.2e-4 h -5.1e-4 -5.2e-4 v -5.2e-4 h -5.2e-4 l -5.1e-4,-5.1e-4 c -0.0222,-0.0194 -0.10972,-0.27884 -0.20206,-0.60358 -0.0985,-0.34638 -0.19259,-0.62994 -0.20929,-0.62994 -0.0562,0 0.0531,1.56354 0.14831,2.12287 0.21116,1.24016 0.68088,2.87066 1.1281,3.91552 0.11608,0.2712 0.24694,0.66112 0.29094,0.8661 0.1354,0.63012 0.34772,0.76394 1.30638,0.82424 0.42043,0.0265 0.68935,0.0775 0.85938,0.16278 0.13609,0.0683 0.41268,0.1388 0.61443,0.1571 0.34342,0.0311 0.3669,0.0247 0.3669,-0.10181 0,-0.0744 -0.071,-0.19703 -0.15761,-0.27233 -0.22797,-0.19823 -0.19342,-0.27258 0.0553,-0.11886 0.3496,0.21606 1.11292,0.50902 1.32705,0.50902 0.10989,0 0.25516,-0.042 0.32246,-0.093 0.11866,-0.09 0.11658,-0.0975 -0.0708,-0.24753 -0.10619,-0.085 -0.41801,-0.27246 -0.69298,-0.41651 -0.35377,-0.18534 -0.54894,-0.3031 -0.55759,-0.32918 v -5.2e-4 -5.2e-4 -5.1e-4 -5.2e-4 -5.2e-4 -5.1e-4 l 5.1e-4,-5.2e-4 5.2e-4,-5.2e-4 5.2e-4,-5.1e-4 h 5.1e-4 c 0.018,-0.005 0.11838,0.0296 0.30748,0.11265 0.47624,0.20904 0.83603,0.42237 1.04283,0.61857 0.23394,0.22201 0.39967,0.29662 0.65991,0.29662 0.1776,0 0.23815,-0.0291 0.26355,-0.12609 0.0382,-0.146 0.0473,-0.14839 0.21549,-0.0584 0.0962,0.0515 0.1626,0.0436 0.27957,-0.0331 0.30499,-0.19983 0.16389,-0.40598 -0.56431,-0.82475 -0.16935,-0.0974 -0.36111,-0.26699 -0.42581,-0.37672 -0.13385,-0.22686 -0.31937,-0.32801 -0.70177,-0.38241 -0.14614,-0.0208 -0.35415,-0.0773 -0.4625,-0.12557 -0.10835,-0.0483 -0.54719,-0.11835 -0.97514,-0.15555 -0.82388,-0.0715 -1.16568,-0.18026 -1.25728,-0.40049 -0.0819,-0.19685 -0.43719,-2.69818 -0.43719,-3.07733 0,-0.18084 0.0457,-0.64101 0.10181,-1.02268 0.12414,-0.84505 0.0893,-2.83672 -0.0651,-3.71812 -0.1122,-0.64074 -0.13229,-1.41748 -0.0367,-1.41748 0.0346,0 0.0631,0.0695 0.0631,0.15451 0,0.13064 0.0984,0.43513 0.17311,0.53588 2.1e-4,2.9e-4 2.9e-4,7.8e-4 5.2e-4,10e-4 2.5e-4,2.2e-4 0.001,0.001 0.002,0.002 0.072,0.0406 0.73519,-0.87963 0.97307,-1.35444 0.3426,-0.68383 0.84371,-2.13584 1.07952,-3.12849 l 0.0398,-0.16692 -0.35192,0.0915 c -0.24007,0.0627 -0.36992,0.0857 -0.38809,0.0677 l -5.1e-4,-5.1e-4 -5.2e-4,-5.2e-4 c -1.1e-4,-2e-4 -4.2e-4,-0.001 -5.2e-4,-0.002 v -5.2e-4 c -4e-5,-2.3e-4 -4.9e-4,-10e-4 -5.1e-4,-10e-4 v -5.1e-4 c 0.003,-0.0373 0.24672,-0.16369 0.73484,-0.38086 0.45419,-0.20206 0.96067,-0.45056 1.12551,-0.5519 l 0.29972,-0.18397 -0.22324,0.20722 c -0.12268,0.11415 -0.39639,0.34032 -0.60823,0.5023 -0.29144,0.22282 -0.3956,0.3453 -0.4284,0.50384 -0.0751,0.36279 -0.53776,1.95469 -0.70177,2.41484 -0.31697,0.88931 -0.67767,1.50796 -1.21284,2.07894 l -0.27234,0.29043 0.0548,0.35863 c 0.0425,0.27781 0.0788,0.35688 0.16071,0.35088 0.0957,-0.007 0.0968,0.005 0.0119,0.13488 -0.10703,0.16344 -0.10225,1.07595 0.006,1.06195 0.0919,-0.0119 0.34192,-0.54259 0.42892,-0.91054 0.0742,-0.31389 0.0842,-0.32363 0.55862,-0.57051 0.2886,-0.15021 0.61698,-0.38828 0.81649,-0.59169 0.26993,-0.2752 0.41236,-0.36465 0.74569,-0.46871 0.22666,-0.0708 0.52543,-0.21235 0.66404,-0.31471 0.1386,-0.10235 0.33736,-0.2343 0.44132,-0.293 0.26304,-0.14838 0.85024,-0.5822 1.03921,-0.7674 0.0866,-0.0849 0.33062,-0.2778 0.54209,-0.42891 0.3234,-0.2311 0.45752,-0.28482 0.84284,-0.33952 0.91451,-0.1297 1.83006,-0.76762 2.7156,-1.89187 0.20708,-0.2629 0.38928,-0.46881 0.41909,-0.47439 2.3e-4,-2e-5 0.001,-5.2e-4 0.002,-5.2e-4 h 5.2e-4 v 5.2e-4 h 5.2e-4 5.1e-4 v 5.2e-4 c 4.5e-4,4.4e-4 0.001,10e-4 0.002,10e-4 0.0398,0.0756 -0.59964,0.96641 -0.98443,1.36839 -0.24795,0.25903 -0.42352,0.50238 -0.45372,0.62994 -0.0221,0.0942 -0.0343,0.14347 -0.0419,0.15089 l -5.2e-4,5.2e-4 h -5.1e-4 l -5.2e-4,5.1e-4 h -5.2e-4 -5.1e-4 v -5.1e-4 h -5.2e-4 l -5.2e-4,-5.2e-4 c -0.005,-0.008 -0.007,-0.0466 -0.01,-0.1142 l -0.006,-0.17105 -0.21755,0.12867 -0.21808,0.12816 0.0351,0.42064 c 0.0193,0.23138 0.0916,0.69039 0.16071,1.01958 0.0927,0.44138 0.13175,0.91722 0.14935,1.81281 0.0416,2.12098 0.18598,2.90952 0.84284,4.60592 0.17953,0.46366 0.44798,1.28554 0.59635,1.82676 0.14836,0.54121 0.31804,1.07783 0.37724,1.19218 0.0588,0.11435 0.09,0.26249 0.0687,0.32969 -0.0563,0.17745 0.14172,0.47061 0.37517,0.55501 0.11081,0.0401 0.35901,0.0729 0.55139,0.0729 0.21485,0 0.46169,0.0494 0.63975,0.12816 0.34551,0.15283 0.66621,0.10467 0.76481,-0.11524 0.0577,-0.12861 0.10526,-0.13901 0.65009,-0.13901 0.32325,0 0.64534,0.0314 0.71624,0.0692 0.20847,0.11157 0.97789,0.30902 1.20406,0.30902 0.11479,0 0.23582,-0.0266 0.26872,-0.0589 0.0329,-0.0324 0.173,-0.0675 0.3116,-0.0786 0.21795,-0.0173 0.25491,-0.0421 0.27131,-0.18293 0.0244,-0.21012 -0.0181,-0.2398 -0.80667,-0.55966 -0.81407,-0.33021 -1.07398,-0.408 -1.79524,-0.53795 -0.92619,-0.16687 -1.51977,-0.3442 -1.66295,-0.49661 -0.19669,-0.20937 -0.26296,-0.67783 -0.32246,-2.27531 -0.0297,-0.79698 -0.0728,-1.51022 -0.0956,-1.58492 -0.0228,-0.0747 0.0241,-0.45753 0.10438,-0.85059 0.21544,-1.05476 0.20122,-2.24305 -0.0372,-3.10886 -0.25315,-0.91927 -0.28783,-1.23765 -0.21653,-1.98437 0.064,-0.67063 0.0325,-1.40977 -0.0786,-1.84692 -0.0562,-0.22107 -0.0422,-0.26853 0.17467,-0.59531 0.31785,-0.47885 0.40944,-0.76623 0.44804,-1.40663 l 0.0326,-0.54157 -0.40669,-0.19069 c -0.29202,-0.13666 -0.49307,-0.28993 -0.7121,-0.54363 -0.34728,-0.40229 -0.30191,-0.39882 -1.12242,-0.0878 -0.27092,0.10268 -0.63342,0.2815 -0.80563,0.39739 l -0.31316,0.21084 0.13642,-0.19224 c 0.0752,-0.10559 0.24194,-0.26812 0.37052,-0.36122 0.22554,-0.16338 0.33307,-0.2148 1.06195,-0.51004 l 0.33539,-0.13591 0.48782,0.46612 c 0.49584,0.47376 0.65022,0.54932 1.11983,0.54932 0.14334,0 0.2621,-0.0486 0.3545,-0.14573 0.27421,-0.28812 0.89674,-1.06783 0.99942,-1.2516 0.14363,-0.25705 0.14986,-0.26062 0.30748,-0.17622 0.11945,0.0639 0.1613,0.0526 0.293,-0.0791 0.12869,-0.12864 0.16179,-0.24467 0.20619,-0.7152 0.067,-0.71058 0.13534,-0.85599 0.48163,-1.02423 0.15352,-0.0746 0.30533,-0.1994 0.33693,-0.2775 0.19411,-0.47964 0.56999,-1.83131 0.56999,-2.04949 0,-0.4427 -0.2844,-1.21079 -0.63097,-1.70429 -0.56195,-0.80019 -1.60542,-1.51722 -2.39314,-1.64486 -0.12688,-0.0206 -0.27009,-0.0295 -0.42064,-0.0274 z m -14.13299,6.92619 c 0,-0.0425 -1.15428,0.60719 -1.82728,1.02836 -1.07672,0.67381 -3.13653,2.13022 -3.65094,2.58124 -0.0134,0.0118 -0.0212,0.0199 -0.0233,0.0243 v 5.2e-4 l -5.1e-4,5.1e-4 v 5.2e-4 5.2e-4 5.1e-4 h 5.1e-4 v 5.2e-4 l 5.2e-4,5.2e-4 h 5.2e-4 c 2e-4,5e-5 7.9e-4,-3e-5 0.001,0 0.0108,10e-6 0.0509,-0.0192 0.11265,-0.0563 0.10395,-0.0626 0.69919,-0.40762 1.32292,-0.76636 1.37976,-0.79359 2.52995,-1.55766 3.406,-2.2624 0.36173,-0.29099 0.65784,-0.53952 0.65784,-0.55242 z m -9.959085,8.18142 c -0.02213,-4.2e-4 -0.117805,0.0282 -0.231511,0.0698 -0.12994,0.0475 -0.39233,0.1295 -0.58291,0.1819 -0.19058,0.0524 -0.601779,0.24171 -0.913639,0.42065 -0.58558,0.336 -0.705103,0.4176 -3.065963,2.09806 -0.773941,0.55089 -1.633784,1.15772 -1.910995,1.34824 -0.53202,0.36563 -1.543575,1.1374 -1.543575,1.1777 0,0.0131 0.332854,-0.18385 0.740007,-0.43718 0.407154,-0.25332 1.066537,-0.65121 1.465027,-0.8847 0.901542,-0.52824 3.263057,-2.00848 3.937744,-2.46807 0.708689,-0.48274 2.110465,-1.4819 2.110465,-1.5043 v -5.1e-4 h -5.16e-4 v -5.2e-4 h -5.17e-4 c -2.03e-4,-8e-5 -7.82e-4,-4.5e-4 -10e-4,-5.2e-4 -6e-4,-9e-5 -0.0018,-5e-4 -0.0026,-5.1e-4 z m -0.649056,1.32446 c -0.02552,0.001 -0.07444,0.0175 -0.149345,0.0501 -0.56238,0.24479 -3.480925,2.08702 -3.480925,2.19728 v 5.2e-4 c 0,0.0304 0.01175,0.0553 0.02635,0.0553 0.05471,0 2.102922,-1.19068 2.5585,-1.48725 0.668948,-0.43548 1.080912,-0.75321 1.066085,-0.8077 -1.01e-4,-2.7e-4 -3.92e-4,-0.001 -5.17e-4,-0.001 -1.48e-4,-2.4e-4 -8.61e-4,-0.001 -10e-4,-0.002 l -5.17e-4,-5.2e-4 c -0.0033,-0.003 -0.0099,-0.005 -0.0186,-0.005 z m 8.419641,9.99474 -0.24443,0.0651 c -0.36939,0.0981 -0.9813,0.41519 -1.87379,0.97152 -0.86757,0.54081 -2.37979,1.65018 -2.41949,1.7751 -10e-4,0.004 -10e-4,0.008 0,0.0103 v 5.2e-4 l 5.2e-4,5.2e-4 h 5.2e-4 c 0.0322,0.0337 0.44496,-0.18566 1.74769,-0.92553 0.92003,-0.52253 2.44287,-1.5236 2.63912,-1.7353 z m -2.29753,0.42633 c -0.12092,0.005 -1.02246,0.4274 -1.83245,0.8692 -1.029291,0.56144 -4.051523,2.67023 -4.331003,3.02205 -0.03339,0.0422 -0.05259,0.0677 -0.05323,0.0765 v 5.2e-4 5.1e-4 5.2e-4 5.2e-4 l 5.16e-4,5.1e-4 5.17e-4,5.2e-4 h 5.17e-4 l 5.17e-4,5.2e-4 c 0.01129,9.5e-4 0.05753,-0.0277 0.147794,-0.0863 0.10395,-0.0675 0.486754,-0.29894 0.850594,-0.51418 2.951858,-1.74623 4.409218,-2.67932 5.197618,-3.32798 0.0202,-0.0166 0.0305,-0.0283 0.032,-0.0351 7e-5,-5.8e-4 8e-5,-0.002 0,-0.003 v -5.2e-4 c -1.1e-4,-2.1e-4 -3.7e-4,-10e-4 -5.2e-4,-10e-4 l -5.1e-4,-5.1e-4 c -2.2e-4,-1.6e-4 -0.001,-3.8e-4 -0.002,-5.2e-4 -0.002,-9.8e-4 -0.006,-0.002 -0.0108,-0.002 z" /></g></svg>
