<?xml version="1.0" encoding="UTF-8" standalone="no"?>
<!-- Created with Inkscape (http://www.inkscape.org/) -->

<svg
   width="33.866276mm"
   height="33.866581mm"
   viewBox="0 0 33.866276 33.866581"
   version="1.1"
   id="svg1"
   xml:space="preserve"
   xmlns="http://www.w3.org/2000/svg"
   xmlns:svg="http://www.w3.org/2000/svg"><defs
     id="defs1" /><g
     id="layer1"
     transform="translate(-88.066684,-131.56646)"><g
       id="g15"><path
         d="m 91.732044,165.42432 c -0.352048,-0.0198 -0.870803,-0.0654 -1.010465,-0.0888 -0.382972,-0.0641 -0.571139,-0.19899 -0.571139,-0.40939 0,-0.20186 0.136852,-0.35561 0.495007,-0.55614 0.288451,-0.1615 0.443048,-0.2745 0.654627,-0.47859 0.410263,-0.39575 0.440873,-0.44082 0.434952,-0.64034 -0.0028,-0.0958 0.0088,-0.19436 0.03082,-0.26198 0.111481,-0.34152 0.124256,-0.40211 0.123839,-0.5872 -9.64e-4,-0.42854 -0.147479,-1.22231 -0.510233,-2.76445 -0.119502,-0.508 -0.150282,-0.69021 -0.16633,-0.98469 -0.01788,-0.32816 0.01218,-0.61538 0.113461,-1.08405 0.03741,-0.17312 0.197151,-0.66572 0.281231,-0.86726 0.192732,-0.46196 0.179163,-0.37988 0.179163,-1.08405 0,-0.7039 0.0025,-0.68824 -0.177134,-1.09309 -0.254208,-0.57281 -0.409232,-1.0852 -0.481081,-1.58997 -0.09566,-0.67211 -0.04898,-1.90623 0.100464,-2.656 0.05768,-0.28933 0.250127,-1.0498 0.340633,-1.34603 0.05465,-0.17887 0.122994,-0.42393 0.151875,-0.54456 0.04908,-0.20503 0.06671,-0.3025 0.153902,-0.85117 0.01856,-0.11676 0.04781,-0.26931 0.06501,-0.33897 0.05396,-0.21859 0.230729,-0.78653 0.306907,-0.98604 0.06145,-0.16094 0.07007,-0.2039 0.05434,-0.27102 -0.01028,-0.0439 -0.02492,-0.18952 -0.03254,-0.32367 -0.01197,-0.21091 -0.0047,-0.30245 0.05393,-0.67645 0.137178,-0.87537 0.07225,-1.21633 -0.372185,-1.95455 -0.108393,-0.18004 -0.197079,-0.33656 -0.197079,-0.34781 0,-0.0113 -0.0091,-0.0205 -0.0202,-0.0205 -0.01764,0 -0.06211,0.0956 -0.09662,0.20778 -0.043,0.13974 -0.185037,0.4198 -0.390597,0.77013 -0.309598,0.52766 -0.327291,0.58356 -0.330632,1.04524 -0.0014,0.194 -0.01033,0.42592 -0.01982,0.51534 -0.03787,0.35677 -0.241291,0.87842 -0.579929,1.48718 -0.228622,0.41096 -0.345209,0.6685 -0.460047,1.01619 -0.07126,0.21576 -0.145055,0.56949 -0.145055,0.69532 0,0.10182 0.0075,0.11181 0.233286,0.31186 0.156663,0.13879 0.315541,0.42562 0.377276,0.68117 0.02401,0.0994 0.05447,0.22539 0.06768,0.28004 0.01321,0.0546 0.04864,0.16668 0.07874,0.24894 0.185474,0.50701 0.06865,0.81233 -0.308207,0.80555 -0.229496,-0.004 -0.414816,-0.11833 -0.540776,-0.33322 -0.04001,-0.0683 -0.08109,-0.12433 -0.09128,-0.12458 -0.02185,-5.5e-4 2.92e-4,0.16189 0.03441,0.25249 0.03638,0.0966 0.110689,0.1834 0.236807,0.27666 0.226648,0.16761 0.313477,0.30236 0.312401,0.48482 -0.0012,0.20822 -0.103552,0.31263 -0.327426,0.33417 -0.159737,0.0154 -0.34032,-0.0435 -0.627986,-0.2046 -0.552796,-0.30965 -0.635005,-0.39237 -0.880378,-0.88592 -0.235237,-0.47316 -0.242615,-0.52012 -0.164428,-1.04783 0.03633,-0.24526 0.04628,-0.4006 0.04198,-0.65566 -0.0093,-0.54969 -0.0082,-0.69241 0.0083,-1.1744 0.01235,-0.35883 0.0075,-0.55862 -0.02172,-0.90339 -0.04961,-0.58446 -0.06617,-1.42407 -0.03345,-1.69585 0.03169,-0.26324 0.05409,-0.37132 0.133784,-0.64554 0.08786,-0.3023 0.16472,-0.47363 0.396719,-0.88437 0.09672,-0.17125 0.131416,-0.34654 0.151843,-0.76718 0.04002,-0.82421 0.114878,-1.11535 0.455247,-1.77063 l 0.164236,-0.31617 -0.01879,-0.18068 c -0.01033,-0.0994 -0.01823,-0.32702 -0.01754,-0.50589 0.0011,-0.29506 0.007,-0.34366 0.06285,-0.52397 0.149718,-0.48303 0.409949,-0.87584 0.774017,-1.16835 0.250531,-0.20128 0.284774,-0.22162 0.586209,-0.34821 0.378622,-0.159 0.653394,-0.22056 1.056144,-0.23657 l 0.221462,-0.009 0.208685,-0.11486 c 0.291748,-0.16058 0.703603,-0.35261 1.228637,-0.57283 0.319039,-0.13383 0.479421,-0.21211 0.554657,-0.27077 l 0.105838,-0.0825 0.0014,-0.13432 c 0.0058,-0.55469 0.0024,-0.58895 -0.07843,-0.7823 -0.04209,-0.10072 -0.08511,-0.23566 -0.09561,-0.29989 -0.01389,-0.085 -0.03036,-0.12186 -0.06052,-0.13551 -0.02279,-0.0103 -0.08592,-0.0562 -0.14029,-0.10206 -0.10826,-0.0913 -0.193044,-0.24691 -0.264008,-0.48474 -0.0737,-0.24697 -0.08909,-0.39506 -0.05499,-0.52909 0.04353,-0.17114 0.07792,-0.21719 0.224249,-0.3003 l 0.07,-0.0398 -0.01283,-0.3208 c -0.02487,-0.62191 0.105049,-1.02123 0.441232,-1.35616 0.148681,-0.14813 0.316639,-0.25395 0.562887,-0.35462 0.09061,-0.037 0.180426,-0.0738 0.199586,-0.0818 0.01916,-0.008 0.142723,-0.0374 0.274592,-0.0654 0.218432,-0.0464 0.273942,-0.051 0.624174,-0.051 0.32691,-6e-5 0.413896,0.006 0.581477,0.0408 0.766325,0.1591 1.251757,0.5234 1.427142,1.07105 0.07778,0.24286 0.09779,0.43155 0.08541,0.80534 -0.01053,0.31791 -0.0095,0.32841 0.03379,0.33969 0.06158,0.0161 0.165399,0.0987 0.205593,0.16361 0.0676,0.10918 0.08506,0.27438 0.04955,0.46893 -0.07672,0.42033 -0.211545,0.66518 -0.42827,0.77771 -0.07535,0.0391 -0.08185,0.0497 -0.09513,0.15415 -0.0078,0.0617 -0.0464,0.18634 -0.08569,0.27704 l -0.07144,0.16487 v 0.76452 l 0.0659,0.0667 c 0.06843,0.0692 0.267888,0.16594 0.834744,0.40467 0.498617,0.20999 0.778524,0.34287 1.014524,0.48159 l 0.15781,0.0928 0.240843,0.012 c 0.531919,0.0266 1.080769,0.19773 1.480669,0.46174 0.28899,0.19077 0.46624,0.38126 0.66555,0.71526 0.31514,0.52806 0.40824,0.9819 0.31949,1.55748 l -0.0312,0.20241 0.14896,0.29089 c 0.33889,0.66173 0.45213,1.08481 0.48501,1.81222 0.0201,0.44478 0.048,0.58926 0.14921,0.77363 0.20332,0.37027 0.28107,0.5443 0.36635,0.81984 0.15351,0.49604 0.1652,0.58979 0.16337,1.3099 -0.001,0.39536 -0.015,0.79042 -0.0364,1.02986 -0.0405,0.45278 -0.0379,1.3103 0.005,1.50715 0.0227,0.10537 0.0211,0.1635 -0.0107,0.37039 -0.0406,0.26454 -0.0356,0.43412 0.0247,0.82651 0.018,0.11763 0.0385,0.31601 0.0454,0.44082 0.0146,0.2646 -0.002,0.33289 -0.1471,0.60417 -0.0106,0.0199 -0.0458,0.0931 -0.0782,0.16261 -0.17429,0.37462 -0.32798,0.53341 -0.74527,0.76994 -0.44322,0.25125 -0.5638,0.28963 -0.78906,0.25118 -0.21242,-0.0363 -0.29383,-0.15347 -0.27078,-0.38977 0.0144,-0.14753 0.0789,-0.23906 0.28193,-0.39978 0.0855,-0.0677 0.17889,-0.16066 0.20744,-0.20649 0.0501,-0.0804 0.11477,-0.31558 0.0919,-0.33436 -0.006,-0.005 -0.0542,0.0574 -0.1068,0.13884 -0.10939,0.16931 -0.22519,0.2591 -0.38573,0.29911 -0.15601,0.0389 -0.31272,0.0101 -0.41901,-0.077 -0.0576,-0.0472 -0.1137,-0.18029 -0.11418,-0.27097 -6.7e-4,-0.11282 0.0511,-0.34469 0.11119,-0.49842 0.0244,-0.0623 0.059,-0.20496 0.077,-0.31692 0.0649,-0.40441 0.21357,-0.67355 0.51781,-0.93765 l 0.12829,-0.11136 -4.5e-4,-0.13256 c -2.2e-4,-0.0729 -0.0103,-0.18885 -0.0224,-0.25765 -0.0589,-0.33506 -0.2905,-0.92903 -0.51477,-1.3201 -0.0668,-0.11644 -0.1214,-0.21534 -0.1214,-0.21981 0,-0.009 -0.15289,-0.308 -0.21997,-0.43084 -0.0473,-0.0865 -0.16007,-0.37298 -0.20635,-0.52397 -0.0745,-0.24287 -0.1041,-0.47529 -0.11182,-0.87685 -0.0106,-0.5501 -0.0415,-0.6502 -0.35355,-1.14567 -0.15308,-0.24304 -0.28032,-0.49785 -0.37044,-0.74184 -0.033,-0.0894 -0.0652,-0.1748 -0.0714,-0.18972 -0.0113,-0.027 -0.03466,0.009 -0.295628,0.46182 -0.353618,0.61298 -0.44334,1.02565 -0.349312,1.60693 0.100622,0.62213 0.114611,0.7551 0.09978,0.94856 -0.008,0.10434 -0.02359,0.2298 -0.03464,0.27879 -0.01766,0.0783 -0.01108,0.11221 0.05428,0.28004 0.0409,0.10503 0.105448,0.29666 0.143429,0.42584 0.03798,0.12919 0.07803,0.25928 0.08899,0.28908 0.05526,0.15024 0.135358,0.55077 0.200523,1.00275 0.04966,0.34442 0.107378,0.58552 0.240038,1.00275 0.18638,0.58617 0.37813,1.49328 0.45258,2.14103 0.0547,0.47594 0.0553,1.51014 0.001,1.88816 -0.0732,0.5101 -0.21157,0.96739 -0.46478,1.53612 -0.19328,0.43411 -0.216015,0.57521 -0.204053,1.26643 l 0.0087,0.50385 0.134283,0.33425 c 0.18574,0.46236 0.32076,0.9021 0.39389,1.28281 0.0309,0.16088 0.0397,0.30771 0.0389,0.65044 -0.001,0.49274 -0.006,0.52594 -0.20605,1.37315 -0.30325,1.28493 -0.357412,1.55391 -0.431055,2.14103 -0.04563,0.36376 -0.03306,0.57606 0.04707,0.79497 0.04424,0.12087 0.06227,0.21595 0.07022,0.37039 0.006,0.11823 0.0231,0.22782 0.0395,0.25427 0.0517,0.0833 0.54748,0.58371 0.6618,0.66793 0.0613,0.0451 0.20305,0.13457 0.31507,0.19874 0.35306,0.20224 0.44962,0.27569 0.52439,0.39873 0.10824,0.17816 0.0889,0.3232 -0.0607,0.45585 -0.13273,0.11769 -0.39905,0.17846 -0.95889,0.21879 -0.668859,0.0482 -1.056652,0.0549 -1.216362,0.0211 -0.211601,-0.0448 -0.384228,-0.12881 -0.514315,-0.25018 -0.287599,-0.26827 -0.286276,-0.26732 -0.426655,-0.309 -0.217744,-0.0646 -0.319353,-0.1341 -0.404523,-0.27654 -0.07193,-0.1203 -0.07379,-0.12912 -0.07174,-0.34055 0.002,-0.20354 0.0078,-0.2313 0.09336,-0.44535 0.05019,-0.12555 0.09125,-0.24824 0.09125,-0.27264 0,-0.0244 -0.01977,-0.10795 -0.04394,-0.18566 -0.05252,-0.16891 -0.05549,-0.32254 -0.0091,-0.46976 0.116641,-0.36998 0.12085,-0.39293 0.107707,-0.5872 -0.0263,-0.38885 -0.09482,-0.74897 -0.255397,-1.3425 -0.08985,-0.33207 -0.161822,-0.52747 -0.337405,-0.91596 -0.127126,-0.28128 -0.238937,-0.59641 -0.289639,-0.81634 -0.03027,-0.1313 -0.03861,-0.25979 -0.03791,-0.58391 8.52e-4,-0.39016 0.0053,-0.43488 0.07226,-0.73175 0.153597,-0.68048 0.163949,-0.8773 0.05872,-1.11649 -0.02931,-0.0666 -0.08781,-0.19837 -0.129993,-0.29279 -0.26329,-0.58921 -0.343975,-0.90986 -0.420533,-1.67127 -0.06064,-0.60309 -0.07199,-0.65372 -0.297825,-1.3291 -0.341105,-1.02007 -0.444147,-1.48983 -0.570489,-2.60067 -0.0243,-0.21366 -0.04677,-0.40065 -0.04993,-0.41555 -0.0032,-0.0149 -0.01854,0.0908 -0.03418,0.23487 -0.03833,0.35327 -0.152368,1.21009 -0.180036,1.35266 -0.04129,0.21274 -0.170722,0.67769 -0.307602,1.10493 -0.07475,0.23331 -0.168592,0.52609 -0.20854,0.65061 -0.09686,0.30194 -0.13378,0.48725 -0.174456,0.87572 -0.05287,0.50492 -0.09767,0.81639 -0.142932,0.99373 -0.05376,0.21066 -0.219721,0.67188 -0.295806,0.82209 -0.225079,0.44436 -0.246876,0.63301 -0.129399,1.1202 0.136682,0.56684 0.175004,0.93196 0.137714,1.31205 -0.0343,0.34956 -0.142654,0.68811 -0.404119,1.26259 -0.156019,0.34281 -0.210879,0.49754 -0.305943,0.86293 -0.139841,0.53747 -0.210051,0.96774 -0.210338,1.28908 -1.55e-4,0.17192 0.0098,0.22887 0.06922,0.39749 0.08167,0.23161 0.0929,0.42699 0.03357,0.58403 -0.05303,0.14037 -0.0461,0.25435 0.02689,0.44202 0.07964,0.20479 0.133737,0.4174 0.133737,0.52565 0,0.0986 -0.07,0.2786 -0.142389,0.36621 -0.06791,0.0822 -0.229608,0.17577 -0.346688,0.20062 -0.144995,0.0308 -0.213931,0.0751 -0.357049,0.22958 -0.141068,0.15225 -0.269973,0.23452 -0.471887,0.30116 -0.103573,0.0342 -0.16471,0.0401 -0.42836,0.0412 -0.169144,7.4e-4 -0.352025,-0.001 -0.406383,-0.004 z m 0.614957,-0.32246 c 0.18344,-0.0343 0.297825,-0.0987 0.423472,-0.23831 0.131999,-0.14667 0.263649,-0.25018 0.337135,-0.2651 0.148374,-0.0301 0.318927,-0.10732 0.351488,-0.15909 0.06943,-0.11043 0.03534,-0.34074 -0.10028,-0.67729 -0.03692,-0.0916 -0.06713,-0.18939 -0.06713,-0.21722 0,-0.0279 0.02535,-0.13175 0.05632,-0.23089 0.06441,-0.20616 0.06149,-0.26449 -0.02666,-0.53258 -0.05425,-0.165 -0.05601,-0.186 -0.04539,-0.54203 0.0123,-0.41227 0.04361,-0.62126 0.170494,-1.13826 0.11295,-0.46023 0.190546,-0.70334 0.305629,-0.9576 0.164374,-0.36313 0.347608,-0.83581 0.381828,-0.98497 0.07997,-0.34852 0.06673,-0.75048 -0.04107,-1.2464 -0.03024,-0.13912 -0.07127,-0.34441 -0.09117,-0.4562 -0.0199,-0.1118 -0.04312,-0.20326 -0.0516,-0.20326 -0.01579,0 -0.181906,0.21986 -0.300336,0.39749 -0.155055,0.23259 -0.303274,0.59301 -0.390059,0.94856 -0.09554,0.39138 -0.186353,1.17076 -0.222096,1.90624 -0.008,0.16396 -0.0236,0.31233 -0.03473,0.32973 -0.02899,0.0453 -0.09968,0.039 -0.140708,-0.0125 -0.028,-0.0351 -0.03268,-0.0747 -0.023,-0.19422 0.0067,-0.0825 0.018,-0.28425 0.02515,-0.44822 0.0071,-0.16396 0.02739,-0.44039 0.04499,-0.61431 0.119491,-1.18073 0.308947,-1.72086 0.833443,-2.37619 0.129055,-0.16126 0.193952,-0.2649 0.254343,-0.4062 0.0446,-0.10434 0.126736,-0.28644 0.182527,-0.40467 0.179672,-0.38077 0.316684,-0.84005 0.353438,-1.18478 l 0.01439,-0.135 -0.09938,0.11103 c -0.106877,0.11941 -0.281544,0.23854 -0.421453,0.28748 -0.115208,0.0403 -0.373643,0.0381 -0.51723,-0.004 -0.477448,-0.14122 -0.735939,-0.69807 -0.660883,-1.42373 0.04635,-0.4482 0.129113,-0.68427 0.529339,-1.50992 0.288317,-0.59475 0.3984,-0.94562 0.473344,-1.50864 0.01985,-0.14906 0.04314,-0.29135 0.05177,-0.31619 0.01929,-0.0556 0.109485,-0.0719 0.149356,-0.0271 0.03711,0.0417 0.01896,0.2687 -0.05055,0.63233 -0.09885,0.51704 -0.202981,0.79704 -0.621596,1.67127 -0.147717,0.3085 -0.265151,0.62267 -0.310629,0.83111 -0.01759,0.0806 -0.02958,0.26731 -0.02959,0.46072 -1e-5,0.28294 0.0064,0.34355 0.04922,0.46613 0.09668,0.27672 0.257684,0.47453 0.455157,0.55921 0.133051,0.0571 0.324488,0.0509 0.472268,-0.0153 0.630117,-0.28207 0.828756,-1.44436 0.482942,-2.82587 -0.03607,-0.14409 -0.07894,-0.30289 -0.09528,-0.35291 -0.03231,-0.0989 -0.01812,-0.15902 0.04203,-0.178 0.0517,-0.0163 0.114163,0.0338 0.141604,0.11355 0.09025,0.26241 0.219111,0.88216 0.25302,1.21685 0.0078,0.077 0.02322,0.14003 0.03427,0.14003 0.01105,0 0.02009,-0.003 0.02009,-0.006 0,-0.003 0.05839,-0.19217 0.129757,-0.42007 0.228733,-0.73044 0.304642,-1.08748 0.385708,-1.8146 0.01828,-0.16397 0.04309,-0.42821 0.05513,-0.5872 0.01204,-0.15899 0.02816,-0.33521 0.03583,-0.39157 l 0.01394,-0.10248 -0.117838,-0.0491 c -0.26356,-0.10985 -0.436523,-0.25507 -0.603005,-0.50628 -0.06684,-0.10085 -0.112308,-0.1992 -0.136399,-0.29504 -0.03467,-0.13792 -0.03447,-0.14525 0.0049,-0.18106 0.09868,-0.0897 0.214476,-0.0147 0.329803,0.21362 0.135314,0.26789 0.300471,0.4345 0.506264,0.51073 0.148309,0.0549 0.532322,0.0598 0.70968,0.009 0.197061,-0.0565 0.327067,-0.17922 0.497047,-0.46932 0.180785,-0.30853 0.257617,-0.3602 0.354627,-0.23843 0.0347,0.0436 0.0348,0.0549 0.0015,0.1681 -0.01964,0.0668 -0.0818,0.19863 -0.13814,0.29303 -0.08248,0.1382 -0.134946,0.1982 -0.269322,0.30796 -0.09202,0.0752 -0.221092,0.15925 -0.287712,0.18744 l -0.120818,0.0511 0.0052,0.11069 c 0.01718,0.36754 0.101823,1.20433 0.161067,1.59225 0.0417,0.27305 0.232367,0.99796 0.349267,1.32798 0.02288,0.0646 0.05255,0.152 0.06594,0.19422 0.01338,0.0422 0.03266,0.0768 0.04284,0.0768 0.01018,0 0.02537,-0.0793 0.03377,-0.17616 0.02513,-0.29011 0.132466,-0.79833 0.234789,-1.11166 0.04931,-0.15101 0.09376,-0.19229 0.170637,-0.15844 0.05949,0.0262 0.0647,0.0518 0.0314,0.15441 -0.06559,0.20208 -0.187887,0.71283 -0.215795,0.90122 -0.06944,0.46871 -0.05846,1.19348 0.02233,1.47468 0.08178,0.28464 0.252549,0.57702 0.415062,0.71071 0.346106,0.28467 0.779354,0.19115 1.004231,-0.21676 0.253693,-0.46019 0.174477,-1.20686 -0.211493,-1.99348 -0.446457,-0.90997 -0.55228,-1.20873 -0.648281,-1.83005 -0.06416,-0.41528 -0.05781,-0.48262 0.0455,-0.48262 0.06693,0 0.0893,0.05 0.110664,0.24743 0.04311,0.39833 0.188412,0.95306 0.332718,1.27025 0.207183,0.45539 0.326708,0.71162 0.379227,0.81305 0.384856,0.74287 0.442331,1.64408 0.135433,2.12277 -0.09196,0.14344 -0.258963,0.27936 -0.421565,0.34308 -0.112791,0.0442 -0.15643,0.0513 -0.302557,0.0492 -0.271588,-0.004 -0.506892,-0.11239 -0.688331,-0.31748 -0.08916,-0.10078 -0.09647,-0.10518 -0.09647,-0.0581 0,0.10109 0.06943,0.43937 0.13271,0.64659 0.07427,0.24321 0.179796,0.5091 0.316505,0.79752 0.05252,0.11081 0.111284,0.24549 0.130576,0.29931 0.01963,0.0548 0.116228,0.20195 0.219369,0.33425 0.23351,0.29954 0.31406,0.42471 0.425377,0.661 0.218919,0.46469 0.315608,0.84794 0.398827,1.58092 0.06817,0.60044 0.105101,1.34335 0.06949,1.39809 -0.03053,0.0469 -0.123517,0.051 -0.151938,0.007 -0.01115,-0.0174 -0.02687,-0.18203 -0.03494,-0.36586 -0.02944,-0.67083 -0.0882,-1.20432 -0.189042,-1.71639 -0.07997,-0.40607 -0.183272,-0.68104 -0.383533,-1.02088 -0.141606,-0.24031 -0.302489,-0.46072 -0.336283,-0.46072 -0.0104,0 -0.03005,0.0711 -0.04367,0.15809 -0.01362,0.087 -0.05649,0.30037 -0.09526,0.47428 -0.06531,0.29294 -0.07061,0.34607 -0.0721,0.72271 -0.0014,0.35749 0.0043,0.42852 0.0475,0.58887 0.05978,0.22196 0.206418,0.61797 0.278427,0.75191 0.311302,0.57897 0.609418,1.85274 0.578023,2.46989 -0.009,0.17673 -0.02463,0.26171 -0.07015,0.38103 -0.0722,0.18927 -0.07589,0.31103 -0.01491,0.49254 0.06833,0.20337 0.06162,0.28773 -0.04301,0.5406 -0.106426,0.25721 -0.133932,0.45237 -0.07897,0.56025 0.03609,0.0709 0.106971,0.10896 0.330789,0.17784 0.126035,0.0388 0.202053,0.0972 0.39091,0.30053 0.171273,0.18437 0.415735,0.25472 0.809337,0.23288 0.971783,-0.0539 1.376373,-0.10762 1.439093,-0.1911 0.0261,-0.0347 -0.0677,-0.13445 -0.19913,-0.21187 -0.0719,-0.0423 -0.20854,-0.12257 -0.30374,-0.17832 -0.25535,-0.14953 -0.49584,-0.34716 -0.752561,-0.6184 -0.345164,-0.36471 -0.344133,-0.36286 -0.36048,-0.64329 -0.0088,-0.15145 -0.03007,-0.28428 -0.05939,-0.37132 -0.111667,-0.33143 -0.113631,-0.4902 -0.01476,-1.19247 0.06274,-0.44566 0.09352,-0.608 0.198687,-1.04792 0.04157,-0.1739 0.09475,-0.41227 0.118181,-0.52971 0.02343,-0.11744 0.07668,-0.35323 0.118343,-0.52397 0.15528,-0.63637 0.15592,-0.6409 0.15596,-1.09637 3e-5,-0.4892 -0.0325,-0.68912 -0.198222,-1.21956 -0.09313,-0.29803 -0.266789,-0.76788 -0.283832,-0.76788 -0.0046,0 -0.0501,0.10617 -0.101055,0.23594 -0.106332,0.27078 -0.140723,0.31698 -0.223276,0.29994 -0.03091,-0.006 -0.06171,-0.0234 -0.06844,-0.0378 -0.0067,-0.0144 0.04053,-0.15884 0.105029,-0.3209 0.0645,-0.16207 0.133399,-0.37811 0.15311,-0.48009 0.05042,-0.26082 0.06959,-0.81635 0.03627,-1.05063 -0.03182,-0.22373 -0.07694,-0.3306 -0.209921,-0.49712 -0.103027,-0.12901 -0.117135,-0.16887 -0.0727,-0.20541 0.05314,-0.0437 0.117219,-0.0229 0.197837,0.0641 0.0437,0.0472 0.0918,0.10818 0.10689,0.13551 0.02963,0.0537 0.05352,0.0629 0.07003,0.0271 0.20996,-0.45519 0.41611,-1.0226 0.52028,-1.43186 0.14647,-0.57559 0.15944,-1.54572 0.0325,-2.43005 -0.0633,-0.4407 -0.266051,-1.35058 -0.39616,-1.77744 -0.156976,-0.515 -0.229451,-0.83341 -0.271969,-1.1947 -0.03427,-0.29125 -0.07904,-0.49324 -0.212249,-0.9576 -0.129957,-0.45301 -0.193278,-0.64149 -0.241314,-0.71828 -0.03069,-0.0491 -0.032,-0.0493 -0.09093,-0.0188 -0.172548,0.0894 -0.471617,0.28478 -0.593474,0.38769 -0.178946,0.1511 -0.297511,0.28987 -0.421049,0.49276 -0.103222,0.16954 -0.157347,0.20534 -0.232703,0.15389 -0.04871,-0.0333 -0.03876,-0.0789 0.04809,-0.22096 0.236941,-0.38745 0.496172,-0.61961 1.024256,-0.91732 0.264142,-0.1489 0.261205,-0.14385 0.273538,-0.4716 0.009,-0.23818 0.0022,-0.32206 -0.04807,-0.59356 -0.169658,-0.91667 -0.0963,-1.34145 0.365077,-2.11392 0.364897,-0.61095 0.425714,-0.78533 0.400172,-1.1473 -0.0091,-0.12918 -0.01834,-0.24097 -0.0205,-0.24843 -0.0022,-0.007 -0.0052,-0.0357 -0.0067,-0.0627 -0.0026,-0.0473 -0.0085,-0.0446 -0.151022,0.0693 -0.354425,0.28318 -0.68286,0.42557 -1.101555,0.47756 -0.41578,0.0516 -1.215092,-0.0313 -1.781589,-0.18496 -0.428225,-0.11612 -0.690552,-0.28701 -0.616146,-0.40139 0.03283,-0.0505 0.114367,-0.0482 0.191592,0.005 0.209625,0.14508 0.474555,0.22064 1.050605,0.29965 1.030513,0.14134 1.518299,0.0677 1.955135,-0.29527 0.311683,-0.25896 0.501802,-0.53146 0.638033,-0.91459 0.04417,-0.12421 0.09628,-0.24064 0.115812,-0.25874 0.043,-0.0398 0.16573,-0.0277 0.23458,0.0231 0.0466,0.0343 0.19446,0.11012 0.54322,0.27834 0.11755,0.0567 0.27381,0.14884 0.34725,0.20475 0.20081,0.15292 0.24044,0.24426 0.11706,0.26973 -0.0421,0.009 -0.0745,-0.006 -0.15684,-0.0687 -0.0571,-0.0438 -0.15818,-0.11245 -0.22463,-0.15254 -0.17696,-0.10676 -0.60083,-0.29677 -0.62242,-0.27902 -0.0184,0.0151 -0.15246,0.35815 -0.19467,0.49803 -0.0555,0.18379 0.0444,0.87327 0.20281,1.40025 0.14324,0.47651 0.39873,0.99292 0.60338,1.21958 0.0512,0.0567 0.18719,0.15411 0.36477,0.26132 0.15575,0.094 0.28867,0.18518 0.29538,0.20256 0.0359,0.0931 -0.10805,0.13865 -0.22728,0.0719 -0.17088,-0.0956 -0.24793,-0.13394 -0.256,-0.1273 -0.005,0.004 0.005,0.0601 0.0216,0.12465 0.02,0.0769 0.031,0.24175 0.0317,0.47861 10e-4,0.38811 0.0299,0.60525 0.11902,0.90339 0.0748,0.24999 0.15056,0.40893 0.52995,1.11116 0.3607,0.66764 0.5837,1.38673 0.55282,1.78255 -0.0135,0.17301 -0.0206,0.18583 -0.16896,0.30428 -0.13096,0.10456 -0.3392,0.35533 -0.38634,0.46522 -0.0178,0.0416 -0.0519,0.17344 -0.0758,0.29303 -0.0485,0.24304 -0.0587,0.27928 -0.14063,0.49746 -0.0775,0.2065 -0.0952,0.34535 -0.048,0.37756 0.0838,0.0572 0.21979,-0.10541 0.35357,-0.42273 0.0779,-0.18481 0.15756,-0.28915 0.24858,-0.32567 0.0672,-0.0269 0.0778,-0.0267 0.15203,0.004 0.15266,0.0627 0.26757,0.30653 0.26923,0.57125 0.002,0.2672 -0.13828,0.57382 -0.33317,0.72988 -0.17028,0.13637 -0.25916,0.23893 -0.25916,0.29906 0,0.0493 0.005,0.0526 0.0604,0.0415 0.0806,-0.016 0.63996,-0.32112 0.72336,-0.39454 0.10594,-0.0933 0.15703,-0.16331 0.26286,-0.36039 0.20817,-0.38761 0.24943,-0.50311 0.24901,-0.69683 -2.3e-4,-0.0964 -0.015,-0.25983 -0.0329,-0.36321 -0.071,-0.41075 -0.0829,-0.66765 -0.0435,-0.93552 0.0316,-0.21476 0.0328,-0.27355 0.009,-0.4299 -0.0407,-0.26268 -0.0337,-1.12994 0.0125,-1.54525 0.0505,-0.45411 0.0695,-1.25522 0.0352,-1.48976 -0.0597,-0.40945 -0.18398,-0.84057 -0.31267,-1.08488 -0.25844,-0.49068 -0.29643,-0.581 -0.33608,-0.7994 -0.0158,-0.087 -0.0301,-0.272 -0.0318,-0.41113 -0.008,-0.61706 -0.13905,-1.12555 -0.42962,-1.66223 l -0.0587,-0.1084 -0.0478,0.0813 c -0.0448,0.0762 -0.0533,0.0813 -0.13539,0.0813 -0.12385,0 -0.15536,-0.0551 -0.10948,-0.1915 0.16294,-0.48439 0.19214,-0.62983 0.19189,-0.95579 -2.2e-4,-0.38123 -0.0717,-0.64663 -0.2601,-0.96653 -0.13046,-0.22152 -0.1638,-0.26626 -0.31978,-0.42915 -0.11947,-0.12475 -0.38028,-0.32076 -0.42681,-0.32076 -0.009,0 -0.0327,-0.0114 -0.0518,-0.0253 -0.0613,-0.0447 -0.33554,-0.15883 -0.48386,-0.20141 -0.20396,-0.0585 -0.48222,-0.0985 -0.685614,-0.0985 -0.195596,0 -0.225415,-0.009 -0.479309,-0.15179 -0.09037,-0.0507 -0.220533,-0.11651 -0.289258,-0.14633 -0.06872,-0.0298 -0.222144,-0.0999 -0.340926,-0.15583 -0.176898,-0.0832 -0.491733,-0.22004 -1.022978,-0.44451 -0.09412,-0.0398 -0.112236,-0.0165 -0.09637,0.12396 0.01247,0.11033 0.009,0.12795 -0.03198,0.16165 -0.05022,0.0413 -0.142824,0.0362 -0.186346,-0.0103 -0.03239,-0.0346 -0.115735,-0.56591 -0.132807,-0.84662 l -0.01412,-0.23214 -0.14551,0.11689 c -0.446255,0.35849 -0.697975,0.44346 -1.257789,0.42456 -0.397122,-0.0134 -0.603207,-0.0827 -0.908544,-0.30559 -0.07682,-0.0561 -0.147816,-0.10485 -0.15777,-0.10841 -0.01,-0.004 -0.04876,-0.0359 -0.08625,-0.0718 l -0.06815,-0.0653 -0.01458,0.25505 c -0.01688,0.29533 -0.07152,0.71719 -0.103603,0.79984 -0.02734,0.0704 -0.110131,0.0934 -0.187185,0.0519 -0.0487,-0.0263 -0.05259,-0.0398 -0.05259,-0.18306 v -0.15471 l -0.280087,0.12222 c -0.154043,0.0672 -0.383869,0.16607 -0.510727,0.21966 -0.33348,0.14087 -0.670055,0.30149 -0.95133,0.45399 l -0.245866,0.1333 -0.296547,0.0141 c -0.431208,0.0206 -0.70062,0.088 -1.065383,0.26655 -0.44713,0.21891 -0.775766,0.57159 -0.963126,1.03364 -0.188528,0.46489 -0.195321,0.88129 -0.02387,1.46316 0.09157,0.31075 0.0982,0.37555 0.0419,0.40939 -0.08609,0.0518 -0.190275,0.02 -0.229003,-0.0699 -0.0238,-0.0552 -0.02745,-0.0569 -0.05561,-0.0258 -0.04293,0.0474 -0.196354,0.3728 -0.26116,0.55394 -0.130284,0.36421 -0.210684,0.88478 -0.212034,1.37284 -2.91e-4,0.10147 -0.01757,0.23491 -0.04218,0.32553 -0.04003,0.14742 -0.07334,0.22096 -0.253693,0.5601 -0.158483,0.298 -0.211482,0.43811 -0.3087,0.81602 -0.09005,0.35005 -0.122099,0.96479 -0.07663,1.46954 0.05502,0.61082 0.06837,0.86637 0.06841,1.3099 2.6e-5,0.26333 -0.01,0.55603 -0.02224,0.65044 -0.01751,0.13481 -0.01498,0.22012 0.01177,0.3975 0.03911,0.25931 0.02982,0.49859 -0.0367,0.94435 -0.07529,0.50459 -0.0721,0.52353 0.165169,0.97985 0.192403,0.37003 0.270556,0.45391 0.590402,0.63351 0.403244,0.22644 0.484086,0.25743 0.512543,0.19645 0.02152,-0.0461 -0.02237,-0.10158 -0.208022,-0.26291 -0.196754,-0.17096 -0.286456,-0.29961 -0.354224,-0.50801 -0.0609,-0.18731 -0.0591,-0.36563 0.0055,-0.5478 0.06641,-0.18721 0.146329,-0.29115 0.239969,-0.3121 0.168272,-0.0376 0.297802,0.0794 0.411676,0.37199 0.08484,0.21795 0.149737,0.32519 0.224652,0.37119 0.151298,0.0929 0.170642,-0.0666 0.0482,-0.3975 -0.04343,-0.11734 -0.101529,-0.32311 -0.129118,-0.45725 -0.06999,-0.34034 -0.162161,-0.49846 -0.428495,-0.73507 -0.202564,-0.17996 -0.219963,-0.20871 -0.22006,-0.36374 -1.02e-4,-0.16425 0.06846,-0.53196 0.143786,-0.77118 0.101143,-0.32121 0.353484,-0.90697 0.435873,-1.01179 0.01562,-0.0199 0.09788,-0.17029 0.182792,-0.33425 0.373351,-0.7209 0.420174,-0.88994 0.445492,-1.60802 0.0093,-0.26333 0.02795,-0.5072 0.04146,-0.54191 0.03803,-0.0977 0.03355,-0.11366 -0.02485,-0.0885 -0.02718,0.0117 -0.10087,0.0491 -0.163744,0.0831 -0.08277,0.0448 -0.133689,0.0603 -0.184503,0.0562 -0.08506,-0.007 -0.129466,-0.0543 -0.09428,-0.10058 0.01984,-0.0261 0.330229,-0.22676 0.54349,-0.35135 0.07065,-0.0413 0.193463,-0.19643 0.312916,-0.39534 0.345882,-0.57587 0.588653,-1.37506 0.617021,-2.03128 l 0.0125,-0.28908 -0.09096,-0.24391 c -0.05003,-0.13415 -0.09574,-0.25473 -0.101587,-0.26796 -0.02136,-0.0483 -0.659762,0.26595 -0.851248,0.41909 -0.0576,0.0461 -0.12362,0.0838 -0.146708,0.0838 -0.06213,0 -0.114791,-0.0512 -0.09949,-0.0968 0.02833,-0.0843 0.308813,-0.27187 0.672141,-0.44953 0.197861,-0.0967 0.381492,-0.19129 0.408065,-0.21012 0.02657,-0.0188 0.08541,-0.0399 0.130757,-0.0469 0.09988,-0.0154 0.12571,0.007 0.174977,0.15289 0.162188,0.4798 0.346599,0.76615 0.653282,1.01443 0.478457,0.38733 0.894191,0.45884 1.918448,0.32997 0.578247,-0.0728 0.880916,-0.15427 1.091687,-0.29404 0.04697,-0.0311 0.108402,-0.0566 0.136521,-0.0566 0.05041,0 0.0966,0.0456 0.0966,0.0954 0,0.0346 -0.137397,0.14858 -0.249163,0.20663 -0.413044,0.21455 -1.611317,0.39069 -2.18046,0.32053 -0.401293,-0.0495 -0.769756,-0.20916 -1.066729,-0.46229 -0.06844,-0.0583 -0.134215,-0.10607 -0.146163,-0.10607 -0.02891,0 -0.05564,0.33713 -0.04334,0.54653 0.0133,0.22627 0.107009,0.44795 0.384003,0.90836 0.336014,0.55854 0.439729,0.85535 0.460674,1.3185 0.01221,0.26994 8.08e-4,0.39678 -0.07315,0.81305 -0.04587,0.25821 -0.05404,0.86175 -0.01251,0.92363 0.01414,0.0211 0.09771,0.078 0.185718,0.12647 0.534026,0.29424 0.830057,0.55029 1.046793,0.90533 0.105263,0.17244 0.114076,0.23182 0.03861,0.2601 -0.08017,0.03 -0.135998,-0.006 -0.189026,-0.1228 -0.07197,-0.15822 -0.273337,-0.39729 -0.470182,-0.55824 -0.172313,-0.14089 -0.541763,-0.36913 -0.597489,-0.36913 -0.03823,0 -0.128452,0.2483 -0.328233,0.90339 -0.06625,0.21724 -0.129945,0.53177 -0.17562,0.86726 -0.04645,0.34115 -0.121686,0.67423 -0.240731,1.06577 -0.130701,0.42983 -0.285738,1.08122 -0.38277,1.60825 -0.06891,0.37425 -0.08861,0.59492 -0.121785,1.36411 -0.02431,0.56359 0.08472,1.30409 0.264703,1.79774 0.155732,0.42715 0.379743,0.9576 0.40441,0.9576 0.0075,0 0.0292,-0.0264 0.0483,-0.0587 0.05064,-0.0856 0.190464,-0.2123 0.234318,-0.2123 0.04882,0 0.09055,0.0347 0.09055,0.0753 0,0.0176 -0.04273,0.0871 -0.09496,0.15448 -0.202523,0.2613 -0.200624,0.25363 -0.209121,0.84524 -0.0049,0.34107 0.0013,0.5681 0.0179,0.65044 0.02944,0.14644 0.127869,0.43767 0.223715,0.66193 0.05416,0.12673 0.06202,0.16321 0.04184,0.19422 -0.02694,0.0414 -0.108673,0.0511 -0.149269,0.0177 -0.0137,-0.0113 -0.06758,-0.1289 -0.11972,-0.2614 -0.05214,-0.13249 -0.100874,-0.24116 -0.108294,-0.24149 -0.04169,-0.002 -0.254433,0.6083 -0.380931,1.0925 -0.09601,0.36745 -0.131184,0.68344 -0.113858,1.02289 0.01322,0.25902 0.03211,0.36218 0.201469,1.10007 0.286949,1.2502 0.370997,1.68814 0.44038,2.29467 0.04529,0.39591 0.03244,0.59269 -0.05633,0.8624 -0.05484,0.16663 -0.06603,0.23296 -0.06253,0.37064 0.0053,0.2087 -0.03334,0.28633 -0.272059,0.54662 -0.360749,0.39331 -0.501532,0.5056 -1.039931,0.82945 -0.121509,0.0731 -0.23795,0.15426 -0.25876,0.18038 -0.102709,0.12893 0.115122,0.18714 0.919016,0.24561 0.567372,0.0413 0.705486,0.0425 0.88955,0.008 z m 0.725535,-8.39074 c -0.04864,-0.04 -0.04914,-0.0383 0.06813,-0.22628 0.08445,-0.13532 0.183862,-0.36966 0.206953,-0.48782 0.03942,-0.20174 0.07596,-0.24641 0.1683,-0.20576 0.04149,0.0183 0.0443,0.0316 0.0333,0.15803 -0.01474,0.1693 -0.100367,0.39773 -0.220957,0.58944 -0.09078,0.14432 -0.149118,0.20809 -0.190346,0.20809 -0.01208,0 -0.0415,-0.0161 -0.06538,-0.0357 z m 5.469651,-2e-5 c -0.06095,-0.0501 -0.209487,-0.29871 -0.276252,-0.46233 -0.03229,-0.0791 -0.06162,-0.2013 -0.06902,-0.28753 -0.01204,-0.14029 -0.0098,-0.15128 0.03416,-0.17064 0.09038,-0.0398 0.123392,-0.001 0.164614,0.19171 0.04798,0.22471 0.118822,0.39107 0.232299,0.54555 0.101865,0.13866 0.104318,0.14808 0.04927,0.18905 -0.0524,0.039 -0.08212,0.0377 -0.13507,-0.006 z m -6.101809,-3.36555 c -0.02768,-0.0285 -0.120038,-0.28995 -0.189867,-0.53751 -0.06422,-0.2277 -0.134446,-0.58626 -0.168076,-0.85822 -0.03733,-0.30188 -0.02766,-0.9272 0.01947,-1.25883 0.04208,-0.29613 0.07555,-0.37631 0.157082,-0.37631 0.07283,0 0.09421,0.0609 0.06863,0.19564 -0.06253,0.32925 -0.07684,0.49758 -0.07632,0.89745 5.83e-4,0.44385 0.0213,0.63324 0.119599,1.09309 0.0394,0.1843 0.07196,0.29742 0.205008,0.71211 0.02536,0.079 0.02793,0.11311 0.0099,0.13099 -0.03072,0.0305 -0.116448,0.0314 -0.145412,0.002 z m 6.731051,0.0105 c -0.03007,-0.0247 -0.01208,-0.12183 0.08214,-0.4435 0.260016,-0.88767 0.304933,-1.53734 0.163688,-2.36716 -0.03087,-0.18136 -0.01577,-0.23489 0.06414,-0.22729 0.08149,0.008 0.104545,0.0562 0.148771,0.3128 0.0521,0.30229 0.06301,1.1131 0.01897,1.40928 -0.08385,0.56385 -0.290268,1.2908 -0.374025,1.31723 -0.04478,0.0141 -0.08554,0.0136 -0.103683,-10e-4 z m -4.697114,-6.3613 c -0.08289,-0.0809 -0.286276,-0.52585 -0.37786,-0.82661 -0.09158,-0.30071 -0.134805,-0.76965 -0.07545,-0.81847 0.03896,-0.032 0.122951,-0.0263 0.145724,0.01 0.01092,0.0174 0.02523,0.13325 0.0318,0.25747 0.01874,0.3547 0.105518,0.64707 0.324824,1.09438 0.05959,0.12155 0.108344,0.23236 0.108344,0.24627 0,0.0658 -0.103092,0.09 -0.157374,0.037 z m 2.640304,-0.0216 c -0.01984,-0.0305 -0.0097,-0.0644 0.05562,-0.18627 0.241135,-0.44977 0.325228,-0.73586 0.378375,-1.28725 l 0.01567,-0.16261 h 0.153767 l 0.0064,0.18067 c 0.01416,0.40069 -0.145506,0.94098 -0.40847,1.38219 -0.04723,0.0793 -0.07116,0.10051 -0.118156,0.10497 -0.04155,0.004 -0.06609,-0.005 -0.08319,-0.0317 z m -1.46542,-1.47369 c -0.05268,-0.0317 -0.02049,-0.11383 0.05401,-0.13782 0.107184,-0.0345 0.210264,-0.0352 0.290447,-0.002 0.06578,0.0273 0.07688,0.041 0.07688,0.0949 v 0.0631 l -0.192939,0.001 c -0.116558,9.3e-4 -0.206977,-0.007 -0.228397,-0.0198 z m -1.116333,-0.34161 c -0.27309,-0.0522 -0.450292,-0.1454 -0.564591,-0.29679 -0.102666,-0.13597 -0.164204,-0.49899 -0.105951,-0.62501 0.01638,-0.0354 0.03683,-0.0463 0.08687,-0.0463 0.07538,0 0.07985,0.0124 0.0982,0.27102 0.01867,0.26322 0.107218,0.39794 0.317402,0.48284 0.122321,0.0494 0.12943,0.0501 0.486597,0.0455 0.199348,-0.003 0.416811,-0.007 0.483279,-0.009 0.111267,-0.004 0.121386,-0.001 0.127996,0.0373 0.0039,0.0229 -0.0041,0.0529 -0.01799,0.0666 -0.07046,0.0698 -0.676491,0.11898 -0.911795,0.074 z m 2.078405,0.005 c -0.313298,-0.0428 -0.433384,-0.10275 -0.347407,-0.17346 0.02891,-0.0238 0.06634,-0.0243 0.297152,-0.004 0.351936,0.0303 0.639064,0.0171 0.78893,-0.0361 0.235282,-0.0836 0.324667,-0.22604 0.341845,-0.54479 0.0052,-0.0957 0.01624,-0.18308 0.02462,-0.19422 0.02607,-0.0347 0.119094,-0.0231 0.145954,0.0182 0.04272,0.0657 0.01488,0.42162 -0.04243,0.54237 -0.12791,0.26955 -0.452759,0.41615 -0.910226,0.4108 -0.09908,-10e-4 -0.233376,-0.009 -0.29843,-0.0183 z m -6.764015,-0.30844 c -0.0145,-0.0119 -0.02642,-0.0587 -0.02649,-0.10389 -1.71e-4,-0.10871 -0.0569,-0.41443 -0.102286,-0.55123 -0.01992,-0.06 -0.06525,-0.16199 -0.100742,-0.22659 -0.133166,-0.24236 -0.146782,-0.30797 -0.069,-0.33252 0.06448,-0.0204 0.120408,0.0282 0.206466,0.17931 0.143624,0.25217 0.262909,0.6699 0.263268,0.922 1.4e-4,0.0986 -0.0263,0.1346 -0.09872,0.1346 -0.02537,0 -0.05799,-0.01 -0.07249,-0.0217 z m 5.934294,1.3e-4 c -0.02832,-0.0361 -0.03675,-0.64744 -0.0097,-0.70568 0.03137,-0.0676 0.125835,-0.0696 0.156483,-0.003 0.02396,0.0518 0.02551,0.60595 0.0019,0.67635 -0.01707,0.0509 -0.117069,0.0729 -0.148634,0.0327 z m 5.95537,-0.0225 c -0.0319,-0.0401 -0.032,-0.0641 -0.002,-0.26911 0.0643,-0.43099 0.28311,-0.93354 0.40656,-0.93354 0.11005,0 0.11181,0.0918 0.005,0.27867 -0.11482,0.20149 -0.20442,0.50291 -0.23562,0.79258 -0.0117,0.10844 -0.0242,0.14473 -0.0545,0.15809 -0.0598,0.0263 -0.082,0.0214 -0.12024,-0.0267 z m -7.517487,-0.85005 c -0.171359,-0.0397 -0.240035,-0.0744 -0.315024,-0.15905 -0.186497,-0.21043 -0.21647,-0.38936 -0.06223,-0.37145 0.04268,0.005 0.07041,0.0349 0.135283,0.14613 0.155915,0.26734 0.296681,0.28917 1.124652,0.17453 0.331103,-0.0459 0.394969,-0.0422 0.404163,0.0232 0.01018,0.0725 -0.05342,0.0956 -0.4132,0.15012 -0.397369,0.0602 -0.71421,0.0735 -0.873629,0.0365 z m 2.762745,0.008 c -0.246898,-0.028 -0.649963,-0.0907 -0.708424,-0.11028 -0.04643,-0.0155 -0.06041,-0.0324 -0.06041,-0.0728 0,-0.0877 -0.03334,-0.0882 0.801779,0.0136 0.277664,0.0338 0.438159,0.0208 0.564546,-0.046 0.08945,-0.0472 0.11739,-0.08 0.205291,-0.24059 0.05879,-0.10742 0.20769,-0.11067 0.20769,-0.005 0,0.0619 -0.142293,0.28218 -0.223935,0.34662 -0.144495,0.11407 -0.425848,0.15484 -0.78653,0.11396 z m -1.2074,-0.35979 c -0.01334,-0.0205 -0.02274,-0.17409 -0.02274,-0.37158 0,-0.19751 0.0094,-0.35108 0.02274,-0.37159 0.03418,-0.0525 0.12718,-0.0456 0.153538,0.0114 0.02891,0.0625 0.02779,0.68702 -0.0013,0.73175 -0.0129,0.0198 -0.04583,0.0349 -0.07611,0.0349 -0.03028,0 -0.06321,-0.0151 -0.07611,-0.0349 z m -1.823142,-0.58753 c -0.03866,-0.0383 -0.009,-0.0938 0.09464,-0.1768 0.298789,-0.2394 0.728741,-0.4138 1.15136,-0.46701 0.274974,-0.0346 0.402571,0.006 0.336979,0.10652 -0.01778,0.0273 -0.05676,0.0363 -0.196792,0.0451 -0.259927,0.0165 -0.361085,0.041 -0.651151,0.15802 -0.189715,0.0765 -0.314217,0.14191 -0.44417,0.23332 -0.181971,0.12801 -0.242278,0.14891 -0.29085,0.10079 z m 3.654581,-0.0119 c -0.0952,-0.0867 -0.401495,-0.25796 -0.609867,-0.34093 -0.232658,-0.0926 -0.474824,-0.1449 -0.6714,-0.1449 -0.08819,0 -0.114737,-0.007 -0.133944,-0.0368 -0.0672,-0.10327 0.05114,-0.14235 0.329646,-0.10885 0.310158,0.0373 0.613903,0.14079 0.916168,0.31213 0.167384,0.0949 0.358215,0.2493 0.358215,0.28988 0,0.0706 -0.122655,0.0898 -0.188804,0.0295 z m -7.988413,-0.0717 c -0.118318,-0.0567 0.03557,-0.89667 0.247167,-1.34911 0.06495,-0.13888 0.07403,-0.14906 0.132915,-0.14906 0.111898,0 0.117392,0.0458 0.03139,0.26174 -0.143232,0.35963 -0.230618,0.70788 -0.2643,1.05333 -0.01762,0.18072 -0.05502,0.22725 -0.147176,0.18309 z m 12.409476,-0.003 c -0.0285,-0.0171 -0.0454,-0.0789 -0.0706,-0.25741 -0.0294,-0.20844 -0.0585,-0.35222 -0.12081,-0.59624 -0.0191,-0.0747 -0.12535,-0.36099 -0.18109,-0.48782 -0.0448,-0.10195 -0.0171,-0.15779 0.0744,-0.15021 0.0624,0.005 0.0734,0.0163 0.12261,0.12311 0.15147,0.32903 0.28582,0.85859 0.29731,1.17176 0.006,0.15363 0.002,0.17129 -0.0391,0.19418 -0.0365,0.0203 -0.0526,0.0208 -0.0828,0.003 z m -6.231423,-1.94626 c -0.02841,-0.0148 -0.03379,-0.13758 -0.03904,-0.89083 -0.006,-0.85851 -0.0053,-0.87428 0.03853,-0.90691 0.03597,-0.0268 0.05467,-0.0294 0.0964,-0.0138 0.02848,0.0107 0.05799,0.0384 0.06558,0.0616 0.0076,0.0232 0.01143,0.41697 0.0085,0.87504 -0.0043,0.67453 -0.011,0.83854 -0.03541,0.86274 -0.03365,0.0333 -0.08496,0.038 -0.134603,0.0122 z m -5.694797,-1.12767 c -0.101665,-0.0635 0.03577,-0.50726 0.258582,-0.83496 0.231469,-0.34045 0.650433,-0.63921 1.049887,-0.7487 l 0.149709,-0.041 0.0448,0.0368 c 0.07735,0.0636 0.03763,0.10297 -0.180688,0.17901 -0.292353,0.10182 -0.533466,0.25649 -0.720018,0.4619 -0.08395,0.0924 -0.177316,0.20872 -0.207466,0.25841 -0.08526,0.1405 -0.18344,0.38433 -0.212841,0.52862 -0.01984,0.0974 -0.03878,0.13807 -0.07353,0.15809 -0.05611,0.0323 -0.05947,0.0324 -0.108427,0.002 z m 11.40148,-0.006 c -0.0185,-0.0174 -0.0404,-0.0723 -0.0485,-0.12195 -0.0503,-0.30572 -0.21642,-0.60917 -0.47223,-0.86274 -0.0978,-0.0969 -0.18504,-0.17632 -0.19397,-0.17651 -0.009,-1.8e-4 -0.0558,-0.0288 -0.10413,-0.0635 -0.0932,-0.067 -0.36355,-0.18858 -0.49781,-0.2239 -0.0891,-0.0234 -0.11709,-0.0594 -0.0848,-0.10893 0.0464,-0.0713 0.14882,-0.0579 0.42374,0.0554 0.35897,0.14798 0.65729,0.39579 0.8714,0.72387 0.15577,0.23865 0.26314,0.52017 0.26448,0.69332 9e-4,0.10995 -0.0833,0.15515 -0.15809,0.0849 z m -1.49709,-0.01 c -0.02122,-0.0128 -0.06276,-0.0823 -0.09232,-0.15445 -0.142905,-0.34904 -0.364158,-0.62242 -0.793213,-0.9801 -0.205111,-0.17098 -0.227725,-0.19621 -0.214548,-0.23939 0.01182,-0.0387 0.02759,-0.0483 0.07988,-0.0483 0.0538,0 0.108019,0.0354 0.311033,0.20325 0.384542,0.31789 0.599776,0.58106 0.781908,0.95609 0.0788,0.16218 0.086,0.2404 0.0248,0.26737 -0.053,0.0233 -0.0511,0.0234 -0.0975,-0.004 z m -8.419863,-0.0235 c -0.02644,-0.0567 0.04143,-0.22465 0.186539,-0.46172 0.172275,-0.28143 0.357318,-0.48642 0.679676,-0.75296 0.188669,-0.156 0.234967,-0.18544 0.284123,-0.18067 0.0428,0.004 0.06307,0.0192 0.07481,0.0556 0.01471,0.0456 -0.006,0.069 -0.240731,0.27103 -0.141257,0.12161 -0.301884,0.26989 -0.356959,0.32953 -0.173394,0.18772 -0.332382,0.43534 -0.419211,0.65289 -0.04439,0.11123 -0.04831,0.11497 -0.12037,0.11497 -0.04773,0 -0.07928,-0.0103 -0.08785,-0.0286 z m 3.766706,-1.16392 c -0.260465,-0.2023 -0.463656,-0.2506 -1.631544,-0.38785 -0.383331,-0.045 -0.705868,-0.0864 -0.716744,-0.0919 -0.03713,-0.0189 -0.02153,-0.11427 0.0218,-0.13335 0.06921,-0.0305 1.673412,0.16474 1.93899,0.23594 0.20499,0.055 0.382299,0.13811 0.515525,0.24174 0.12031,0.0936 0.148843,0.15718 0.09162,0.20425 -0.04805,0.0395 -0.101975,0.0226 -0.219654,-0.0688 z m 0.799582,0.0688 c -0.0458,-0.0377 -0.02885,-0.0959 0.04997,-0.17164 0.175737,-0.16886 0.473277,-0.27782 0.928345,-0.33996 0.627538,-0.0857 1.54097,-0.18908 1.575168,-0.17829 0.0508,0.016 0.0686,0.0948 0.02882,0.1275 -0.02253,0.0185 -0.185947,0.0441 -0.513574,0.0804 -1.306048,0.14455 -1.603312,0.21104 -1.841666,0.41186 -0.108798,0.0917 -0.175777,0.11237 -0.227074,0.0702 z m -0.746883,-0.53389 c -0.102282,-0.11946 -0.344783,-0.6318 -0.368419,-0.77837 -0.01284,-0.0796 -0.0092,-0.0922 0.03198,-0.11034 0.08383,-0.0369 0.125891,0.003 0.200223,0.19136 0.07563,0.19134 0.194551,0.4356 0.279257,0.57358 0.04412,0.0719 0.04991,0.0965 0.03081,0.13099 -0.03309,0.0597 -0.119615,0.0561 -0.173854,-0.007 z m 0.73132,0.0131 c -0.0093,-0.024 0.01985,-0.097 0.08459,-0.21229 0.114867,-0.20448 0.187925,-0.3576 0.259635,-0.54424 0.03841,-0.1 0.06366,-0.13734 0.100154,-0.14828 0.08024,-0.0241 0.122992,0.0268 0.105092,0.12496 -0.02893,0.15869 -0.293519,0.69912 -0.388219,0.79299 -0.03832,0.038 -0.144874,0.0293 -0.161251,-0.0131 z m 0.01606,-1.74233 c 0.21705,-0.0378 0.324645,-0.0988 0.658035,-0.37319 0.27623,-0.22729 0.308455,-0.26089 0.399275,-0.41619 0.09203,-0.15737 0.136108,-0.29065 0.178321,-0.53913 0.01655,-0.0974 0.07992,-0.15817 0.181282,-0.17381 0.08268,-0.0128 0.146841,-0.0808 0.211106,-0.22389 0.08882,-0.19778 0.132437,-0.53449 0.07972,-0.61549 -0.01774,-0.0273 -0.04644,-0.035 -0.130556,-0.035 -0.156223,0 -0.175634,-0.0299 -0.162455,-0.25049 0.0057,-0.0958 0.0198,-0.23364 0.03128,-0.3064 0.04333,-0.27466 8.75e-4,-0.60125 -0.114041,-0.87742 -0.129269,-0.31063 -0.416184,-0.54987 -0.831627,-0.6934 -0.204954,-0.0708 -0.283316,-0.0864 -0.563649,-0.11203 -0.228958,-0.0209 -0.567394,-0.005 -0.7635,0.0365 -0.376356,0.0792 -0.719973,0.26475 -0.94088,0.50813 -0.194937,0.21474 -0.319532,0.765 -0.259389,1.14547 0.01426,0.0902 0.02779,0.23919 0.03005,0.33104 0.0048,0.1933 -0.01528,0.2186 -0.173127,0.2186 -0.108361,0 -0.140799,0.0256 -0.156837,0.12399 -0.01589,0.0975 0.07151,0.43693 0.148408,0.57641 0.06936,0.12582 0.109747,0.16685 0.164237,0.16685 0.04845,0 0.159836,0.0549 0.1743,0.0859 0.0063,0.0135 0.02696,0.11044 0.04591,0.21541 0.05953,0.32975 0.154067,0.48608 0.455426,0.75318 0.204004,0.1808 0.439035,0.34775 0.562057,0.39925 0.18283,0.0765 0.518777,0.10061 0.776641,0.0557 z m 14.382188,28.9061 c -0.0913,-0.0136 -0.31991,-0.0691 -0.50806,-0.12332 -0.18816,-0.0542 -0.47922,-0.12811 -0.64682,-0.16417 -0.46938,-0.10102 -0.63536,-0.17744 -0.73527,-0.33853 -0.0589,-0.095 -0.0569,-0.28443 0.004,-0.38811 0.056,-0.0952 0.12823,-0.13909 0.33852,-0.20569 0.30971,-0.0981 0.3845,-0.13985 0.68324,-0.38142 l 0.28803,-0.23289 0.0135,-0.1313 c 0.007,-0.0722 0.0331,-0.18376 0.0572,-0.24788 0.0639,-0.17053 0.0814,-0.33873 0.064,-0.61342 -0.0148,-0.23345 -0.0968,-0.75333 -0.16104,-1.02083 -0.0167,-0.0696 -0.0764,-0.32973 -0.13262,-0.57816 -0.0562,-0.24842 -0.14574,-0.61608 -0.19888,-0.81699 -0.21807,-0.82449 -0.27049,-1.23666 -0.22813,-1.79378 0.0337,-0.4434 0.0953,-0.71149 0.27206,-1.18343 0.33054,-0.88273 0.34218,-0.93318 0.34516,-1.49508 10e-4,-0.21117 -0.005,-0.42461 -0.0132,-0.4743 -0.0473,-0.27923 -0.10839,-0.49409 -0.31597,-1.11117 -0.1316,-0.39126 -0.23061,-0.84608 -0.29026,-1.33327 -0.0315,-0.25738 -0.0156,-1.47921 0.0227,-1.74726 0.0128,-0.0894 0.0339,-0.24391 0.047,-0.34329 0.0575,-0.43763 0.28739,-1.39538 0.45758,-1.90623 0.0693,-0.20802 0.14785,-0.54086 0.19827,-0.84014 0.072,-0.42755 0.13308,-0.72598 0.16549,-0.8089 0.0164,-0.042 0.0697,-0.19869 0.11843,-0.34812 0.0487,-0.14943 0.12409,-0.36489 0.16751,-0.4788 l 0.0789,-0.2071 -0.0144,-0.27102 c -0.0136,-0.25586 -0.01,-0.29328 0.0647,-0.66944 0.0513,-0.2584 0.0791,-0.45842 0.079,-0.56914 -2.3e-4,-0.36068 -0.12313,-0.81109 -0.34963,-1.28187 -0.12151,-0.25254 -0.38053,-0.68978 -0.39863,-0.67291 -0.008,0.007 -0.0311,0.0696 -0.0515,0.13816 -0.0634,0.21338 -0.22573,0.55713 -0.41657,0.88218 -0.33047,0.5629 -0.33884,0.5887 -0.34543,1.06553 -0.006,0.39812 -0.0282,0.59173 -0.0975,0.83225 -0.0927,0.32173 -0.26084,0.69476 -0.53131,1.17864 -0.32137,0.57494 -0.57677,1.30416 -0.57708,1.64773 -8e-5,0.0871 0.008,0.10208 0.11524,0.20595 0.19452,0.18896 0.21195,0.20837 0.29331,0.32646 0.096,0.13941 0.19296,0.37481 0.22936,0.5571 0.0149,0.0745 0.0653,0.25966 0.11191,0.41142 0.12251,0.39849 0.11495,0.60201 -0.0273,0.73529 -0.12584,0.11788 -0.3771,0.12133 -0.57829,0.008 -0.0815,-0.046 -0.16943,-0.15379 -0.21215,-0.26029 -0.0464,-0.11574 -0.0709,-0.11962 -0.0571,-0.009 0.0228,0.18217 0.0714,0.27517 0.2086,0.39927 0.24666,0.22307 0.31205,0.3305 0.31126,0.51133 -9e-4,0.20533 -0.0958,0.3048 -0.31433,0.32942 -0.16604,0.0187 -0.32305,-0.0338 -0.67344,-0.22521 -0.50969,-0.27843 -0.62529,-0.396 -0.84703,-0.86122 -0.1414,-0.2967 -0.20769,-0.48695 -0.2074,-0.59531 1.3e-4,-0.0502 0.0193,-0.23085 0.0426,-0.40145 0.0636,-0.46502 0.075,-0.75683 0.039,-0.99994 -0.0228,-0.15454 -0.0252,-0.24509 -0.009,-0.35233 0.0316,-0.21108 0.0294,-1.05107 -0.004,-1.42712 -0.0478,-0.54407 -0.0574,-1.45899 -0.0181,-1.73523 0.063,-0.44315 0.22103,-0.91846 0.42098,-1.26647 0.14002,-0.2437 0.13707,-0.23782 0.17583,-0.35181 0.0417,-0.12264 0.0753,-0.41208 0.0764,-0.6575 8.9e-4,-0.18887 0.0466,-0.59456 0.0891,-0.78955 0.0608,-0.27922 0.21359,-0.68479 0.31839,-0.84539 0.0604,-0.0925 0.16052,-0.2835 0.18752,-0.35763 0.0228,-0.0627 0.0223,-0.10991 -0.003,-0.26153 -0.046,-0.275 -0.0409,-0.77796 0.01,-0.98002 0.17998,-0.71432 0.64516,-1.25878 1.33195,-1.55893 0.29219,-0.12769 0.54743,-0.19643 0.87526,-0.23572 l 0.28065,-0.0336 0.25129,-0.14586 c 0.15914,-0.0924 0.43657,-0.22349 0.75653,-0.35754 0.27789,-0.11644 0.63868,-0.26785 0.80178,-0.3365 0.44569,-0.18758 0.51411,-0.24943 0.54842,-0.49579 0.0398,-0.28572 0.0311,-0.3673 -0.0645,-0.60579 -0.0479,-0.11964 -0.0985,-0.26495 -0.11237,-0.32291 -0.0219,-0.0915 -0.0339,-0.10836 -0.0911,-0.12785 -0.20883,-0.0711 -0.40569,-0.39251 -0.48803,-0.79665 -0.0583,-0.28609 0.0109,-0.49224 0.20036,-0.5969 l 0.0909,-0.0502 -0.0121,-0.3221 c -0.0245,-0.65339 0.0946,-1.02346 0.43616,-1.35474 0.26668,-0.25865 0.63249,-0.42758 1.12873,-0.52124 0.27215,-0.0514 0.85267,-0.0461 1.1291,0.0103 0.38021,0.0775 0.70459,0.21222 0.92771,0.38521 0.44704,0.34657 0.6109,0.77253 0.57884,1.50455 l -0.0135,0.30715 0.10063,0.0513 c 0.14004,0.0714 0.19287,0.17008 0.2052,0.38338 0.014,0.24273 -0.10215,0.6225 -0.24235,0.79219 -0.0794,0.0961 -0.21189,0.20951 -0.24479,0.20951 -0.0478,0 -0.0948,0.0591 -0.10917,0.13734 -0.008,0.0408 -0.0477,0.16271 -0.0894,0.27102 -0.0999,0.25987 -0.10793,0.31854 -0.0796,0.58493 0.0263,0.24793 0.0592,0.3113 0.21119,0.40663 0.0403,0.0253 0.37082,0.16812 0.73444,0.31739 0.7053,0.28956 1.0032,0.4273 1.26803,0.58638 0.12803,0.0769 0.18332,0.0994 0.24497,0.0995 0.15435,1.8e-4 0.59175,0.088 0.79682,0.15977 0.37228,0.13033 0.54457,0.22065 0.79609,0.41734 0.20409,0.1596 0.35727,0.33314 0.51236,0.58047 0.29038,0.46306 0.39196,0.98491 0.30475,1.56567 -0.0197,0.13149 -0.0292,0.26158 -0.0211,0.28908 0.008,0.0275 0.0686,0.15163 0.13444,0.27585 0.33483,0.63185 0.42542,0.9794 0.4663,1.78871 0.0238,0.47168 0.0558,0.60818 0.20907,0.89339 0.21356,0.39735 0.2997,0.61296 0.40593,1.01597 0.099,0.37553 0.11167,1.14808 0.0348,2.11982 -0.041,0.51907 -0.0362,1.15154 0.0106,1.38557 0.0216,0.10789 0.0196,0.17358 -0.0116,0.38845 -0.0418,0.28737 -0.0366,0.41521 0.0361,0.90002 0.0577,0.38482 0.049,0.60944 -0.0304,0.78595 -0.21634,0.48057 -0.2908,0.61304 -0.43085,0.76633 -0.10377,0.11358 -0.22041,0.19153 -0.59054,0.39458 -0.34756,0.19068 -0.48651,0.22705 -0.69923,0.18299 -0.18944,-0.0392 -0.27334,-0.17881 -0.24468,-0.40711 0.015,-0.11913 0.0759,-0.20842 0.25692,-0.37669 0.0749,-0.0696 0.15151,-0.15086 0.17033,-0.18068 0.0479,-0.0758 0.093,-0.22301 0.0914,-0.29811 -0.001,-0.0609 -0.003,-0.0595 -0.0439,0.0355 -0.0814,0.18857 -0.2169,0.30155 -0.4125,0.3438 -0.20469,0.0442 -0.40473,-0.0431 -0.4635,-0.20244 -0.0504,-0.13651 -0.0296,-0.37085 0.054,-0.61044 0.0191,-0.0546 0.0501,-0.17661 0.069,-0.27102 0.056,-0.2801 0.11048,-0.44263 0.20236,-0.60387 0.10364,-0.18192 0.17892,-0.27309 0.34222,-0.41449 l 0.12236,-0.10594 -4.5e-4,-0.1199 c -4.5e-4,-0.11873 -0.0392,-0.36103 -0.0859,-0.53546 -0.0613,-0.22927 -0.27634,-0.7383 -0.42234,-0.99964 -0.0462,-0.0827 -0.0984,-0.17624 -0.11606,-0.20777 -0.23011,-0.41231 -0.37498,-0.73667 -0.47065,-1.0539 -0.0863,-0.28607 -0.0898,-0.31226 -0.11253,-0.8307 -0.0156,-0.35592 -0.0285,-0.47365 -0.062,-0.5667 -0.0233,-0.0646 -0.15107,-0.3085 -0.28394,-0.54203 -0.24425,-0.42927 -0.34395,-0.64188 -0.41334,-0.88133 -0.0209,-0.0723 -0.0447,-0.13484 -0.0526,-0.13891 -0.0219,-0.0111 -0.35811,0.60204 -0.47274,0.86215 -0.17826,0.40445 -0.25282,0.7014 -0.26881,1.07049 -0.0103,0.23718 0.003,0.33034 0.11535,0.83111 0.0286,0.12711 0.0333,0.21388 0.0216,0.3975 -0.021,0.33054 -0.0241,0.31067 0.0958,0.63105 0.22559,0.6028 0.30116,0.8661 0.37373,1.3022 0.10398,0.62475 0.11288,0.66287 0.28053,1.2015 0.0665,0.21367 0.13363,0.44536 0.14917,0.51494 0.0155,0.0696 0.0592,0.25075 0.0971,0.40264 0.10075,0.40415 0.19686,0.9846 0.23351,1.41028 0.043,0.50014 0.0422,1.3163 -0.002,1.68991 -0.029,0.24679 -0.18472,0.97842 -0.21743,1.02197 -0.006,0.008 -0.0558,0.15935 -0.11139,0.33722 -0.0556,0.17787 -0.12364,0.39252 -0.1513,0.47699 -0.0491,0.15002 -0.0838,0.29666 -0.11314,0.4788 -0.008,0.0497 -0.0134,0.27108 -0.0119,0.49197 0.003,0.49545 0.0295,0.6206 0.25488,1.21519 0.29087,0.76753 0.34794,1.0164 0.37714,1.6444 0.0158,0.34037 -0.0325,0.77271 -0.12821,1.14729 -0.33083,1.29486 -0.50135,2.05158 -0.57813,2.56562 -0.0443,0.29655 -0.0298,0.72518 0.0299,0.88532 0.026,0.0696 0.0532,0.18339 0.0605,0.25294 l 0.0134,0.12648 0.2226,0.18638 c 0.30006,0.25123 0.43271,0.3304 0.6892,0.41129 0.26441,0.0834 0.31886,0.11383 0.39551,0.22106 0.0509,0.0712 0.0604,0.10479 0.0596,0.21206 -6.7e-4,0.10593 -0.0112,0.14184 -0.0619,0.21305 -0.10965,0.1539 -0.25609,0.2136 -0.80419,0.32786 -0.12084,0.0252 -0.33108,0.0788 -0.46721,0.11919 -0.42874,0.12712 -0.60232,0.16201 -0.86254,0.17338 -0.34321,0.015 -0.56988,-0.0137 -0.76083,-0.0962 -0.25656,-0.11089 -0.37732,-0.25971 -0.41751,-0.5146 -0.026,-0.1647 -0.0199,-0.21325 0.11161,-0.89212 0.13253,-0.68414 0.13959,-1.02726 0.0347,-1.68932 -0.12368,-0.78086 -0.29379,-1.40707 -0.50552,-1.86104 -0.35094,-0.75231 -0.4165,-1.00093 -0.41459,-1.57189 0.001,-0.38285 0.0287,-0.59353 0.14208,-1.09309 0.0357,-0.15724 0.0494,-0.28632 0.0499,-0.46976 l 6.7e-4,-0.25295 -0.13847,-0.30716 c -0.28269,-0.62705 -0.4227,-1.15334 -0.48538,-1.82483 -0.0454,-0.48673 -0.10689,-0.7442 -0.34073,-1.42734 -0.36842,-1.07631 -0.43377,-1.38374 -0.59521,-2.80042 -0.0155,-0.13609 -0.0175,-0.14031 -0.0342,-0.0723 -0.01,0.0397 -0.0531,0.34463 -0.0962,0.67754 -0.0432,0.3329 -0.0979,0.7069 -0.12154,0.8311 -0.0452,0.23709 -0.23515,0.89345 -0.36077,1.24668 -0.27506,0.77325 -0.33697,1.04111 -0.40699,1.76159 -0.0477,0.49024 -0.21217,1.07114 -0.46052,1.6261 -0.17139,0.383 -0.18335,0.52485 -0.0853,1.01179 0.13794,0.6851 0.13661,0.67469 0.13809,1.08405 0.001,0.30701 -0.007,0.43728 -0.0375,0.57227 -0.0436,0.1957 -0.1379,0.51082 -0.16931,0.56599 -0.0278,0.0488 -0.23574,0.51119 -0.3007,0.6685 -0.18733,0.45377 -0.38553,1.33384 -0.47056,2.08938 -0.0416,0.37002 -0.004,0.75663 0.14518,1.49697 0.12299,0.60977 0.0924,0.81156 -0.15612,1.03009 -0.11154,0.0981 -0.29598,0.17371 -0.4861,0.19932 -0.17717,0.0239 -0.53495,0.0186 -0.73188,-0.0107 z m 0.82701,-0.3433 c 0.10925,-0.0449 0.13841,-0.0676 0.18449,-0.14366 0.0701,-0.11577 0.0834,-0.30553 0.036,-0.51593 -0.0413,-0.18312 -0.13523,-0.70164 -0.18154,-1.00175 -0.0564,-0.36573 -0.005,-0.94268 0.15801,-1.77767 0.0947,-0.48454 0.25974,-1.02062 0.40952,-1.32997 0.43325,-0.89482 0.49543,-1.35143 0.31377,-2.30371 -0.0294,-0.15403 -0.0734,-0.40947 -0.0977,-0.56767 -0.0389,-0.25287 -0.0588,-0.32052 -0.16416,-0.5601 -0.0659,-0.14987 -0.13593,-0.31924 -0.15556,-0.37638 -0.0385,-0.11214 -0.0346,-0.11027 -0.21927,-0.10448 -0.14028,0.004 -0.38701,-0.0342 -0.49349,-0.0772 -0.054,-0.0218 -0.16541,-0.0916 -0.24765,-0.15513 -0.0822,-0.0635 -0.15336,-0.11231 -0.15806,-0.1084 -0.005,0.004 -0.0699,0.0843 -0.14493,0.17875 -0.075,0.0944 -0.17886,0.21277 -0.23073,0.26305 -0.0972,0.0942 -0.16795,0.24503 -0.30453,0.64935 -0.0302,0.0894 -0.0703,0.19841 -0.0892,0.24216 -0.10536,0.24472 -0.19954,0.6552 -0.23559,1.02684 -0.0478,0.49254 0.003,0.85883 0.25302,1.81154 0.12696,0.48451 0.33727,1.43058 0.39779,1.78942 0.10545,0.62528 0.10576,0.91654 10e-4,1.24911 -0.0664,0.21143 -0.0673,0.25066 -0.0111,0.48854 0.0241,0.10221 0.0439,0.211 0.0439,0.24175 1.1e-4,0.0912 -0.10562,0.1457 -0.21945,0.11306 -0.072,-0.0207 -0.10998,-0.063 -0.10998,-0.12262 0,-0.0205 -0.0108,-0.0373 -0.0241,-0.0373 -0.0132,0 -0.11951,0.0758 -0.23613,0.1685 -0.23255,0.18479 -0.43731,0.29358 -0.66871,0.35525 -0.17236,0.046 -0.22734,0.094 -0.19292,0.16847 0.0119,0.0257 0.045,0.0593 0.0736,0.0747 0.071,0.0383 0.32821,0.10877 0.53455,0.14653 0.0937,0.0172 0.33803,0.079 0.54281,0.13754 0.45029,0.1286 0.5256,0.14054 0.85163,0.13499 0.23244,-0.004 0.26598,-0.009 0.38443,-0.0576 z m 0.21762,-4.64523 c -0.20659,-0.0891 -0.38788,-0.30234 -0.50454,-0.59339 -0.012,-0.0299 -0.026,-0.0183 -0.0827,0.0686 -0.14267,0.21869 -0.49442,0.41938 -0.66465,0.37923 -0.0541,-0.0128 -0.0661,-0.0252 -0.0661,-0.0684 0,-0.0478 0.0115,-0.0561 0.12081,-0.0873 0.30101,-0.0857 0.50685,-0.31427 0.59193,-0.65721 0.0482,-0.19435 0.0539,-0.20409 0.1189,-0.20409 0.0836,0 0.10194,0.034 0.10194,0.18917 0,0.23306 0.11399,0.51534 0.27695,0.68584 0.0349,0.0366 0.11049,0.0945 0.16787,0.12869 0.11184,0.0667 0.12944,0.11029 0.0642,0.15887 -0.0479,0.0356 -0.0421,0.0356 -0.12458,3e-5 z m 6.34848,4.63195 c 0.1329,-0.0344 0.29601,-0.0807 0.36246,-0.10289 0.0664,-0.0221 0.2691,-0.0712 0.45031,-0.10898 0.18123,-0.0378 0.3668,-0.0818 0.41239,-0.0979 0.24778,-0.0872 0.22125,-0.22168 -0.057,-0.28886 -0.18852,-0.0455 -0.44226,-0.18178 -0.66841,-0.359 l -0.21131,-0.16557 -0.0164,0.0504 c -0.0336,0.10328 -0.13771,0.15492 -0.24126,0.11965 -0.10327,-0.0352 -0.11613,-0.095 -0.0649,-0.30176 0.0612,-0.24682 0.0578,-0.37929 -0.0149,-0.59477 -0.0537,-0.15902 -0.06,-0.20732 -0.0595,-0.45783 2.2e-4,-0.15403 0.0134,-0.36948 0.0291,-0.4788 0.0363,-0.25221 0.12925,-0.7717 0.14419,-0.80547 0.0115,-0.0261 0.13478,-0.55645 0.20959,-0.90193 0.0226,-0.10434 0.0671,-0.28727 0.0989,-0.40651 0.21124,-0.79203 0.26631,-1.14664 0.24676,-1.58875 -0.0198,-0.448 -0.0819,-0.71769 -0.33104,-1.4376 -0.14255,-0.41194 -0.20192,-0.53538 -0.30654,-0.63736 -0.0533,-0.0519 -0.15904,-0.17161 -0.23508,-0.26601 -0.0761,-0.0944 -0.14173,-0.175 -0.14594,-0.17909 -0.004,-0.004 -0.0695,0.0412 -0.14504,0.10073 -0.0775,0.061 -0.19959,0.13326 -0.28017,0.16573 -0.12785,0.0515 -0.16914,0.0585 -0.39461,0.0672 -0.13851,0.005 -0.25363,0.0114 -0.25585,0.0134 -0.002,0.002 -0.0289,0.0687 -0.0593,0.1482 -0.0304,0.0795 -0.096,0.23805 -0.14576,0.35233 -0.0748,0.17175 -0.10358,0.27984 -0.16586,0.62333 -0.0414,0.22856 -0.0958,0.52531 -0.12084,0.65946 -0.0602,0.32252 -0.0802,0.756 -0.0454,0.98327 0.0481,0.31406 0.2055,0.7639 0.39667,1.13341 0.0641,0.12388 0.22503,0.5594 0.25268,0.68381 0.008,0.0348 0.0375,0.15267 0.0661,0.26199 0.0575,0.21956 0.13967,0.65403 0.21007,1.11116 0.0537,0.34847 0.0642,0.87451 0.0228,1.13826 -0.0374,0.23827 -0.12765,0.73446 -0.17026,0.936 -0.0679,0.3214 -0.004,0.55354 0.17413,0.6298 0.15783,0.0677 0.23986,0.0786 0.53185,0.071 0.24975,-0.007 0.31588,-0.0153 0.52721,-0.0701 z m -1.36318,-4.63269 c -0.0648,-0.0533 -0.0392,-0.10459 0.0826,-0.16543 0.22399,-0.11193 0.43486,-0.51149 0.43486,-0.82397 0,-0.13792 0.0205,-0.17237 0.10247,-0.17237 0.0607,0 0.0851,0.0357 0.10456,0.15358 0.0284,0.17187 0.132,0.38412 0.24903,0.51045 0.0802,0.0866 0.22044,0.16492 0.35118,0.19623 0.0925,0.0222 0.1181,0.0368 0.12954,0.0743 0.0188,0.0614 -0.043,0.10122 -0.13813,0.089 -0.21306,-0.0274 -0.4606,-0.18788 -0.59439,-0.38536 -0.0421,-0.0621 -0.0742,-0.0932 -0.0799,-0.0774 -0.0852,0.23391 -0.18529,0.37372 -0.36597,0.51131 -0.13676,0.10414 -0.22381,0.13244 -0.27583,0.0896 z m -4.26319,-3.75897 c 0.1518,-0.33846 0.2204,-0.51988 0.30224,-0.79925 0.1215,-0.4148 0.14591,-0.53803 0.18437,-0.93073 0.0321,-0.32811 0.0989,-0.75707 0.14488,-0.93048 0.0309,-0.11655 0.16552,-0.52595 0.22877,-0.69562 0.32191,-0.86342 0.43763,-1.40764 0.55894,-2.62888 0.0133,-0.13415 0.0348,-0.32776 0.0476,-0.43023 0.0129,-0.10249 0.0175,-0.19113 0.0104,-0.19697 -0.007,-0.006 -0.0659,0.0183 -0.13068,0.0537 -0.36178,0.19757 -0.8349,0.32045 -1.23386,0.32045 -0.17287,0 -0.4949,-0.0437 -0.65362,-0.0886 -0.32124,-0.091 -0.63144,-0.25374 -0.63144,-0.33128 0,-0.0529 0.0625,-0.10391 0.12729,-0.10391 0.03,0 0.10351,0.0248 0.16331,0.055 0.57727,0.29214 1.37312,0.27773 1.95581,-0.0354 0.17345,-0.0932 0.25798,-0.1571 0.40829,-0.30859 0.21477,-0.21647 0.24477,-0.35425 0.24486,-1.12482 6e-5,-0.49532 0.002,-0.52113 0.044,-0.55558 0.0523,-0.043 0.0661,-0.0442 0.12212,-0.0105 0.0403,0.0242 0.0434,0.0602 0.0568,0.65497 0.008,0.34612 0.025,0.66861 0.0381,0.71664 0.0553,0.20185 0.28791,0.4581 0.53631,0.59086 0.22304,0.1192 0.43846,0.2004 0.64154,0.24183 0.44544,0.0909 0.91776,0.0375 1.34468,-0.15188 0.0899,-0.0399 0.18172,-0.0725 0.20408,-0.0725 0.0224,0 0.0606,0.0208 0.085,0.0463 0.0736,0.077 0.0253,0.13652 -0.19282,0.23779 -0.18913,0.0878 -0.34853,0.14187 -0.55123,0.18695 -0.5449,0.12116 -1.2082,0.0168 -1.74086,-0.27393 l -0.12631,-0.0689 v 0.0527 c 0,0.029 0.01,0.13227 0.0216,0.22952 0.0119,0.0973 0.0375,0.33129 0.0568,0.5201 0.10965,1.07048 0.23413,1.62914 0.55761,2.50236 0.20669,0.55796 0.31027,1.01151 0.36317,1.59015 0.0186,0.2036 0.0426,0.40677 0.0532,0.4515 0.0107,0.0447 0.0311,0.13008 0.0455,0.18972 0.0819,0.33998 0.28724,0.90602 0.42282,1.16537 l 0.0425,0.0813 0.0304,-0.0473 c 0.0899,-0.14007 0.1925,-0.46609 0.22734,-0.72229 0.0213,-0.1568 0.0469,-0.19704 0.12507,-0.19704 0.0823,0 0.10353,0.0553 0.0765,0.19879 -0.0368,0.19504 -0.0506,0.18112 0.16876,0.17023 0.10572,-0.005 0.21693,-0.0137 0.24712,-0.0188 0.0885,-0.015 0.32472,-0.15012 0.41614,-0.2381 l 0.0844,-0.0812 -0.088,-0.14498 c -0.10065,-0.16589 -0.27018,-0.51386 -0.35373,-0.72603 -0.2052,-0.52105 -0.33588,-1.08344 -0.47649,-2.05065 -0.0253,-0.1739 -0.0708,-0.47472 -0.10118,-0.6685 -0.0849,-0.54173 -0.085,-0.54341 -0.0501,-0.56159 0.0169,-0.009 0.0526,-0.0161 0.0793,-0.0163 0.0377,-1.9e-4 0.0535,0.0149 0.0705,0.0675 0.0294,0.0908 0.1415,0.7714 0.22244,1.35055 0.15853,1.13444 0.38512,1.84979 0.8127,2.56562 0.0831,0.13912 0.20502,0.3218 0.27094,0.40595 l 0.11984,0.15299 -0.008,-0.46919 c -0.004,-0.25806 0.001,-0.53828 0.0127,-0.62276 0.0216,-0.15961 0.11459,-0.53391 0.1639,-0.65946 0.0417,-0.10623 0.26636,-0.85772 0.31597,-1.05696 0.0498,-0.19997 0.10531,-0.55388 0.13324,-0.84918 0.04,-0.42249 -0.005,-1.37684 -0.0858,-1.83387 -0.0484,-0.27281 -0.0891,-0.47782 -0.1309,-0.65946 -0.024,-0.10435 -0.0743,-0.32387 -0.11175,-0.48784 -0.0375,-0.16396 -0.11143,-0.43634 -0.16438,-0.60527 -0.10711,-0.34178 -0.21119,-0.78684 -0.26407,-1.12923 -0.0542,-0.35099 -0.15566,-0.72885 -0.32258,-1.2015 -0.21783,-0.61682 -0.20511,-0.55974 -0.1764,-0.79132 0.0289,-0.23318 0.0195,-0.31642 -0.093,-0.82574 -0.021,-0.0951 -0.0343,-0.26363 -0.0349,-0.44267 l -9e-4,-0.28908 -0.0705,0.0647 c -0.0388,0.0356 -0.17598,0.15934 -0.30494,0.27504 -0.35805,0.3213 -0.55548,0.60874 -0.67873,0.98825 -0.0274,0.0845 -0.0593,0.16374 -0.0708,0.17616 -0.0323,0.0349 -0.12101,0.0269 -0.14712,-0.0132 -0.0451,-0.0694 0.12626,-0.51004 0.29868,-0.76806 0.12515,-0.18729 0.25071,-0.32217 0.55335,-0.59447 0.40208,-0.36175 0.44458,-0.41712 0.54235,-0.70655 0.10892,-0.32244 0.24719,-0.61381 0.50591,-1.06599 0.32856,-0.57431 0.41705,-0.79212 0.55779,-1.37315 0.23923,-0.98765 0.2667,-1.05189 0.4208,-0.98405 0.0554,0.0244 0.0548,0.0903 -0.003,0.30736 -0.025,0.0939 -0.0906,0.36593 -0.14572,0.60442 -0.14677,0.6348 -0.13923,0.89417 0.041,1.40928 0.12978,0.37098 0.21998,0.55715 0.4622,0.95391 0.2689,0.44049 0.30251,0.56291 0.32592,1.1871 0.0181,0.48406 0.0491,0.65377 0.17817,0.97566 0.0598,0.14911 0.36425,0.7427 0.43852,0.85492 0.0433,0.0655 0.16934,0.33904 0.34032,0.73886 0.16098,0.37645 0.26793,0.88076 0.23956,1.12972 -0.0154,0.1348 -0.0182,0.13993 -0.13079,0.23838 -0.20129,0.17595 -0.36774,0.38661 -0.42928,0.54326 -0.0136,0.0348 -0.053,0.18113 -0.0874,0.32521 -0.0344,0.14409 -0.0882,0.34327 -0.11953,0.44261 -0.0591,0.18755 -0.0736,0.34176 -0.034,0.36188 0.0766,0.0389 0.21808,-0.15154 0.31917,-0.42977 0.10885,-0.29956 0.19364,-0.38101 0.35192,-0.33805 0.17506,0.0475 0.27273,0.2461 0.27215,0.55328 -6.8e-4,0.34956 -0.0939,0.57128 -0.33344,0.79324 -0.1439,0.13333 -0.19339,0.2022 -0.19339,0.26908 0,0.0327 0.0117,0.0461 0.0405,0.0461 0.0534,0 0.62602,-0.3038 0.74242,-0.39386 0.12548,-0.0971 0.18113,-0.17559 0.30996,-0.43725 0.23048,-0.46804 0.23723,-0.51489 0.15691,-1.08822 -0.0387,-0.2765 -0.0437,-0.38143 -0.0305,-0.64627 0.0187,-0.37514 0.0187,-0.37938 -2.3e-4,-1.08405 -0.0118,-0.43745 -0.007,-0.63861 0.0226,-0.97566 0.0507,-0.57393 0.0666,-1.31226 0.0334,-1.55383 -0.0685,-0.49898 -0.1769,-0.82602 -0.41907,-1.26474 -0.0631,-0.11427 -0.13355,-0.2525 -0.1566,-0.30715 -0.0593,-0.14073 -0.10051,-0.42638 -0.11587,-0.80401 -0.0134,-0.33095 -0.069,-0.71856 -0.13334,-0.93049 -0.0196,-0.0646 -0.0449,-0.14767 -0.0561,-0.18462 -0.0252,-0.0827 -0.13116,-0.30365 -0.22236,-0.46364 -0.0375,-0.0658 -0.0969,-0.17245 -0.13206,-0.23705 -0.11696,-0.21502 -0.51375,-0.4944 -0.88708,-0.62455 -0.24382,-0.085 -0.64209,-0.25573 -0.80723,-0.34601 -0.26412,-0.14442 -0.56905,-0.41637 -0.83945,-0.74866 -0.0659,-0.081 -0.11985,-0.16247 -0.11985,-0.18103 0,-0.0411 0.0917,-0.0794 0.1379,-0.0576 0.0181,0.009 0.0798,0.0725 0.13706,0.14202 0.23853,0.28954 0.55304,0.56525 0.81234,0.71214 0.15464,0.0876 0.52548,0.25448 0.56549,0.25448 0.0673,0 0.5791,0.23308 0.73791,0.33604 0.10068,0.0653 0.1855,0.11596 0.18849,0.11265 0.003,-0.003 0.017,-0.0801 0.0311,-0.17068 0.0316,-0.20263 0.033,-0.55417 0.003,-0.71163 -0.0595,-0.31032 -0.24939,-0.70118 -0.44341,-0.91242 -0.25678,-0.27958 -0.44724,-0.40982 -0.81882,-0.55988 -0.28627,-0.11562 -0.58677,-0.18934 -0.77599,-0.19037 -0.15608,-9.2e-4 -0.27044,-0.0361 -0.42858,-0.1321 -0.30642,-0.186 -0.44606,-0.25188 -1.13488,-0.53539 -0.38293,-0.15761 -0.74966,-0.31494 -0.81492,-0.34961 -0.18278,-0.0971 -0.32153,-0.21422 -0.38087,-0.32153 -0.071,-0.12849 -0.10855,-0.37427 -0.0948,-0.62126 0.009,-0.16489 0.0245,-0.23153 0.0899,-0.39124 0.0433,-0.10588 0.0956,-0.26817 0.11618,-0.36067 0.0406,-0.18264 0.0843,-0.23999 0.19848,-0.26067 0.0343,-0.006 0.0746,-0.0144 0.0895,-0.0182 0.015,-0.004 0.0618,-0.0513 0.104,-0.10559 0.13742,-0.17669 0.23614,-0.60676 0.16455,-0.7168 -0.0176,-0.0271 -0.0464,-0.035 -0.1284,-0.035 -0.0786,0 -0.11609,-0.009 -0.14635,-0.037 -0.0386,-0.0351 -0.0392,-0.0504 -0.0116,-0.2936 0.0499,-0.44057 0.0519,-0.5552 0.0135,-0.75519 -0.0652,-0.33908 -0.13578,-0.4866 -0.32465,-0.67894 -0.17711,-0.18037 -0.32978,-0.26877 -0.64278,-0.37228 -0.10874,-0.0359 -0.27184,-0.0757 -0.36246,-0.0883 -0.22361,-0.0312 -0.65193,-0.0254 -0.86553,0.0116 -0.43834,0.076 -0.86535,0.30809 -1.05365,0.57273 -0.1755,0.24664 -0.28397,0.82124 -0.21306,1.12873 0.0113,0.0489 0.0236,0.17261 0.0275,0.27488 0.008,0.21694 -0.008,0.23734 -0.18182,0.23734 -0.0963,0 -0.10515,0.004 -0.1276,0.0569 -0.0364,0.0859 -0.0299,0.15003 0.0383,0.38032 0.0678,0.22853 0.19556,0.42955 0.27323,0.42987 0.0215,8e-5 0.0716,0.0113 0.11126,0.0249 0.0808,0.0278 0.13222,0.11747 0.15481,0.2701 0.007,0.0479 0.0549,0.18612 0.1062,0.30715 l 0.0933,0.22005 2.2e-4,0.31619 c 2.3e-4,0.28923 -0.004,0.3265 -0.0528,0.43721 -0.0557,0.12698 -0.17366,0.24769 -0.34039,0.34834 -0.083,0.0501 -0.9104,0.40563 -1.15582,0.49665 -0.23761,0.0881 -0.55582,0.24393 -0.83678,0.40969 -0.17502,0.10325 -0.20255,0.11332 -0.36246,0.13249 -0.51142,0.0613 -0.71643,0.11615 -1.06271,0.28419 -0.14161,0.0687 -0.26549,0.14829 -0.3854,0.24755 -0.22694,0.18783 -0.31616,0.29618 -0.52059,0.63203 -0.0934,0.15351 -0.19294,0.58799 -0.19132,0.83533 0.001,0.1786 0.0477,0.54079 0.072,0.56079 0.009,0.007 0.0525,-0.0161 0.0976,-0.0515 0.19471,-0.15299 0.44047,-0.27357 0.78491,-0.38508 0.33355,-0.108 0.6225,-0.26064 0.8867,-0.46838 0.18677,-0.14685 0.45059,-0.40508 0.56034,-0.54846 0.0702,-0.0917 0.14926,-0.12913 0.19983,-0.0946 0.0578,0.0394 0.0374,0.0946 -0.0969,0.26242 -0.17933,0.22412 -0.36568,0.40128 -0.5952,0.56582 -0.24481,0.17552 -0.44475,0.27497 -0.89143,0.44337 -0.38596,0.14552 -0.54811,0.22866 -0.73356,0.37612 -0.16657,0.13244 -0.22309,0.19728 -0.33609,0.38547 -0.35774,0.59586 -0.48563,1.04567 -0.51104,1.79759 -0.0136,0.4013 -0.0402,0.58414 -0.10784,0.74077 -0.0503,0.11653 -0.18218,0.36499 -0.23968,0.45168 -0.0722,0.10884 -0.21811,0.5194 -0.28735,0.80846 -0.0888,0.37071 -0.0976,1.06279 -0.0246,1.92873 0.039,0.46218 0.0447,1.09018 0.0125,1.36928 -0.0157,0.13617 -0.0153,0.2421 10e-4,0.35164 0.0363,0.24011 0.0264,0.68195 -0.0226,1.00731 -0.0635,0.42153 -0.0595,0.51183 0.0314,0.71603 0.2163,0.48584 0.3026,0.62062 0.47783,0.74608 0.14841,0.10625 0.65873,0.37176 0.71455,0.37176 0.10953,0 0.0378,-0.13882 -0.15862,-0.30715 -0.1769,-0.15158 -0.27237,-0.32403 -0.31697,-0.57259 -0.0517,-0.28832 -0.0114,-0.51707 0.1226,-0.69499 0.0937,-0.12438 0.29681,-0.13209 0.37102,-0.0141 0.0329,0.0523 0.0469,0.0859 0.16293,0.3896 0.0751,0.19649 0.18049,0.32317 0.25831,0.31037 0.0654,-0.0108 0.0494,-0.21868 -0.0351,-0.4558 -0.0387,-0.10854 -0.0934,-0.29961 -0.1217,-0.42459 -0.0751,-0.33184 -0.16108,-0.47294 -0.45249,-0.74219 -0.0807,-0.0745 -0.15802,-0.15326 -0.17189,-0.17497 -0.0139,-0.0217 -0.0252,-0.11683 -0.0252,-0.21137 0,-0.38765 0.26849,-1.1836 0.58899,-1.74601 0.28719,-0.50399 0.46303,-0.89308 0.54582,-1.20774 0.0466,-0.17706 0.058,-0.28282 0.0728,-0.67091 0.0231,-0.60878 0.0552,-0.71386 0.39183,-1.28281 0.34027,-0.57512 0.55342,-1.17039 0.55317,-1.5448 -1.1e-4,-0.16968 -0.0366,-0.38115 -0.14502,-0.84014 -0.0918,-0.38862 -0.10495,-0.4413 -0.14688,-0.58755 -0.0352,-0.12263 -0.0202,-0.17995 0.0517,-0.19872 0.0349,-0.009 0.0619,-9.2e-4 0.0985,0.03 0.0533,0.0449 0.0655,0.0848 0.33001,1.07889 0.15268,0.57388 0.24887,0.8006 0.57589,1.35764 0.17754,0.30239 0.21013,0.36339 0.27993,0.52397 0.0281,0.0646 0.0698,0.15809 0.0926,0.20777 0.0229,0.0497 0.0593,0.15132 0.081,0.22586 0.085,0.29199 0.13995,0.36603 0.51423,0.69341 0.4739,0.41454 0.69873,0.72277 0.84005,1.15158 0.0592,0.17961 0.0516,0.25793 -0.0256,0.26532 -0.0312,0.003 -0.067,-0.005 -0.0794,-0.0181 -0.0124,-0.0129 -0.0541,-0.11293 -0.0926,-0.22224 -0.13642,-0.38731 -0.32792,-0.64963 -0.75971,-1.04067 l -0.26361,-0.23871 -0.0138,0.33254 c -0.009,0.22126 -0.0292,0.39799 -0.0599,0.52808 -0.0806,0.34155 -0.0931,0.47057 -0.0664,0.6886 0.0284,0.23224 0.0365,0.19686 -0.19616,0.8594 -0.16887,0.48089 -0.24463,0.75704 -0.29993,1.09309 -0.0963,0.58547 -0.11456,0.66576 -0.27518,1.21055 -0.35971,1.22008 -0.5096,2.17736 -0.49372,3.15289 0.009,0.58074 0.0987,1.15578 0.25434,1.63788 0.0252,0.078 0.08,0.25155 0.12184,0.38571 0.0419,0.13416 0.0954,0.30489 0.11894,0.37942 0.13329,0.42144 0.16177,0.65845 0.14497,1.20603 -0.007,0.24097 -0.0104,0.43815 -0.007,0.43815 0.0122,0 0.19437,-0.25729 0.32615,-0.46073 0.30363,-0.4688 0.51519,-0.98305 0.68752,-1.67127 0.0844,-0.33707 0.0931,-0.38456 0.16409,-0.89435 0.0817,-0.58677 0.21921,-1.41398 0.24405,-1.46799 0.0247,-0.0537 0.14203,-0.0577 0.16214,-0.006 0.007,0.0192 -0.002,0.12698 -0.0212,0.23939 -0.0191,0.11241 -0.0537,0.33853 -0.077,0.5025 -0.17047,1.19977 -0.24533,1.59601 -0.39672,2.09971 -0.11577,0.38516 -0.32408,0.86176 -0.50498,1.15532 l -0.0852,0.13831 0.0878,0.0821 c 0.11663,0.10897 0.33535,0.22488 0.44734,0.23705 0.049,0.005 0.1608,0.0117 0.2484,0.0142 0.18249,0.005 0.17594,0.0138 0.1354,-0.17765 -0.0284,-0.13393 -0.005,-0.1884 0.0807,-0.1884 0.066,0 0.1188,0.0858 0.11912,0.19365 4.5e-4,0.14532 0.21106,0.76393 0.2601,0.76393 0.008,0 0.0428,-0.063 0.0773,-0.14002 z m 0.0264,-1.40606 c -0.0438,-0.036 -0.0442,-0.14692 -0.002,-0.5859 0.0587,-0.61385 0.17149,-1.15925 0.37692,-1.82228 0.0756,-0.24414 0.1361,-0.40361 0.16095,-0.42453 0.0445,-0.0375 0.12042,-0.0282 0.14162,0.0173 0.007,0.0151 -0.0412,0.20792 -0.10714,0.42842 -0.26163,0.8741 -0.36308,1.40086 -0.39741,2.0632 -0.0114,0.22017 -0.023,0.29662 -0.0486,0.32071 -0.0416,0.0391 -0.0792,0.0401 -0.12407,0.003 z m 3.49783,0.006 c -0.0277,-0.0181 -0.0375,-0.0802 -0.0491,-0.31167 -0.014,-0.27938 -0.0562,-0.65131 -0.10155,-0.89435 -0.0736,-0.39475 -0.27363,-1.16958 -0.37456,-1.45068 -0.0242,-0.0675 -0.0381,-0.1382 -0.0307,-0.15716 0.0199,-0.0515 0.0964,-0.0646 0.14409,-0.0247 0.0748,0.0627 0.33772,0.98353 0.43789,1.53382 0.10078,0.55363 0.16008,1.25061 0.11059,1.29965 -0.0338,0.0335 -0.0898,0.0356 -0.13659,0.005 z m -5.62819,-1.10312 c -0.0536,-0.0322 -0.0975,-0.33442 -0.11473,-0.78948 -0.0256,-0.67654 0.0868,-1.38706 0.3329,-2.10561 0.08,-0.2334 0.15805,-0.41814 0.19259,-0.45556 0.0304,-0.033 0.091,-0.0276 0.13438,0.0118 0.0361,0.0328 0.0331,0.0466 -0.0628,0.29166 -0.1446,0.36935 -0.19944,0.55226 -0.26515,0.88445 -0.0167,0.0845 -0.041,0.20235 -0.0539,0.26198 -0.0948,0.43629 -0.11567,1.16541 -0.0456,1.58997 0.0368,0.22277 0.038,0.25779 0.01,0.2936 -0.0363,0.0463 -0.0712,0.051 -0.12757,0.0171 z m 7.7516,-0.006 c -0.0239,-0.0197 -0.0324,-0.0469 -0.0247,-0.0788 0.0576,-0.23675 0.0844,-0.5973 0.0733,-0.98419 -0.02,-0.69809 -0.17685,-1.444 -0.4358,-2.07279 -0.0716,-0.1738 -0.0631,-0.23087 0.0342,-0.23087 0.0709,0 0.088,0.0219 0.16272,0.20804 0.22986,0.5727 0.37309,1.18081 0.42338,1.79748 0.0436,0.53478 -0.0155,1.315 -0.10365,1.368 -0.0516,0.031 -0.0856,0.0293 -0.12951,-0.007 z m -4.55763,-7.15938 c -0.37609,-0.31813 -0.6409,-0.45021 -1.11487,-0.55605 -0.18597,-0.0415 -0.25522,-0.0477 -0.5267,-0.047 -0.33458,9.3e-4 -0.36761,-0.007 -0.35359,-0.0886 0.011,-0.064 0.17132,-0.0916 0.45749,-0.0786 0.68488,0.031 1.26694,0.26827 1.76441,0.7193 0.1414,0.12819 0.17057,0.16475 0.16475,0.20648 -0.006,0.042 -0.0184,0.0513 -0.073,0.0544 -0.0575,0.003 -0.098,-0.0235 -0.31852,-0.21001 z m 1.11299,0.20331 c -0.008,-0.007 -0.0146,-0.0349 -0.0146,-0.0628 0,-0.0395 0.0466,-0.0907 0.2111,-0.23162 0.4169,-0.35725 0.82833,-0.54847 1.38149,-0.64204 0.47505,-0.0804 0.88486,-0.0311 0.78828,0.0948 -0.0211,0.0275 -0.064,0.0318 -0.3294,0.0332 -0.33575,0.002 -0.48146,0.0215 -0.7431,0.10076 -0.4101,0.12425 -0.70615,0.29699 -1.07253,0.62584 -0.098,0.0879 -0.17788,0.1175 -0.22123,0.0819 z m -0.42232,-1.00732 c -0.0412,-0.0248 -0.0429,-0.0602 -0.0489,-1.06836 -0.006,-0.95843 -0.003,-1.04545 0.0309,-1.07649 0.0426,-0.0387 0.0975,-0.0436 0.13579,-0.0121 0.0381,0.0313 0.0381,2.12959 0,2.16095 -0.0345,0.0284 -0.0656,0.0274 -0.11771,-0.004 z m -6.64113,-1.48812 c -0.0907,-0.14618 -0.11645,-0.44348 -0.0566,-0.65242 0.0182,-0.0635 0.0425,-0.20986 0.054,-0.32521 0.0476,-0.478 0.11235,-0.76568 0.23047,-1.02379 0.0603,-0.13183 0.12626,-0.21416 0.31751,-0.39648 0.18986,-0.18101 0.27621,-0.32525 0.3191,-0.53314 0.057,-0.2762 0.0915,-0.35885 0.15534,-0.37202 0.11908,-0.0246 0.14668,0.0513 0.0818,0.22485 -0.0292,0.0782 -0.038,0.16578 -0.0375,0.37317 l 6.7e-4,0.27102 0.13967,0.33425 c 0.1267,0.30323 0.14059,0.35104 0.14958,0.51493 0.0103,0.18707 -0.0281,0.35349 -0.14373,0.62333 -0.1041,0.24299 -0.19803,0.35192 -0.27129,0.31466 -0.0355,-0.018 -0.0656,-0.10041 -0.0448,-0.12262 0.0266,-0.0284 0.16957,-0.34244 0.21223,-0.46611 0.0867,-0.25124 0.0812,-0.40846 -0.0227,-0.65109 -0.0845,-0.19734 -0.16027,-0.392 -0.19132,-0.49158 l -0.0277,-0.0888 -0.0634,0.0788 c -0.0349,0.0433 -0.1047,0.11581 -0.15517,0.16104 -0.24223,0.21708 -0.36095,0.49656 -0.41858,0.98545 -0.0434,0.36845 -0.0716,0.5533 -0.10872,0.71386 -0.0343,0.14816 -0.018,0.30472 0.0462,0.44519 0.0417,0.0912 0.0143,0.15104 -0.0691,0.15104 -0.04,0 -0.0645,-0.0174 -0.0961,-0.0683 z m 13.22417,0.036 c -0.0165,-0.0253 -0.0109,-0.0652 0.0209,-0.15014 0.049,-0.13058 0.0582,-0.33707 0.0213,-0.47701 -0.033,-0.12534 -0.0591,-0.30007 -0.089,-0.59623 -0.0535,-0.52927 -0.1718,-0.818 -0.42944,-1.04792 -0.0557,-0.0497 -0.12653,-0.121 -0.15745,-0.15846 -0.0309,-0.0375 -0.0589,-0.0659 -0.0622,-0.0632 -0.003,0.003 -0.0254,0.0659 -0.0491,0.14039 -0.0237,0.0745 -0.0897,0.2438 -0.14669,0.37616 -0.13008,0.30228 -0.13857,0.43916 -0.0439,0.70767 0.0332,0.0943 0.0679,0.18372 0.0771,0.19874 0.047,0.0769 0.1529,0.29703 0.1529,0.31773 0,0.0406 -0.0892,0.0807 -0.13481,0.0606 -0.0687,-0.0302 -0.21728,-0.3278 -0.3031,-0.60695 -0.0872,-0.28359 -0.0599,-0.46217 0.14023,-0.91844 0.15534,-0.35416 0.17223,-0.58643 0.0664,-0.91339 -0.0175,-0.0541 -0.032,-0.11642 -0.0321,-0.13843 -2.2e-4,-0.0466 0.0711,-0.0842 0.13053,-0.0686 0.0528,0.0138 0.0792,0.0765 0.14445,0.34296 0.0651,0.26611 0.13562,0.38722 0.3392,0.58286 0.33915,0.32593 0.44679,0.59566 0.51696,1.29535 0.018,0.17965 0.0475,0.37134 0.0655,0.42599 0.0603,0.18312 0.0357,0.50638 -0.0494,0.64947 -0.0454,0.0763 -0.14118,0.0983 -0.17849,0.0409 z m -8.27433,-0.20794 c -0.0318,-0.0681 10e-4,-0.10831 0.13724,-0.16751 0.34074,-0.1483 0.63834,-0.39652 0.87705,-0.73153 0.0669,-0.0939 0.086,-0.10869 0.13441,-0.10391 0.10202,0.0101 0.11259,0.0568 0.0391,0.17289 -0.0935,0.14771 -0.36111,0.43463 -0.51024,0.5471 -0.2836,0.2139 -0.64027,0.36284 -0.67754,0.28296 z m 3.2238,-0.0383 c -0.3122,-0.13941 -0.60984,-0.38112 -0.83355,-0.67689 -0.14447,-0.19101 -0.16817,-0.26265 -0.0934,-0.28218 0.073,-0.0191 0.12083,0.005 0.16858,0.0859 0.13397,0.22614 0.51625,0.57238 0.75375,0.6827 0.25573,0.11877 0.27486,0.13197 0.27486,0.1897 0,0.0464 -0.009,0.0541 -0.0659,0.058 -0.0417,0.003 -0.11686,-0.0182 -0.20439,-0.0573 z m -2.04279,-1.66756 c -0.0655,-0.0202 -0.64931,-0.77793 -0.83824,-1.08796 -0.39244,-0.64397 -0.67849,-1.53677 -0.73964,-2.30869 l -0.0146,-0.18437 0.059,-0.0221 c 0.0964,-0.0361 0.12578,0.006 0.1482,0.21315 0.0431,0.39851 0.1184,0.74353 0.25943,1.18948 0.20626,0.65216 0.46375,1.10557 1.03843,1.82861 0.12013,0.15115 0.21515,0.2884 0.21115,0.305 -0.009,0.0374 -0.0853,0.0786 -0.12368,0.0668 z m 1.03327,-0.0262 c -0.051,-0.0419 -0.0272,-0.0912 0.14535,-0.30164 0.21768,-0.26537 0.45827,-0.58852 0.56773,-0.76252 0.34938,-0.55548 0.62956,-1.34995 0.74191,-2.10378 0.0628,-0.42151 0.0638,-0.42459 0.14165,-0.42459 0.06,0 0.0896,0.0386 0.0893,0.11654 -4.5e-4,0.14769 -0.0877,0.64269 -0.1737,0.9856 -0.20354,0.81125 -0.47099,1.35247 -1.00415,2.03183 -0.3614,0.46056 -0.43017,0.52263 -0.50814,0.45851 z m -0.54001,-0.2108 c -0.0333,-0.0303 -0.0364,-0.18651 -0.0364,-1.87672 0,-1.01405 0.006,-1.86934 0.0138,-1.90051 0.01,-0.0397 0.0295,-0.0599 0.0662,-0.0675 0.12419,-0.0256 0.11773,-0.13207 0.11773,1.93704 0,1.86325 -9e-4,1.90365 -0.0425,1.92191 -0.0588,0.0259 -0.077,0.0237 -0.11886,-0.0143 z m -3.21057,-1.02717 c -0.21228,-0.0391 -0.63093,-0.1892 -0.6895,-0.24726 -0.037,-0.0366 -0.0241,-0.0826 0.0315,-0.11293 0.0389,-0.0212 0.055,-0.0196 0.12081,0.0119 0.31897,0.15275 0.54219,0.20402 0.84836,0.19485 0.21353,-0.006 0.23167,-0.0102 0.41658,-0.0873 0.11504,-0.048 0.24704,-0.12173 0.32593,-0.18211 0.17612,-0.1348 0.21552,-0.15127 0.26163,-0.10937 0.0604,0.0549 0.0412,0.0921 -0.11256,0.21809 -0.17456,0.14304 -0.29576,0.20468 -0.54001,0.2746 -0.15377,0.044 -0.2108,0.0511 -0.39908,0.0495 -0.12081,-10e-4 -0.23943,-0.005 -0.2636,-0.01 z m 5.96995,-0.0225 c -0.24394,-0.0574 -0.42045,-0.14184 -0.59283,-0.28362 -0.1665,-0.13695 -0.20112,-0.20496 -0.1215,-0.23864 0.057,-0.0241 0.0897,-0.009 0.25111,0.11554 0.0966,0.0746 0.21154,0.13968 0.3364,0.19057 0.17147,0.0699 0.20848,0.078 0.38662,0.085 0.30258,0.0119 0.53923,-0.0371 0.7936,-0.16419 0.065,-0.0325 0.12654,-0.0497 0.16475,-0.0461 0.0537,0.005 0.061,0.0133 0.061,0.069 0,0.0618 -0.005,0.0652 -0.20869,0.14945 -0.37037,0.15301 -0.75491,0.19717 -1.07047,0.12292 z m -5.53244,-0.65417 c -0.36001,-0.20678 -0.67493,-0.46952 -0.90213,-0.75272 -0.14073,-0.17539 -0.15186,-0.24455 -0.0406,-0.25221 0.0598,-0.004 0.0767,0.009 0.18187,0.13671 0.23705,0.28873 0.54461,0.54747 0.8643,0.72714 0.0679,0.0382 0.12996,0.0832 0.13779,0.1 0.0166,0.0356 -0.0405,0.11576 -0.0825,0.11576 -0.0158,0 -0.0873,-0.0336 -0.15875,-0.0746 z m 5.46494,0.0349 c -0.0581,-0.0478 -0.021,-0.0872 0.22813,-0.24185 0.28262,-0.17546 0.4937,-0.35476 0.68947,-0.58566 0.21438,-0.25284 0.20601,-0.24603 0.27246,-0.22113 0.0869,0.0326 0.0729,0.0857 -0.0686,0.26032 -0.19561,0.2414 -0.38147,0.41648 -0.6037,0.56864 -0.3285,0.22495 -0.44908,0.27612 -0.5177,0.21968 z m -4.3881,-1.87101 c -0.0249,-0.003 -0.0639,-0.0322 -0.0866,-0.064 -0.064,-0.0896 -0.24941,-0.2437 -0.39914,-0.33172 -0.18643,-0.10959 -0.53443,-0.24131 -0.87502,-0.33119 -0.38212,-0.10083 -0.38784,-0.10341 -0.37981,-0.17093 0.006,-0.0467 0.0167,-0.056 0.0725,-0.0604 0.0903,-0.007 0.63185,0.14177 0.90597,0.24904 0.38394,0.15023 0.64144,0.31898 0.83219,0.54536 0.0851,0.10095 0.0512,0.18025 -0.07,0.16383 z m 3.45567,-0.006 c -0.0747,-0.0358 -0.0459,-0.11075 0.0969,-0.25262 0.23304,-0.23138 0.44314,-0.35063 0.87706,-0.49774 0.30435,-0.10318 0.7417,-0.21862 0.79434,-0.20968 0.055,0.009 0.0738,0.0883 0.0305,0.12763 -0.0193,0.0176 -0.11688,0.0511 -0.21678,0.0746 -0.23736,0.0558 -0.62457,0.18326 -0.82182,0.27061 -0.20545,0.091 -0.34761,0.18417 -0.4812,0.31542 -0.2067,0.20307 -0.20973,0.20494 -0.27898,0.17176 z m -2.08257,-0.75091 c -0.0188,-0.004 -0.0505,-0.0305 -0.0705,-0.0583 -0.0993,-0.13827 -0.38695,-0.30221 -0.65322,-0.3723 -0.23844,-0.0628 -0.26715,-0.0773 -0.25954,-0.1317 0.006,-0.043 0.0178,-0.0502 0.0908,-0.0551 0.10423,-0.007 0.32884,0.0512 0.53118,0.13785 0.17283,0.074 0.46222,0.29828 0.4862,0.37685 0.0237,0.0778 -0.0322,0.12383 -0.12496,0.10273 z m 0.68658,-0.0101 c -0.0969,-0.0797 0.0864,-0.28449 0.39387,-0.43979 0.16615,-0.0839 0.39008,-0.15128 0.54824,-0.16488 l 0.12987,-0.0112 v 0.12866 l -0.18123,0.0492 c -0.32834,0.0891 -0.54658,0.19837 -0.66449,0.33277 -0.11767,0.13411 -0.16461,0.15594 -0.22627,0.10524 z"
         id="full"
         style="stroke-width:0.203375" /></g></g></svg>
