<?xml version="1.0" encoding="UTF-8" standalone="no"?>
<!-- Created with Inkscape (http://www.inkscape.org/) -->

<svg
   width="33.866669mm"
   height="33.866665mm"
   viewBox="0 0 33.866669 33.866665"
   version="1.1"
   id="svg1"
   xml:space="preserve"
   xmlns="http://www.w3.org/2000/svg"
   xmlns:svg="http://www.w3.org/2000/svg"><defs
     id="defs1"><clipPath
       id="clipPath21"><rect
         x="56.978001"
         y="161.35001"
         width="119"
         height="127.57"
         stroke-width="0.26458"
         id="rect1-1" /></clipPath></defs><g
     id="layer1"
     transform="translate(-88.06667,-131.56667)"><g
       id="g14"><path
         d="m 112.81,41.05 0.001,0.0021 -5.2e-4,5.17e-4 -0.003,5.16e-4 c -1.8021,-0.03233 -3.5537,0.13848 -5.3609,0.51005 -3.6552,0.75156 -6.438,2.0265 -9.5457,4.3739 -3.7218,2.8112 -6.8943,7.5441 -8.1458,12.152 -0.70914,2.6112 -0.86256,3.7774 -0.86816,6.6063 -0.0055,2.7313 0.09155,3.671 0.58394,5.6606 0.68004,2.7479 1.5205,4.8012 2.8794,7.0347 2.1093,3.4669 2.4367,4.8354 1.8221,7.614 -0.53665,2.4263 -1.1676,3.9613 -1.9585,4.7635 -0.38305,0.38854 -0.82956,0.65014 -1.9156,1.1214 -3.4573,1.5001 -4.2655,1.8578 -4.9444,2.1885 -1.5346,0.74754 -2.0373,0.89137 -3.1621,0.90485 -0.58334,0.007 -1.4625,0.08952 -1.9534,0.18345 -0.73201,0.14008 -2.2184,0.17052 -8.2646,0.17053 h -7.3712 l -0.19172,-0.89042 c -0.72571,-3.3728 -1.1699,-4.5581 -2.1492,-5.7382 -0.66947,-0.8067 -1.7039,-1.5993 -2.6763,-2.0495 -1.9081,-0.88347 -3.0552,-0.85791 -7.8703,0.17415 -3.6318,0.77843 -4.5733,1.1421 -5.9361,2.2939 -1.6977,1.4349 -2.5046,3.0027 -2.6448,5.1377 l -0.07028,1.0723 h -12.259 l -0.0021,-1.2924 c -0.003,-2.3115 -0.53668,-3.7471 -1.927,-5.1831 -2.9017,-2.9972 -7.8609,-2.3865 -10.02,1.234 l -0.51728,0.86713 -30.676,0.06614 -0.7674,0.29869 c -1.0766,0.41912 -1.8305,0.93325 -2.5952,1.7694 -0.89259,0.97606 -1.375,1.9572 -1.6077,3.2696 -0.17361,0.97945 -0.17366,1.1399 0,2.1441 0.17743,1.026 0.71023,2.4365 1.1209,2.966697 0.81912,1.0577 2.2009,2.033 3.2747,2.3115 0.06319,0.0164 0.42333,0.11195 0.79995,0.21239 0.60907,0.16241 2.3298,0.18268 15.568,0.18293 l 14.883,5.2e-4 0.32556,0.6227 c 0.17901,0.34261 0.68294,0.98265 1.1198,1.4221 0.99374,0.99966 2.08,1.5662 3.5047,1.8278 0.91415,0.16825 1.0886,0.17034 2.0273,0.002 1.5102,-0.26769 2.564,-0.80782 3.5832,-1.8366 1.3787,-1.3916 1.9002,-2.8092 1.9032,-5.1702 l 0.0021,-1.350797 6.3335,0.02945 6.3329,0.02997 0.5116,0.97668 c 0.57688,1.101897 2.0266,3.310797 3.2417,4.939697 0.44767,0.60016 0.8139,1.178 0.8139,1.2842 0,0.30172 -2.606,5.5858 -3.7243,7.552 -0.55377,0.97361 -1.716,2.9128 -2.5828,4.3088 -2.3161,3.7303 -2.7058,4.43 -4.0065,7.1913 -1.2156,2.5807 -2.1505,6.6292 -2.28,9.8733 -0.08729,2.1876 0.30711,7.4993 0.6444,8.6811 0.4128,1.4464 0.86742,2.2088 1.9534,3.2747 1.1855,1.1637 2.2808,1.8206 3.7326,2.2386 3.0952,0.8911 5.18,0.86058 8.4047,-0.12196 1.4879,-0.45336 6.0652,-2.5323 9.742,-4.425 0.97065,-0.49967 1.7946,-0.90847 1.8309,-0.90847 0.0965,0 -0.54566,1.7796 -1.2852,3.5615 -1.6628,4.0066 -4.7877,9.2017 -6.689,11.121 -0.39325,0.39692 -1.2122,1.0508 -1.82,1.4526 -4.9781,3.2909 -8.7239,7.48 -11.189,12.514 -1.8218,3.7197 -2.645,7.037 -2.8975,11.677 -0.10502,1.9302 0.31917,5.8399 0.86455,7.9654 0.23341,0.90969 1.0544,3.1252 1.5487,4.1796 3.0893,6.5889 9.1026,11.639 16.025,13.458 2.5063,0.6585 3.3537,0.75813 6.4916,0.75913 3.2899,0.002 3.9302,-0.0838 6.9019,-0.92036 l 1.8474,-0.52038 1.14,0.41909 c 2.5245,0.92759 3.7195,1.278 6.6042,1.9358 2.8426,0.6482 3.1928,0.70966 5.6229,0.98599 3.4708,0.39466 7.9238,0.27888 11.225,-0.29145 2.8547,-0.49316 6.8659,-1.6107 9.664,-2.6924 0.52149,-0.20159 0.97213,-0.34363 1.0072,-0.31781 l 5.2e-4,5.2e-4 5.1e-4,5.2e-4 v 5.1e-4 l 5.2e-4,5.2e-4 c 0.0192,0.0429 -0.24373,0.54576 -0.5917,1.1302 -1.5733,2.6423 -2.7591,5.5742 -3.5031,8.662 -0.63245,2.6245 -0.81502,3.9813 -0.88212,6.5536 -0.0721,2.763 0.0494,4.287 0.55191,6.9277 0.18444,0.96915 0.33538,2.0625 0.33538,2.4298 0,1.9981 -1.5475,9.7133 -2.6386,13.156 -0.12021,0.37914 -0.40676,1.3356 -0.63717,2.1255 -0.23041,0.78988 -0.4872,1.6175 -0.57051,1.8386 -0.08331,0.22116 -0.32109,0.86738 -0.52865,1.4361 -0.42045,1.152 -1.3845,3.1129 -2.3435,4.7677 -1.6229,2.8003 -2.3854,4.573 -3.0158,7.0084 -0.36689,1.4174 -0.40188,1.6944 -0.40618,3.2168 -0.0043,1.5157 0.02367,1.7542 0.31316,2.6427 0.62788,1.9272 1.3381,3.0118 2.6179,3.9992 0.75681,0.58388 2.0542,1.1409 3.1306,1.3446 0.65064,0.12271 4.6002,0.1485 20.68,0.1328 l 19.876,-0.0196 0.74569,-0.27079 c 1.1732,-0.4253 1.5636,-0.66308 2.3425,-1.4278 1.1304,-1.1099 1.6795,-2.4587 1.6795,-4.1264 0,-1.8659 -0.55532,-3.2528 -1.7999,-4.4938 -1.182,-1.1786 -2.2042,-1.6385 -4.408,-1.9828 -0.94055,-0.14697 -1.9318,-0.32504 -2.203,-0.39584 -1.273,-0.33251 -2.2261,-0.62298 -2.3254,-0.70848 -0.06,-0.0517 -0.18943,-0.0957 -0.28733,-0.0977 -0.0979,-0.002 -0.38492,-0.10374 -0.63768,-0.22583 -0.25276,-0.12209 -0.49539,-0.22382 -0.53899,-0.22582 -0.29364,-0.0144 -8.4816,-4.0986 -8.9969,-4.4876 -0.0632,-0.0477 -0.65787,-0.36006 -1.3214,-0.69402 -1.4819,-0.7459 -2.3606,-1.2995 -2.4557,-1.5472 -0.1385,-0.36093 -0.0684,-0.72033 0.37155,-1.9048 0.81197,-2.1861 3.0583,-6.6116 5.4462,-10.73 2.3162,-3.9944 2.5442,-4.3786 3.5124,-5.917 1.2803,-2.0341 2.0007,-3.1972 2.6324,-4.2509 0.28412,-0.47392 0.70998,-1.1722 0.9462,-1.5513 0.23623,-0.37914 0.88286,-1.4644 1.4371,-2.4123 0.55425,-0.94785 1.1747,-2.0079 1.3787,-2.3554 2.0552,-3.5009 5.1152,-9.3376 8.0713,-15.395 1.3541,-2.7748 1.9292,-3.7267 3.96,-6.5536 1.9913,-2.772 3.1391,-5.5402 3.8804,-9.3586 0.35601,-1.8338 0.44838,-5.5959 0.1819,-7.4104 -0.46155,-3.1427 -1.992,-6.181 -4.2561,-8.4496 -2.4152,-2.42 -4.8652,-3.6585 -9.8831,-4.9945 -0.5055,-0.1346 -1.6176,-0.58217 -2.4706,-0.99477 -2.7537,-1.3319 -5.0527,-2.3029 -7.5825,-3.2019 -2.8784,-1.0228 -4.111,-1.3988 -6.2043,-1.894 -0.47392,-0.1121 -1.5386,-0.36316 -2.3663,-0.5581 -2.4066,-0.56681 -7.7039,-1.3682 -9.2925,-1.4056 -0.31743,-0.007 -0.7305,-0.0467 -0.91777,-0.0868 l -0.16536,-0.0357 c -4.8e-4,-2e-5 -10e-4,2e-5 -0.002,0 -0.003,-1.6e-4 -0.006,-7.6e-4 -0.01,-0.001 -0.009,-9.9e-4 -0.0169,-0.003 -0.0258,-0.005 -0.004,-4.4e-4 -0.008,-0.001 -0.0119,-0.002 -0.007,-0.001 -0.0132,-0.002 -0.0202,-0.003 -0.002,-3.4e-4 -0.004,-6.5e-4 -0.006,-0.001 -0.0186,-1.5e-4 -0.037,-0.004 -0.0553,-0.007 -0.0223,-0.005 -0.0445,-0.0111 -0.0662,-0.0181 -0.021,-0.008 -0.0419,-0.0148 -0.0625,-0.0238 -0.0123,-0.004 -0.0241,-0.01 -0.0362,-0.015 -0.002,-6.8e-4 -0.004,-0.002 -0.006,-0.003 l -0.009,-0.003 c -0.002,-4e-4 -0.004,-8.9e-4 -0.006,-0.002 -0.003,-0.001 -0.006,-0.003 -0.009,-0.004 -0.003,-9.1e-4 -0.005,-0.002 -0.008,-0.003 l -5.2e-4,-5.2e-4 c -3.1e-4,-6e-5 -5.3e-4,1.3e-4 -10e-4,0 h -5.2e-4 v -5.2e-4 h -5.1e-4 c -0.002,-4.9e-4 -0.003,-10e-4 -0.005,-0.002 -0.002,-3.6e-4 -0.004,-4.4e-4 -0.007,-0.001 -0.007,-0.001 -0.0137,-0.002 -0.0207,-0.004 -0.001,-3.5e-4 -0.002,-7.6e-4 -0.004,-0.001 -10e-4,-1.8e-4 -0.002,-3.3e-4 -0.003,-5.1e-4 -0.0632,-0.012 -0.12666,-0.022 -0.19016,-0.032 -0.0608,-0.009 -0.12162,-0.0179 -0.18242,-0.0269 -0.0645,-0.01 -0.12887,-0.0197 -0.19327,-0.03 -0.0581,-0.01 -0.11623,-0.0207 -0.17363,-0.0336 -0.0482,-0.0108 -0.0961,-0.0223 -0.14418,-0.0336 -0.0484,-0.0108 -0.0969,-0.0207 -0.14521,-0.0315 -0.0524,-0.0119 -0.1048,-0.0245 -0.1571,-0.0367 -0.0393,-0.009 -0.0788,-0.0178 -0.11834,-0.0258 l -0.002,-5.1e-4 -1.8547,-0.15348 h -5.2e-4 c -0.006,6.9e-4 -0.012,0.002 -0.0181,0.003 -0.0208,0.004 -0.0413,0.007 -0.062,0.0109 -0.0241,0.004 -0.0487,0.007 -0.0729,0.0103 -0.0344,0.002 -0.0688,0.003 -0.10335,0.002 -0.0312,0 -0.0629,-6.8e-4 -0.0941,-0.002 -0.0397,-0.002 -0.0791,-0.004 -0.11885,-0.005 -0.0448,0 -0.0901,0.001 -0.13488,0.001 -0.0424,0.002 -0.0847,0.003 -0.12712,0.006 -0.0492,0.003 -0.0985,0.007 -0.1478,0.008 -0.047,0.001 -0.0941,5.2e-4 -0.14107,5.2e-4 -0.0361,10e-4 -0.0719,8e-4 -0.10801,0.003 -0.0328,0.001 -0.0656,0.004 -0.0982,0.008 -0.0287,0.002 -0.0573,0.006 -0.0858,0.0103 -0.0258,0.003 -0.0512,0.007 -0.077,0.009 -0.0313,0.003 -0.0627,0.003 -0.094,0.005 -0.0293,0.002 -0.0584,0.005 -0.0879,0.004 -0.026,7e-5 -0.052,2.2e-4 -0.078,5.1e-4 -0.0184,0 -0.037,0.001 -0.0553,0.002 -0.019,0.001 -0.038,0.004 -0.0568,0.005 h -0.0455 c -4.4e-4,1.9e-4 -0.015,3.2e-4 -0.0155,5.1e-4 -0.10553,0.0404 -1.5547,0.0999 -3.2696,0.13333 -6.8346,0.13318 -14.2,1.041 -20.106,2.4779 l -0.86093,0.20929 -0.001,5.2e-4 -5.16e-4,-5.2e-4 c -7.5e-4,2.6e-4 -0.0023,7e-4 -0.0036,10e-4 -2.62e-4,1.1e-4 -0.0017,3.7e-4 -0.0021,5.1e-4 v 5.2e-4 h -5.16e-4 c -0.0051,0.001 -0.0103,0.002 -0.0155,0.002 -0.0076,5.4e-4 -0.01514,5.1e-4 -0.02274,5.1e-4 -0.0096,2.3e-4 -0.01882,-1.9e-4 -0.02842,0 -0.0106,0.001 -0.02146,4.4e-4 -0.03204,0.002 -0.01157,0 -0.02303,10e-4 -0.03462,0.002 -0.01108,0 -0.02201,1.7e-4 -0.03307,0.002 -0.01108,0.001 -0.02254,0.002 -0.03359,0.003 -0.01213,0.002 -0.02404,0.003 -0.03617,0.004 -0.0098,7.7e-4 -0.01973,0.001 -0.02945,0.002 -0.01719,0.002 -0.03408,0.004 -0.05116,0.006 -0.0027,3.7e-4 -0.0055,3.7e-4 -0.0083,5.2e-4 -0.0528,0.0149 -0.10539,0.0305 -0.15813,0.046 -0.08274,0.0242 -0.16568,0.0485 -0.24805,0.0739 -0.07709,0.0235 -0.15416,0.0477 -0.23099,0.0724 -0.08322,0.026 -0.16663,0.0515 -0.25063,0.0749 -0.09233,0.0258 -0.18466,0.051 -0.2775,0.0749 -0.10035,0.0267 -0.20078,0.0541 -0.30076,0.0822 -0.0973,0.0279 -0.1947,0.0554 -0.29094,0.0868 -0.09214,0.0304 -0.18402,0.0608 -0.2744,0.0961 -0.08322,0.0323 -0.16621,0.0649 -0.24753,0.1018 -0.06767,0.0311 -0.13518,0.0638 -0.20412,0.092 -0.06908,0.0283 -0.13821,0.0549 -0.20826,0.0806 -0.06766,0.0249 -0.136,0.0482 -0.20516,0.0687 -0.06934,0.0206 -0.13864,0.0413 -0.20826,0.061 -0.07678,0.0218 -0.15344,0.0437 -0.23048,0.0646 -0.08673,0.0223 -0.17369,0.0435 -0.26045,0.0656 -0.08653,0.0228 -0.17258,0.0462 -0.2589,0.0698 -0.01578,0.004 -0.03176,0.009 -0.04754,0.0134 -0.0068,0.003 -0.01349,0.006 -0.02015,0.009 -0.01931,0.01 -0.0392,0.0196 -0.05788,0.0305 -0.01639,0.01 -0.0315,0.0205 -0.04703,0.0315 -0.02038,0.0132 -0.04135,0.0241 -0.06356,0.0341 -0.01845,0.008 -0.03752,0.0147 -0.05633,0.0217 -0.01873,0.008 -0.03713,0.0147 -0.05581,0.0227 -0.01815,0.009 -0.03629,0.0174 -0.05374,0.0274 -0.01973,0.0113 -0.04031,0.022 -0.0615,0.03 -0.01918,0.008 -0.03838,0.0168 -0.05736,0.0248 -0.0078,0.003 -0.01546,0.007 -0.02325,0.01 h -5.17e-4 l -5.17e-4,5.2e-4 -0.0072,0.005 c -0.0035,0.003 -0.0076,0.005 -0.01137,0.007 -0.0048,0.002 -0.0096,0.005 -0.01447,0.007 -0.0055,0.002 -0.01114,0.005 -0.01654,0.008 -0.0043,0.003 -0.0082,0.005 -0.0124,0.008 -0.0041,0.002 -0.0081,0.005 -0.0124,0.007 -0.0039,0.002 -0.0079,0.004 -0.01188,0.006 -0.0049,0.002 -0.01,0.004 -0.01499,0.006 -0.0039,0.001 -0.0079,0.003 -0.01189,0.004 l -0.001,0.001 c -0.0015,8.5e-4 -0.0038,0.002 -0.0062,0.003 h -0.0015 c -0.01156,0.006 -0.0254,0.0109 -0.04134,0.016 -0.08759,0.0279 -0.67603,0.21543 -1.3079,0.41651 -1.667,0.53048 -5.233,2.0506 -5.5955,2.3854 -0.68046,0.62841 -0.9019,1.8399 -0.47077,2.5781 0.2898,0.49621 1.0185,0.97845 1.5854,1.0496 0.51885,0.065 0.79112,-0.0224 3.3316,-1.0728 9.4835,-3.9212 22.858,-6.0225 34.006996,-5.3428 6.0818,0.37072 9.3149,0.85183 14.535,2.1642 3.6115,0.90805 7.6367,2.3246 11.116,3.9119 0.77408,0.35319 2.015,0.91836 2.7575,1.2557 0.7425,0.33734 1.8409,0.75721 2.4412,0.93276 2.768,0.80947 3.4144,1.0221 4.394,1.4469 1.4545,0.63085 2.4963,1.3556 3.7052,2.5766 1.097,1.1079 1.688,2.0419 2.3575,3.7274 0.49941,1.2574 0.69631,2.2786 0.76791,3.9817 0.16312,3.8817 -1.1594,8.6872 -3.1781,11.549 -0.16051,0.22756 -0.4681,0.66713 -0.68368,0.97669 -0.21558,0.30956 -0.65893,0.92503 -0.98599,1.3674 -0.53617,0.72513 -0.77966,1.0999 -1.4795,2.2794 -0.28305,0.47706 -1.531,2.9639 -3.4101,6.7965 -1.3748,2.8039 -3.0586,6.0185 -4.1729,7.9675 -0.22927,0.401 -0.41703,0.75093 -0.41703,0.77773 0,0.0268 -0.12118,0.24178 -0.26975,0.47749 -0.14858,0.23571 -0.98275,1.6693 -1.8542,3.1858 -1.6569,2.8836 -1.7696,3.0713 -3.5042,5.8591 -1.6657,2.677 -2.8407,4.5914 -3.7036,6.0322 -0.43524,0.72668 -0.83987,1.3986 -0.89917,1.4934 -1.5931,2.5462 -5.57,10.142 -6.4286,12.278 -1.3015,3.2382 -1.4257,4.5315 -0.60358,6.2942 0.54672,1.1722 1.6645,2.1245 3.6546,3.112 0.50215,0.24918 2.051,1.048 3.4411,1.7751 5.8438,3.0565 8.6004,4.316 10.753,4.9139 1.1924,0.33121 3.3522,0.76881 4.2483,0.86041 1.5251,0.15596 2.4075,0.98873 2.4035,2.2702 -0.002,0.82299 -0.18223,1.1308 -0.85989,1.4697 l -0.57516,0.28733 -19.071,0.015 c -10.49,0.008 -19.278996,-0.0233 -19.531996,-0.0677 -1.2071,-0.21203 -1.9808,-0.77624 -2.4872,-1.8138 -0.35808,-0.73375 -0.37894,-0.84512 -0.38034,-2.0397 -0.0015,-1.2847 0.06516,-1.6191 0.76688,-3.8489 0.28756,-0.91375 1.2616,-2.8816 2.1895,-4.4235 0.876246,-1.456 1.825296,-3.3575 2.281996,-4.5718 0.19508,-0.51871 0.43242,-1.1497 0.52762,-1.4025 0.17534,-0.46537 0.82073,-2.543 1.648,-5.3066 1.3055,-4.3614 2.4376,-10.176 2.6913,-13.822 0.0652,-0.93742 0.0268,-1.3512 -0.26975,-2.93 -0.53322,-2.839 -0.62991,-3.9764 -0.56121,-6.5484 0.11689,-4.3743 0.92654,-7.5896 2.9249,-11.604 1.7096,-3.4346 4.5837,-7.0272 7.9034,-9.881 2.3165,-1.9914 5.1236,-3.6199 8.3178,-4.825 1.0809,-0.40778 1.6629,-0.91908 1.8381,-1.6149 0.22727,-0.90257 -0.23985,-2.0007 -1.0237,-2.406 -0.41475,-0.2145 -1.2735,-0.21942 -1.9534,-0.0119 -2.1829,0.66777 -4.6208,1.8929 -7.2378,3.6365 -4.0045,2.6679 -6.4109,3.9927 -10.456,5.7583 -0.72669,0.31722 -1.4765,0.64555 -1.666,0.72915 -0.81588,0.35985 -4.944196,1.6776 -6.261096,1.9983 -2.8726,0.69972 -6.4584,1.1596 -9.0403,1.1596 -2.5666,0 -7.1659,-0.62078 -10.146,-1.3694 -2.6557,-0.66712 -2.7368,-0.71464 -1.9818,-1.1596 0.77151,-0.45468 2.9595,-2.1488 3.3884,-2.6236 0.88776,-0.98265 0.63869,-2.5947 -0.49144,-3.1791 -1.0073,-0.52088 -1.8355,-0.29885 -3.2933,0.88315 -2.9722,2.4098 -6.6011,4.1816 -9.9648,4.8648 -3.2256,0.65516 -5.6001,0.6422 -8.6269,-0.0439 -1.7995,-0.40858 -3.0285,-0.85141 -4.7082,-1.696 -2.2139,-1.1131 -3.774,-2.2702 -5.5578,-4.1222 -2.2959,-2.3836 -3.6046,-4.5222 -4.8152,-7.8683 -1.8872,-5.2163 -1.4269,-12.071 1.1767,-17.521 1.3057,-2.7334 2.7915,-4.8376 5.0571,-7.1618 1.6245,-1.6665 2.3442,-2.2675 4.4039,-3.6788 2.395,-1.6411 3.2066,-2.4398 5.1558,-5.0715 1.0145,-1.3697 1.4033,-1.9812 2.4464,-3.8483 2.0318,-3.6367 3.7721,-7.6079 4.8845,-11.145 0.29808,-0.94785 0.66084,-2.0852 0.80615,-2.5275 0.29651,-0.90255 0.0021,-0.64594 3.1016,-2.7037 3.2883,-2.1832 6.9019,-5.0959 9.2,-7.4161 1.258,-1.2701 3.0909,-3.2731 3.5466,-3.8752 l 0.33176,-0.4377 0.6258,1.2366 c 2.947,5.8232 7.5903,10.278 12.893,12.371 1.7355,0.68481 2.3365,0.87229 4.136196,1.2888 2.8549,0.66076 3.5053,0.59156 4.177,-0.44441 0.56988,-0.87889 0.29654,-2.3201 -0.54519,-2.8717 -0.15598,-0.1022 -0.89469,-0.32335 -1.6418,-0.49093 -5.412496,-1.2142 -9.098996,-3.375 -12.298996,-7.2099 -1.768,-2.1188 -3.5299,-5.2764 -4.3331,-7.7649 -0.23334,-0.72292 -0.51973,-1.4483 -0.63614,-1.6118 -0.29843,-0.41911 -1.1355,-0.8077 -1.7384,-0.80719 -0.68561,5.9e-4 -1.1011,0.28193 -1.8945,1.2831 -4.1635,5.2542 -8.0676,8.9358 -13.833,13.045 -1.58,1.1262 -5.8666,3.7367 -8.3292,5.0726 -3.8775,2.1034 -9.385,4.7351 -10.929,5.2224 -1.8321,0.5782 -2.7128,0.69864 -3.9874,0.54416 -2.4775,-0.30026 -3.8561,-1.0662 -4.6292,-2.5704 -0.36532,-0.71085 -0.48295,-1.9239 -0.57568,-5.9381 -0.05813,-2.5165 -0.03695,-3.2736 0.12196,-4.3656 0.22814,-1.5679 0.74473,-3.6709 1.1576,-4.7108 0.73592,-1.8539 2.4958,-5.1157 3.8396,-7.1169 1.3104,-1.9515 3.8896,-6.5195 5.2736,-9.339 0.64299,-1.31 1.1689,-2.4076 1.1689,-2.4396 0,-0.032 0.28878,-0.64121 0.64182,-1.3529 0.69635,-1.4038 0.86442,-2.1684 0.63097,-2.8758 -0.0742,-0.22481 -0.52692,-0.86584 -1.0061,-1.4242 -1.5068,-1.7556 -3.2535,-4.176797 -3.2535,-4.510297 0,-0.08655 1.8561,-0.12351 6.2038,-0.12351 5.8334,0 6.204,0.01198 6.2007,0.20102 -0.01485,0.84183 -0.31696,2.135897 -0.90847,3.890697 -0.65624,1.9468 -1.1608,4.0452 -1.8898,7.8574 -0.56558,2.9576 -0.79967,5.1923 -0.99167,9.4661 -0.21205,4.7202 -0.52165,6.4413 -1.9622,10.917 -0.27314,0.84858 -0.27301,1.372 -5.17e-4,1.972 0.27192,0.59871 0.68484,0.92008 1.3705,1.0671 0.81498,0.17478 1.5458,-0.0309 2.0485,-0.57722 0.28938,-0.31451 1.18,-2.9115 1.6485,-4.8069 0.61665,-2.4951 1.0326,-5.7346 1.0356,-8.0646 0.0042,-3.2251 0.49974,-4.0958 3.6168,-6.3572 0.69483,-0.50408 1.5814,-1.227 1.9704,-1.6061 0.6291,-0.61306 0.73578,-0.78448 0.96273,-1.5508 0.68457,-2.3116 1.0833,-3.2772 2.033,-4.9222 0.93336,-1.6167 1.4129,-2.2306 2.8401,-3.637 0.99097,-0.97646 1.5581,-1.4268 2.4934,-1.9802 1.2629,-0.747337 3.1536,-1.639197 3.4758,-1.639197 0.10289,0 0.27681,-0.04586 0.38654,-0.1018 0.56412,-0.28759 2.488,-0.61302 3.9336,-0.66559 0.97472,-0.03545 1.6855,-0.11697 1.9131,-0.21911 0.19912,-0.08939 0.38844,-0.16226 0.42065,-0.16226 0.03221,0 0.43799,-0.17542 0.90175,-0.38964 1.9143,-0.88424 2.477,-1.1369 2.9688,-1.3327 0.28436,-0.11323 0.80122,-0.33507 1.1488,-0.49351 0.34754,-0.15844 1.3142,-0.59924 2.1482,-0.97927 0.83397,-0.38002 1.7989,-0.8783 2.1441,-1.1074 1.6773,-1.1133 3.131,-4.0198 3.8819,-7.7608 0.33967,-1.6922 0.36462,-4.16 0.05323,-5.2276 -0.46703,-1.6014 -1.2735,-3.3905 -2.1234,-4.7108 -0.63654,-0.98894 -2.0836,-3.8192 -2.0836,-4.0752 0,-0.10296 -0.05015,-0.23722 -0.11162,-0.29869 -0.14,-0.14 -0.74606,-2.7914 -0.9126,-3.9925 -0.18662,-1.3459 -0.15526,-4.3332 0.05839,-5.6012 0.56771,-3.3701 1.8642,-6.4118 3.8628,-9.062 2.8041,-3.7182 6.805293,-6.1849 11.599993,-7.1515 1.1186,-0.22553 1.6481,-0.26182 3.7714,-0.25942 2.69,0.003 3.625,0.12236 5.7092,0.72967 1.4728,0.42916 2.117,0.69213 3.7119,1.5157 1.7186,0.8874 3.0781,1.9106 4.7144,3.5471 2.3725,2.3726 3.6952,4.7494 4.8617,8.7359 1.5191,5.1911 1.5458,12.415 0.0713,19.625 -0.33631,1.6447 -1.1745,4.5759 -1.5033,5.2576 -0.70726,1.4665 -2.1468,2.6411 -3.5057,2.8603 -1.1025,0.17782 -7.4538,-0.96832 -11.127,-2.0081 -2.3812,-0.67409 -3.2822,-1.3842 -4.3119,-3.3988 -0.67784,-1.3261 -0.94972,-1.6091 -1.7115,-1.7803 -0.72763,-0.16349 -1.3493,0.0452 -1.928,0.64699 -0.7989,0.83077 -0.80486,1.5598 -0.0253,3.2479 0.92964,2.0152 2.5002,3.5719 4.5548,4.5155 1.2009,0.55157 1.2148,0.5565 3.5672,1.1353 1.2187,0.29988 2.2405,0.56976 2.2707,0.59996 0.0519,0.05186 -0.57879,1.6455 -1.1498,2.9047 -0.49314,1.0875 -0.98134,2.2214 -0.98134,2.2794 0,0.06003 -1.1929,2.9413 -1.387,3.3502 -0.41023,0.86408 -0.92701,2.709897 -0.92501,3.305197 0.005,1.4823 1.1158,2.3796 2.5285,2.0407 0.98388,-0.23603 1.5234,-1.0064 1.7864,-2.5507 0.0395,-0.23205 0.26602,-0.88585 0.50333,-1.4526 l 0.4315,-1.030397 0.83664,0.39222 c 3.3104,1.552597 5.2942,4.050297 6.4673,8.142097 0.22702,0.79168 0.26355,1.182 0.26355,2.8148 0,2.0589 -0.019,2.1625 -0.93638,4.9982 l -0.40928,1.2635 0.13901,3.1595 c 0.23428,5.3282 -0.076,9.3155 -0.97668,12.543 -1.1081,3.9704 -2.5287,6.0904 -5.3924,8.0476 -1.1831,0.80855 -1.4362,1.2239 -2.018,3.3125 -1.3067,4.691 -2.554,6.9507 -6.9541,12.595 -0.97368,1.2489 -2.1156,2.6868 -3.2045,4.0421 l 5.0204,0.41547 -0.01,0.10077 c 1.9942,-2.5499 4.148,-5.4035 4.9062,-6.5484 2.2077,-3.3339 3.2479,-5.618 4.3605,-9.5762 0.19823,-0.70526 0.25395,-0.78098 1.0077,-1.3617 1.6694,-1.2862 2.9415,-2.6155 4.0163,-4.1977 0.52172,-0.76806 0.82511,-1.0819 1.4759,-1.5245 3.2815,-2.2315 7.454,-6.6199 11.617,-12.218 1.5553,-2.0914 5.4548,-7.849 6.4585,-9.5359 0.28199,-0.47393 0.81516,-1.3531 1.1849,-1.9534 0.36978,-0.6003 0.875,-1.4274 1.1224,-1.8381 1.7955,-2.9808 2.2228,-3.6072 3.4076,-4.9976 1.0984,-1.2891 1.8193,-2.5617 2.3807,-4.2044 0.35024,-1.0246 0.36972,-1.1712 0.37672,-2.8324 l 0.008,-1.751797 h 7.8982 l 7.8993,-5.17e-4 v 1.1276 c 0,2.186504 0.39478,3.466204 1.5265,4.943404 1.1757,1.5345 2.9208,2.3624 4.9646,2.3564 1.8239,-0.006 3.2865,-0.60931 4.5289,-1.8691 0.42141,-0.42731 0.91838,-1.068 1.1048,-1.4242 l 0.339,-0.6475 30.448,-0.062 0.91881,-0.33228 c 1.1751,-0.42539 1.6263,-0.71528 2.5456,-1.6345 1.5815,-1.581404 2.2288,-4.033704 1.6557,-6.274604 -0.51841,-2.027 -1.9092,-3.591 -3.9713,-4.4659 l -0.91933,-0.39016 -30.688,-0.06202 -0.44803,-0.77308 c -0.80085,-1.3822 -2.2098,-2.5348 -3.5962,-2.9414 -1.66,-0.48686 -3.7708,-0.28638 -5.0922,0.48369 -1.0875,0.63377 -1.9313,1.5505 -2.4955,2.7104 -0.62478,1.2845 -0.81758,2.1444 -0.81958,3.6566 l -0.002,1.2361 -6.75,-0.02946 -6.7489,-0.02997 -0.031,-0.40204 c -0.0697,-0.90401 -0.41849,-2.1707 -0.79737,-2.897 -0.72734,-1.3943 -2.28,-2.7075 -3.8013,-3.2153 -0.86347,-0.28821 -3.802,-0.95252 -6.2854,-1.4206 -1.2064,-0.22738 -2.9114,-0.17513 -3.7331,0.1142 -1.7581,0.61902 -3.017,1.7022 -3.8809,3.3398 -0.28577,0.54171 -1.7487,4.2351 -1.7487,4.4147 0,0.08684 -2.2013,0.12351 -7.4104,0.12351 -4.7628,0 -7.4104,-0.03978 -7.4104,-0.11214 0,-0.14354 1.0386,-2.5533 1.1596,-2.6903 0.0529,-0.05986 0.68029,-0.02395 1.5043,0.0863 0.77762,0.10404 1.8019,0.18937 2.2758,0.18914 2.726,-0.0014 5.4151,-1.3511 6.9841,-3.5047 0.23018,-0.31595 0.44764,-0.60041 0.48214,-0.632 0.16493,-0.15087 0.76083,-1.5439 1.0573,-2.4701 1.5383,-4.8058 2.5137,-12.013 2.3482,-17.348 -0.13822,-4.455 -0.79633,-8.2566 -1.9952,-11.518 -0.12202,-0.33194 -0.25679,-0.63762 -0.29869,-0.67954 -0.0419,-0.04192 -0.077,-0.14878 -0.077,-0.2372 0,-0.19742 -0.88952,-1.9846 -1.5306,-3.0753 -3.0732,-5.2278 -8.648,-9.3172 -14.428,-10.583 -2.0104,-0.4404 -3.8636,-0.67584 -5.6658,-0.70848 z M 56.824,89.284 c 0.47944,0.02397 0.89895,0.10578 1.1539,0.2403 0.6007,0.3169 1.0622,0.75547 1.3177,1.2521 0.28235,0.54884 0.77253,2.2228 0.8661,2.9585 l 0.07648,0.60306 h -12.889 v -0.51263 c 0,-0.72612 0.39493,-1.6908 0.90899,-2.2205 0.78171,-0.8055 2.0357,-1.2542 5.18,-1.8536 0.72668,-0.13853 1.5695,-0.30066 1.8728,-0.36018 0.49451,-0.09705 1.0336,-0.13094 1.5131,-0.10697 z m -32.488,0.91932 c 0.81431,-0.01556 1.625,0.49688 2.0774,1.4924 0.15165,0.33373 0.19059,1.043 0.22996,4.1718 0.06654,5.2883 -0.07329,6.0811 -1.1839,6.7102 -0.33344,0.18885 -0.64476,0.25945 -1.157,0.26045 -0.59702,0.002 -0.77091,-0.0489 -1.1736,-0.34055 -0.90963,-0.65893 -0.88315,-0.48038 -0.88315,-5.9381 v -4.8441 l 0.34985,-0.49713 c 0.47178,-0.67133 1.1071,-1.0028 1.7405,-1.0149 z m 151.67,0.01809 c 0.0903,0.0022 0.18395,0.0092 0.28112,0.02067 0.75597,0.08953 1.3698,0.50623 1.6754,1.1374 0.2357,0.48759 0.24391,0.64981 0.24391,5.1552 v 4.6519 l -0.29972,0.60048 c -0.2179,0.43727 -0.41988,0.66245 -0.74207,0.82682 -0.30169,0.15388 -0.67358,0.22583 -1.1674,0.22583 -0.85143,0 -1.3899,-0.29419 -1.8294,-1.001 -0.27013,-0.43446 -0.27011,-0.43739 -0.30541,-4.9733 -0.0389,-5.003 -0.017,-5.2105 0.62529,-5.9609 0.41363,-0.48323 0.8859,-0.69859 1.5182,-0.68316 z m -32.877,0.21962 c 0.80457,-0.04172 1.9764,0.14949 3.7693,0.56069 0.50552,0.11595 1.4362,0.32573 2.0681,0.46612 0.6319,0.14039 1.2781,0.33298 1.4361,0.4284 0.76532,0.46228 1.2846,1.1894 1.4397,2.0164 l 0.0796,0.4253 h -5.8146 c -4.8163,0 -5.8146,-0.02657 -5.8146,-0.15555 0,-0.20579 0.96235,-2.4019 1.2728,-2.9042 0.32192,-0.52087 0.75916,-0.79544 1.5637,-0.83716 z m -125.2,3.7822 v 4.7103 h -29.251 l -0.59738,-0.30799 c -0.48054,-0.2476 -0.65433,-0.42085 -0.88522,-0.88418 -0.33353,-0.66931 -0.38988,-1.7222 -0.12041,-2.2433 0.24196,-0.46791 0.91042,-1.0141 1.4102,-1.1529 0.29223,-0.08115 5.1715,-0.12101 14.939,-0.12144 z m 179.11,0.02739 c 14.519,-0.02971 14.535,-0.02945 15.128,0.21084 1.6433,0.66513 1.8605,3.0457 0.37207,4.0773 l -0.4873,0.33745 -29.609,0.06098 0.031,-2.3285 0.031,-2.328 z m -132.12,4.4535 h 2.7001 c 1.485,0 2.6996,0.025 2.6996,0.05581 0,0.03081 -0.4822,0.53505 -1.0718,1.1203 -2.4596,2.4418 -4.3651,5.6928 -5.4214,9.2496 -0.1314,0.44249 -0.29922,0.68795 -0.6997,1.0237 -0.61182,0.51297 -0.84959,0.66192 -0.84956,0.5333 4.5e-5,-0.21383 0.55093,-2.9253 0.82372,-4.0556 0.06863,-0.28436 0.40547,-1.3701 0.74879,-2.4128 0.72434,-2.1998 1.0702,-3.7448 1.0702,-4.7806 z m 74.664,0 h 9.8774 l 0.078,0.72605 c 0.0992,0.92616 -0.0922,2.5032 -0.39791,3.2789 -0.21863,0.55467 -0.76034,1.3793 -1.3689,2.0841 -1.0875,1.2595 -1.9406,2.5012 -3.7502,5.457 -2.3381,3.8191 -6.0798,9.5671 -7.629,11.719 -0.54583,0.75828 -1.0692,1.4889 -1.1627,1.6237 -0.78527,1.1329 -3.8862,4.9289 -4.995,6.1144 -0.45203,0.48328 -0.94377,1.021 -1.0924,1.1948 -0.35683,0.41717 -0.48378,0.40021 -0.40308,-0.0574 0.44401,-2.5102 0.63168,-7.4674 0.41445,-10.944 l -0.1292,-2.0681 1.1886,-3.5812 0.98754,-0.65009 c 1.4012,-0.9221 2.9498,-2.0097 3.6871,-2.589 1.9188,-1.5075 5.3234,-5.0342 5.9232,-6.1361 0.25552,-0.46951 0.31756,-0.73591 0.32556,-1.3948 0.009,-0.70979 -0.0461,-0.93991 -0.42995,-1.7911 -0.39819,-0.8829 -0.84405,-2.0444 -1.047,-2.7285 z m -9.154,0.02739 4.9625,0.02997 0.13797,0.74672 c 0.19338,1.0443 0.47989,1.9861 0.8661,2.8469 0.1817,0.40497 0.33021,0.82421 0.33021,0.93172 0,0.31721 -3.8612,4.0317 -4.9403,4.7527 -0.15797,0.10555 -0.52425,0.37359 -0.81391,0.59532 l -0.52658,0.40307 -0.25735,-1.2893 c -0.33666,-1.6864 -0.6858,-2.7116 -1.4955,-4.3915 -0.69707,-1.4462 -1.244,-2.2565 -2.48,-3.6737 -0.41009,-0.47021 -0.74569,-0.88337 -0.74569,-0.91829 0,-0.03495 2.2332,-0.05006 4.9625,-0.03359 z m -8.5695,87.425 c -0.36073,0.007 -0.87544,0.23806 -2.8536,1.2232 -4.2511,2.1171 -7.3742,3.2256 -12.049,4.2757 -1.996,0.44836 -3.3754,0.64937 -5.9046,0.86093 -5.1967,0.43467 -10.117,-0.0426 -15.475,-1.5012 -1.6587,-0.4516 -2.4142,-0.51132 -2.9523,-0.23306 -0.7459,0.38572 -1.2223,1.4612 -1.0377,2.3425 0.12745,0.60827 0.67894,1.1939 1.3963,1.4826 1.1462,0.46125 4.5453,1.2703 6.8089,1.6211 0.95332,0.14773 2.8612,0.34521 4.5382,0.46973 3.8847,0.28846 8.6982,-0.0185 12.737,-0.81287 3.2962,-0.64826 6.3237,-1.5255 9.264,-2.6836 3.0251,-1.1914 6.4664,-2.9193 7.0084,-3.5192 0.75579,-0.83657 0.8031,-1.7747 0.13384,-2.6536 -0.41573,-0.54593 -0.80395,-0.77462 -1.4666,-0.86352 -0.0491,-0.007 -0.0973,-0.01 -0.14883,-0.009 z m 13.812,5.3774 c -0.29065,-0.001 -0.58464,0.0715 -0.87385,0.21911 -0.4876,0.24886 -0.7226,0.48965 -0.98702,1.0118 -0.27011,0.53342 -0.2305,1.1151 0.15141,2.2185 1.21,3.4958 1.8671,5.2584 2.0541,5.5108 0.11814,0.15941 0.41671,0.40559 0.66352,0.54673 1.0481,0.59932 2.4868,0.0856 2.912,-1.0397 0.27916,-0.73885 0.15231,-1.3742 -0.81235,-4.0716 -1.0711,-2.9952 -1.2028,-3.2829 -1.727,-3.7838 -0.42234,-0.40349 -0.89638,-0.60999 -1.3808,-0.61185 z m -9.0196,16.336 c -0.26508,-0.004 -0.53844,0.0506 -0.8139,0.16536 -0.85615,0.35668 -1.1068,0.78686 -1.6325,2.8014 -0.50054,1.9183 -0.62214,2.3186 -1.2413,4.0788 -1.9015,5.406 -5.3426,10.59 -9.8046,14.772 -0.90497,0.84816 -1.8353,1.7241 -2.067,1.9466 -0.9921,0.9528 -0.8331,2.6491 0.30902,3.299 0.53728,0.30573 1.499,0.34737 2.0014,0.0884 0.52742,-0.27274 1.6628,-1.252 3.2577,-2.8096 5.6017,-5.471 9.4736,-12.136 11.499,-19.792 0.70445,-2.6634 0.66819,-3.1841 -0.28215,-4.0426 -0.36478,-0.32955 -0.78344,-0.50038 -1.2252,-0.50746 z"
         clip-path="url(#clipPath21)"
         id="legs_ppl"
         transform="matrix(0.28459384,0,0,0.2946454,71.851082,84.025633)" /></g></g></svg>
