<?xml version="1.0" encoding="UTF-8" standalone="no"?>
<!-- Created with Inkscape (http://www.inkscape.org/) -->

<svg
   width="33.866669mm"
   height="33.866669mm"
   viewBox="0 0 33.866669 33.866669"
   version="1.1"
   id="svg1"
   xml:space="preserve"
   xmlns="http://www.w3.org/2000/svg"
   xmlns:svg="http://www.w3.org/2000/svg"><defs
     id="defs1"><clipPath
       id="clipPath81"><rect
         x="37.136002"
         y="126.57"
         width="131.03999"
         height="162.25999"
         stroke="#000000"
         stroke-width="0.45399"
         id="rect1-9" /></clipPath></defs><g
     id="layer1"
     transform="translate(-88.06667,-131.56667)"><g
       id="g13"><path
         d="m 71.087,273.87 c -0.59706,-0.0439 -1.8183,-0.12707 -2.7139,-0.18487 -2.9636,-0.19127 -7.1464,-0.49066 -7.6977,-0.55098 -0.99356,-0.1087 -1.9169,-0.35507 -2.6288,-0.7014 -2.3644,-1.1503 -2.9415,-3.6076 -1.3657,-5.8159 0.59704,-0.83667 1.3854,-1.4565 3.6984,-2.9074 1.0584,-0.66398 2.2443,-1.4476 2.6352,-1.7414 1.1734,-0.88179 4.6646,-4.5932 5.7324,-6.094 0.23758,-0.33392 0.24644,-0.404 0.26555,-2.1 0.01903,-1.6895 0.0329,-1.8002 0.37404,-2.9881 0.19485,-0.67848 0.4203,-1.4174 0.50099,-1.642 0.48974,-1.3632 0.17858,-5.0088 -0.97174,-11.385 -1.5014,-8.3222 -2.1928,-11.752 -3.3524,-16.629 -0.55919,-2.352 -1.1782,-5.7793 -1.4704,-8.1418 -0.08394,-0.67849 -0.19888,-1.607 -0.25542,-2.0635 -0.05654,-0.45643 -0.10274,-1.8109 -0.10267,-3.01 1.16e-4,-1.8271 0.04755,-2.5573 0.2929,-4.5093 0.59657,-4.7462 1.0687,-6.5354 3.7477,-14.201 1.2328,-3.5275 1.4318,-4.585 1.3833,-7.3523 -0.05294,-3.0257 -0.04807,-4.5816 0.01915,-6.1187 0.03561,-0.81418 0.02348,-1.8134 -0.02694,-2.2205 -0.19399,-1.5663 -0.79055,-3.3206 -1.9632,-5.7733 -1.5048,-3.1474 -2.1169,-4.7158 -2.8075,-7.1938 -0.73345,-2.6318 -1.056,-4.3081 -1.4832,-7.7082 -0.34197,-2.7219 -0.42208,-7.3753 -0.19284,-11.201 0.28005,-4.6738 0.97316,-10.493 1.6691,-14.014 0.08047,-0.40708 0.2134,-1.1398 0.2954,-1.6284 0.23238,-1.3844 0.59557,-3.174 1.0915,-5.3785 0.25034,-1.1127 0.53462,-2.3784 0.63174,-2.8126 0.09712,-0.43423 0.42727,-1.9109 0.73368,-3.2815 0.88034,-3.9378 1.3211,-6.7704 1.6932,-10.88 0.08599,-0.94987 0.22094,-2.1711 0.29989,-2.7139 0.07895,-0.54278 0.19031,-1.32 0.24747,-1.727 0.11456,-0.81596 0.52389,-2.9012 0.73616,-3.7502 0.53848,-2.1537 0.76517,-2.9621 1.1346,-4.0462 0.2312,-0.67848 0.45854,-1.2758 0.5052,-1.3274 0.04666,-0.05156 0.08484,-0.15358 0.08484,-0.2267 0,-0.13788 0.70968,-1.9999 1.1567,-3.0349 0.24263,-0.56177 0.25947,-0.71356 0.32848,-2.9606 0.04001,-1.3027 0.1207,-2.7016 0.17932,-3.1087 0.05862,-0.40709 0.21971,-1.5839 0.35797,-2.6152 0.13826,-1.0313 0.3799,-2.6653 0.53697,-3.631 0.24167,-1.486 0.32524,-1.808 0.54344,-2.094 0.42112,-0.55212 1.3842,-0.69408 1.9947,-0.29404 0.63363,0.41517 0.74192,1.0469 0.48198,2.8118 -0.90102,6.1174 -1.0397,7.3369 -1.0398,9.1442 l -8.2e-5,1.1997 0.46877,0.38735 c 0.25782,0.21304 0.82405,0.57899 1.2583,0.81322 1.2733,0.68687 2.9009,1.6647 3.7502,2.2531 1.5199,1.053 3.8045,3.088 5.3391,4.7559 1.5911,1.7292 3.4935,4.5588 3.4935,5.1961 0,0.62195 -0.59102,1.2187 -1.207,1.2187 -0.58042,0 -0.87999,-0.23451 -1.3929,-1.0904 -1.3229,-2.2075 -3.629,-4.8085 -6.0353,-6.8073 -0.93173,-0.77392 -2.6785,-1.9692 -3.8488,-2.6338 -0.37995,-0.21574 -1.0775,-0.61646 -1.5502,-0.89048 l -0.85938,-0.49822 -0.15027,0.40889 c -1.6569,4.5087 -2.0412,5.6866 -2.5656,7.8635 -0.6562,2.7242 -1.0565,5.4456 -1.3931,9.4705 -0.13676,1.6356 -0.33252,3.1304 -0.63971,4.8851 -0.05702,0.32567 -0.14758,0.84994 -0.20124,1.165 -0.05367,0.31511 -0.25725,1.3143 -0.45242,2.2205 -0.19517,0.9062 -0.41079,1.914 -0.47918,2.2397 -0.06838,0.32567 -0.2182,1.0024 -0.33294,1.504 -0.11474,0.5016 -0.20758,0.9678 -0.20633,1.0362 0.0013,0.0684 0.21272,-0.23088 0.46992,-0.6651 0.25721,-0.43423 0.55348,-0.92274 0.65839,-1.0856 2.6439,-4.1038 4.7662,-6.8615 7.2741,-9.4518 1.256,-1.2973 1.3339,-1.3593 1.7048,-1.357 0.5254,0.003 1.0152,0.34536 1.1556,0.80707 0.17677,0.58136 0.04216,0.96879 -0.56228,1.6185 -4.3614,4.6877 -7.5996,9.326 -10.055,14.403 -1.3373,2.7647 -1.5405,3.2512 -2.3717,5.6775 -0.57118,1.6673 -0.67222,2.1252 -1.0338,4.6848 -0.26524,1.8778 -0.42266,3.3326 -0.8116,7.5003 -0.1729,1.8527 -0.17078,8.4565 0.0032,10.116 0.62181,5.928 1.5544,9.6747 3.3897,13.619 0.21468,0.46137 0.5028,1.1053 0.64025,1.431 0.13746,0.32568 0.36322,0.81418 0.5017,1.0856 0.13848,0.2714 0.48377,1.0607 0.76731,1.7541 l 0.51553,1.2606 0.37071,-0.52047 c 0.80086,-1.1244 1.5675,-1.9393 1.9362,-2.0581 0.46002,-0.14827 0.9827,-0.0506 1.2397,0.23157 0.59723,0.65584 0.53799,1.1743 -0.23559,2.0619 -0.46234,0.53047 -1.0749,1.3984 -1.5561,2.2049 -0.19234,0.32233 -0.53382,1.2408 -0.69711,1.8751 -0.38501,1.4954 -0.55758,5.1536 -0.34219,7.2536 0.05289,0.51564 0.1206,1.3816 0.15048,1.9244 0.07088,1.2876 0.19824,2.047 0.54989,3.2789 0.28038,0.98222 1.39,4.1688 2.1017,6.0359 0.40645,1.0662 0.42824,1.3178 0.15321,1.7689 -0.23997,0.39359 -0.72868,0.61838 -1.1873,0.54611 -0.70841,-0.11165 -0.77959,-0.23011 -1.8112,-3.0141 -0.52902,-1.4276 -0.98165,-2.6576 -1.0058,-2.7332 -0.02419,-0.0756 -0.06307,-0.1184 -0.0864,-0.0951 -0.10835,0.10835 -1.7238,4.8294 -2.5955,7.5848 -0.81378,2.5726 -1.4703,6.0361 -1.7116,9.03 -0.20304,2.519 -6.01e-4,6.0574 0.50728,8.8664 0.1095,0.60562 0.28603,1.5898 0.3923,2.1871 0.17612,0.98989 0.73908,3.5791 1.1264,5.1807 0.40427,1.6716 2.1536,10.255 2.2828,11.201 0.03707,0.2714 0.12655,0.7599 0.19883,1.0856 0.26474,1.1928 0.9356,5.0896 1.2317,7.1549 0.80731,5.63 0.791,7.1839 -0.10523,10.023 -0.4322,1.3692 -0.47012,1.7486 -0.39888,3.9906 0.01911,0.60146 -0.01228,1.1485 -0.07483,1.3038 -0.45046,1.1184 -4.537,5.7309 -6.6784,7.5379 -0.78515,0.66256 -3.1934,2.2914 -4.5695,3.0906 -0.80614,0.46819 -1.7409,1.3555 -1.8388,1.7455 -0.08062,0.32121 0.07176,0.51328 0.58568,0.73821 0.62973,0.27563 2.1386,0.44133 7.1056,0.78029 0.81418,0.0556 2.3907,0.16686 3.5034,0.24732 3.684,0.26641 5.0702,0.161 6.4864,-0.49322 0.60452,-0.27928 0.89002,-0.50907 1.8751,-1.5093 1.2539,-1.2732 1.7427,-1.5804 3.0864,-1.94 2.1567,-0.57723 2.664,-1.532 2.178,-4.0994 -0.32662,-1.7255 -0.60539,-2.8606 -0.70589,-2.8743 -0.04976,-0.007 -0.12377,-0.0204 -0.16448,-0.0303 -0.04071,-0.01 -0.21211,-0.0509 -0.38088,-0.0911 -0.31389,-0.0749 -0.71695,-0.43714 -0.91468,-0.822 -0.16745,-0.32594 -0.13317,-0.89961 0.08084,-1.3526 0.44216,-0.93601 0.99225,-2.2414 1.2538,-2.9754 0.25819,-0.72446 0.27959,-0.89313 0.27494,-2.1672 -0.0046,-1.2664 -0.03038,-1.4599 -0.30888,-2.3202 -0.51474,-1.59 -0.65974,-2.8717 -0.5906,-5.2208 0.09019,-3.0643 0.31941,-4.7836 1.2577,-9.4334 0.40691,-2.0165 0.68314,-3.1095 1.5682,-6.2055 0.73813,-2.5819 1.9223,-5.6616 3.7234,-9.6833 0.68565,-1.5311 1.1882,-3.2786 1.7595,-6.118 0.62241,-3.0937 0.5662,-7.5433 -0.14579,-11.541 -0.27365,-1.5365 -0.8914,-5.8247 -0.8914,-6.1877 0,-0.38142 -0.09443,-0.35127 -0.44037,0.14063 -0.16079,0.22863 -0.68951,0.9708 -1.1749,1.6493 -2.0215,2.8254 -3.0259,4.6607 -3.9426,7.2042 -0.55941,1.5522 -0.65829,1.8969 -1.1986,4.1791 -0.645,2.7243 -1.0292,5.4859 -1.629,11.71 -0.17885,1.8557 -0.35847,4.8422 -0.55796,9.2767 l -0.06437,1.431 -0.36951,0.37009 c -0.31015,0.31062 -0.43631,0.37008 -0.78532,0.37008 -0.92603,0 -1.2852,-0.48705 -1.2849,-1.7423 2.02e-4,-0.76585 0.39742,-7.4744 0.54121,-9.1403 0.55147,-6.3893 0.81952,-8.3868 1.7312,-12.901 0.37266,-1.8453 0.60795,-2.6576 1.3678,-4.7224 0.29858,-0.81132 1.0022,-2.3897 1.1943,-2.6793 0.05403,-0.0814 0.25771,-0.45409 0.45261,-0.82815 0.51157,-0.98182 1.7573,-2.9501 2.4137,-3.8136 0.63284,-0.83255 2.6553,-3.8136 2.7428,-4.0429 0.03108,-0.0814 0.20874,-0.41449 0.39481,-0.74016 0.89008,-1.5579 2.2891,-4.4967 2.6308,-5.5266 0.07205,-0.21711 0.30931,-0.8886 0.52724,-1.4922 0.83243,-2.3056 1.6759,-6.3863 2.139,-10.348 l 0.06896,-0.58998 -0.7219,0.93539 c -1.8608,2.4111 -3.6093,3.6073 -5.8488,4.0014 -1.0816,0.19036 -1.7625,0.17768 -2.6502,-0.0493 -2.1961,-0.56167 -3.8488,-2.0152 -5.1916,-4.5661 -0.2086,-0.39626 -0.4365,-0.89811 -0.50646,-1.1152 -0.06996,-0.21711 -0.16023,-0.43916 -0.2006,-0.49344 -0.14684,-0.19739 -0.68939,-2.6955 -0.84663,-3.8982 -0.38645,-2.956 0.20029,-7.2638 1.4951,-10.977 0.41838,-1.1998 1.2492,-3.3527 1.5719,-4.073 0.07294,-0.16284 0.27363,-0.60694 0.44597,-0.98689 4.1363,-9.1192 5.398,-13.42 5.588,-19.047 0.02933,-0.86846 0.09741,-1.7238 0.15131,-1.9008 0.13956,-0.4584 0.64281,-0.81309 1.1536,-0.81309 0.33118,0 0.48355,0.066 0.78019,0.33821 l 0.36863,0.33821 -0.01109,1.5615 c -0.02212,3.1147 -0.43237,5.8956 -1.3767,9.3322 -0.49682,1.808 -1.4658,4.5319 -2.1267,5.9786 -0.15672,0.34302 -0.28495,0.64026 -0.28495,0.66052 0,0.0471 -1.3556,3.1349 -1.7758,4.045 -0.17544,0.37995 -0.47434,1.0683 -0.6642,1.5297 -0.18987,0.46137 -0.4559,1.1053 -0.59119,1.431 -0.58873,1.4172 -0.85412,2.1396 -1.1603,3.158 -1.4294,4.7548 -1.6061,8.8919 -0.51428,12.04 0.57416,1.6554 1.5288,3.2743 2.3735,4.0249 0.17005,0.15111 0.62004,0.4367 0.99999,0.63465 0.6139,0.31984 0.79136,0.36468 1.5938,0.40275 1.5799,0.075 2.8143,-0.46992 4.1853,-1.8475 1.2197,-1.2254 2.1166,-2.5885 2.746,-4.1729 1.2853,-3.2355 1.6452,-6.2543 1.3389,-11.23 -0.20624,-3.3503 -1.2727,-9.2097 -2.4213,-13.303 -0.24432,-0.87072 -0.20945,-1.4101 0.11338,-1.7537 0.32029,-0.34093 0.80456,-0.47805 1.2127,-0.34336 0.68158,0.22494 0.81088,0.50558 1.4407,3.1271 0.21988,0.91522 0.44235,1.8195 0.49436,2.0094 0.4346,1.5873 1.2681,6.6412 1.4449,8.7611 0.03723,0.44644 0.09781,0.8117 0.13461,0.8117 0.03681,0 0.21226,-0.4774 0.3899,-1.0609 0.17764,-0.58349 0.52451,-1.6826 0.77083,-2.4425 0.24632,-0.7599 0.48116,-1.5149 0.52187,-1.6777 0.04072,-0.16283 0.17172,-0.65134 0.29112,-1.0856 0.1194,-0.43423 0.43842,-1.6555 0.70894,-2.7139 1.062402,-4.1567 1.084502,-4.2566 1.551302,-7.0069 0.25717,-1.5153 0.42439,-2.5916 0.79733,-5.1318 0.0518,-0.35281 0.14247,-1.1078 0.20148,-1.6777 0.059,-0.56992 0.14935,-1.3915 0.20076,-1.8257 0.21903,-1.85 0.7489,-9.1999 0.66901,-9.2798 -0.023,-0.023 -0.43882,-0.15669 -0.92401,-0.29708 -3.406502,-0.98562 -6.168502,-3.8144 -7.432702,-7.6125 -1.0105,-3.0357 -1.0194,-4.0225 -0.04008,-4.437 0.99216,-0.41994 1.5983,0.1191 1.9572,1.7407 0.09012,0.40709 0.30936,1.1196 0.48721,1.5834 1.3745,3.5846 3.722102,5.7627 6.733302,6.2474 1.49,0.23985 2.8358,0.003 4.4197,-0.77802 1.5721,-0.77516 2.9517,-2.2722 3.8947,-4.2261 0.52078,-1.0792 1.0412,-2.5966 1.1435,-3.3345 0.0848,-0.61113 0.33668,-1 0.78577,-1.2132 0.86922,-0.41247 1.8244,0.23232 1.8244,1.2316 0,0.33316 -0.39862,1.8997 -0.80092,3.1476 -1.2926,4.0093 -4.4332,7.0126 -8.2044,7.8454 -0.31245,0.069 -0.31277,0.0715 -0.17426,1.3677 0.0534,0.49994 0.18774,2.1524 0.29849,3.6722 0.31627,4.3405 0.53711,6.4395 1.0383,9.8688 0.67055,4.5882 1.1052,6.629 2.5119,11.793 0.17002,0.6242 0.35365,1.3126 0.40805,1.5297 0.0544,0.21712 0.24819,0.86106 0.43062,1.431 0.18244,0.56992 0.53732,1.7246 0.78863,2.5659 0.25131,0.8413 0.48156,1.5963 0.51167,1.6777 0.10005,0.27053 0.20587,-0.19227 0.32719,-1.431 0.16941,-1.7298 0.68204,-5.0029 0.9892,-6.316 0.0508,-0.21711 0.18053,-0.77224 0.28832,-1.2336 0.89188,-3.8175 1.2271,-4.9894 1.518,-5.3062 0.11297,-0.12304 0.36703,-0.27213 0.56458,-0.33132 0.30426,-0.0912 0.41934,-0.0769 0.75267,0.0931 0.86577,0.44168 0.88795,0.7245 0.24541,3.1291 -1.1462,4.2895 -1.9563,8.962 -2.1809,12.58 -0.23223,3.7398 -0.0284,6.3425 0.69213,8.8394 0.77637,2.6902 1.7385,4.4356 3.3507,6.0786 1.0088,1.028 1.5627,1.3902 2.642,1.7273 0.68493,0.21396 0.94985,0.24796 1.647,0.21137 0.71095,-0.0373 0.93478,-0.0959 1.5523,-0.40631 0.39686,-0.19949 0.85479,-0.48628 1.0176,-0.63732 1.1562,-1.0725 2.1832,-3.0798 2.721,-5.3185 0.50297,-2.0937 0.41594,-5.4543 -0.21427,-8.274 -0.44246,-1.9797 -1.4397,-4.9712 -2.2043,-6.6121 -0.12644,-0.27139 -0.37228,-0.82651 -0.54631,-1.2336 -0.17402,-0.40709 -0.50844,-1.1621 -0.74313,-1.6777 -0.2347,-0.51565 -0.65842,-1.4927 -0.94159,-2.1711 -0.80964,-1.9399 -1.0864,-2.6001 -1.1792,-2.8126 -0.7595,-1.7396 -1.2898,-3.3337 -1.8763,-5.6405 -0.73905,-2.9068 -1.0235,-4.9102 -1.1412,-8.0391 -0.0521,-1.3841 -0.0375,-1.6865 0.0938,-1.9404 0.23658,-0.45749 0.62092,-0.71296 1.0726,-0.71296 0.32302,0 0.45859,0.0659 0.76086,0.37008 l 0.36781,0.37008 0.0631,1.4803 c 0.20593,4.8327 0.99213,8.3285 2.9964,13.323 0.50403,1.256 2.0354,4.8371 2.4579,5.7478 0.83547,1.8008 1.5789,3.6442 2.1588,5.3525 0.34124,1.0053 0.64554,1.8945 0.67622,1.9759 0.0651,0.17284 0.45268,2.0944 0.56727,2.8126 0.0433,0.27139 0.15643,0.95974 0.25141,1.5297 0.25045,1.5029 0.22842,3.998 -0.0501,5.6746 -0.36348,2.1879 -0.85198,3.7081 -1.6108,5.0128 -0.15135,0.26021 -0.27519,0.49646 -0.27519,0.525 0,0.12309 -0.6176,0.92871 -1.1881,1.5498 -0.87487,0.95245 -1.9789,1.6656 -3.1652,2.0446 -1.5705,0.5017 -3.6521,0.27089 -5.2195,-0.57873 -1.2929,-0.70085 -2.8176,-2.0644 -3.7433,-3.3476 -0.46363,-0.6427 -0.80456,-0.93897 -0.6665,-0.5792 0.0288,0.075 0.12581,0.68559 0.21566,1.357 0.61592,4.6023 1.6816,8.8395 3.0206,12.01 0.76554,1.8128 2.8344,5.6712 3.6336,6.7768 2.5615,3.5432 3.727,5.3369 4.5132,6.9463 0.78216,1.6011 1.6646,3.9031 2.0851,5.4391 0.44392,1.6216 1.192,5.4325 1.4046,7.1549 0.0603,0.48851 0.17309,1.3767 0.25067,1.9738 0.21736,1.6728 0.5997,6.4804 0.98454,12.38 0.19405,2.9748 0.18912,3.3149 -0.0538,3.708 -0.39411,0.63768 -1.3472,0.71919 -1.9036,0.16281 -0.26951,-0.26951 -0.30088,-0.37279 -0.36937,-1.2162 -0.0412,-0.50695 -0.10232,-1.5435 -0.13589,-2.3034 -0.0336,-0.7599 -0.0815,-1.6703 -0.10661,-2.0231 -0.0251,-0.35281 -0.0711,-1.0634 -0.10224,-1.579 -0.23317,-3.857 -0.4906,-6.4897 -1.1387,-11.645 -0.23961,-1.9061 -0.7972,-4.4736 -1.4895,-6.8588 -0.49659,-1.7108 -1.8044,-4.5766 -2.8417,-6.227 -0.78497,-1.2489 -2.668,-3.9213 -2.8304,-4.0168 -0.0738,-0.0434 -0.13423,-0.14333 -0.13423,-0.22205 0,-0.0787 -0.0354,-0.14313 -0.0787,-0.14313 -0.0433,0 -0.1375,0.433 -0.20933,0.96221 -0.25771,1.8985 -0.70582,4.8348 -0.93755,6.1434 -0.36341,2.0522 -0.47983,3.3521 -0.49052,5.4772 -0.0112,2.2322 0.091,3.4737 0.44688,5.4278 0.56292,3.0908 0.99938,4.3991 2.9893,8.9605 1.4034,3.2169 2.8982,7.7624 3.5728,10.865 0.084,0.38609 0.21619,0.99065 0.29384,1.3435 1.6433,7.4671 1.9351,12.304 0.93163,15.445 -0.35328,1.1059 -0.42718,1.6641 -0.37395,2.8248 0.0367,0.79983 0.11223,1.2878 0.26267,1.6964 0.3009,0.81741 0.8705,2.1829 1.2158,2.9147 0.23205,0.49177 0.28403,0.71272 0.24179,1.0277 -0.0912,0.68006 -0.69838,1.2602 -1.3379,1.2784 -0.26824,0.008 -0.30397,0.0527 -0.44465,0.56098 -0.0841,0.30398 -0.21911,0.88576 -0.29995,1.2928 -0.55639,2.802 -0.50026,3.6095 0.3028,4.3564 0.38887,0.36162 1.1424,0.71504 1.9471,0.91318 1.1386,0.28035 1.7599,0.70346 3.0115,2.0507 0.80632,0.86793 1.218,1.1667 2.0214,1.4674 1.3072,0.4891 2.7974,0.59384 5.5815,0.39229 0.73583,-0.0533 2.6702,-0.18859 4.2985,-0.30071 6.3553,-0.43761 7.451,-0.64133 7.451,-1.3853 0,-0.2177 -0.1214,-0.4278 -0.45046,-0.77959 -0.48828,-0.52202 -0.64426,-0.63215 -3.1517,-2.2253 -2.1345,-1.3562 -3.1727,-2.1976 -4.8659,-3.9437 -2.4388,-2.5149 -4.2416,-4.7197 -4.5736,-5.5933 -0.16161,-0.42532 -0.17575,-0.66425 -0.12041,-2.0345 0.0688,-1.704 0.13707,-1.2845 -0.70059,-4.307 -0.34882,-1.2587 -0.48992,-3.0241 -0.35314,-4.4186 0.38985,-3.9749 1.3178,-9.7369 2.5241,-15.673 1.0504,-5.1694 1.4676,-7.1446 1.9698,-9.326 0.89933,-3.9071 1.4784,-7.0355 1.7354,-9.3754 0.14577,-1.3271 0.19528,-4.5057 0.0891,-5.7239 -0.2134,-2.4497 -0.65993,-5.1811 -1.1938,-7.3029 -0.36975,-1.4694 -1.5481,-5.0901 -2.5051,-7.6977 -0.17929,-0.48851 -0.38171,-1.0769 -0.44983,-1.3076 -0.1484,-0.5026 -0.24865,-0.52901 -0.3745,-0.0987 -0.0516,0.17641 -0.34598,1.0313 -0.6542,1.8998 -0.30821,0.86846 -0.63839,1.8233 -0.73373,2.1218 -0.38075,1.1922 -0.66079,1.4803 -1.4388,1.4803 -0.56208,0 -0.86489,-0.16539 -1.0861,-0.59322 -0.22112,-0.42759 -0.1916,-0.59984 0.36184,-2.1114 0.28012,-0.76505 0.56623,-1.5686 0.63581,-1.7858 0.0696,-0.21711 0.26611,-0.77223 0.43675,-1.2336 0.94151,-2.5456 1.2577,-3.8123 1.3794,-5.5265 0.0405,-0.56993 0.13033,-1.8335 0.19967,-2.808 0.1544,-2.1696 0.0125,-5.1002 -0.31553,-6.5181 -0.31496,-1.3612 -1.2402,-3.1118 -2.1475,-4.063 -0.81459,-0.85401 -0.97439,-1.4173 -0.57161,-2.015 0.37814,-0.56111 0.97586,-0.73452 1.5316,-0.44434 0.39397,0.20571 2.0922,2.1835 2.0922,2.4367 0,0.0488 0.0444,0.0888 0.0987,0.0888 0.0543,0 0.0987,-0.0637 0.0987,-0.14161 0,-0.1554 0.49368,-1.3057 2.157,-5.0261 1.7654,-3.9485 2.5216,-6.5327 3.1101,-10.627 0.87105,-6.0612 0.81066,-11.04 -0.24052,-19.831 -0.34237,-2.8632 -0.54113,-3.9992 -0.89346,-5.1066 -0.1876,-0.58962 -1.4234,-3.7998 -1.6624,-4.3181 -0.14817,-0.32142 -0.60608,-1.3501 -0.79789,-1.7924 -0.29341,-0.67665 -1.6948,-3.2535 -2.4904,-4.5792 -1.9239,-3.206 -4.7363,-6.8912 -7.5412,-9.8818 -0.42182,-0.44974 -0.74713,-0.89231 -0.79794,-1.0856 -0.21592,-0.82132 0.32253,-1.5599 1.1372,-1.5599 0.46336,0 0.46813,0.003 1.6138,1.1733 1.8344,1.873 4.2082,4.8208 6.0887,7.5606 0.75703,1.103 2.2906,3.6467 2.2906,3.7994 0,0.0543 0.0402,0.0988 0.0894,0.0988 0.0492,0 0.0723,-0.0777 0.0513,-0.17271 -0.021,-0.095 -0.14788,-0.70562 -0.28202,-1.357 -0.13415,-0.65134 -0.38054,-1.7741 -0.54755,-2.4951 -0.79008,-3.4107 -1.4134,-7.4727 -1.6312,-10.63 -0.21373,-3.0984 -0.97845,-7.3971 -1.8083,-10.165 -0.41053,-1.3692 -1.8664,-5.4526 -2.1016,-5.8945 -0.0812,-0.1526 -0.16342,-0.12401 -0.78029,0.27139 -0.37922,0.24308 -0.70821,0.44196 -0.73107,0.44196 -0.13008,0 -2.7181,1.6027 -3.5278,2.1847 -2.7774,1.9963 -5.7965,5.216 -7.2684,7.7513 -0.50345,0.8672 -0.79918,1.1172 -1.3217,1.1172 -0.70674,0 -1.2602,-0.5224 -1.2602,-1.1895 0,-0.97173 2.5266,-4.4159 4.973,-6.7792 2.1157,-2.0437 3.7176,-3.2356 6.6616,-4.9565 0.94407,-0.55183 1.8989,-1.1442 2.1218,-1.3164 0.22292,-0.17216 0.41911,-0.31988 0.43597,-0.32826 0.0169,-0.0084 0.028,-0.65854 0.0248,-1.4448 -0.007,-1.6489 -0.0966,-2.6537 -0.50064,-5.5982 -0.16013,-1.167 -0.33908,-2.4993 -0.39766,-2.9606 -0.0586,-0.46137 -0.14989,-1.0911 -0.20291,-1.3994 -0.1148,-0.66754 -0.0494,-1.0033 0.28219,-1.4483 0.62787,-0.8427 1.9608,-0.74595 2.438,0.17696 0.26218,0.507 1.0732,5.9183 1.3839,9.2336 0.0356,0.37995 0.0683,1.357 0.0726,2.1711 0.008,1.526 0.0696,1.8882 0.5189,3.0593 0.12495,0.32567 0.42771,1.125 0.6728,1.7764 0.24509,0.65134 0.58425,1.5527 0.75369,2.003 0.67485,1.7936 1.5266,5.2276 1.9264,7.7671 0.0855,0.54279 0.19798,1.2311 0.25001,1.5297 0.052,0.29853 0.18484,1.4754 0.29511,2.6152 0.38512,3.9806 0.40097,4.1137 0.74055,6.2174 0.34767,2.1537 1.7144,8.7175 2.1268,10.214 0.11568,0.41983 1.0229,4.5718 1.1644,5.3292 0.11689,0.62549 0.49137,2.7648 0.84647,4.8357 0.8434,4.9186 1.4407,11.926 1.438,16.872 -0.002,4.0858 -0.33307,7.9667 -0.94279,11.057 -0.24201,1.2265 -1.1014,4.3548 -1.5588,5.6746 -0.27376,0.78977 -1.3589,3.2895 -2.1849,5.0331 -0.80405,1.6973 -1.4781,3.4296 -1.6897,4.3423 -0.16702,0.7206 -0.18191,1.2504 -0.17054,6.0693 0.008,3.3667 0.0537,5.5838 0.12629,6.1187 0.18995,1.3997 0.5685,2.7417 1.5311,5.4278 0.24312,0.67849 0.64763,1.8776 0.89889,2.6646 0.25126,0.787 0.49403,1.5198 0.53948,1.6284 0.53399,1.2754 1.2937,4.3549 1.7165,6.9575 0.50646,3.1179 0.59231,4.0668 0.59381,6.5628 8.2e-4,1.3671 -0.0543,2.9513 -0.12368,3.5528 -0.3862,3.3496 -1.0651,7.2183 -1.8098,10.313 -0.21552,0.8956 -0.43241,1.8282 -0.48199,2.0725 -0.0496,0.24425 -0.15883,0.75496 -0.24276,1.1349 -0.23835,1.0789 -0.82224,3.8499 -1.0294,4.8851 -0.18047,0.902 -0.33478,1.7357 -0.6439,3.4788 -0.0794,0.44779 -0.32139,1.7246 -0.53773,2.8373 -0.40739,2.0953 -0.77996,4.3546 -1.0416,6.316 -0.0833,0.6242 -0.21847,1.6234 -0.30047,2.2205 -0.15869,1.1553 -0.21018,3.1946 -0.0972,3.8488 0.0375,0.21711 0.2005,0.81664 0.36222,1.3323 0.62249,1.9847 0.70676,2.4919 0.69602,4.1895 l -0.01,1.5742 0.73383,0.93447 c 0.97463,1.2411 2.9138,3.3663 4.094,4.4866 0.57912,0.54977 1.4062,1.1948 2.1088,1.6447 2.8015,1.7938 4.1601,2.7121 4.5769,3.0936 1.6308,1.493 2.137,3.42 1.3072,4.9768 -0.42364,0.79482 -1.0261,1.3416 -1.9469,1.7671 -1.1814,0.54583 -1.8697,0.64974 -6.396,0.96552 -1.1941,0.0833 -2.7707,0.19445 -3.5034,0.24698 -5.2526,0.3765 -6.7765,0.35621 -8.4872,-0.11301 -1.5282,-0.41917 -3.365,-1.6387 -4.3018,-2.8562 -0.42224,-0.54873 -0.46978,-0.57895 -1.3003,-0.82661 -2.3342,-0.69607 -3.5277,-1.522 -4.2844,-2.9648 -0.79139,-1.5088 -0.78131,-3.6062 0.0332,-6.9047 0.68447,-2.772 0.69559,-2.8345 0.64109,-3.6021 -0.0289,-0.40709 -0.17394,-1.1843 -0.32229,-1.727 -0.23093,-0.84488 -0.27006,-1.1786 -0.27193,-2.3192 -0.001,-0.91513 0.0473,-1.5177 0.15576,-1.9244 0.39597,-1.4846 0.65966,-2.6222 0.75927,-3.2756 0.47529,-3.1181 -0.70498,-10.38 -2.8839,-17.745 -0.60204,-2.0348 -1.3001,-3.8797 -2.5544,-6.7507 -0.76947,-1.7613 -1.1475,-2.6831 -1.7149,-4.1826 -0.2369,-0.62594 -0.70436,-2.5123 -0.97124,-3.9193 -0.84417,-4.4504 -0.84597,-8.3384 -0.006,-13.126 0.79403,-4.5258 0.97355,-6.1658 0.90688,-8.2853 -0.0626,-1.9896 -0.15846,-2.3947 -1.0066,-4.2526 -0.65734,-1.44 -1.1686,-2.7974 -1.5885,-4.2179 -0.18109,-0.61255 -0.35095,-1.1488 -0.37747,-1.1917 -0.20796,-0.33649 -1.0577,-4.282 -1.3844,-6.4285 -0.16288,-1.0699 -0.20774,-1.4649 -0.79161,-6.9691 -0.36293,-3.4214 -0.52052,-4.3909 -1.097,-6.7486 -0.3602,-1.4732 -1.3648,-5.0767 -1.522,-5.4593 -0.31806,-0.77425 -2.0097,-6.7447 -2.7033,-9.5414 -0.75741,-3.0536 -1.0625,-4.588 -1.442,-7.2536 -0.11595,-0.81418 -0.26665,-1.8134 -0.33489,-2.2205 l -0.12409,-0.74016 -0.12562,0.88819 c -0.22736,1.6075 -0.89082,5.5086 -1.0994,6.4641 -0.56871,2.6058 -1.458,6.0418 -2.1073,8.1418 -0.23494,0.7599 -0.57216,1.9146 -0.74937,2.5659 -0.1772,0.65135 -0.38661,1.3619 -0.46535,1.579 -0.13345,0.36797 -0.2736,0.83447 -0.815372,2.7139 -0.47692,1.6545 -1.0199,3.8727 -1.244,5.0824 -0.28815,1.5552 -0.39429,2.3935 -0.87468,6.9082 -0.46319,4.353 -0.74952,6.2553 -1.3444,8.9313 -0.36808,1.6559 -1.5634,5.2578 -2.3099,6.96 -0.94249,2.1494 -1.1046,2.6602 -1.2361,3.8957 -0.14758,1.3859 -0.07719,2.7977 0.2559,5.1318 0.13555,0.94987 0.26539,1.7937 0.28853,1.8751 0.03789,0.13332 0.3014,1.8638 0.54099,3.5528 0.42412,2.9897 0.56019,5.4591 0.40243,7.3029 -0.33973,3.9704 -0.89185,6.6236 -1.951,9.3754 -0.53708,1.3954 -0.71662,1.8216 -1.663,3.9475 -0.77252,1.7354 -1.6145,3.9354 -1.964,5.1318 -0.18235,0.6242 -0.48965,1.6678 -0.68289,2.3192 -1.0702,3.6073 -2.1404,9.0596 -2.4247,12.353 -0.24755,2.8678 -0.14345,3.9186 0.69247,6.9899 0.31956,1.1741 0.30495,2.9019 -0.03629,4.293 -0.39311,1.6025 -0.45052,1.8843 -0.41939,2.0586 0.01591,0.089 0.05986,0.38394 0.09768,0.65533 0.03782,0.2714 0.22082,1.1152 0.40668,1.8751 0.58042,2.3731 0.74684,3.316 0.80498,4.5609 0.09148,1.9588 -0.25705,3.0884 -1.313,4.2552 -0.78742,0.87012 -1.8676,1.4488 -3.8368,2.0556 -0.52289,0.16111 -0.64978,0.25585 -1.1349,0.84736 -1.0046,1.2248 -2.7598,2.3384 -4.311,2.735 -1.3619,0.34821 -3.1801,0.44772 -5.3145,0.29085 z m 9.5715,-82.796 c -0.30204,-0.1553 -0.6402,-0.70988 -0.6402,-1.0499 0,-0.35862 0.08493,-0.52885 0.75678,-1.5168 1.0717,-1.576 1.6789,-3.3353 1.9022,-5.5118 0.1198,-1.1674 0.27439,-1.5003 0.80862,-1.7412 0.6807,-0.30695 1.3433,-0.0539 1.6295,0.6222 0.11555,0.27303 0.11354,0.50743 -0.01366,1.5959 -0.27202,2.3277 -1.0965,4.64 -2.2757,6.3823 -0.73348,1.0838 -0.92222,1.2461 -1.4969,1.2875 -0.2596,0.0187 -0.56138,-0.012 -0.67064,-0.0682 z m 47.299,-0.32159 c -1.5254,-1.5433 -2.6778,-4.3616 -3.0339,-7.4196 -0.14038,-1.2056 -0.0336,-1.6486 0.48086,-1.9948 0.38849,-0.26142 0.67101,-0.28202 1.146,-0.0836 0.46389,0.19382 0.73831,0.67253 0.73887,1.2889 4.7e-4,0.51611 0.16949,1.4307 0.51068,2.7633 0.22955,0.89657 0.8089,2.1215 1.5169,3.2074 0.87011,1.3344 0.92545,1.5962 0.46454,2.1972 -0.29481,0.38447 -0.47126,0.46396 -1.0345,0.46602 -0.30432,0.001 -0.44156,-0.0727 -0.78951,-0.42476 z m -52.923,-32.87 c -0.16286,-0.071 -0.35462,-0.19955 -0.42614,-0.28573 -0.11248,-0.13553 -0.87184,-2.3185 -1.106,-3.1796 -0.04429,-0.16284 -0.19775,-0.71796 -0.34102,-1.2336 -0.24446,-0.87984 -0.83676,-3.4674 -1.1747,-5.1318 -0.64797,-3.1915 -1.0213,-7.7999 -0.91034,-11.236 0.13473,-4.1706 0.57017,-7.9619 1.0138,-8.8267 0.29521,-0.57551 1.0376,-0.81086 1.6154,-0.51208 0.54564,0.28217 0.70892,0.9652 0.49769,2.082 -0.08837,0.46722 -0.25866,1.7908 -0.51913,4.035 -0.16462,1.4183 -0.16388,6.7608 0.0012,8.6352 0.12432,1.4117 0.40152,3.6368 0.62088,4.9838 0.31488,1.9336 1.2962,5.855 2.0158,8.0552 0.48996,1.4981 0.50842,1.6389 0.27836,2.1238 -0.27087,0.57081 -0.91709,0.77329 -1.5657,0.49059 z m 58.909,-0.0469 c -0.39491,-0.18267 -0.62909,-0.52545 -0.65496,-0.95869 -0.006,-0.10446 0.14747,-0.67844 0.34158,-1.2755 0.1941,-0.59707 0.5153,-1.7073 0.71378,-2.4672 0.19847,-0.7599 0.46565,-1.7591 0.59373,-2.2205 0.36316,-1.3082 0.80524,-3.6231 1.0805,-5.658 0.65595,-4.8488 0.66952,-9.4783 0.0414,-14.129 -0.30964,-2.2928 -0.33374,-2.8227 -0.14495,-3.1877 0.40284,-0.77902 1.4762,-0.81064 1.9418,-0.0572 0.21912,0.35454 0.56768,2.1818 0.83546,4.3798 0.21822,1.7912 0.30613,7.1993 0.15324,9.4278 -0.33962,4.9504 -1.3396,10.036 -2.8501,14.495 -0.50164,1.4809 -0.64348,1.6747 -1.3039,1.7811 -0.23031,0.0371 -0.47946,-0.006 -0.74769,-0.1304 z"
         clip-path="url(#clipPath81)"
         id="lower"
         transform="matrix(0.34404505,0,0,0.22979866,68.869974,102.48105)" /></g></g></svg>
