<?xml version="1.0" encoding="UTF-8" standalone="no"?>
<!-- Created with Inkscape (http://www.inkscape.org/) -->

<svg
   width="33.866665mm"
   height="33.866665mm"
   viewBox="0 0 33.866665 33.866665"
   version="1.1"
   id="svg1"
   xml:space="preserve"
   xmlns="http://www.w3.org/2000/svg"
   xmlns:svg="http://www.w3.org/2000/svg"><defs
     id="defs1"><clipPath
       id="clipPath19"><rect
         x="-2.2690001"
         y="69.583"
         width="225.39"
         height="120.51"
         stroke-width="0.26458"
         id="rect1-4" /><rect
         x="69.079002"
         y="165.64"
         width="108.66"
         height="55.213001"
         stroke-width="0.26458"
         id="rect2" /></clipPath></defs><g
     id="layer1"
     transform="translate(-88.06667,-131.56667)"><g
       id="g12"><path
         transform="matrix(0.19477183,0,0,0.24288653,84.176358,111.79112)"
         d="m 74.879,255.17 c -0.43643,-0.20436 -0.86729,-0.69552 -0.93724,-1.0684 -0.05301,-0.28256 0.17494,-2.1095 1.0237,-8.204 0.3451,-2.4781 0.96502,-6.332 1.5777,-9.8082 0.40195,-2.2806 1.4236,-7.0343 1.7521,-8.1522 1.1726,-3.9911 1.2882,-4.9096 1.32,-10.488 0.05383,-9.4573 -0.29512,-13.447 -1.6447,-18.804 -0.33003,-1.3101 -0.43464,-1.5389 -1.3009,-2.8452 -4.9444,-7.4558 -7.7617,-13.63 -9.1476,-20.046 -0.14627,-0.67723 -0.27956,-1.247 -0.2962,-1.2662 -0.01664,-0.0192 -0.32664,0.10196 -0.68889,0.26919 -0.90685,0.41863 -2.0544,0.83367 -3.461,1.2517 -0.65388,0.19435 -1.3608,0.40497 -1.571,0.46804 -0.82949,0.24891 -2.9332,0.63709 -4.3793,0.80806 -1.7459,0.20642 -5.0923,0.28785 -6.6602,0.16208 -2.7245,-0.21855 -5.0784,-0.53635 -7.4304,-1.0032 -1.6794,-0.33333 -3.3462,-0.60375 -5.3075,-0.86108 -2.7623,-0.36243 -3.3884,-0.47717 -4.3239,-0.79229 -1.2602,-0.4245 -2.5795,-1.2799 -3.2657,-2.1174 -0.55024,-0.67149 -1.1514,-1.7664 -1.4053,-2.5597 -0.3283,-1.0256 -0.43114,-1.837 -0.43114,-3.4013 0,-0.71617 -0.07549,-2.0222 -0.16776,-2.9023 -0.64158,-6.12 -0.40433,-10.163 0.90369,-15.4 0.23952,-0.95891 1.2526,-4.0797 1.6402,-5.0527 0.13025,-0.32694 0.51419,-1.3205 0.85322,-2.2079 0.33902,-0.88741 0.74897,-1.9574 0.911,-2.3777 0.38,-0.98585 1.0886,-3.0446 1.2476,-3.6248 0.06803,-0.24825 0.18258,-0.66153 0.25456,-0.91841 0.19894,-0.70995 0.87331,-4.1033 0.98726,-4.9678 0.05541,-0.42035 0.07884,-1.0757 0.05207,-1.4563 -0.05299,-0.75328 -0.13038,-0.95139 -1.0732,-2.7472 -0.56881,-1.0834 -1.0324,-2.1782 -1.3297,-3.1402 -0.20585,-0.66602 -0.5206,-2.0722 -0.56114,-2.5069 l -0.02375,-0.25476 -5.3924,-0.0425 c -2.9666,-0.0234 -5.4688,-0.0773 -5.5622,-0.11997 -0.41392,-0.1889 -0.67305,-0.44799 -0.86299,-0.86288 l -0.2043,-0.44625 0.02413,-4.4443 c 0.02718,-5.0073 -0.0076,-4.7452 0.69438,-5.2317 l 0.33414,-0.2316 5.3534,-0.0231 c 4.1179,-0.0178 5.3687,-0.0472 5.4196,-0.12738 0.03643,-0.0573 0.06724,-0.21891 0.06846,-0.35903 0.0047,-0.54233 0.41061,-1.5209 0.92127,-2.221 0.36948,-0.5066 1.2274,-1.086 1.9844,-1.3401 0.76078,-0.25539 1.746,-0.29272 2.4099,-0.0913 0.22927,0.0696 0.42577,0.12688 0.43666,0.12738 0.01089,5.1e-4 0.11293,-0.18286 0.22675,-0.40747 0.72558,-1.4319 2.1286,-2.309 3.6933,-2.309 0.64225,0 1.5875,0.18632 1.7455,0.34406 0.16361,0.16334 0.33828,0.0688 0.78508,-0.42493 0.82168,-0.90799 1.841,-1.3628 3.0546,-1.3628 1.4668,0 2.9381,0.82113 3.614,2.0168 0.13859,0.2452 0.28705,0.46749 0.32991,0.49398 0.04286,0.0265 0.29716,-0.0159 0.5651,-0.0941 1.414,-0.41304 3.0562,0.0358 4.1102,1.1234 0.89156,0.91999 1.179,1.688 1.2496,3.3384 l 0.05268,1.2313 28.853,0.043 -0.05564,-0.40361 c -0.0306,-0.22199 -0.07851,-1.3972 -0.10647,-2.6115 -0.09275,-4.0284 0.34507,-6.8208 1.5466,-9.8644 1.0535,-2.6686 2.5069,-4.9272 4.4935,-6.9828 1.7834,-1.8454 3.5851,-3.1796 5.7752,-4.2767 4.3534,-2.1808 9.5296,-2.7477 14.479,-1.5859 2.7111,0.63644 5.9496,2.2495 8.2372,4.1027 0.91131,0.7383 2.4104,2.2543 3.1585,3.1943 2.4285,3.051 3.9704,6.7119 4.5424,10.785 0.15143,1.0783 0.21204,4.7432 0.11165,6.7511 l -0.0425,0.8492 h 28.788 l 0.009,-0.97657 c 0.01,-1.1278 0.16115,-1.8176 0.56424,-2.5739 0.5457,-1.0238 1.5156,-1.8297 2.5945,-2.1558 0.62149,-0.18782 1.7878,-0.18499 2.2994,0.006 0.20437,0.0761 0.40135,0.13839 0.43772,0.13839 0.0364,0 0.1795,-0.20086 0.31806,-0.44637 0.70398,-1.2474 2.18,-2.1012 3.6324,-2.1012 1.2325,0 2.384,0.51496 3.1592,1.4129 0.2162,0.25042 0.44465,0.45532 0.50766,0.45532 0.063,0 0.27478,-0.0817 0.47058,-0.18162 0.45169,-0.23044 1.615,-0.30994 2.373,-0.16217 1.1146,0.21731 2.2157,1.0546 2.7692,2.1059 0.15371,0.29191 0.30589,0.53017 0.33818,0.52946 0.0323,-7e-4 0.21157,-0.0563 0.39839,-0.12365 0.45411,-0.1636 1.5515,-0.16134 2.1956,0.005 1.5655,0.4031 2.7775,1.7654 3.0594,3.4387 l 0.1062,0.63046 10.786,0.085 0.29858,0.20464 c 0.16422,0.11255 0.39067,0.33903 0.50322,0.50329 l 0.20464,0.29865 v 4.5494 c 0,4.449 -0.004,4.5569 -0.1774,4.8891 -0.0976,0.18682 -0.33967,0.45431 -0.53799,0.59443 l -0.36059,0.25476 -10.895,0.085 -0.0969,0.67935 c -0.22903,1.6057 -0.83694,3.3462 -1.8296,5.2385 -1.0882,2.0743 -1.0409,1.9316 -1.036,3.126 0.004,1.0606 0.0413,1.3133 0.59539,4.0761 0.45722,2.2797 1.1169,4.4543 2.151,7.0908 0.2931,0.74729 0.77236,1.9701 1.065,2.7174 0.50995,1.3021 1.6166,4.5266 1.9818,5.7745 0.4588,1.5676 1.1182,5.2469 1.2811,7.1478 0.18546,2.1644 0.091,5.9239 -0.21525,8.5622 -0.0705,0.60718 -0.16244,2.0593 -0.20439,3.2269 -0.0508,1.4156 -0.12134,2.3069 -0.21157,2.675 -0.56138,2.2901 -1.8768,3.9515 -3.9083,4.9362 -1.1774,0.57069 -1.9551,0.73328 -6.2416,1.3049 -0.58382,0.0779 -2.399,0.3871 -4.0337,0.68722 -4.0866,0.75028 -4.4268,0.80074 -6.512,0.96589 -3.8248,0.30292 -7.5044,0.11831 -10.737,-0.53866 -1.8536,-0.37677 -5.1705,-1.4196 -6.8044,-2.1394 l -0.44543,-0.19621 -0.0416,0.18622 c -0.67559,3.0224 -1.0482,4.362 -1.796,6.4575 -1.6194,4.5376 -3.669,8.5824 -6.7839,13.388 -1.8609,2.8707 -1.7368,2.624 -2.1649,4.3022 -0.63999,2.5085 -1.0567,4.9612 -1.3106,7.7139 -0.2701,2.9283 -0.31714,4.6544 -0.28119,10.318 0.0428,6.7433 0.0755,7.0566 1.0824,10.36 0.30534,1.0018 0.71196,2.6257 0.88242,3.5242 0.0709,0.37365 0.26642,1.3099 0.43451,2.0805 0.77912,3.572 1.7115,9.2669 2.8434,17.367 0.53448,3.8249 0.53731,3.8862 0.20542,4.448 -0.2022,0.34229 -0.85651,0.68826 -1.3016,0.68826 -0.63937,0 -1.373,-0.53454 -1.4831,-1.0807 -0.13709,-0.6797 -0.33017,-2.0021 -0.59854,-4.0994 -0.98078,-7.6649 -2.4171,-15.881 -3.5629,-20.381 -0.2557,-1.0042 -0.62249,-2.4372 -0.81508,-3.1845 -0.50955,-1.9772 -0.66723,-3.1516 -0.77532,-5.7745 -0.12257,-2.9744 -0.0399,-11.088 0.13286,-13.035 0.18018,-2.0312 0.2944,-3.1972 0.37197,-3.7973 0.0533,-0.41229 0.0455,-0.50906 -0.0356,-0.44179 -0.0571,0.0474 -0.65631,0.81995 -1.3316,1.7168 -1.3635,1.8109 -1.4412,1.895 -1.9027,2.0596 -0.48002,0.1712 -0.79271,0.14794 -1.2807,-0.0952 -0.58455,-0.29129 -0.81248,-0.66128 -0.81248,-1.3188 0,-0.61436 -0.008,-0.60126 2.1088,-3.3605 1.923,-2.5062 2.9333,-3.8915 4.9063,-6.7269 4.2277,-6.0756 6.734,-10.699 8.4524,-15.592 0.63232,-1.8006 1.0351,-3.1036 1.0351,-3.3486 0,-0.17091 -0.012,-0.17573 -0.13388,-0.0538 -0.25309,0.25309 -2.2024,1.5532 -3.1107,2.0746 -2.1802,1.2518 -4.3467,2.0317 -6.535,2.3526 -1.1616,0.17035 -3.3752,0.13112 -4.5056,-0.0799 -2.0465,-0.38196 -5.1293,-1.7659 -6.8352,-3.0684 -0.21372,-0.16319 -0.41623,-0.29671 -0.45002,-0.29671 -0.0338,0 -0.18686,0.33437 -0.34015,0.74304 -0.2934,0.78217 -0.41004,1.0518 -1.1665,2.6962 -0.65046,1.414 -1.0739,2.1994 -2.2434,4.161 -1.5757,2.6431 -1.7587,2.8439 -2.5913,2.8445 -0.55321,4e-4 -0.8443,-0.10845 -1.1952,-0.44695 -0.62055,-0.59856 -0.58068,-1.4729 0.10931,-2.3975 0.43461,-0.58239 1.633,-2.6355 2.3752,-4.0693 2.3043,-4.4514 3.2874,-7.6811 3.6976,-12.147 0.14721,-1.6027 0.56295,-2.8113 1.4033,-4.0795 0.71327,-1.0765 2.0013,-2.3013 3.3914,-3.225 0.87544,-0.58171 2.8634,-1.6295 3.8211,-2.014 1.0821,-0.43443 1.9748,-0.0195 2.2611,1.0509 0.22696,0.84856 -0.21254,1.4839 -1.3694,1.9796 -2.3973,1.0272 -4.4285,2.4668 -5.3986,3.8263 -0.72897,1.0216 -0.98322,1.8065 -1.0989,3.3924 -0.0708,0.9705 -0.25279,2.3021 -0.4678,3.4223 -0.0923,0.4811 -0.16789,0.92325 -0.16789,0.98255 0,0.14458 1.2842,1.0915 2.3385,1.7244 1.57,0.94239 3.2485,1.6011 4.7036,1.8459 4.4335,0.7458 9.5746,-1.5403 14.685,-6.53 1.1971,-1.1688 2.2611,-2.3347 2.9956,-3.2825 1.2794,-1.6509 1.7699,-2.1814 2.1521,-2.3273 0.72796,-0.27801 1.5367,-0.0105 1.8949,0.62671 0.23172,0.41231 0.24857,1.1234 0.0357,1.5056 -0.17421,0.31275 -1.3514,1.8187 -2.2043,2.8201 -0.33862,0.39752 -0.61566,0.75026 -0.61566,0.78386 0,0.1267 2.911,1.2332 3.9063,1.4848 0.25688,0.0649 0.98294,0.24965 1.6135,0.41048 2.2842,0.58262 4.3155,0.8327 6.9209,0.85208 2.913,0.0217 4.9714,-0.18414 8.3646,-0.83631 1.968,-0.37825 5.633,-0.97633 7.7701,-1.268 2.2849,-0.3118 2.762,-0.4414 3.579,-0.97219 0.87885,-0.57101 1.4552,-1.327 1.8209,-2.3888 0.16787,-0.48732 0.19768,-0.80065 0.25449,-2.675 0.0354,-1.1676 0.13088,-2.7535 0.21219,-3.5242 0.18864,-1.7876 0.21903,-6.7476 0.0507,-8.2796 -0.22724,-2.0687 -0.49812,-3.507 -0.99959,-5.3074 -0.35433,-1.2722 -0.83976,-2.8542 -1.0553,-3.4392 -0.67506,-1.8324 -1.3216,-3.5377 -1.4488,-3.8214 -1.4956,-3.3354 -2.9272,-8.4426 -3.4398,-12.271 -0.24699,-1.8446 -0.0469,-3.2404 0.66333,-4.6281 1.0831,-2.1162 1.2775,-2.5339 1.5403,-3.3096 0.82575,-2.4374 0.92475,-3.5126 0.88761,-9.6406 -0.0258,-4.2612 -0.0345,-4.473 -0.19686,-4.7925 -0.0934,-0.18381 -0.27775,-0.41309 -0.40964,-0.50951 -0.31992,-0.2339 -0.88198,-0.22243 -1.2296,0.0251 -0.43332,0.30855 -0.48378,0.60206 -0.48378,2.8142 0,1.8662 -0.0119,2.0214 -0.18356,2.3928 -0.24951,0.53988 -0.73256,0.85604 -1.3739,0.89923 -0.42016,0.0283 -0.53074,1.4e-4 -0.87928,-0.22383 -0.71788,-0.46129 -0.69952,-0.35783 -0.74773,-4.2146 -0.04,-3.2017 -0.0522,-3.4133 -0.2123,-3.6851 -0.47283,-0.80274 -1.401,-0.86067 -1.8883,-0.11787 -0.13381,0.20396 -0.15432,0.55042 -0.19225,3.247 l -0.0425,3.0187 -0.23278,0.39598 c -0.5511,0.93747 -1.6773,1.0929 -2.4645,0.3401 -0.17572,-0.16805 -0.35702,-0.44063 -0.40289,-0.60573 -0.0481,-0.17317 -0.0838,-1.7374 -0.0843,-3.697 -6.2e-4,-2.2204 -0.0335,-3.5141 -0.095,-3.7355 -0.13737,-0.49484 -0.59159,-0.89264 -1.0192,-0.89264 -0.42947,0 -0.7721,0.17728 -1.0233,0.52946 l -0.19776,0.27727 -0.0425,3.7789 c -0.0419,3.7259 -0.0452,3.784 -0.23521,4.1397 -0.62483,1.1696 -2.2815,1.1097 -2.8321,-0.10254 -0.13957,-0.30727 -0.15613,-0.60099 -0.15822,-2.8058 -0.001,-1.4114 -0.0395,-2.5963 -0.0893,-2.7756 -0.1004,-0.36149 -0.47245,-0.70886 -0.84743,-0.79122 -0.39656,-0.0871 -1.0056,0.25058 -1.2257,0.67961 -0.16969,0.33072 -0.17541,0.49887 -0.21675,6.3753 l -0.0425,6.0356 -0.20465,0.29856 c -0.11255,0.16421 -0.33887,0.39065 -0.50293,0.5032 -0.28156,0.19315 -0.37883,0.20615 -1.7328,0.23153 l -1.4345,0.0269 0.0541,0.27033 c 0.13695,0.68478 0.50459,1.6511 0.81537,2.1432 0.55096,0.87239 1.2789,1.4497 3.1328,2.4846 1.0439,0.58271 3.0876,1.8353 3.5507,2.1763 0.89774,0.66088 1.2537,1.2826 1.9187,3.3512 0.57766,1.7969 1.0409,3.9318 1.3652,6.2922 0.28394,2.0665 0.2479,5.0519 -0.0877,7.2606 -0.17431,1.1473 -0.25796,4.7904 -0.1341,5.8405 0.0526,0.44639 0.1923,1.302 0.31036,1.9013 0.56543,2.8707 1.255,4.2192 3.8107,7.4515 0.95561,1.2086 -0.51859,2.9479 -1.9226,2.2683 -0.59332,-0.28723 -1.7392,-1.7412 -2.987,-3.7902 -0.5364,-0.8808 -0.8075,-1.2329 -1.2387,-1.6088 -3.1414,-2.7389 -7.8439,-3.8594 -12.08,-2.8784 -0.31526,0.073 -0.57321,0.17117 -0.57321,0.21812 0,0.047 0.28597,0.53676 0.63549,1.0885 0.55418,0.87476 0.90447,1.5068 1.9043,3.436 0.17224,0.33233 0.22006,0.54744 0.22006,0.98992 0,0.50577 -0.0278,0.5997 -0.26376,0.89165 -0.3789,0.46879 -0.69781,0.62876 -1.2669,0.63556 -0.40089,0.005 -0.54637,-0.0364 -0.83603,-0.23663 -0.3002,-0.20754 -0.44991,-0.44044 -1.0399,-1.6179 -1.4372,-2.868 -3.239,-5.2522 -5.3401,-7.0661 -2.1234,-1.8332 -4.4371,-2.9775 -7.0907,-3.507 -0.85129,-0.16986 -1.2217,-0.1942 -2.8873,-0.1897 -1.6313,0.004 -2.0349,0.0321 -2.7599,0.18968 -1.132,0.24599 -2.1654,0.54345 -2.1654,0.62332 0,0.0356 0.18346,0.28639 0.40769,0.55737 0.49776,0.60154 1.2699,1.6457 1.5931,2.1544 0.46906,0.73821 0.26694,1.6638 -0.46615,2.1348 -0.3494,0.22445 -0.44534,0.24641 -0.95861,0.21946 -0.65189,-0.0342 -0.84601,-0.16985 -1.4333,-1.0013 -2.489,-3.5238 -5.494,-5.7962 -9.3609,-7.0791 -0.82697,-0.27435 -1.3468,-0.50425 -1.7576,-0.77735 -1.7351,-1.1535 -2.6371,-3.5119 -2.8777,-7.5243 -0.10983,-1.8316 -0.002,-3.0322 0.37825,-4.1959 0.31741,-0.97237 0.69063,-1.5249 1.8564,-2.7485 1.4505,-1.5225 2.4411,-3.0152 3.2178,-4.8491 0.63565,-1.5008 0.7833,-2 1.2934,-4.3733 0.0803,-0.37365 0.19783,-0.8919 0.26113,-1.1517 0.31188,-1.2798 1.0792,-5.574 1.3478,-7.5425 0.21559,-1.58 0.37205,-3.5617 0.47289,-5.9898 0.16011,-3.8551 -0.11133,-6.0223 -1.1496,-9.1783 -0.62684,-1.9053 -2.0588,-4.2761 -3.6227,-5.9976 -2.1719,-2.3909 -5.48,-4.4206 -8.6061,-5.2803 -3.2142,-0.8839 -7.0354,-0.79846 -10.16,0.22718 -3.6347,1.193 -6.792,3.4846 -9.0831,6.5925 -1.0468,1.42 -2.0037,3.2395 -2.4788,4.713 -0.95416,2.9597 -1.2329,5.2931 -1.0804,9.0439 0.1482,3.645 0.48349,6.4747 1.2477,10.53 0.11882,0.63053 0.25198,1.3375 0.29592,1.571 0.30398,1.6157 1.1056,4.9218 1.3692,5.6471 0.87304,2.402 2.091,4.4056 3.6061,5.9319 1.016,1.0236 1.2969,1.3801 1.6717,2.1223 0.75219,1.4893 0.8939,4.2476 0.38134,7.4226 -0.30875,1.9126 -0.78764,3.1508 -1.5856,4.0997 -0.68103,0.80986 -1.3361,1.2329 -2.4823,1.6028 -3.8223,1.2338 -6.7956,3.3618 -9.1476,6.5468 -0.98925,1.3396 -1.0137,1.3673 -1.3492,1.5265 -0.35486,0.1684 -1.0387,0.18666 -1.3326,0.0356 -0.27675,-0.14227 -0.65336,-0.51037 -0.79024,-0.77238 -0.06589,-0.12612 -0.1198,-0.43668 -0.1198,-0.69014 0,-0.43643 0.03418,-0.50972 0.64549,-1.3842 0.35502,-0.50782 0.84459,-1.1717 1.0879,-1.4753 0.24334,-0.30359 0.46809,-0.59502 0.49944,-0.64762 0.03806,-0.0639 -0.27404,-0.18161 -0.93932,-0.35436 -1.6427,-0.42658 -2.1296,-0.48412 -4.0959,-0.48407 -1.56,4e-5 -1.9679,0.0283 -2.8023,0.19408 -1.385,0.27518 -2.4238,0.6321 -3.6922,1.2686 -1.7929,0.89961 -3.0206,1.7958 -4.5026,3.2866 -1.6051,1.6146 -3.0466,3.6715 -4.2882,6.1189 -0.80041,1.5777 -1.0138,1.7739 -1.8776,1.7265 -0.63896,-0.0351 -1.0215,-0.26042 -1.3531,-0.79706 -0.32927,-0.53277 -0.2714,-1.0348 0.23422,-2.0319 0.47663,-0.93992 0.98293,-1.8268 1.8356,-3.2154 0.31158,-0.50744 0.56651,-0.9504 0.56651,-0.98436 0,-0.22878 -2.1299,-0.53235 -3.7364,-0.53254 -1.863,-2.2e-4 -3.2945,0.2731 -5.2225,0.9971 -1.8756,0.70434 -4.0543,2.2885 -4.6268,3.3644 -0.43795,0.82291 -1.7044,2.6686 -2.3394,3.4094 -0.68722,0.80173 -1.0795,1.0287 -1.6892,0.97742 -0.82462,-0.0694 -1.4455,-0.72474 -1.4336,-1.5132 0.0065,-0.43415 0.20353,-0.85045 0.68693,-1.4518 1.8198,-2.2638 2.6047,-3.6785 3.1199,-5.6234 0.48201,-1.8197 0.58731,-2.792 0.59,-5.448 0.0022,-2.1582 -0.02288,-2.6411 -0.20277,-3.9063 -0.17191,-1.209 -0.20539,-1.7817 -0.20605,-3.5242 -8.4e-4,-2.2117 0.06215,-2.9291 0.45858,-5.2225 0.29328,-1.6967 0.60061,-2.9684 1.095,-4.5307 0.55193,-1.7443 0.76059,-2.1483 1.4704,-2.847 0.51937,-0.51126 1.0317,-0.85405 3.3152,-2.2182 2.8371,-1.6949 3.275,-2.0267 3.775,-2.8609 0.27496,-0.45874 0.71962,-1.6424 0.81538,-2.1706 l 0.05004,-0.27599 -1.2929,-0.002 c -1.0665,-0.002 -1.3525,-0.0289 -1.6333,-0.1565 -0.486,-0.22079 -0.86892,-0.68863 -0.92741,-1.1331 -0.02638,-0.20047 -0.05769,-2.9248 -0.06958,-6.0541 -0.02153,-5.6675 -0.02234,-5.6912 -0.20922,-6.0963 -0.42727,-0.9262 -1.6444,-0.93003 -2.0303,-0.006 -0.09045,0.21649 -0.11751,0.85554 -0.11895,2.8093 -0.0017,2.2699 -0.01784,2.5642 -0.15776,2.8723 -0.54573,1.2014 -2.1211,1.2791 -2.7921,0.1377 l -0.23278,-0.39597 -0.04246,-3.7789 c -0.03104,-2.763 -0.07048,-3.8278 -0.1467,-3.9608 -0.48644,-0.84891 -1.6137,-0.82272 -2.0578,0.0478 -0.166,0.32538 -0.17328,0.48488 -0.17374,3.8035 -3.1e-4,2.2652 -0.03292,3.5807 -0.09424,3.8016 -0.17442,0.62825 -0.90533,1.1506 -1.6037,1.146 -0.57886,-0.004 -1.2729,-0.56677 -1.4399,-1.1679 -0.05212,-0.18766 -0.08795,-1.453 -0.08831,-3.1181 -5.4e-4,-2.4996 -0.01665,-2.8338 -0.14908,-3.0935 -0.21522,-0.42207 -0.54062,-0.63125 -0.95662,-0.61495 -0.44188,0.0173 -0.6136,0.11133 -0.90802,0.49713 l -0.23698,0.31052 -0.08492,6.9048 -0.23362,0.3528 c -0.65226,0.98502 -2.1492,0.8887 -2.7148,-0.17468 -0.18129,-0.34081 -0.19432,-0.48338 -0.2352,-2.5728 -0.04808,-2.4573 -0.06741,-2.5433 -0.63242,-2.8128 -0.55087,-0.26269 -1.2048,0.0369 -1.5002,0.68726 -0.147,0.32366 -0.15743,0.6551 -0.15917,5.0599 -0.0021,5.2237 0.05562,6.128 0.50649,7.9394 0.37757,1.517 0.75732,2.4375 1.8082,4.3834 0.99867,1.8492 1.1308,3.3686 0.56383,6.4862 -0.2175,1.1961 -0.31899,1.6608 -0.88086,4.0337 -0.31058,1.3116 -1.191,3.945 -1.8738,5.6047 -0.4053,0.98513 -1.0589,2.668 -1.7645,4.5432 -0.2109,0.56047 -0.48563,1.363 -0.61052,1.7833 -0.12489,0.4203 -0.27804,0.91712 -0.34036,1.104 -0.4259,1.2769 -0.94042,3.8424 -1.2007,5.9868 -0.20906,1.7225 -0.20909,5.9672 -4.9e-5,8.1522 0.26979,2.8201 0.30515,3.4268 0.25252,4.3328 -0.06197,1.0667 0.10572,2.0538 0.4838,2.8479 0.32187,0.67604 1.2342,1.6142 1.9173,1.9714 0.6933,0.36258 1.2125,0.48259 3.1857,0.73636 1.9853,0.25532 6.091,0.91615 7.1649,1.1532 3.3111,0.73095 7.5004,1.1077 10.384,0.9339 3.3837,-0.20397 5.9145,-0.73164 9.3258,-1.9444 1.2485,-0.44388 1.7521,-0.62947 1.8102,-0.66712 0.04003,-0.026 -0.30057,-0.46312 -1.0515,-1.3496 -0.90658,-1.0702 -1.6786,-2.0729 -1.8406,-2.3908 -0.188,-0.36875 -0.20672,-1.0379 -0.03807,-1.3607 0.44192,-0.84589 1.6629,-1.1281 2.3562,-0.5447 0.14792,0.12446 0.63299,0.6858 1.0779,1.2474 1.7088,2.1569 2.9174,3.4881 4.3892,4.8343 3.4909,3.1931 6.3951,4.8802 9.8899,5.7451 1.0316,0.25532 2.9924,0.31706 4.0761,0.12835 1.674,-0.29151 3.6512,-1.1201 5.3924,-2.2598 1.1223,-0.73463 1.7456,-1.2423 1.6949,-1.3806 -0.094,-0.2567 -0.46044,-2.6712 -0.55029,-3.626 -0.18292,-1.9437 -0.29076,-2.43 -0.73298,-3.3058 -0.31987,-0.63347 -0.56465,-0.96846 -1.1722,-1.6043 -1.103,-1.1543 -2.2687,-1.9097 -4.7373,-3.0698 -1.1001,-0.51701 -1.3624,-0.8163 -1.3624,-1.5544 0,-1.2437 0.99548,-1.878 2.237,-1.4254 0.7369,0.26869 2.4603,1.1348 3.3495,1.6833 2.5716,1.5864 4.2188,3.453 4.9635,5.6248 0.18603,0.54252 0.32716,1.4627 0.52095,3.3968 0.32238,3.2174 1.7391,7.4551 3.7015,11.072 0.74049,1.3648 1.5427,2.7124 2.213799,3.719 0.49815,0.74721 0.54752,0.86105 0.54447,1.2553 -0.006,0.754 -0.23355,1.1697 -0.798699,1.458 -0.4579,0.2336 -1.2649,0.19763 -1.6454,-0.0733 -0.445,-0.31687 -2.3967,-3.487 -3.4985,-5.6827 -0.43763,-0.87208 -1.5648,-3.402 -1.8386,-4.1267 -0.08381,-0.22185 -0.16632,-0.40337 -0.18335,-0.40337 -0.01703,0 -0.38442,0.24359 -0.81643,0.54132 -0.85957,0.59238 -2.2102,1.3465 -3.2057,1.7899 -2.695,1.2004 -5.6114,1.549 -8.4495,1.0101 -2.6686,-0.50679 -5.3436,-1.7353 -8.1739,-3.7539 -1.1003,-0.78477 -1.048,-0.87352 -0.51914,0.87964 1.0693,3.545 2.345,6.4706 4.5358,10.403 2.0678,3.7111 5.3121,8.4845 9.1649,13.484 2.3379,3.0341 2.3584,3.0649 2.4041,3.6156 0.08762,1.0566 -0.83974,1.8526 -1.8496,1.5878 -0.21018,-0.0551 -0.46492,-0.15414 -0.5661,-0.22006 -0.17844,-0.11625 -1.1285,-1.274 -2.4025,-2.9276 l -0.62153,-0.80673 0.05415,0.50952 c 0.49448,4.6525 0.562,6.0907 0.56016,11.931 -0.0021,6.7868 -0.09114,7.8778 -0.90047,11.04 -0.25705,1.0042 -0.61505,2.4024 -0.79555,3.1072 -0.34286,1.3388 -0.98708,4.4059 -1.4431,6.8708 -0.5084,2.7478 -1.6173,9.82 -1.8642,11.889 -0.355,2.9752 -0.71623,5.3924 -0.85249,5.7046 -0.31199,0.71487 -1.2715,1.0624 -1.9963,0.72297 z M 52.291,149.87 c 0.79545,-0.27343 2.3021,-0.66567 3.142,-0.81801 1.6616,-0.30135 4.3482,-0.25872 5.9868,0.095 0.30359,0.0655 0.66662,0.14111 0.80673,0.16794 0.14012,0.0268 0.62592,0.16394 1.0796,0.30468 l 0.82482,0.25588 0.87679,-0.81534 c 2.1913,-2.0377 4.5158,-3.5069 6.7722,-4.2804 3.4492,-1.1823 6.8022,-1.3391 10.559,-0.49385 0.52403,0.11792 2.0831,0.63217 2.7313,0.90093 0.24614,0.10205 0.2993,0.0764 1.571,-0.75858 1.5456,-1.0148 3.4584,-1.9825 4.8719,-2.4648 1.3722,-0.46823 1.776,-0.70097 2.1045,-1.2129 0.5426,-0.84558 0.92646,-3.009 0.94564,-5.3296 0.01756,-2.1239 -0.1963,-2.7516 -1.2475,-3.6611 -0.77854,-0.67362 -1.2665,-1.2492 -2.0796,-2.4531 -1.257,-1.8613 -2.2247,-3.9586 -2.7817,-6.0293 -0.33718,-1.2534 -0.87708,-3.6681 -0.8782,-3.9278 l -10e-4,-0.23379 -26.622,0.043 -0.06167,0.61834 c -0.03392,0.34009 -0.17886,0.97061 -0.32209,1.4012 -0.8146,2.4487 -2.0699,3.8852 -4.584,5.2456 -0.53712,0.29064 -1.3874,0.78111 -1.8894,1.0899 -0.50208,0.30882 -1.0847,0.65931 -1.2947,0.77886 -0.80777,0.4598 -0.93442,0.66216 -1.4317,2.2878 -0.67288,2.1995 -0.9911,3.7042 -1.2571,5.9444 -0.15181,1.2785 -0.12602,4.4804 0.04583,5.6896 0.26379,1.8562 0.3513,4.1763 0.23034,6.1071 -0.06023,0.96138 -0.1288,1.9098 -0.1524,2.1077 l -0.04289,0.35969 0.79431,-0.37188 c 0.43687,-0.20454 1.0236,-0.4507 1.3038,-0.54702 z m 111.29,-0.15313 c -0.13572,-1.3485 -0.11172,-5.0284 0.0423,-6.4834 0.24914,-2.3536 0.28486,-2.8514 0.28787,-4.0117 0.007,-2.8016 -0.58527,-6.273 -1.56,-9.1394 -0.34972,-1.0284 -0.58267,-1.367 -1.1822,-1.7186 -0.24157,-0.14165 -0.60072,-0.36003 -0.79813,-0.48528 -0.1974,-0.12525 -0.67508,-0.41496 -1.0615,-0.64379 -0.38642,-0.22883 -0.88466,-0.52499 -1.1072,-0.65813 -0.22255,-0.13313 -0.42096,-0.24206 -0.44092,-0.24206 -0.0808,0 -1.2254,-0.73917 -1.702,-1.0991 -0.96686,-0.73017 -1.636,-1.5517 -2.2062,-2.7088 -0.33747,-0.68473 -0.79786,-2.0965 -0.85941,-2.6354 -0.0247,-0.216 -0.0623,-0.47883 -0.0835,-0.58406 l -0.0387,-0.19133 -26.534,0.043 -0.025,0.2123 c -0.0837,0.71075 -0.95995,4.3413 -1.2421,5.1465 -0.41961,1.1973 -1.24,2.9384 -1.8552,3.9372 -0.97411,1.5816 -1.3501,2.0624 -2.5252,3.2296 -1.2246,1.2163 -1.2818,1.3508 -1.3376,3.1478 -0.0637,2.0477 0.24569,4.4912 0.69326,5.4754 0.31437,0.6913 0.65658,1.0151 1.3487,1.2763 2.9094,1.0978 4.1125,1.6842 5.9198,2.8856 l 1.2313,0.8185 0.38213,-0.14763 c 1.5126,-0.58435 2.9347,-0.97112 4.4158,-1.201 1.3135,-0.20383 4.0847,-0.20351 5.3499,6.2e-4 3.9261,0.63346 7.0083,2.1804 10.131,5.0847 l 0.91745,0.85324 0.56863,-0.17789 c 1.0136,-0.31712 2.3282,-0.60429 3.4134,-0.74572 1.2524,-0.1632 3.5067,-0.11859 4.6765,0.0925 1.7161,0.30975 3.5554,0.88464 4.7169,1.4743 0.27485,0.13954 0.51219,0.21998 0.52744,0.17876 0.0152,-0.0412 -0.0134,-0.48364 -0.0637,-0.98314 z m -131.75,-34.061 c -0.0254,-0.17515 -0.04762,-1.3407 -0.04939,-2.59 l -0.0032,-2.2716 h -8.7467 v 5.1801 h 8.8455 z m 54.922,-0.29722 c -0.18834,-0.97954 -0.53677,-3.2552 -0.59602,-3.8927 -0.05308,-0.57108 -0.0599,-0.58462 -0.31818,-0.63104 -0.14517,-0.0261 -6.6838,-0.0364 -14.53,-0.0228 l -14.266,0.0246 -0.04496,5.1376 h 29.874 z m 70.062,-1.8258 c -0.004,-1.3428 -0.0135,-2.5083 -0.0212,-2.59 -0.0132,-0.14089 -0.75185,-0.14856 -14.217,-0.14768 -7.8115,5.2e-4 -14.342,0.024 -14.512,0.0521 l -0.30959,0.0512 -0.0557,0.56353 c -0.0803,0.81272 -0.27283,2.192 -0.46986,3.3659 -0.0941,0.56046 -0.17115,1.0477 -0.17129,1.0827 -1.3e-4,0.035 6.6967,0.0637 14.882,0.0637 l 14.882,-1e-5 z m 33.997,-0.12736 -0.0225,-2.5688 h -8.7467 l -0.045,5.1376 h 8.8366 z m -84.576,141.75 c -0.17264,-0.0912 -0.42103,-0.30623 -0.55198,-0.47789 l -0.23808,-0.31212 -0.0226,-7.2042 c -0.0221,-7.0269 -0.0185,-7.2123 0.14488,-7.5326 0.31421,-0.61588 1.0042,-1.0146 1.5716,-0.90815 0.40223,0.0755 0.94772,0.49984 1.1486,0.89358 0.16886,0.33098 0.17215,0.47327 0.17215,7.4453 v 7.1079 l -0.21456,0.36611 c -0.42054,0.71761 -1.3086,0.99239 -2.01,0.62194 z m -52.964,-22.843 c -0.28124,-0.1276 -1.6473,-1.4536 -5.5622,-5.3989 -2.8542,-2.8764 -5.2453,-5.331 -5.3135,-5.4549 -0.18971,-0.34413 -0.16563,-1.183 0.04423,-1.5411 0.33722,-0.57548 0.95631,-0.83707 1.7126,-0.72366 0.39347,0.059 0.46561,0.12602 4.2613,3.9583 2.1236,2.1441 3.8921,3.8983 3.9301,3.8983 0.03796,0 0.06903,-7.6193 0.06903,-16.932 v -16.932 l 0.23472,-0.4493 c 0.30519,-0.5842 0.80074,-0.87518 1.3979,-0.82082 0.51109,0.0465 1.0089,0.3718 1.2201,0.79732 0.15717,0.31655 0.16312,0.82208 0.20434,17.387 l 0.04246,17.061 3.853,-3.9154 c 2.4601,-2.5 3.9459,-3.9478 4.11,-4.005 0.95803,-0.33397 2.0016,0.25831 2.1455,1.2177 0.10773,0.71841 -0.0164,0.92086 -1.4662,2.3914 -0.73659,0.74715 -3.0923,3.1428 -5.2349,5.3238 -2.6939,2.7421 -4.0055,4.0185 -4.2515,4.1376 -0.44774,0.21674 -0.91823,0.21654 -1.3968,-6.2e-4 z m 52.839,-13.708 c -0.22649,-0.13885 -0.41721,-0.34827 -0.53074,-0.5828 l -0.17721,-0.36608 v -29.146 c 0,-24.287 0.0191,-29.191 0.11473,-29.42 0.13662,-0.32698 0.65123,-0.79978 0.95292,-0.8755 0.70573,-0.17713 1.4935,0.17658 1.8204,0.8174 0.16783,0.32896 0.16906,0.54401 0.16906,29.478 v 29.146 l -0.17713,0.3659 c -0.25906,0.53516 -0.59461,0.74021 -1.2646,0.77278 -0.47295,0.023 -0.60553,-0.005 -0.90741,-0.1898 z"
         clip-path="url(#clipPath19)"
         id="pull" /></g></g></svg>
