<?xml version="1.0" encoding="UTF-8" standalone="no"?>
<!-- Created with Inkscape (http://www.inkscape.org/) -->

<svg
   width="33.866669mm"
   height="33.866665mm"
   viewBox="0 0 33.866669 33.866665"
   version="1.1"
   id="svg1"
   xml:space="preserve"
   xmlns="http://www.w3.org/2000/svg"
   xmlns:svg="http://www.w3.org/2000/svg"><defs
     id="defs1"><clipPath
       id="clipPath9"><rect
         x="9.2700996"
         y="131.92"
         width="186.12"
         height="115.52"
         stroke-width="0.27823"
         id="rect1-3" /><rect
         transform="matrix(0.7323,0.68098,-0.66834,0.74386,0,0)"
         x="101.17"
         y="3.9737999"
         width="35.044998"
         height="83.157997"
         stroke-width="0.28313"
         id="rect2-1" /><rect
         transform="matrix(-0.7323,0.68098,0.66834,0.74386,0,0)"
         x="-52.165001"
         y="144.35001"
         width="35.044998"
         height="83.157997"
         stroke-width="0.28313"
         id="rect3" /></clipPath></defs><g
     id="layer1"
     transform="translate(-88.066671,-131.56667)"><g
       id="g11"><path
         transform="matrix(0.18713791,0,0,0.19602761,85.71336,117.48195)"
         d="m 69.485,244.41 c -0.77533,-0.46933 -0.90155,-1.0872 -0.58028,-2.8408 0.70259,-3.8348 1.0857,-8.3937 1.0882,-12.951 0.0019,-3.4514 -0.14504,-5.56 -0.57309,-8.2213 -0.30667,-1.9066 -1.0856,-4.2279 -2.039,-6.0766 -0.658,-1.2758 -3.2538,-6.4678 -3.2538,-6.5081 0,-0.0191 -0.21526,-0.48927 -0.47835,-1.0449 -1.8006,-3.8028 -4.1842,-10.131 -5.0543,-13.418 -0.17426,-0.65833 -0.35265,-1.2964 -0.3964,-1.418 -0.13225,-0.36736 -1.0191,-3.9463 -1.2706,-5.1273 -0.12939,-0.60776 -0.37477,-1.7614 -0.54528,-2.5636 -0.17051,-0.80224 -0.33752,-1.6703 -0.37113,-1.929 l -0.06111,-0.47043 -2.21,-0.005 c -2.9282,-0.006 -4.5832,-0.1122 -6.8069,-0.43678 -2.2964,-0.33519 -5.4762,-1.1924 -7.8235,-2.1091 -0.51052,-0.19937 -1.0873,-0.41524 -1.2818,-0.47972 -0.57878,-0.19189 -3.8182,-1.7558 -5.2599,-2.5394 -1.1563,-0.62847 -3.6612,-2.1302 -3.9423,-2.3635 -0.05327,-0.0442 -0.36711,-0.24458 -0.69743,-0.44525 -0.33032,-0.20067 -0.98288,-0.63203 -1.4502,-0.95857 -0.89979,-0.62879 -1.6141,-1.1163 -2.8386,-1.9375 -0.88222,-0.59161 -2.5686,-1.6197 -2.6568,-1.6197 -0.23015,0 -3.2193,-1.8644 -3.4871,-2.1749 -0.04862,-0.0564 -0.36686,-0.33473 -0.70721,-0.61853 -1.9493,-1.6255 -3.2551,-3.4029 -3.7927,-5.1626 -0.38082,-1.2466 -0.49644,-2.354 -0.35744,-3.4234 0.1644,-1.2648 0.33325,-1.8213 1.0132,-3.3393 0.65623,-1.4652 0.92717,-2.2155 1.2768,-3.536 0.12875,-0.48621 0.289,-1.0829 0.35612,-1.326 0.06712,-0.2431 0.32573,-1.3172 0.57469,-2.3868 0.24896,-1.0697 0.48915,-2.0642 0.53376,-2.21 0.04461,-0.14586 0.203,-0.6829 0.35197,-1.1934 0.6107,-2.0928 1.1198,-3.6208 1.4581,-4.3758 0.06534,-0.14586 0.2638,-0.60334 0.44102,-1.0166 0.80062,-1.867 2.6163,-5.1151 3.7557,-6.7185 0.80474,-1.1325 2.9957,-3.8051 4.3955,-5.3617 1.0999,-1.2231 1.9879,-2.2423 3.5701,-4.0972 4.2663,-5.0015 5.6263,-6.9574 8.3904,-12.067 0.21043,-0.38896 0.57508,-1.0554 0.81034,-1.4809 0.23526,-0.42555 0.42775,-0.79424 0.42775,-0.81931 0,-0.0251 0.15912,-0.30751 0.3536,-0.62764 0.19448,-0.32012 0.3536,-0.59966 0.3536,-0.6212 0,-0.0809 0.93316,-1.4233 1.3736,-1.976 0.90861,-1.1403 2.6653,-2.6261 4.2047,-3.5563 0.26319,-0.15903 0.63736,-0.40145 0.8315,-0.53869 1.1557,-0.81701 4.895,-3.1924 6.6295,-4.2115 0.72931,-0.42846 1.9131,-1.1237 2.6306,-1.5449 0.71752,-0.42124 1.4137,-0.81403 1.547,-0.87287 0.13334,-0.05885 0.41259,-0.2171 0.62054,-0.35168 0.68073,-0.44054 3.6285,-1.9544 4.484,-2.3029 1.1621,-0.47332 2.8701,-0.42404 3.9232,0.11321 0.18567,0.09472 0.53254,0.32116 0.77081,0.50319 0.23827,0.18203 0.77136,0.46843 1.1846,0.63645 1.0017,0.40726 1.7846,0.92987 2.4452,1.6324 0.41669,0.44311 3.3893,4.7268 3.3893,4.8842 0,0.0172 0.11325,0.20233 0.25167,0.41141 0.13842,0.20908 0.32622,0.51937 0.41734,0.68954 0.09112,0.17017 0.35477,0.62765 0.58589,1.0166 0.80098,1.348 1.1085,2.4393 1.0194,3.6172 -0.11193,1.48 -0.96572,2.9085 -2.4407,4.0837 -0.33873,0.26987 -0.63797,0.54827 -0.66498,0.61865 -0.02701,0.0704 0.01971,0.29587 0.10383,0.50106 0.22494,0.54873 0.21755,2.5693 -0.01187,3.2461 -0.20768,0.61272 -0.85772,1.5932 -1.33,2.0061 -0.67547,0.59053 -2.436,1.3272 -3.9641,1.6586 -0.37687,0.0817 -1.3316,0.39826 -2.1216,0.70334 -1.1623,0.44885 -3.1965,1.1373 -4.1768,1.4136 -1.6263,0.45836 -3.8446,0.40762 -5.8989,-0.13493 -2.7799,-0.73419 -2.799,-0.7376 -3.0596,-0.54763 -0.27095,0.19748 -1.6624,2.2561 -2.3184,3.4299 -1.5381,2.7524 -3.378,6.8459 -3.9557,8.8006 -0.74319,2.5148 -0.93658,3.3775 -1.0298,4.5939 -0.2739,3.5731 -0.6243,5.7954 -1.3032,8.2655 -0.14701,0.53483 -0.29742,1.0918 -0.33426,1.2376 -0.14912,0.59048 -0.75844,2.2557 -1.0836,2.9614 -0.19042,0.41328 -0.4254,0.92435 -0.52216,1.1357 -0.09677,0.21137 -0.16168,0.39857 -0.14426,0.416 0.01743,0.0174 0.35118,-0.0241 0.74166,-0.0923 1.4367,-0.25082 2.9037,-0.3252 4.3592,-0.22103 2.3455,0.16787 3.9021,0.5727 5.744,1.4939 1.1962,0.59823 1.5444,0.8077 2.4341,1.464 0.9348,0.68963 0.92426,0.68614 1.4593,0.48285 0.2541,-0.0966 0.69559,-0.29346 0.9811,-0.43758 1.5489,-0.78188 3.7747,-1.4229 6.0485,-1.7418 1.4292,-0.2005 4.255,-0.19926 5.5097,0.002 1.1918,0.19156 3.2138,0.69846 3.9704,0.99534 0.91508,0.35908 2.7519,1.2532 3.2975,1.6052 1.0386,0.66998 1.8296,1.2197 2.2312,1.5506 l 0.41894,0.34525 0.46507,-0.15172 c 0.25579,-0.0834 0.50485,-0.18218 0.55347,-0.21941 0.04862,-0.0372 1.0651,-0.50196 2.2589,-1.0327 3.2645,-1.4514 3.9645,-1.921 4.6305,-3.1058 0.58941,-1.0486 0.73922,-1.9354 0.83117,-4.9199 0.06245,-2.0269 0.07504,-2.1388 0.28212,-2.506 0.41724,-0.73991 1.3573,-1.0304 2.0223,-0.62497 0.79949,0.4874 0.93657,1.0011 0.8591,3.2191 -0.10406,2.9791 -0.35648,4.5449 -0.94362,5.8535 -0.43311,0.96531 -1.2592,2.0095 -2.1004,2.6551 -0.8057,0.61832 -1.4288,0.98226 -2.6244,1.5328 -0.48621,0.22389 -1.1824,0.54728 -1.547,0.71865 -0.36466,0.17138 -0.96857,0.43869 -1.342,0.59403 -0.90079,0.37467 -0.95708,0.45042 -0.63554,0.85533 0.50676,0.63816 1.1458,1.6529 1.6936,2.6891 0.28732,0.54353 0.53105,0.88976 0.69477,0.98697 0.13871,0.0824 0.70967,0.2509 1.2688,0.37454 2.5505,0.56398 3.7786,0.8678 5.2157,1.2904 0.85086,0.25019 1.7459,0.50824 1.989,0.57344 0.8851,0.23739 2.7567,0.85246 3.4034,1.1185 2.2305,0.91747 3.9631,2.2872 5.5167,4.3611 0.32779,0.43758 0.61035,0.79561 0.62791,0.79561 0.0175,0 0.2283,-0.27847 0.46834,-0.61881 0.613,-0.86916 1.7971,-2.1801 2.3303,-2.5799 1.287,-0.96505 1.6876,-1.2258 2.4163,-1.5731 0.97339,-0.46388 2.1938,-0.90102 3.7128,-1.33 0.63207,-0.17848 1.726,-0.49522 2.431,-0.70387 1.3879,-0.41074 2.0506,-0.57958 4.1549,-1.0584 2.7695,-0.63026 2.5722,-0.5538 2.8603,-1.1086 0.56661,-1.0913 1.0875,-1.9437 1.6613,-2.7186 0.33314,-0.44988 0.6057,-0.83993 0.6057,-0.86678 0,-0.0269 -0.22874,-0.14875 -0.5083,-0.27089 -4.4262,-1.9337 -6.2397,-2.9955 -7.0779,-4.1441 -0.92955,-1.2738 -1.3595,-2.3723 -1.6433,-4.1991 -0.20514,-1.3201 -0.23111,-1.6995 -0.24204,-3.536 -0.011,-1.8493 0.0472,-2.1689 0.481,-2.6401 0.58308,-0.63346 1.7026,-0.58407 2.2117,0.0976 0.34332,0.45968 0.39651,0.7936 0.44724,2.8078 0.0849,3.3701 0.39902,4.58 1.4819,5.7077 0.76613,0.79785 1.2106,1.0409 4.7172,2.5794 0.38897,0.17066 0.96578,0.43821 1.2818,0.59456 0.31603,0.15634 0.72408,0.33345 0.90678,0.39359 0.3273,0.10773 0.34028,0.10295 0.88401,-0.32574 0.30351,-0.23929 0.85019,-0.63417 1.2148,-0.87752 0.65124,-0.43461 2.7482,-1.6188 2.8666,-1.6188 0.0332,0 0.22723,-0.0751 0.4312,-0.16688 1.6788,-0.75537 3.7778,-1.3022 5.7889,-1.508 2.407,-0.24639 5.1375,0.0295 7.9747,0.80574 0.70396,0.19261 2.3615,0.85617 3.4268,1.3718 0.35321,0.17097 0.69135,0.29166 0.75141,0.26818 0.0601,-0.0235 0.48713,-0.31498 0.94903,-0.64779 0.82979,-0.59789 2.268,-1.4438 3.0758,-1.8092 0.9708,-0.43906 2.5461,-0.87831 3.5985,-1.0034 2.5575,-0.30394 4.3549,-0.25377 6.4091,0.17891 0.25908,0.0546 0.29388,0.0448 0.21398,-0.0602 -0.0525,-0.069 -0.1859,-0.3442 -0.2965,-0.61162 -0.34295,-0.82921 -0.45969,-1.0972 -0.57767,-1.326 -0.2247,-0.43581 -0.93687,-2.6412 -1.3416,-4.1544 -0.55687,-2.0822 -0.79997,-3.644 -1.1422,-7.3377 -0.16696,-1.802 -0.42771,-3.0787 -0.96159,-4.7082 -0.34059,-1.0396 -0.54477,-1.5889 -1.4372,-3.8667 -0.22026,-0.56218 -1.9143,-4.028 -2.2252,-4.5527 -0.0864,-0.14586 -0.28538,-0.49986 -0.44207,-0.78667 -1.1167,-2.044 -2.2405,-3.5892 -2.6104,-3.5892 -0.0607,0 -0.5251,0.12115 -1.0319,0.26923 -1.4158,0.41365 -1.4809,0.43026 -2.4243,0.61868 -0.4862,0.0971 -1.4436,0.2015 -2.1275,0.23199 -1.1975,0.0534 -1.6032,0.0187 -2.9113,-0.2487 -0.48085,-0.0983 -3.304,-1.0319 -3.4476,-1.1402 -0.0486,-0.0366 -0.28731,-0.12786 -0.53041,-0.20275 -0.2431,-0.0749 -0.76025,-0.26124 -1.1492,-0.41411 -0.38896,-0.15287 -1.0819,-0.35492 -1.5398,-0.44901 -0.45794,-0.0941 -0.87563,-0.20626 -0.92821,-0.24927 -0.0526,-0.043 -0.27241,-0.12551 -0.4885,-0.1833 -0.71044,-0.19001 -1.9779,-0.85801 -2.3958,-1.2627 -0.54096,-0.52382 -1.0258,-1.2729 -1.2574,-1.9426 -0.2741,-0.79253 -0.27266,-2.3592 0.003,-3.1159 l 0.19312,-0.5304 -0.28493,-0.25232 c -1.3218,-1.1705 -1.6156,-1.4644 -1.9421,-1.9426 -0.75848,-1.1109 -0.99007,-1.8227 -0.98277,-3.0207 0.004,-0.67386 0.0523,-1.0206 0.20285,-1.4586 0.26499,-0.77111 1.0268,-2.1742 1.9439,-3.5802 0.22199,-0.34034 0.44367,-0.68942 0.49263,-0.77571 0.28048,-0.49435 1.8429,-2.8603 2.2606,-3.4233 0.98536,-1.3279 2.068,-2.1982 3.1821,-2.5578 0.31963,-0.10317 0.79584,-0.35091 1.0608,-0.55187 0.26444,-0.20056 0.77916,-0.50584 1.1438,-0.67839 0.65123,-0.30816 0.68343,-0.31381 1.8122,-0.31817 1.1562,-0.0045 1.6438,0.08915 2.3305,0.44744 0.12822,0.0669 0.26083,0.12188 0.29469,0.12218 0.0339,2.99e-4 0.29244,0.13415 0.57461,0.29744 0.28217,0.16329 1.0103,0.55513 1.6181,0.87075 0.60775,0.31562 1.2641,0.66609 1.4586,0.77882 0.19448,0.11274 0.63206,0.35697 0.97241,0.54276 0.34034,0.18578 0.67848,0.37645 0.75141,0.42371 0.0729,0.04726 0.68953,0.40859 1.3702,0.80296 0.68068,0.39437 1.5161,0.89194 1.8564,1.1057 0.34034,0.21378 0.69837,0.42568 0.79561,0.47088 0.24119,0.11212 1.0887,0.63023 1.4288,0.87347 0.15296,0.1094 0.30341,0.1989 0.33434,0.1989 0.0309,0 0.16402,0.07391 0.29576,0.16424 0.13173,0.09033 0.71688,0.47433 1.3003,0.85334 1.7383,1.1292 2.826,1.8498 2.873,1.9033 0.0243,0.0277 0.26331,0.18736 0.5311,0.35486 1.0287,0.64345 2.59,1.8622 3.2153,2.5098 1.0147,1.051 1.9398,2.3788 2.8362,4.0712 0.23178,0.43759 0.55043,1.0144 0.70812,1.2818 0.15769,0.2674 0.54672,0.98346 0.8645,1.5912 0.97403,1.8628 2.0604,3.7053 2.8254,4.7922 0.22964,0.32624 0.60438,0.86328 0.83274,1.1934 0.47661,0.68902 2.1252,2.8335 2.3304,3.0313 0.0756,0.0729 0.20833,0.24397 0.29487,0.3801 0.14777,0.23244 1.8638,2.2718 2.6598,3.1611 0.1984,0.22162 0.57952,0.65599 0.84693,0.96526 0.26741,0.30926 0.52843,0.6053 0.58005,0.65785 0.0516,0.0526 0.54388,0.6127 1.0939,1.2448 0.55005,0.63207 1.2294,1.4078 1.5097,1.7238 0.2803,0.31603 0.70188,0.81329 0.93685,1.105 0.23497,0.29173 0.47766,0.5826 0.53933,0.64639 0.14238,0.14728 0.9747,1.2402 1.6539,2.1717 1.2863,1.7642 3.3909,5.6404 4.2297,7.79 0.86117,2.2071 1.7271,5.1066 2.4025,8.0445 0.75806,3.2973 1.3044,5.09 1.9939,6.5417 1.3405,2.8227 1.5437,4.7497 0.75457,7.1559 -0.4104,1.2514 -1.1696,2.4838 -2.3142,3.757 -0.92354,1.0272 -3.5599,3.0854 -4.6726,3.6478 -0.19448,0.0983 -0.41328,0.22722 -0.48621,0.28648 -0.0729,0.0593 -0.27183,0.16206 -0.442,0.22846 -0.51728,0.20183 -1.7155,0.95919 -4.9289,3.1155 -4.6956,3.1509 -7.2057,4.6134 -10.497,6.116 -0.29172,0.13319 -0.68953,0.31596 -0.88401,0.40616 -0.19448,0.0902 -0.61218,0.26109 -0.92821,0.37975 -0.31604,0.11865 -0.99231,0.37366 -1.5028,0.56669 -1.8132,0.68557 -4.3174,1.3765 -6.2765,1.7317 -2.3662,0.42901 -4.3948,0.58756 -7.5175,0.58756 -2.6453,0 -2.5602,-0.0153 -2.5602,0.46162 0,0.10008 -0.20298,1.1411 -0.45106,2.3133 -0.24808,1.1722 -0.50365,2.3945 -0.56793,2.7162 -0.11124,0.55674 -0.69303,2.8932 -0.95498,3.8352 -0.0676,0.24311 -0.2492,0.91938 -0.40354,1.5028 -0.26973,1.0196 -1.5983,5.246 -1.7924,5.7019 -0.0517,0.12155 -0.16535,0.4199 -0.25244,0.663 -0.64188,1.7916 -2.1992,5.6296 -2.8875,7.1163 -0.57081,1.2329 -2.3671,4.8937 -2.8395,5.7869 -2.0297,3.8375 -2.862,6.0189 -3.2499,8.518 -0.92948,5.9877 -0.75057,13.504 0.49248,20.688 0.14592,0.84342 0.26532,1.6903 0.26532,1.882 0,1.2585 -1.524,2.035 -2.5132,1.2805 -0.57753,-0.4405 -0.65407,-0.72365 -1.2096,-4.475 -0.51479,-3.4762 -0.80713,-7.4702 -0.80882,-11.05 -0.002,-4.3135 0.36823,-8.1359 1.0478,-10.817 0.54939,-2.1673 1.6614,-4.8998 2.8471,-6.9962 0.305,-0.53926 1.9484,-3.8578 2.919,-5.8946 0.83643,-1.7551 2.707,-6.371 3.2893,-8.117 0.69102,-2.0718 1.5476,-4.8667 1.856,-6.0555 0.0883,-0.34034 0.28182,-1.0763 0.43011,-1.6354 0.48236,-1.8188 1.3061,-5.5831 1.741,-7.9561 0.32572,-1.7773 0.42915,-2.0672 0.85898,-2.4077 0.34947,-0.27684 0.39475,-0.2882 1.1193,-0.28064 5.8853,0.0614 6.543,0.0542 7.7388,-0.0849 2.2373,-0.26015 5.4302,-0.92309 7.2931,-1.5143 2.04,-0.64735 5.3844,-2.1158 7.6025,-3.3381 2.5119,-1.3842 3.7303,-2.1547 8.2213,-5.1995 1.7157,-1.1632 3.5188,-2.2916 3.6619,-2.2916 0.0302,0 0.38227,-0.18458 0.78227,-0.41019 2.6232,-1.4795 4.296,-3.0052 5.3609,-4.8895 0.39708,-0.70263 0.71301,-1.8 0.71407,-2.4802 9.4e-4,-0.6086 -0.35569,-1.7736 -0.98938,-3.232 -0.31548,-0.72603 -0.63633,-1.4991 -0.713,-1.7179 -0.19074,-0.54428 -0.81378,-2.7953 -1.0276,-3.7128 -0.63681,-2.7322 -0.8378,-3.5445 -1.1594,-4.6853 -0.19872,-0.70499 -0.44394,-1.5404 -0.54493,-1.8564 -0.48657,-1.5226 -0.71115,-2.188 -0.82042,-2.431 -0.0656,-0.14586 -0.23809,-0.54367 -0.38334,-0.88401 -0.44869,-1.0513 -0.92636,-2.0318 -1.0049,-2.0627 -0.0412,-0.0162 -0.0749,-0.0699 -0.0749,-0.1193 0,-0.12829 -1.063,-2.0654 -1.5531,-2.8303 -0.65632,-1.0242 -1.3982,-2.1351 -1.5228,-2.2802 -0.063,-0.0733 -0.3781,-0.4714 -0.70031,-0.88468 -0.75431,-0.96747 -1.2985,-1.6156 -3.1175,-3.7128 -0.23193,-0.26742 -0.7116,-0.82434 -1.0659,-1.2376 -0.3543,-0.41326 -0.67038,-0.7713 -0.70236,-0.79561 -0.0531,-0.0404 -2.7257,-3.1393 -2.9734,-3.4476 -0.0586,-0.0729 -0.43817,-0.53595 -0.84355,-1.0289 -0.40538,-0.49295 -0.82581,-1.0101 -0.93428,-1.1492 -0.10848,-0.1391 -0.40235,-0.51097 -0.65303,-0.82637 -0.25069,-0.31541 -0.54983,-0.71321 -0.66475,-0.88401 -0.11491,-0.1708 -0.44818,-0.64868 -0.74059,-1.062 -0.29241,-0.41327 -0.77969,-1.1429 -1.0828,-1.6215 -0.30311,-0.4786 -0.61873,-0.9758 -0.70126,-1.105 -0.0825,-0.12921 -0.29569,-0.5134 -0.47369,-0.85374 -0.178,-0.34035 -0.53068,-0.97684 -0.78375,-1.4144 -0.25306,-0.43759 -0.61341,-1.094 -0.80077,-1.4586 -0.18736,-0.3646 -0.45979,-0.8818 -0.60541,-1.1492 -0.14562,-0.26742 -0.41116,-0.76467 -0.59009,-1.105 -0.4176,-0.79432 -0.71599,-1.2955 -0.85942,-1.4434 -0.0626,-0.0646 -0.15952,-0.2038 -0.21538,-0.3094 -0.18796,-0.35537 -1.1185,-1.4263 -1.5928,-1.833 -0.43187,-0.37039 -1.4832,-1.1654 -2.0174,-1.5256 -0.12155,-0.082 -0.79224,-0.53673 -1.4904,-1.0106 -0.69818,-0.47389 -1.3347,-0.90168 -1.4144,-0.95066 -0.0797,-0.049 -0.48314,-0.31062 -0.89641,-0.58144 -0.41328,-0.27082 -1.5868,-0.99784 -2.6078,-1.6156 -1.021,-0.61777 -1.9161,-1.162 -1.989,-1.2093 -0.0729,-0.04736 -0.23205,-0.1336 -0.35361,-0.19165 -0.12155,-0.05805 -0.32045,-0.17215 -0.442,-0.25354 -0.19586,-0.13115 -0.76658,-0.45396 -2.2542,-1.275 -0.2431,-0.13417 -0.50168,-0.29188 -0.57461,-0.35047 -0.0729,-0.05858 -0.31161,-0.1971 -0.5304,-0.30782 -0.52294,-0.26462 -1.3471,-0.71789 -1.4586,-0.80221 -0.0937,-0.07085 -1.1484,-0.63623 -2.0332,-1.09 -0.392,-0.20101 -0.68034,-0.28015 -1.105,-0.30331 -0.52283,-0.02851 -0.61815,-0.0049 -1.0578,0.26199 -0.77504,0.47053 -1.0556,0.92403 -2.2595,3.6526 -0.38684,0.8767 -0.49529,1.1159 -0.86166,1.9006 -0.19296,0.41328 -0.48768,1.0697 -0.65495,1.4586 -0.16726,0.38897 -0.49608,1.105 -0.73071,1.5912 -0.73846,1.5303 -0.91051,2.0013 -0.95258,2.6078 -0.0561,0.80903 0.18526,1.2479 0.90718,1.6496 0.6763,0.37625 0.75913,0.37733 0.65336,0.009 -0.11206,-0.39074 -0.10301,-1.7986 0.0144,-2.2327 0.22388,-0.82805 3.1807,-6.8483 3.5813,-7.2917 0.29606,-0.3277 0.35603,-0.35499 0.7801,-0.35499 0.38598,0 0.49643,0.03884 0.6913,0.2431 0.12755,0.13371 0.27423,0.35509 0.32594,0.49196 0.19906,0.52687 0.24877,0.3962 -1.5868,4.1712 -1.3287,2.7326 -1.6071,3.4013 -1.6036,3.8519 0.006,0.79299 0.22081,1.0921 1.6505,2.2998 0.93576,0.79044 1.662,1.2998 1.9598,1.3745 0.46807,0.11748 1.0356,-0.0178 1.5322,-0.36538 0.7399,-0.51773 1.6384,-1.2738 1.8434,-1.551 0.2979,-0.40294 0.32857,-0.8683 0.0813,-1.2339 -0.43543,-0.64378 -0.94698,-0.64135 -1.7151,0.008 -0.76493,0.64678 -1.305,0.68394 -1.8608,0.12808 -0.25381,-0.25381 -0.29536,-0.35576 -0.29536,-0.7248 0,-0.48049 0.18238,-0.87631 0.93041,-2.0193 0.25457,-0.38897 0.64218,-1.0652 0.86136,-1.5028 0.4834,-0.9651 0.64174,-1.1201 1.1909,-1.1658 0.52177,-0.0435 0.8133,0.10028 1.0224,0.50406 0.15897,0.30704 0.16256,0.8079 0.0112,1.5621 -0.0554,0.2761 -0.0443,0.28756 0.57256,0.59244 0.34599,0.17099 0.70206,0.36254 0.79127,0.42566 0.13371,0.0946 0.70001,0.73142 0.96678,1.0872 0.06,0.08 0.23721,0.46945 0.74424,1.6354 0.43456,0.99932 0.76478,1.4917 1.4397,2.1465 0.39399,0.38227 1.4162,0.91944 1.897,0.99684 0.73019,0.11755 1.0747,0.30818 1.2484,0.6908 0.20517,0.45182 0.21216,0.77887 0.0251,1.1731 -0.26648,0.56158 -0.86718,0.72613 -1.8895,0.51761 -0.84955,-0.17328 -1.5465,-0.47609 -2.2092,-0.95989 -0.60623,-0.44257 -1.6317,-1.4755 -1.8131,-1.8263 -0.17668,-0.34166 -0.29615,-0.33217 -0.66689,0.053 -0.16756,0.17406 -0.50355,0.46116 -0.74665,0.63799 -0.2431,0.17683 -0.4619,0.34651 -0.48621,0.37707 -0.0243,0.0306 -0.28759,0.22075 -0.58507,0.42265 -0.90409,0.6136 -1.2872,0.74319 -2.3693,0.80156 -0.93509,0.0504 -0.96727,0.059 -1.0271,0.27308 -0.2709,0.96934 -0.40149,1.3139 -0.66172,1.7459 -0.16413,0.27246 -0.2801,0.52501 -0.25772,0.56123 0.0688,0.11136 3.2565,1.1244 4.0336,1.2818 1.2046,0.24409 2.7734,0.1378 4.5075,-0.30542 0.76228,-0.19483 1.7868,-0.43865 2.2766,-0.54181 2.9196,-0.61487 4.1701,-1.3861 5.3119,-3.2761 0.5486,-0.90805 0.85125,-1.1629 1.3809,-1.1629 0.36754,0 0.69332,0.21223 0.98952,0.64462 0.2729,0.39838 0.20877,0.94073 -0.22007,1.8611 l -0.3149,0.67584 0.36081,0.51758 c 0.19844,0.28467 0.53095,0.74166 0.7389,1.0155 1.2892,1.698 3.3387,4.7156 3.3399,4.9175 2e-4,0.036 0.1211,0.24441 0.26866,0.4632 0.64272,0.95299 1.057,1.823 1.0566,2.219 -7.8e-4,0.91928 -0.79578,1.4392 -1.6674,1.0905 -0.29206,-0.11685 -0.43719,-0.25348 -0.64074,-0.60317 -0.14474,-0.24866 -0.29984,-0.51177 -0.34468,-0.5847 -0.0448,-0.0729 -0.4646,-0.76909 -0.93281,-1.547 -1.0991,-1.8261 -1.3779,-2.2542 -1.4678,-2.2542 -0.0404,0 -0.0735,-0.0402 -0.0735,-0.0893 0,-0.0491 -0.22874,-0.39612 -0.50831,-0.77117 -0.27957,-0.37505 -0.56798,-0.76849 -0.64091,-0.8743 -0.61006,-0.88511 -1.1062,-1.5361 -1.1707,-1.5361 -0.0426,0 -0.26405,0.14268 -0.49208,0.31707 -0.22803,0.1744 -0.54675,0.37247 -0.70827,0.44016 -0.19877,0.0833 -0.27164,0.15938 -0.22552,0.23543 0.14618,0.24101 0.82812,1.2731 0.97887,1.4815 0.17653,0.24403 0.55834,0.88431 1.4002,2.348 0.46535,0.80911 1.9907,3.8668 2.2469,4.5041 0.0391,0.0972 0.14255,0.35581 0.22991,0.5746 0.0874,0.2188 0.2269,0.55693 0.31012,0.75141 0.67948,1.5881 1.4537,3.866 1.8478,5.4367 0.26406,1.0524 0.38964,1.9402 0.5314,3.757 0.24541,3.1451 0.56176,4.8195 1.5032,7.9561 0.24169,0.80529 0.79609,2.2849 1.209,3.2266 0.76386,1.7422 2.543,4.1436 3.9009,5.2654 0.86495,0.71456 1.9817,1.4564 2.9099,1.933 1.0161,0.52174 1.3973,0.91659 1.4824,1.5356 0.12575,0.91426 -0.44332,1.6152 -1.362,1.6776 -0.44247,0.0301 -0.58602,-0.0112 -1.4263,-0.40988 -0.94219,-0.44706 -2.5975,-1.5014 -3.3617,-2.1413 -0.22756,-0.19052 -0.44838,-0.3464 -0.49071,-0.3464 -0.0423,0 -0.12398,-0.0753 -0.18144,-0.16728 -0.0575,-0.092 -0.4062,-0.35535 -0.77499,-0.5852 -2.3631,-1.4728 -6.3457,-2.0768 -9.6877,-1.4691 -1.1621,0.2113 -1.6846,0.38471 -2.9123,0.96647 -0.40819,0.19342 -1.6764,0.93858 -1.9006,1.1168 -0.0972,0.0773 -0.40496,0.31485 -0.68382,0.52797 -1.6295,1.2453 -3.6021,3.519 -4.9666,5.7248 -0.1905,0.30794 -0.46101,0.65408 -0.60113,0.76919 -0.72639,0.59672 -1.9931,0.30678 -2.3993,-0.54917 -0.20417,-0.43026 -0.18558,-1.0895 0.0428,-1.5179 0.51175,-0.95983 1.6635,-2.569 2.7946,-3.9044 0.45267,-0.53444 0.50953,-0.46535 -0.77236,-0.93839 -1.433,-0.52878 -1.9497,-0.67599 -3.1666,-0.90211 -2.8984,-0.53856 -5.2234,-0.47584 -7.8134,0.21078 -0.59801,0.15853 -1.881,0.60662 -2.2523,0.78663 -1.0228,0.49586 -1.8582,0.95165 -2.2821,1.2452 -1.8018,1.2476 -2.8656,2.2502 -4.046,3.813 l -0.76785,1.0166 0.41567,0.0278 c 0.22862,0.0153 0.73492,-0.0144 1.1251,-0.066 0.87849,-0.11608 1.2593,-0.0248 1.6888,0.40473 0.50173,0.50173 0.62083,1.0864 0.33594,1.649 -0.37083,0.7323 -0.71604,0.89085 -2.3336,1.0718 -1.4264,0.15953 -4.2885,0.61484 -5.0373,0.80133 -0.26741,0.0666 -1.1028,0.2465 -1.8564,0.39976 -2.6905,0.54717 -8.2146,2.1571 -9.6775,2.8204 -1.7926,0.8128 -3.726,2.7236 -4.5176,4.4647 -0.1123,0.24702 -0.29597,0.78726 -0.40816,1.2005 l -0.20397,0.75141 v 17.945 l 0.21122,0.61881 c 0.74556,2.1843 2.836,4.1242 5.2268,4.8506 0.84765,0.25753 2.7146,0.57365 5.126,0.86795 1.3427,0.16388 2.0705,0.19904 4.0665,0.19645 2.2699,-0.003 2.5082,-0.0187 3.595,-0.23713 2.3164,-0.46562 3.9732,-1.1395 5.6869,-2.3132 1.5825,-1.0838 2.7531,-2.2393 3.8115,-3.7625 0.64514,-0.92843 1.7383,-3.1133 2.2363,-4.4698 0.23096,-0.62903 0.63949,-1.6409 0.90785,-2.2487 0.26836,-0.6078 0.57824,-1.3437 0.68861,-1.6354 0.11038,-0.29173 0.40475,-0.95798 0.65417,-1.4806 0.24941,-0.52258 0.45348,-0.97056 0.45348,-0.99551 0,-0.0446 0.32026,-0.72498 1.4119,-2.9996 0.51456,-1.0722 0.55405,-1.1998 0.62945,-2.0332 0.20399,-2.2551 0.29293,-2.9025 0.52896,-3.8507 0.65796,-2.6431 1.3303,-4.0529 2.1327,-4.4722 0.30618,-0.15996 0.896,-0.15996 1.2022,0 0.50239,0.26246 0.99012,0.9886 0.99012,1.4741 0,0.10454 -0.16431,0.55334 -0.36515,0.99735 -0.47811,1.057 -0.82346,2.0842 -1.0459,3.1107 -0.29625,1.3674 -0.27646,1.4117 0.49311,1.1045 0.23744,-0.0948 1.108,-0.43471 1.9345,-0.7554 0.82655,-0.32068 2.0398,-0.80641 2.6962,-1.0794 0.65638,-0.27299 1.4291,-0.59383 1.7172,-0.71298 0.65344,-0.27029 1.1494,-0.2358 1.6048,0.11159 0.45865,0.34983 0.65532,0.7195 0.65571,1.2325 5e-4,0.66004 -0.26902,1.1394 -0.77728,1.3824 -0.91709,0.43848 -2.3856,1.085 -2.8026,1.2339 -0.70381,0.25128 -1.6566,0.6195 -1.9448,0.75158 -0.14586,0.0669 -0.74257,0.30421 -1.326,0.52746 -1.4978,0.57312 -2.4375,0.99713 -2.7071,1.2215 -0.22369,0.18617 -1.2283,2.0518 -1.8413,3.4196 -0.16344,0.36466 -0.40604,0.9017 -0.53912,1.1934 -0.48813,1.07 -0.96795,2.1673 -0.96795,2.2136 0,0.0261 -0.13763,0.35426 -0.30584,0.72919 -0.16821,0.37492 -0.56859,1.3526 -0.88974,2.1727 -0.62338,1.5918 -0.8837,2.1896 -1.5139,3.4763 -0.3868,0.78979 -1.1038,1.9854 -1.3324,2.2216 -0.0622,0.0642 -0.11303,0.15092 -0.11303,0.19259 0,0.0417 -0.0506,0.12834 -0.11248,0.19259 -0.0619,0.0643 -0.35539,0.41517 -0.6523,0.77982 -0.7126,0.87522 -2.209,2.3178 -3.0365,2.9271 -1.6705,1.2302 -3.8241,2.2973 -5.6798,2.8141 -2.1463,0.59781 -3.5325,0.75947 -6.4312,0.74999 -4.48,-0.0146 -9.2392,-0.80043 -11.401,-1.8824 -1.498,-0.74978 -3.119,-2.048 -4.0006,-3.204 -0.25554,-0.33509 -0.48492,-0.60779 -0.50973,-0.60601 -0.0248,0.002 -0.24402,0.26268 -0.48712,0.57977 -0.88527,1.1547 -2.7023,2.6105 -4.1107,3.2933 -2.2329,1.0826 -7.6798,1.912 -12.023,1.8306 -2.262,-0.0424 -3.5837,-0.20111 -5.2343,-0.62857 -0.76135,-0.19717 -2.7592,-0.93884 -3.3941,-1.26 -3.5338,-1.7876 -6.6373,-4.953 -8.2071,-8.371 -0.13398,-0.29173 -0.30272,-0.64975 -0.37496,-0.79561 -0.07225,-0.14587 -0.24235,-0.54367 -0.378,-0.88402 -0.13565,-0.34034 -0.45272,-1.136 -0.70459,-1.768 -0.25187,-0.63207 -0.57253,-1.4078 -0.71257,-1.7238 -0.14004,-0.31603 -0.37908,-0.89285 -0.53121,-1.2818 -0.15213,-0.38896 -0.453,-1.0792 -0.66862,-1.5339 -0.21562,-0.45467 -0.39203,-0.84177 -0.39203,-0.86021 0,-0.14877 -1.8266,-3.8368 -1.9745,-3.9867 -0.1288,-0.13053 -1.4878,-0.72866 -2.7108,-1.1931 -0.51052,-0.19386 -1.0476,-0.4062 -1.1934,-0.47185 -0.14586,-0.0657 -0.70279,-0.28409 -1.2376,-0.48541 -1.0216,-0.38456 -1.528,-0.59739 -3.0498,-1.2817 -1.1007,-0.49492 -1.1311,-0.51701 -1.3381,-0.97209 -0.35427,-0.77879 -0.07953,-1.6769 0.62734,-2.0507 0.61596,-0.32573 0.91188,-0.2751 2.5968,0.44427 0.83456,0.3563 1.8953,0.79311 2.3572,0.97068 0.4619,0.17757 1.4106,0.54243 2.1082,0.81079 0.6976,0.26836 1.3181,0.48793 1.3789,0.48793 0.08474,0 0.09222,-0.11865 0.03204,-0.5083 -0.19584,-1.2681 -0.64415,-2.6958 -1.2561,-4.0002 -0.40482,-0.86284 -0.26111,-1.6054 0.41689,-2.1542 0.39395,-0.31885 1.0444,-0.41108 1.4435,-0.20469 0.64238,0.33218 1.2062,1.2616 1.7176,2.8318 0.5681,1.7439 0.80071,3.046 0.9507,5.3216 l 0.0702,1.0651 0.80215,1.6311 c 0.44118,0.89713 0.90972,1.8698 1.0412,2.1616 0.13147,0.29173 0.31106,0.68953 0.39909,0.88401 0.49441,1.0924 0.88487,1.9968 0.88487,2.0496 0,0.057 0.08273,0.24631 0.57217,1.3096 0.1119,0.2431 0.52866,1.2553 0.92613,2.2494 0.94554,2.3647 1.3559,3.1994 2.2001,4.4749 0.71896,1.0863 2.0059,2.5339 2.7962,3.1453 0.78796,0.60959 2.171,1.5014 2.8746,1.8535 2.467,1.2348 5.9853,1.8087 9.4162,1.536 3.0547,-0.24283 6.3798,-0.74377 7.5141,-1.132 2.5245,-0.86414 4.689,-3.0573 5.1368,-5.2049 0.10878,-0.5217 0.12452,-1.993 0.10181,-9.5157 l -0.0269,-8.8986 -0.20131,-0.65551 c -0.69255,-2.2551 -2.4612,-4.2728 -4.7589,-5.429 -1.3042,-0.65627 -6.7638,-2.2639 -10.111,-2.9774 -2.5253,-0.53821 -5.1478,-0.98316 -6.4945,-1.1019 -0.34034,-0.03 -0.80426,-0.0957 -1.0309,-0.14592 -0.88872,-0.197 -1.5491,-1.1632 -1.3064,-1.9114 0.16484,-0.50817 0.39852,-0.78383 0.84962,-1.0022 0.4021,-0.19465 0.43612,-0.19666 1.463,-0.0862 0.57823,0.0622 1.0732,0.0912 1.0998,0.0645 0.06199,-0.062 -1.1903,-1.7006 -1.8229,-2.3853 -1.0363,-1.1216 -2.8014,-2.4639 -4.1143,-3.1286 -2.4767,-1.2542 -4.0026,-1.6906 -6.6301,-1.8962 -1.3994,-0.10953 -2.6872,-0.0191 -4.6084,0.32353 -1.2369,0.22061 -4.1875,1.2063 -4.1875,1.3989 0,0.0578 0.09088,0.2041 0.20196,0.32515 0.91005,0.99178 2.7405,3.567 2.9764,4.1873 0.13288,0.34949 0.11398,0.97045 -0.0413,1.3572 -0.22296,0.55528 -1.0584,0.9875 -1.6621,0.85992 -0.58863,-0.12439 -0.84945,-0.38856 -1.8069,-1.8302 -1.5174,-2.2847 -2.9989,-3.8808 -5.0352,-5.4249 -0.63321,-0.48017 -2.3482,-1.4293 -2.8541,-1.5795 -0.12155,-0.0361 -0.34034,-0.11588 -0.48621,-0.17729 -0.99677,-0.41969 -2.3787,-0.61462 -4.3317,-0.61104 -1.7329,0.003 -1.8655,0.0171 -3.6897,0.38658 -0.64442,0.13054 -2.2375,0.70178 -2.8168,1.01 -0.28586,0.15211 -0.96695,0.63401 -1.5135,1.0709 -2.0541,1.6418 -4.04,2.7902 -4.9372,2.8551 -0.94883,0.0686 -1.6245,-0.53145 -1.6042,-1.4246 0.01948,-0.85511 0.27441,-1.1391 1.6991,-1.8926 1.7195,-0.9095 2.749,-1.7334 4.2842,-3.4288 0.85145,-0.94025 2.0553,-3.0327 2.8992,-5.0389 0.28134,-0.66889 0.7394,-2.0244 0.82148,-2.431 0.03435,-0.17018 0.15694,-0.60776 0.27241,-0.97242 0.52262,-1.6504 0.89977,-4.1299 1.1833,-7.7793 0.12043,-1.55 0.3481,-2.5351 1.1441,-4.9505 0.29086,-0.88252 1.0834,-2.9669 1.3276,-3.4918 0.04525,-0.0972 0.1879,-0.43468 0.317,-0.74985 0.29013,-0.7083 1.3101,-2.7767 1.9187,-3.8912 0.75938,-1.3904 0.98232,-1.7606 1.9818,-3.2907 0.40412,-0.61871 0.73476,-1.1389 0.73476,-1.1559 0,-0.0691 -1.3137,-0.85744 -1.4287,-0.85744 -0.06825,0 -0.39775,0.38499 -0.73222,0.85553 -0.33447,0.47055 -0.65876,0.91808 -0.72063,0.99452 -0.34846,0.43046 -0.74285,0.99018 -0.74285,1.0542 0,0.0407 -0.08079,0.14705 -0.17953,0.23641 -0.24993,0.22618 -1.3609,1.9617 -2.23,3.4836 -0.40799,0.71447 -0.83863,1.3564 -0.97846,1.4586 -0.34028,0.24869 -0.99647,0.23866 -1.3608,-0.0208 -0.652,-0.46426 -0.68945,-1.1693 -0.11364,-2.1393 0.18761,-0.31603 0.49041,-0.83318 0.6729,-1.1492 0.63483,-1.0994 2.351,-3.6383 3.3391,-4.9398 1.1978,-1.5778 1.2925,-1.7184 1.2925,-1.9187 0,-0.11067 -0.12727,-0.47251 -0.28283,-0.80409 -0.21877,-0.46633 -0.28384,-0.72586 -0.2873,-1.1459 -0.0052,-0.63155 0.13246,-0.84433 0.71495,-1.105 0.66437,-0.29735 1.2076,-0.007 1.6325,0.87241 0.44171,0.91435 1.0184,1.6024 1.7505,2.0883 1.1055,0.73389 1.479,0.86703 4.1631,1.4841 0.93351,0.21459 1.2325,0.28942 1.8946,0.47423 1.3733,0.38329 3.3402,0.5183 4.3996,0.302 0.79772,-0.16287 3.7059,-1.1103 3.9457,-1.2854 0.11868,-0.0867 0.10046,-0.15447 -0.14394,-0.53533 -0.26322,-0.41019 -0.53514,-1.1229 -0.67696,-1.7744 l -0.06255,-0.2873 h -0.81674 c -0.47956,0 -1.0068,-0.0565 -1.2772,-0.13673 -0.51869,-0.15403 -1.9696,-1.1064 -2.7739,-1.8207 -0.75372,-0.66944 -0.72773,-0.66356 -1.0262,-0.23195 -0.32259,0.46655 -1.3383,1.4462 -1.8713,1.8049 -0.65236,0.43899 -1.3275,0.71478 -2.116,0.86435 -0.91472,0.17352 -1.2597,0.11659 -1.6483,-0.27199 -0.34384,-0.34385 -0.43406,-0.61141 -0.35259,-1.0457 0.10187,-0.54299 0.40858,-0.79984 1.2149,-1.0174 1.0965,-0.29587 1.6378,-0.5897 2.2953,-1.246 0.52938,-0.52839 0.66628,-0.74809 1.3987,-2.2447 0.92791,-1.896 1.2269,-2.2649 2.2825,-2.8167 l 0.64361,-0.33639 -0.05286,-0.76727 c -0.04405,-0.6394 -0.02608,-0.81883 0.1078,-1.0767 0.21449,-0.4131 0.67901,-0.63281 1.1252,-0.53219 0.4639,0.10463 0.64534,0.29841 1.0363,1.1068 0.18811,0.38896 0.56016,1.0453 0.82677,1.4586 0.85334,1.3228 1.0427,1.7442 0.99701,2.2192 -0.02209,0.22992 -0.106,0.48387 -0.18645,0.56432 -0.08046,0.0805 -0.14629,0.17693 -0.14629,0.21438 0,0.0859 -0.61378,0.27289 -0.89585,0.27289 -0.2264,0 -0.74665,-0.31167 -1.1816,-0.70785 -0.50714,-0.46196 -1.1266,-0.40397 -1.4608,0.13675 -0.16868,0.27292 -0.24771,1.0125 -0.10833,1.0137 0.03646,3.1e-4 0.13036,0.1132 0.20866,0.25087 0.17262,0.30351 1.7597,1.5906 2.2254,1.8048 0.6875,0.31616 1.2633,0.17154 2.2216,-0.55795 2.3924,-1.8212 2.8084,-2.4462 2.3996,-3.6049 -0.20044,-0.5681 -1.215,-2.708 -1.2994,-2.7407 -0.04185,-0.0162 -0.07609,-0.0658 -0.07609,-0.11012 0,-0.0881 -0.28738,-0.71534 -1.1831,-2.5822 -0.72068,-1.5019 -0.75614,-1.8176 -0.26519,-2.3611 0.26677,-0.29528 0.37557,-0.35386 0.65725,-0.35386 0.42491,0 0.72419,0.1124 0.95287,0.35786 0.18019,0.19341 0.28805,0.40261 1.4108,2.7362 2.159,4.4873 2.1694,4.5136 2.1772,5.4809 0.0033,0.41327 -0.02504,0.96143 -0.06303,1.2181 l -0.06906,0.46671 0.32059,-0.13395 c 0.51068,-0.21338 0.9825,-0.63807 1.1938,-1.0746 0.15964,-0.32978 0.18585,-0.49636 0.14284,-0.90788 -0.05493,-0.52554 -0.15509,-0.78387 -0.97659,-2.5188 -0.27339,-0.57735 -0.49706,-1.0663 -0.49706,-1.0866 0,-0.042 -0.3735,-0.85252 -0.93012,-2.0185 -0.20889,-0.43758 -0.47926,-1.0343 -0.60082,-1.326 -0.24073,-0.57774 -0.90707,-2.0229 -1.2748,-2.7649 -0.50452,-1.0179 -1.2392,-1.5937 -2.1376,-1.6752 -0.74998,-0.068 -0.78569,-0.05009 -7.1234,3.5745 -1.6531,0.94542 -3.3836,1.9519 -3.8454,2.2367 -0.4619,0.28475 -1.0586,0.64797 -1.326,0.80715 -0.26741,0.15918 -0.52599,0.32015 -0.57461,0.35772 -0.04862,0.0376 -0.705,0.47282 -1.4586,0.96722 -3.5564,2.3331 -4.3136,2.8864 -5.3062,3.8775 -1.2311,1.2292 -2.0216,2.4765 -4.073,6.4268 -0.34868,0.67141 -0.66797,1.2641 -0.70954,1.3171 -0.04157,0.053 -0.19069,0.31209 -0.33138,0.57574 -0.14069,0.26364 -0.49912,0.86557 -0.7965,1.3376 -0.29739,0.47204 -0.54071,0.89586 -0.54071,0.94181 0,0.046 -0.02983,0.0968 -0.0663,0.11303 -0.03646,0.0162 -0.24217,0.28804 -0.45713,0.60407 -0.34969,0.51413 -0.86617,1.2216 -2.3555,3.2266 -0.25281,0.34034 -0.5843,0.75804 -0.73664,0.92821 -0.15235,0.17017 -0.444,0.52819 -0.64812,0.79561 -0.20412,0.26741 -0.4322,0.55071 -0.50685,0.62955 -0.07465,0.0788 -0.27497,0.31629 -0.44514,0.52767 -0.47932,0.5954 -3.0113,3.4824 -4.0632,4.633 -0.25968,0.28403 -1.7539,2.0553 -2.4635,2.9203 -0.08114,0.0989 -0.32869,0.39726 -0.55011,0.66301 -2.0231,2.4281 -4.1091,5.9675 -5.5062,9.3425 -0.24372,0.58875 -1.0174,2.9288 -1.2942,3.9146 -0.06145,0.21879 -0.16405,0.57681 -0.22801,0.79561 -0.06396,0.21879 -0.28101,1.094 -0.48233,1.9448 -1.0914,4.6127 -1.5086,6.1085 -1.9847,7.1163 -0.96101,2.0341 -1.2846,3.0261 -1.2846,3.9379 0,1.7352 0.62744,2.977 2.4667,4.8816 0.97012,1.0046 2.0467,1.7687 3.854,2.7352 0.68069,0.36405 1.3929,0.75025 1.5826,0.85822 0.46092,0.26227 2.3837,1.5159 2.4396,1.5905 0.02431,0.0325 0.30277,0.23281 0.61881,0.44517 0.31603,0.21237 0.67406,0.46092 0.79561,0.55235 0.12155,0.0914 0.51936,0.3584 0.88401,0.59328 0.36466,0.23487 1.021,0.66345 1.4586,0.95238 0.81607,0.53885 3.1693,1.9619 3.8012,2.2987 0.19448,0.10365 0.5724,0.31125 0.83981,0.46132 0.57756,0.32414 2.1815,1.1158 3.0498,1.5052 0.34034,0.15266 0.69164,0.31837 0.78067,0.36824 0.80253,0.44962 4.1659,1.5878 5.982,2.0244 4.0529,0.97432 6.7986,1.2427 10.845,1.06 2.591,-0.11696 2.7641,-0.0954 3.1966,0.39707 0.32854,0.37419 0.40451,0.60985 0.67045,2.0796 0.53298,2.9456 1.2625,6.2176 2.1286,9.5473 0.35319,1.3578 1.7456,5.849 2.0007,6.4533 0.05131,0.12155 0.38434,0.99672 0.74005,1.9448 0.60296,1.6071 0.97905,2.551 1.3065,3.279 0.07452,0.16568 0.35479,0.81839 0.62284,1.4505 0.63306,1.4928 1.1001,2.5039 1.7353,3.757 0.28343,0.55914 1.121,2.21 1.8612,3.6686 2.0154,3.9713 2.6447,5.6785 3.0898,8.3824 0.82594,5.0172 0.91845,10.947 0.26712,17.121 -0.34112,3.234 -0.86909,6.6172 -1.1033,7.0701 -0.38215,0.739 -1.4716,1.0302 -2.2013,0.58851 z m 0.15923,-131.29 c 1.0599,-0.22455 1.6272,-0.7955 1.7034,-1.7143 0.05118,-0.61744 -0.2155,-1.1989 -0.66941,-1.4596 -0.56721,-0.32572 -1.6414,-0.17177 -2.8076,0.40239 -0.72262,0.35574 -1.0216,0.76957 -1.0166,1.4072 0.0096,1.2367 1.0323,1.7367 2.7903,1.3643 z m 68.463,0.0383 c 0.52227,-0.112 0.83705,-0.36078 1.0237,-0.80904 0.32446,-0.77927 0.0257,-1.5168 -0.79137,-1.9534 -1.1258,-0.60155 -2.2273,-0.77142 -2.9818,-0.45981 -0.43482,0.1796 -0.70441,1.1822 -0.51085,1.8999 0.28123,1.0427 1.7626,1.6435 3.2603,1.3223 z m -64.144,-8.1934 c 0.34432,-0.81921 0.2131,-1.6394 -0.44246,-2.7657 -0.44242,-0.76008 -1.3734,-2.3153 -1.6148,-2.6978 -0.07293,-0.1155 -0.34167,-0.54736 -0.5972,-0.95968 -0.25553,-0.41232 -0.50212,-0.77286 -0.54797,-0.80119 -0.04585,-0.02834 0.09753,0.35731 0.31863,0.857 0.2211,0.49969 0.52093,1.187 0.66629,1.5273 0.28281,0.66216 0.60603,1.3728 0.8845,1.9448 0.4033,0.82836 0.86617,2.1025 0.96041,2.6436 0.05584,0.32064 0.13118,0.58299 0.16742,0.58299 0.03625,0 0.1286,-0.14918 0.20523,-0.33151 z m 58.538,-0.1989 c 0.13006,-0.66299 0.51266,-1.7204 1.0298,-2.8462 0.29713,-0.64684 0.67799,-1.4943 0.84637,-1.8833 0.16838,-0.38897 0.46242,-1.0362 0.65342,-1.4382 0.191,-0.40206 0.34727,-0.77534 0.34727,-0.82951 0,-0.05417 -0.25857,0.28555 -0.57461,0.75493 -0.31603,0.46938 -0.5746,0.87515 -0.5746,0.90171 0,0.02656 -0.0943,0.17492 -0.20966,0.32969 -0.32962,0.44243 -1.5635,2.5285 -1.8135,3.066 -0.28847,0.62027 -0.31972,1.7203 -0.0626,2.2031 0.17887,0.33581 0.25189,0.28314 0.3581,-0.25825 z m -82.651,64.256 c -3.0609,-0.29228 -5.7096,-1.1834 -8.7959,-2.9593 -1.0326,-0.59416 -3.2521,-2.3539 -3.6853,-2.9219 -0.30682,-0.40226 -0.37955,-1.1061 -0.1592,-1.5406 0.32337,-0.63776 0.72096,-0.89495 1.3757,-0.88987 0.52675,0.004 0.84163,0.16338 1.4818,0.74966 0.67612,0.61924 2.0337,1.6185 2.8435,2.093 3.6558,2.1421 7.2425,2.8355 11.846,2.2902 0.87941,-0.10418 0.94998,-0.10029 1.3422,0.074 0.55976,0.24872 0.90272,0.77834 0.90176,1.3925 -0.0013,0.82763 -0.51816,1.3772 -1.4521,1.544 -1.3913,0.2485 -4.0394,0.32673 -5.6981,0.16835 z m 102.19,0.008 c -1.872,-0.1551 -2.389,-0.34048 -2.7918,-1.0011 -0.34399,-0.56413 -0.16288,-1.4583 0.38985,-1.9248 0.40051,-0.33801 0.73851,-0.37103 2.2346,-0.21829 2.3884,0.24382 4.331,0.17208 6.046,-0.22326 0.84602,-0.19503 2.2085,-0.59574 2.3426,-0.68899 0.0486,-0.0338 0.38675,-0.17748 0.75141,-0.31929 0.55658,-0.21644 1.4985,-0.68564 2.0332,-1.0128 0.0729,-0.0446 0.31161,-0.18879 0.5304,-0.32037 0.47203,-0.28387 2.0115,-1.4501 2.4133,-1.8283 0.65027,-0.61193 0.94624,-0.76891 1.4498,-0.76891 0.59333,0 0.92706,0.16747 1.2659,0.63525 0.20684,0.28553 0.26346,0.45659 0.26346,0.79596 0,0.84603 -0.36788,1.2694 -2.6962,3.103 -0.4135,0.32562 -1.7764,1.1448 -2.7448,1.6499 -1.7644,0.92011 -4.0741,1.6654 -6.0511,1.9524 -1.4028,0.20367 -4.0348,0.2858 -5.4367,0.16965 z m -127.53,-17.236 c -0.4452,-0.23521 -0.71162,-0.69341 -0.70701,-1.216 0.0059,-0.66628 0.42019,-3.0502 0.76042,-4.3753 0.44875,-1.7478 1.3998,-4.0536 2.4151,-5.8551 0.95356,-1.692 2.581,-3.8899 3.093,-4.177 0.61978,-0.34755 1.2536,-0.21291 1.7062,0.36243 0.40446,0.51418 0.27855,1.4292 -0.27082,1.9682 -0.14301,0.14031 -0.26113,0.2953 -0.26248,0.34442 -0.0013,0.0491 -0.10191,0.19656 -0.22346,0.32764 -0.12155,0.13109 -0.221,0.26582 -0.221,0.2994 0,0.0336 -0.13923,0.23097 -0.3094,0.43864 -0.17017,0.20767 -0.3094,0.39979 -0.3094,0.42692 0,0.0271 -0.18153,0.31879 -0.40341,0.64813 -0.43038,0.63885 -1.7179,3.1777 -1.7188,3.3894 -2.99e-4,0.0696 -0.05508,0.23114 -0.12173,0.35887 -0.38223,0.73254 -0.74273,2.1448 -1.2906,5.0556 -0.28556,1.5173 -0.41208,1.7978 -0.91932,2.0385 -0.39624,0.18803 -0.81831,0.17594 -1.2174,-0.0349 z m 155.82,0.0139 c -0.55979,-0.34578 -0.61245,-0.47635 -0.93186,-2.3108 -0.40388,-2.3195 -0.97462,-4.2793 -1.6992,-5.8345 -0.8457,-1.8153 -0.99677,-2.0995 -1.5419,-2.9007 -0.20885,-0.30695 -0.37972,-0.57285 -0.37972,-0.59088 0,-0.018 -0.32216,-0.46306 -0.7159,-0.98893 -0.87391,-1.1672 -0.97849,-1.3626 -0.98574,-1.8418 -0.0158,-1.046 1.0932,-1.705 1.9465,-1.1567 0.38236,0.24567 0.36453,0.22514 1.3513,1.5562 1.4527,1.9594 2.171,3.2006 3.0441,5.2599 0.0618,0.14586 0.17432,0.40443 0.24996,0.5746 0.76495,1.721 1.7936,6.3411 1.6182,7.2684 -0.16746,0.88559 -1.2332,1.4116 -1.9558,0.96524 z m -166.62,-21.933 c -0.6949,-0.21938 -1.1407,-0.84445 -1.1349,-1.5913 0.0042,-0.54277 -0.13758,-0.23386 3.5717,-7.7816 0.70487,-1.4343 1.3941,-2.8664 1.5315,-3.1824 0.13748,-0.31604 0.34142,-0.72299 0.4532,-0.90436 0.11178,-0.18136 0.20324,-0.35014 0.20324,-0.37507 0,-0.0249 0.23465,-0.53292 0.52144,-1.1289 0.28679,-0.59598 0.94758,-1.9985 1.4684,-3.1168 0.52083,-1.1183 1.0005,-2.1327 1.0659,-2.2542 0.06542,-0.12155 0.21576,-0.4398 0.33409,-0.70721 0.11833,-0.26741 0.53246,-1.1426 0.92029,-1.9448 1.2858,-2.6596 1.6127,-3.3492 1.6127,-3.4013 0,-0.0284 0.30351,-0.67697 0.67447,-1.4413 0.37096,-0.76432 0.80296,-1.6681 0.96,-2.0085 0.50298,-1.0901 1.0184,-2.1761 1.6783,-3.536 0.35387,-0.72931 0.73289,-1.5249 0.84226,-1.768 0.10937,-0.2431 0.47232,-1.011 0.80655,-1.7064 0.33423,-0.69543 0.60769,-1.2813 0.60769,-1.3019 0,-0.02062 0.26289,-0.58538 0.5842,-1.255 0.57263,-1.1934 0.87394,-1.8345 1.3616,-2.8971 0.13387,-0.29172 0.39412,-0.84865 0.57834,-1.2376 0.18421,-0.38896 0.87935,-1.9802 1.5447,-3.536 l 1.2098,-2.8288 -0.31879,-0.05635 c -0.17533,-0.03099 -1.2735,-0.10424 -2.4404,-0.16277 -1.1669,-0.05853 -2.3158,-0.14252 -2.553,-0.18664 -1.2116,-0.2253 -1.9962,-1.4274 -1.7393,-2.6647 0.19438,-0.93633 0.35924,-1.0882 4.7343,-4.3627 0.43759,-0.3275 1.6111,-1.2128 2.6078,-1.9673 0.9967,-0.7545 3.1051,-2.3479 4.6853,-3.5409 1.5802,-1.193 3.1515,-2.3798 3.4918,-2.6375 0.65862,-0.49859 1.376,-0.81956 1.8318,-0.81956 0.60921,0 1.2982,0.2762 1.7406,0.6977 0.56525,0.53864 0.72394,0.97179 1.1694,3.1919 0.0439,0.21879 0.0964,0.47737 0.11667,0.57461 0.02027,0.09724 0.08154,0.41549 0.13615,0.70721 0.05461,0.29172 0.20069,1.0277 0.32462,1.6354 0.12393,0.60776 0.27751,1.3636 0.34129,1.6796 0.06378,0.316 0.20219,0.95252 0.30758,1.4144 0.10539,0.46188 0.2235,1.0387 0.26247,1.2818 0.09989,0.62315 0.48892,2.5056 0.84038,4.0665 0.16422,0.72931 0.43858,2.0222 0.60969,2.873 0.17111,0.85086 0.41249,2.0138 0.53639,2.5842 0.27019,1.244 0.28464,1.8595 0.05618,2.3924 -0.48548,1.1326 -1.8941,1.712 -2.9718,1.2225 -0.33543,-0.15237 -1.2523,-0.84478 -1.5443,-1.1663 -0.07293,-0.08028 -0.6443,-0.61594 -1.2697,-1.1904 -1.2774,-1.1733 -1.1617,-1.1567 -1.5258,-0.21806 -0.10372,0.26741 -0.31793,0.76467 -0.476,1.105 -0.15808,0.34034 -0.57473,1.2752 -0.9259,2.0774 -1.3125,2.9983 -2.3381,5.2822 -2.6893,5.9883 -0.19923,0.40062 -0.36223,0.74565 -0.36223,0.76675 0,0.0211 -0.26309,0.58838 -0.58464,1.2606 -0.32155,0.67222 -0.69452,1.461 -0.82881,1.7527 -0.29214,0.63462 -0.63794,1.3475 -0.77191,1.5912 -0.05344,0.09724 -1.9531,3.8963 -4.2214,8.4423 -2.2683,4.546 -4.1606,8.3252 -4.2051,8.3981 -0.04448,0.0729 -0.41894,0.82658 -0.83214,1.6748 -0.83483,1.7137 -1.2188,2.3328 -1.5368,2.4776 -1.0649,0.48521 -2.2715,-0.18324 -2.3806,-1.3189 -0.04088,-0.42542 9.84e-4,-0.5341 0.89556,-2.325 0.51615,-1.0333 0.99551,-1.9782 1.0653,-2.0997 0.06975,-0.12155 0.73262,-1.4343 1.4731,-2.9172 0.74043,-1.4829 2.1917,-4.3869 3.2251,-6.4533 2.2595,-4.5182 4.4528,-8.9945 5.4141,-11.05 0.38441,-0.82196 1.3175,-2.8511 1.565,-3.4034 0.06537,-0.14586 0.33564,-0.74257 0.60061,-1.326 0.50098,-1.1031 0.87529,-1.9329 1.0767,-2.3868 0.06472,-0.14586 0.32464,-0.72268 0.5776,-1.2818 0.25296,-0.55912 0.62885,-1.4144 0.83532,-1.9006 0.8719,-2.0532 1.4532,-3.2497 1.7106,-3.5212 0.3081,-0.32487 0.74285,-0.50325 1.2474,-0.5118 0.71165,-0.01206 1.0045,0.17757 2.6402,1.7095 0.45252,0.42382 0.94476,0.85745 1.0939,0.96362 l 0.27109,0.19303 -0.10106,-0.18884 c -0.05559,-0.10386 -0.13536,-0.35848 -0.17728,-0.56581 -0.04192,-0.20733 -0.20082,-0.95379 -0.35311,-1.6588 -0.1523,-0.705 -0.39396,-1.8785 -0.53703,-2.6078 -0.14307,-0.72931 -0.33761,-1.684 -0.43231,-2.1216 -0.0947,-0.43758 -0.23793,-1.1139 -0.31828,-1.5028 -0.08035,-0.38896 -0.20155,-0.96578 -0.26933,-1.2818 -0.06778,-0.31603 -0.16474,-0.7934 -0.21547,-1.0608 -0.11701,-0.61682 -0.67747,-3.3768 -0.85717,-4.2212 -0.07502,-0.3525 -0.15719,-0.64091 -0.18258,-0.64091 -0.04149,0 -2.5209,1.8585 -7.3228,5.4889 -0.92669,0.70061 -2.2593,1.7078 -2.9614,2.2382 -1.589,1.2005 -1.8511,1.4092 -1.8511,1.4742 -2e-6,0.02849 0.24862,0.05962 0.5525,0.0692 1.087,0.03423 4.0945,0.28628 4.4085,0.36946 0.44151,0.11695 0.73676,0.37058 0.95413,0.81962 0.27678,0.57174 0.23515,0.99254 -0.21802,2.204 -0.2214,0.59186 -0.43352,1.1174 -0.47139,1.1679 -0.03787,0.05046 -0.12071,0.23098 -0.18409,0.40116 -0.15019,0.40323 -1.4787,3.5899 -1.6401,3.9338 -0.06841,0.14586 -0.24212,0.56356 -0.38601,0.92821 -0.14389,0.36466 -0.4039,0.95247 -0.5778,1.3063 -0.1739,0.35378 -0.31617,0.68197 -0.31617,0.72931 0,0.04733 -0.03978,0.08606 -0.0884,0.08606 -0.04862,0 -0.0884,0.06021 -0.0884,0.1338 0,0.07359 -0.03802,0.20288 -0.08449,0.2873 -0.04647,0.08443 -0.20064,0.41208 -0.34261,0.72811 -0.14197,0.31603 -0.40678,0.89285 -0.58848,1.2818 -0.30904,0.66156 -0.57212,1.2091 -2.2725,4.7295 -0.364,0.75362 -0.75405,1.5691 -0.86678,1.8122 -0.11273,0.2431 -0.57654,1.2098 -1.0307,2.1481 -0.45416,0.9383 -0.82574,1.7317 -0.82574,1.763 0,0.0313 -0.23608,0.53651 -0.52462,1.1227 -0.70434,1.431 -2.2158,4.5756 -2.2158,4.61 0,0.0152 -0.33261,0.71569 -0.73913,1.5567 -0.40652,0.84101 -0.76551,1.6132 -0.79774,1.716 -0.03224,0.10276 -0.31622,0.71075 -0.63109,1.3511 -0.31486,0.64034 -0.57248,1.1817 -0.57248,1.203 0,0.0213 -0.33814,0.73828 -0.75141,1.5933 -0.41328,0.85504 -0.75141,1.567 -0.75141,1.582 0,0.0245 -0.25574,0.56129 -1.8563,3.8963 -0.23334,0.48621 -0.81082,1.6796 -1.2833,2.652 -0.47248,0.9724 -1.1086,2.2861 -1.4135,2.9194 -1.1611,2.4109 -1.7433,3.5408 -1.9245,3.7351 -0.38331,0.41096 -1.1014,0.61997 -1.5948,0.4642 z m 177.98,0.003 c -0.42766,-0.13008 -0.78794,-0.3619 -1.005,-0.64662 -0.20486,-0.26875 -1.4716,-2.7578 -2.562,-5.0344 -0.26322,-0.54951 -0.81521,-1.6953 -1.2267,-2.5461 -0.41144,-0.85086 -0.87767,-1.8255 -1.0361,-2.1658 -0.15839,-0.34035 -0.5772,-1.2155 -0.93069,-1.9448 -0.88212,-1.8199 -1.7071,-3.5454 -1.9231,-4.0222 -0.54147,-1.1953 -1.3357,-2.8815 -2.1443,-4.5527 -0.25878,-0.53482 -0.5587,-1.1713 -0.66648,-1.4144 -0.32336,-0.7294 -0.85008,-1.8382 -1.8477,-3.8896 -0.52016,-1.0697 -1.1155,-2.3227 -1.3229,-2.7846 -0.20745,-0.4619 -0.41252,-0.89948 -0.45573,-0.97241 -0.0432,-0.07293 -0.20456,-0.39118 -0.35857,-0.70721 -0.7363,-1.5109 -1.5894,-3.2869 -1.8473,-3.8454 -0.15711,-0.34034 -0.57492,-1.2155 -0.92847,-1.9448 -0.35354,-0.72931 -0.76234,-1.5846 -0.90844,-1.9006 -0.1461,-0.316 -0.41323,-0.89285 -0.59363,-1.2818 -0.1804,-0.38895 -0.42868,-0.926 -0.55173,-1.1934 -0.12306,-0.26741 -0.46134,-0.98346 -0.75173,-1.5912 -0.2904,-0.60776 -0.56068,-1.2045 -0.60063,-1.326 -0.04,-0.12155 -0.19935,-0.51936 -0.35421,-0.88401 -0.15486,-0.36465 -0.55903,-1.3393 -0.89816,-2.1658 -1.6844,-4.1054 -1.7304,-4.2502 -1.5673,-4.9301 0.12301,-0.51276 0.57431,-0.99647 1.0469,-1.1221 0.28987,-0.07706 3.4743,-0.33411 4.583,-0.36994 0.25526,-0.0083 0.46082,-0.03853 0.45681,-0.06728 -0.004,-0.02875 -1.0412,-0.828 -2.3049,-1.7761 -1.2637,-0.9481 -4.0087,-3.0099 -6.1001,-4.5818 -2.0914,-1.5719 -3.8154,-2.8449 -3.8312,-2.8288 -0.0158,0.01604 -0.0674,0.22806 -0.11463,0.47117 -0.0473,0.2431 -0.20706,1.0188 -0.35513,1.7238 -0.14807,0.705 -0.3723,1.8387 -0.49828,2.5194 -0.12599,0.68069 -0.28832,1.4604 -0.36073,1.7327 -0.12443,0.46782 -0.27933,1.2102 -0.7913,3.7924 -0.12049,0.60776 -0.3011,1.4829 -0.40134,1.9448 -0.10024,0.4619 -0.30395,1.4365 -0.45269,2.1658 -0.14874,0.72931 -0.29247,1.3658 -0.31942,1.4144 -0.0592,0.1068 0.33506,-0.24043 1.1693,-1.0299 1.922,-1.8188 2.5531,-2.1088 3.5108,-1.6136 0.54008,0.27929 0.58679,0.36326 2.0606,3.7043 0.47186,1.0697 0.94921,2.1437 1.0608,2.3868 0.11159,0.2431 0.54077,1.1978 0.95379,2.1216 0.41302,0.9238 0.9098,2.0178 1.104,2.431 0.1942,0.4132 0.45244,0.9702 0.57394,1.2376 0.40621,0.89399 0.87353,1.8921 1.3452,2.873 0.25718,0.53483 0.71541,1.4896 1.0183,2.1216 1.8361,3.8316 4.1751,8.5132 9.0984,18.211 1.1976,2.3589 1.7077,3.4514 1.7129,3.6686 0.0194,0.80054 -0.24114,1.2497 -0.92806,1.6001 -0.56794,0.28974 -1.2939,0.1787 -1.776,-0.27163 -0.23937,-0.22361 -1.9563,-3.5829 -7.3206,-14.323 -1.9269,-3.858 -3.7649,-7.5911 -4.5918,-9.3263 -0.72258,-1.5162 -2.3344,-5.01 -2.4267,-5.2599 -0.0628,-0.17017 -0.25249,-0.60776 -0.42152,-0.97241 -0.40916,-0.88275 -0.86101,-1.9194 -0.86101,-1.9753 0,-0.02477 -0.14521,-0.35623 -0.32268,-0.73659 -0.38916,-0.83404 -1.3326,-2.9809 -1.4617,-3.3264 l -0.0927,-0.248 -0.63057,0.60161 c -1.0347,0.98719 -2.2807,2.1104 -2.7522,2.4809 -0.53752,0.42243 -0.89416,0.55177 -1.5215,0.55177 -1.3134,0 -2.3239,-1.135 -2.2148,-2.4875 0.0352,-0.43658 0.92934,-4.9627 1.2637,-6.3968 0.0793,-0.34034 0.42018,-1.9713 0.7574,-3.6244 0.33723,-1.6531 0.63421,-3.0726 0.65995,-3.1543 0.0699,-0.22213 0.56185,-2.5828 0.69667,-3.3431 0.27027,-1.5241 0.68872,-3.4085 0.8606,-3.8754 0.37924,-1.0303 1.4324,-1.6906 2.5178,-1.5786 0.52482,0.05417 0.94795,0.26944 1.7634,0.89716 0.28651,0.22055 0.99829,0.74782 1.5817,1.1717 0.58341,0.42388 1.3465,0.99098 1.6957,1.2602 0.34919,0.26921 1.1448,0.86952 1.768,1.334 1.2981,0.96748 4.0957,3.0856 5.3322,4.037 0.4619,0.35542 1.411,1.0733 2.109,1.5952 2.4735,1.8493 2.8523,2.2541 2.9733,3.1764 0.12319,0.93915 -0.40099,1.9206 -1.2436,2.3285 -0.34764,0.16829 -0.67177,0.21184 -2.3203,0.31173 -1.0539,0.06386 -2.2794,0.14282 -2.7233,0.17547 l -0.80709,0.05936 0.38143,0.8964 c 0.20979,0.49302 0.71912,1.692 1.1318,2.6644 0.41273,0.97241 0.91601,2.126 1.1184,2.5636 0.20239,0.43759 0.46904,1.0144 0.59256,1.2818 0.12352,0.26741 0.60129,1.2818 1.0617,2.2542 0.46043,0.97241 0.98734,2.0863 1.1709,2.4752 0.66224,1.4032 2.3109,4.8421 2.8834,6.0146 0.21458,0.43943 0.39015,0.84718 0.39015,0.90611 0,0.05893 0.0298,0.10729 0.0663,0.10748 0.0365,1.83e-4 0.14262,0.18914 0.23589,0.41991 0.0933,0.23076 0.48556,1.0759 0.87174,1.8782 0.38618,0.80225 0.77657,1.6472 0.86753,1.8778 0.091,0.23052 0.26555,0.57781 0.38798,0.77175 0.12242,0.19393 0.22259,0.40512 0.22259,0.46929 0,0.0642 0.0348,0.15447 0.0774,0.20066 0.0426,0.0462 0.22618,0.42211 0.40801,0.83539 0.18182,0.41327 0.60446,1.316 0.93919,2.006 0.33474,0.69005 0.60861,1.2716 0.60861,1.2922 0,0.0207 0.31171,0.68928 0.69269,1.4858 0.38098,0.79651 0.7652,1.6073 0.85384,1.8018 0.0886,0.19449 0.57504,1.2089 1.0809,2.2542 0.50586,1.0454 1.0068,2.0935 1.1131,2.3292 0.2043,0.45294 1.1976,2.4783 3.6701,7.4833 1.7628,3.5683 1.7831,3.6154 1.7831,4.1258 0,0.66756 -0.33262,1.1709 -0.95606,1.4466 -0.41759,0.18472 -0.54914,0.19801 -0.90094,0.091 z"
         clip-path="url(#clipPath9)"
         id="push" /></g></g></svg>
