<?xml version="1.0" encoding="UTF-8" standalone="no"?>
<!-- Created with Inkscape (http://www.inkscape.org/) -->

<svg
   width="33.866684mm"
   height="33.866638mm"
   viewBox="0 0 33.866684 33.866638"
   version="1.1"
   id="svg1"
   xml:space="preserve"
   xmlns="http://www.w3.org/2000/svg"
   xmlns:svg="http://www.w3.org/2000/svg"><defs
     id="defs1" /><g
     id="layer1"
     transform="translate(-88.066665,-131.56671)"><g
       id="g10"><path
         d="m 107.04199,165.39083 c -0.0708,-0.023 -0.16685,-0.11553 -0.21338,-0.20563 -0.13639,-0.26409 -0.0283,-0.53361 0.59948,-1.49502 0.75198,-1.1516 1.67903,-2.72226 1.67903,-2.8448 0,-0.0232 -0.14785,-0.22012 -0.32855,-0.4377 -0.1807,-0.21757 -0.41043,-0.51309 -0.51049,-0.65668 -0.10006,-0.1436 -0.20388,-0.27207 -0.23071,-0.28548 -0.0268,-0.0134 -0.11025,0.0734 -0.18538,0.19299 -0.42095,0.66982 -1.40685,1.72051 -2.10489,2.2431 -0.78325,0.58645 -1.99536,1.16205 -2.61747,1.24294 l -0.2245,0.0292 0.14032,-0.0978 c 0.90492,-0.63093 1.25258,-0.89387 1.58807,-1.20109 0.42878,-0.39268 1.02968,-1.03334 1.34242,-1.43131 0.25642,-0.32631 0.89655,-1.27811 0.8726,-1.29748 -0.0102,-0.008 -0.24501,-0.0789 -0.52174,-0.15695 -0.68976,-0.19454 -1.86748,-0.66461 -2.42231,-0.96682 l -0.45986,-0.2505 -0.45351,0.24141 c -0.50873,0.27078 -1.12805,0.48572 -1.71374,0.59477 -0.63206,0.11769 -2.005903,0.0818 -1.94411,-0.0507 0.01116,-0.0239 0.276364,-0.0978 0.58932,-0.16406 1.11593,-0.23632 1.82358,-0.5109 2.81052,-1.09045 0.0289,-0.017 -0.0988,-0.16168 -0.28367,-0.3216 -0.34549,-0.29881 -0.52657,-0.54318 -0.52657,-0.71065 0,-0.0524 0.0113,-0.0953 0.0251,-0.0953 0.0138,0 0.19692,0.10576 0.40691,0.23502 1.01899,0.62718 2.33259,1.22911 3.58543,1.64295 0.6754,0.22311 1.4168,0.41569 1.46139,0.37962 0.0157,-0.0127 -0.0891,-0.28581 -0.23303,-0.60683 -0.1439,-0.32101 -0.62544,-1.43002 -1.07009,-2.46448 -0.44465,-1.03444 -0.81821,-1.8887 -0.83011,-1.89831 -0.0607,-0.0491 -1.21761,-0.31532 -1.24041,-0.28546 -0.0351,0.0459 -1.17802,0.65784 -1.71227,0.91673 -1.90402,0.92263 -3.988478,1.56274 -5.813436,1.78521 -0.821835,0.10022 -2.436954,0.0846 -2.436954,-0.0236 0,-0.0188 0.20837,-0.0784 0.463039,-0.13242 2.429741,-0.51507 3.997172,-0.98487 5.654761,-1.69475 0.75408,-0.32296 1.90728,-0.88706 2.3975,-1.17271 0.18894,-0.11012 0.38925,-0.22259 0.44513,-0.24993 0.0879,-0.043 0.045,-0.0726 -0.31811,-0.21946 -0.526,-0.21272 -0.89655,-0.3997 -0.89668,-0.45246 -2.1e-4,-0.0917 1.66105,0.15557 2.57357,0.38301 0.19618,0.0489 0.38349,0.0889 0.41624,0.0889 0.0328,0 -0.2086,-0.21966 -0.53631,-0.48814 -0.66995,-0.54885 -1.0385,-0.91092 -1.46754,-1.44171 -0.70654,-0.87412 -1.16777,-1.73167 -1.38094,-2.56746 -0.10081,-0.39528 -0.11627,-0.57372 -0.0923,-1.06512 0.0282,-0.57916 0.0898,-0.82367 0.29442,-1.1687 0.0553,-0.0933 0.0898,-0.17778 0.0765,-0.18766 -0.0189,-0.0141 -1.699479,0.21464 -3.307534,0.45014 l -0.196441,0.0288 0.140316,-0.12131 c 0.193817,-0.16756 0.864134,-0.49919 1.296286,-0.64131 0.197695,-0.065 0.684293,-0.18635 1.081313,-0.26962 0.39702,-0.0833 0.73461,-0.1617 0.75016,-0.17428 0.0156,-0.0126 1.1e-4,-0.0883 -0.0343,-0.16821 -0.22169,-0.51452 0.12679,-1.51295 0.83845,-2.40219 0.2596,-0.32437 0.50218,-0.57296 0.50192,-0.51433 -9e-5,0.0206 -0.0511,0.24974 -0.11333,0.50909 -0.2756,1.14846 -0.34596,1.83533 -0.21232,2.07251 0.0369,0.0655 0.13693,0.1483 0.22235,0.18403 0.14512,0.0607 0.22072,0.0473 1.15369,-0.20505 2.84913,-0.77055 4.92907,-0.79846 7.28498,-0.0978 0.64019,0.1904 0.63381,0.19663 0.20496,-0.20035 -0.26703,-0.2472 -0.70883,-0.5756 -1.83316,-1.36264 -2.37544,-1.66279 -3.49528,-3.0166 -3.96302,-4.79014 -0.10693,-0.40543 -0.12516,-0.60929 -0.12188,-1.36224 0.002,-0.51362 0.0396,-1.10429 0.0891,-1.40655 0.077,-0.47094 0.10017,-0.53149 0.24064,-0.62923 0.27301,-0.18999 0.75945,-0.0696 0.82409,0.20394 0.015,0.0634 -0.01,0.37379 -0.0545,0.68976 -0.10957,0.77046 -0.0664,2.00849 0.0893,2.5582 0.41185,1.45466 1.40261,2.56179 3.79438,4.23991 1.43406,1.00619 2.06895,1.5816 2.55744,2.31775 0.0671,0.10116 0.16649,0.15244 0.42095,0.21724 0.44229,0.11264 1.50774,0.55952 1.97714,0.8293 0.52367,0.30095 1.22573,0.88277 1.55229,1.28641 0.68427,0.84578 1.1101,1.89419 1.18994,2.92975 l 0.035,0.45408 0.31741,0.27245 c 2.07909,1.78452 3.04025,4.05971 3.45942,8.18962 0.0947,0.93326 0.0749,1.09237 -0.14799,1.18889 -0.16987,0.0736 -0.47684,0.0495 -0.63253,-0.0496 -0.18701,-0.11901 -0.24212,-0.30348 -0.28595,-0.95687 -0.17826,-2.65808 -0.93876,-5.09597 -2.03791,-6.53313 -0.3725,-0.48701 -0.96505,-1.10686 -0.99063,-1.03625 -0.68881,1.90036 -1.64352,3.08438 -3.13486,3.88775 -0.20837,0.11226 -0.37885,0.2084 -0.37885,0.21363 0,0.005 0.15117,0.26519 0.33593,0.57768 0.18477,0.31249 0.42346,0.81416 0.53041,1.11484 0.18047,0.50726 0.34777,1.26363 0.30335,1.37144 -0.0105,0.0256 -0.0757,-0.0404 -0.14487,-0.14655 -0.0691,-0.10619 -0.29932,-0.4598 -0.51154,-0.7858 -0.56044,-0.86104 -0.97966,-1.35724 -1.49409,-1.76856 -0.50023,-0.3999 -0.83872,-0.57899 -1.58888,-0.84064 -0.54946,-0.19165 -5.17301,-1.46974 -5.20971,-1.4401 -0.0241,0.0195 0.88804,2.23315 1.23649,3.00098 0.79601,1.75415 1.48327,2.84532 2.38222,3.78203 0.49047,0.51109 1.50653,1.30901 2.20403,1.73081 0.29752,0.17991 0.55638,0.35973 0.5753,0.3996 0.14296,0.3014 -0.11762,0.6563 -0.48047,0.65436 -0.3759,-0.002 -1.02035,-0.34576 -1.97398,-1.05292 -0.3854,-0.28578 -0.50755,-0.35378 -0.54637,-0.30414 -0.0275,0.0351 -0.0504,0.0789 -0.0509,0.0973 -10e-4,0.059 -0.83887,1.56896 -1.19905,2.16209 -0.1918,0.31588 -0.45975,0.77492 -0.59543,1.0201 -0.13568,0.24518 -0.29838,0.47505 -0.36155,0.51085 -0.1282,0.0726 -0.44323,0.0813 -0.6396,0.0175 z m 7.23174,-10.84306 c 0.3278,-0.16924 0.91129,-0.67722 1.25048,-1.08874 0.31077,-0.377 0.80922,-1.20928 0.98408,-1.64317 0.34195,-0.84848 0.48414,-1.96267 0.34812,-2.72776 -0.29104,-1.63694 -1.58419,-2.98793 -3.44924,-3.60371 -0.25046,-0.0827 -0.52525,-0.16365 -0.61068,-0.17991 -0.15344,-0.0292 -0.15232,-0.0264 0.0932,0.23258 0.23406,0.24694 0.81984,1.03828 0.81984,1.10754 0,0.0175 -0.28413,-0.19838 -0.63143,-0.47975 -0.8692,-0.70425 -1.6072,-1.07952 -2.70805,-1.37702 -0.97875,-0.26451 -1.34073,-0.30549 -2.69406,-0.30498 -1.1406,5.2e-4 -1.29255,0.0103 -1.99248,0.12961 -0.41673,0.071 -0.77847,0.13935 -0.80386,0.15182 -0.0254,0.0125 0.14197,0.0888 0.3719,0.16973 0.46714,0.16429 0.73334,0.28803 1.10548,0.51388 1.07675,0.65349 2.10713,1.68301 2.83618,2.83382 0.16881,0.26648 0.30693,0.49796 0.30693,0.51442 0,0.0165 -0.233,-0.22199 -0.51777,-0.5299 -0.61517,-0.66512 -1.90077,-1.72154 -2.54344,-2.09001 -1.00062,-0.57373 -1.88361,-0.85418 -2.68663,-0.85327 -0.99351,0.001 -1.45144,0.46589 -1.45362,1.47533 -0.003,1.41885 1.00963,3.14772 2.5952,4.43059 1.33899,1.0833 2.62087,1.64263 5.63482,2.45866 0.64284,0.17404 1.17976,0.30758 1.19315,0.29676 0.0375,-0.0304 -0.46393,-1.57758 -0.71749,-2.21375 -0.12443,-0.31218 -0.35133,-0.84034 -0.50423,-1.1737 -0.1529,-0.33336 -0.2693,-0.61314 -0.25868,-0.62173 0.031,-0.0251 0.54777,0.59257 0.925,1.10548 0.191,0.2597 0.46556,0.68977 0.61015,0.95569 0.25786,0.47433 0.72135,1.5615 0.87194,2.04539 l 0.0763,0.24499 0.44736,0.17504 c 0.54388,0.21279 0.76146,0.22191 1.1018,0.0462 z m -23.014027,10.58048 c -0.181842,-0.14711 -0.190762,-0.19132 -0.282833,-1.40179 -0.07562,-0.99424 -0.161781,-1.42193 -0.501285,-2.48834 -0.376808,-1.18354 -0.453959,-1.53715 -0.490467,-2.24773 -0.03588,-0.6985 0.03605,-1.35274 0.238434,-2.16861 l 0.13808,-0.55669 -0.190561,-0.30614 c -0.38018,-0.61077 -0.483699,-1.16041 -0.374431,-1.9879 0.240132,-1.8185 1.266461,-3.64696 3.009918,-5.36181 0.668253,-0.65733 2.09973,-1.84064 3.166894,-2.61792 0.478481,-0.34849 0.877668,-0.65 0.887087,-0.67002 0.0094,-0.02 -0.07202,-0.17964 -0.18099,-0.3547 -0.221634,-0.35608 -0.977072,-1.80958 -1.266333,-2.43651 -0.1037,-0.22477 -0.20369,-0.42339 -0.222207,-0.44138 -0.01852,-0.018 -0.172061,-0.003 -0.341211,0.0342 -0.169162,0.0368 -0.610639,0.10981 -0.981082,0.16232 -2.15673,0.30573 -3.168591,-0.31566 -3.170713,-1.94705 l -4.24e-4,-0.33014 -0.250653,-0.14295 c -0.348382,-0.19867 -0.444583,-0.38017 -0.396005,-0.74719 0.03697,-0.27929 0.03173,-0.29706 -0.132134,-0.44805 -0.230586,-0.21247 -0.304386,-0.45957 -0.257675,-0.86278 l 0.03815,-0.32939 -0.384826,-0.10244 c -0.544517,-0.14495 -0.88015,-0.29004 -1.051042,-0.45435 -0.181503,-0.17451 -0.227404,-0.31155 -0.1784,-0.53258 0.0421,-0.18986 0.635246,-1.33029 1.151741,-2.21443 0.186077,-0.31852 0.338327,-0.61072 0.338327,-0.64932 0,-0.0386 -0.05683,-0.16349 -0.126284,-0.27751 -0.102319,-0.16798 -0.129949,-0.3018 -0.1456,-0.70518 -0.02318,-0.59753 0.04116,-0.81326 0.271252,-0.90952 0.249274,-0.10429 0.42216,-0.0852 0.577058,0.0637 0.124847,0.12004 0.139951,0.18238 0.16543,0.6829 0.02729,0.53618 0.03301,0.5564 0.215588,0.76209 0.115341,0.12994 0.187389,0.26474 0.187145,0.35014 -2.12e-4,0.079 -0.195425,0.47168 -0.452749,0.9108 -0.434168,0.74089 -0.980509,1.75672 -1.052782,1.95751 -0.05531,0.15365 0.110685,0.2187 0.866086,0.33944 0.492524,0.0787 0.673641,0.22031 0.673195,0.52624 -1.78e-4,0.12055 -0.02463,0.33925 -0.05433,0.48598 -0.06114,0.30204 -0.04023,0.35117 0.248892,0.5851 0.22017,0.17812 0.245159,0.30028 0.131661,0.64359 l -0.067,0.20265 0.291679,0.24953 c 0.160428,0.13723 0.31512,0.29939 0.343757,0.36033 0.02864,0.0609 0.0685,0.31241 0.08857,0.5588 0.05166,0.63413 0.146054,0.8779 0.416433,1.07554 0.265121,0.1938 0.479012,0.23301 1.090881,0.20008 0.809447,-0.0436 2.90364,-0.52733 4.609805,-1.06487 1.569149,-0.49437 2.232251,-0.8535 2.513751,-1.36151 0.17295,-0.31214 0.38609,-0.96003 0.51117,-1.55372 0.0496,-0.2354 0.12785,-0.47454 0.17393,-0.53143 0.1102,-0.13607 0.44814,-0.18959 0.64182,-0.10165 0.3221,0.14627 0.33472,0.35754 0.0778,1.30271 -0.26586,0.97815 -0.52859,1.47537 -1.04351,1.97486 -0.30596,0.2968 -1.150598,2.0205 -2.129156,4.34494 -0.215545,0.51199 -0.42023,0.95882 -0.454871,0.99299 -0.03464,0.0342 -0.45521,0.32941 -0.934604,0.65609 -1.093977,0.74551 -2.91361,2.21238 -3.559123,2.86901 -1.764288,1.79499 -2.726724,3.63357 -2.732876,5.22107 -0.0024,0.59718 0.06413,0.86846 0.295137,1.20422 0.364546,0.52985 0.350313,0.41943 0.15318,1.18914 -0.149257,0.58277 -0.182507,0.82811 -0.205427,1.51576 -0.03778,1.13365 -0.0049,1.30953 0.571818,3.0619 0.327211,0.99423 0.478863,1.96748 0.479924,3.07993 l 6.36e-4,0.60516 -0.164061,0.13273 c -0.228655,0.18499 -0.563524,0.18679 -0.789168,0.004 z m 6.422459,-20.69759 c 0.07783,-0.25089 1.394736,-3.3111 1.448193,-3.36533 0.09459,-0.0959 -0.04446,-0.068 -0.706373,0.14183 -0.344563,0.10923 -0.986406,0.29483 -1.42628,0.41244 -0.439894,0.11762 -0.799795,0.22956 -0.799795,0.24877 0,0.0289 0.589998,1.2099 1.220004,2.44201 0.151389,0.29606 0.202494,0.31933 0.26423,0.1203 z"
         id="shoulders"
         style="stroke-width:0.190804" /></g></g></svg>
