<?xml version="1.0" encoding="UTF-8" standalone="no"?>
<!-- Created with Inkscape (http://www.inkscape.org/) -->

<svg
   width="33.866383mm"
   height="33.867077mm"
   viewBox="0 0 33.866383 33.867077"
   version="1.1"
   id="svg1"
   xml:space="preserve"
   xmlns="http://www.w3.org/2000/svg"
   xmlns:svg="http://www.w3.org/2000/svg"><defs
     id="defs1" /><g
     id="layer1"
     transform="translate(-88.066668,-131.56611)"><g
       id="g9"><path
         d="m 105.29694,165.40049 c -0.73377,-0.058 -1.20909,-0.14609 -1.39895,-0.25928 -0.49009,-0.29214 -0.50645,-1.08119 -0.0321,-1.54922 0.11091,-0.10944 0.50924,-0.38121 0.88516,-0.60394 0.74824,-0.4433 0.88147,-0.57737 1.56461,-1.57437 l 0.3464,-0.50554 -0.20863,-0.46701 c -0.11474,-0.25685 -0.41274,-0.9064 -0.66222,-1.44341 -0.56581,-1.21796 -1.53639,-3.4505 -1.69278,-3.894 l -0.11744,-0.33293 -0.27637,0.0457 c -0.47713,0.079 -1.33806,0.0386 -1.84577,-0.0867 -0.50405,-0.12432 -1.30867,-0.40744 -1.68139,-0.59161 -0.1243,-0.0614 -0.235326,-0.10093 -0.246719,-0.0878 -0.01139,0.0131 0.06274,0.17429 0.164739,0.35812 0.37476,0.67536 0.61743,1.73065 0.61743,2.68507 0,0.83303 0.1775,1.91774 0.45243,2.76474 0.0743,0.22907 0.13434,0.3167 0.26659,0.3894 0.27184,0.14944 0.52408,0.74025 0.79486,1.86175 0.17947,0.74329 0.20449,1.09444 0.0951,1.33531 -0.20188,0.44467 -0.62388,0.57585 -1.85813,0.57763 -0.517639,6.5e-4 -0.986885,0.0344 -1.267087,0.0909 -0.992761,0.20018 -3.240973,0.19855 -3.845631,-0.003 -0.467946,-0.15582 -0.651546,-0.4275 -0.597276,-0.88387 0.06499,-0.54663 0.350894,-0.80261 1.393989,-1.24804 0.352796,-0.15065 0.710902,-0.32788 0.79581,-0.39382 0.08491,-0.0659 0.374413,-0.40369 0.643336,-0.7505 0.388103,-0.5005 0.48335,-0.6568 0.461694,-0.7578 -0.01499,-0.07 -0.308034,-0.71615 -0.651207,-1.43591 -0.882431,-1.85076 -1.510326,-3.30874 -1.812712,-4.20919 -0.143221,-0.42646 -0.358689,-1.0597 -0.47883,-1.40719 -0.279807,-0.80932 -0.338239,-1.13644 -0.31278,-1.75071 0.02633,-0.6349 0.174215,-1.00528 0.579142,-1.45053 0.607558,-0.66805 1.370018,-0.94682 3.3726,-1.23311 0.485666,-0.0694 1.068593,-0.10022 1.919242,-0.1014 l 1.2217,-0.002 -0.22625,-0.34461 c -0.12444,-0.18954 -0.4224,-0.7239 -0.66213,-1.18746 -0.42473,-0.82128 -0.83002,-1.36845 -1.013607,-1.36845 -0.03883,0 -0.221375,0.0866 -0.405653,0.19239 -0.613169,0.35208 -0.997789,0.39011 -1.424364,0.14086 -0.361947,-0.21151 -0.840965,-0.89097 -1.287745,-1.82659 -0.311801,-0.65293 -0.875069,-2.33275 -1.063942,-3.17307 -0.04335,-0.19284 -0.165865,-0.51702 -0.272256,-0.72038 -0.26542,-0.50732 -0.45,-1.17024 -0.452938,-1.62674 -0.0041,-0.64145 0.121766,-0.99729 0.482314,-1.36314 0.330161,-0.33504 0.673899,-0.46841 1.207037,-0.46835 0.374074,4e-5 0.475704,0.0228 0.735174,0.16425 0.297753,0.16238 0.534174,0.41621 0.595657,0.6395 0.02671,0.097 0.07522,0.11518 0.307714,0.11518 0.242635,0 0.27188,-0.0122 0.241882,-0.10051 -0.291953,-0.85988 -0.47335,-1.80846 -0.50798,-2.65642 -0.04549,-1.11378 0.147212,-1.75497 0.725269,-2.41329 0.564209,-0.64256 1.195458,-0.92036 2.097938,-0.92327 0.90932,-0.003 1.52895,0.27604 2.12224,0.95553 0.81772,0.93657 1.03931,2.11984 0.69146,3.69276 l -0.13129,0.59369 0.11183,0.32528 c 0.0615,0.1789 0.13332,0.35757 0.1596,0.39706 0.0368,0.0554 0.5138,0.0718 2.08438,0.0718 1.12015,0 2.03637,0.0194 2.03599,0.0431 -3.8e-4,0.0237 -0.0321,0.14647 -0.0703,0.27283 l -0.0696,0.22974 -1.27488,-8.7e-4 c -0.70118,-4.4e-4 -1.27488,0.0135 -1.27488,0.0309 0,0.0174 0.24101,0.13407 0.5356,0.25924 l 0.53561,0.22759 1.75751,0.0358 0.0186,-0.42533 c 0.0342,-0.78114 0.36967,-1.30363 1.02479,-1.59617 0.40885,-0.18258 1.20747,-0.18188 1.62246,0.002 0.35361,0.15617 0.66904,0.42582 0.82882,0.70857 l 0.12045,0.21314 h 0.53286 0.53285 l 0.0332,-0.33027 c 0.0946,-0.94178 0.45939,-1.91528 0.94355,-2.51814 0.57715,-0.71862 0.96614,-0.88406 2.07629,-0.883 0.70024,6.5e-4 0.79937,0.0136 1.06298,0.13854 0.1599,0.0758 0.38179,0.21056 0.4931,0.29949 0.45735,0.36537 0.96456,1.294 1.20437,2.20511 0.0711,0.27013 0.12929,0.50922 0.12929,0.53128 0,0.0221 -0.13293,0.0401 -0.2954,0.0401 h -0.2954 l -0.0781,-0.30962 c -0.0429,-0.17029 -0.18291,-0.55152 -0.31104,-0.84718 -0.90946,-2.09846 -2.39585,-1.74016 -3.01538,0.72679 -0.10261,0.40863 -0.11507,0.57789 -0.11408,1.55 9.4e-4,0.95437 0.0157,1.15613 0.11729,1.6082 0.16,0.71183 0.49279,1.49275 0.80276,1.88374 0.24791,0.3127 0.67243,0.61473 0.86404,0.61473 0.41267,0 0.98104,-0.52404 1.28606,-1.18574 0.0998,-0.21657 0.24458,-0.61992 0.32167,-0.89633 l 0.14016,-0.50256 h 0.28868 c 0.20015,0 0.28868,0.0224 0.28868,0.0729 0,0.20658 -0.23108,0.99642 -0.43236,1.47782 -0.18747,0.44838 -0.29655,0.62361 -0.61191,0.983 -0.56238,0.64094 -0.71636,0.69707 -1.84523,0.67274 -0.8571,-0.0185 -0.87783,-0.0219 -1.19924,-0.19747 -0.83362,-0.45537 -1.4657,-1.54027 -1.73639,-2.9803 l -0.0864,-0.4595 -0.75114,-0.0333 -0.0281,0.19944 c -0.0598,0.42487 0.0919,0.92162 0.75621,2.47603 0.80564,1.88504 0.96815,2.42349 0.97073,3.21627 0.002,0.48274 -0.0156,0.61277 -0.10757,0.81522 -0.15754,0.34677 -0.43034,0.62771 -0.75195,0.77446 -0.37127,0.16939 -1.19088,0.18098 -1.77475,0.0251 -0.43021,-0.11485 -1.29948,-0.48595 -1.81492,-0.77482 -0.17612,-0.0987 -0.34017,-0.17946 -0.36458,-0.17946 -0.13846,0 0.34442,1.09999 0.66332,1.51103 0.14234,0.18348 0.42962,0.47732 0.63838,0.65298 0.9925,0.83513 1.63926,1.82309 1.89796,2.89912 0.12382,0.51511 0.13512,1.36652 0.0246,1.85558 -0.29665,1.31286 -1.33038,2.15967 -2.75213,2.25439 -0.43685,0.0291 -0.5083,0.0475 -0.48873,0.1259 0.15416,0.6179 0.21324,1.10737 0.27523,2.28065 0.057,1.07824 0.17386,1.8634 0.4119,2.76669 0.14605,0.55419 0.16738,0.5981 0.34717,0.71459 0.1504,0.0975 0.22774,0.21198 0.35999,0.53315 0.34735,0.8436 0.60831,1.99543 0.56628,2.49947 -0.0441,0.52902 -0.23202,0.6469 -1.4086,0.88354 -0.38364,0.0772 -0.86568,0.2077 -1.0712,0.29008 -0.72856,0.29206 -1.95802,0.41432 -3.18843,0.31709 z m 2.09229,-0.77465 c 0.26032,-0.0474 0.70873,-0.17595 0.99647,-0.28555 0.28773,-0.10959 0.74736,-0.23848 1.02138,-0.28641 0.8192,-0.14328 0.87955,-0.15897 0.90494,-0.23521 0.0549,-0.1648 -0.2803,-1.76979 -0.42208,-2.02128 -0.0308,-0.0547 -0.11003,-0.0288 -0.32716,0.10679 -0.25622,0.15997 -0.32186,0.17659 -0.62063,0.15713 -0.28659,-0.0187 -0.42614,-0.0727 -0.98092,-0.37961 -0.35573,-0.19682 -0.68047,-0.35784 -0.72163,-0.35784 -0.0412,0 -0.28777,0.32634 -0.54802,0.72518 -0.26024,0.39885 -0.5591,0.81024 -0.66412,0.91418 -0.10502,0.10394 -0.48618,0.36126 -0.84699,0.57183 -0.36084,0.21057 -0.71861,0.45116 -0.79506,0.53467 -0.192,0.2097 -0.16189,0.36478 0.0892,0.45939 0.47173,0.17775 2.16235,0.23386 2.91464,0.0967 z m -8.519816,-1.20621 c 0.230395,-0.0564 0.813058,-0.1093 1.519606,-0.13788 0.63027,-0.0255 1.18518,-0.0657 1.23312,-0.0893 0.12226,-0.0602 0.11276,-0.35918 -0.0324,-1.01871 -0.10466,-0.4756 -0.31211,-1.13707 -0.3566,-1.13707 -0.009,0 -0.13279,0.084 -0.27617,0.18667 -0.23669,0.16945 -0.29555,0.18625 -0.63856,0.18223 -0.358253,-0.004 -0.410509,-0.0228 -1.008086,-0.35896 -0.346638,-0.195 -0.663391,-0.35454 -0.703934,-0.35454 -0.04053,0 -0.181049,0.14862 -0.312272,0.33027 -0.413393,0.57225 -0.887666,1.1103 -1.080022,1.22527 -0.102016,0.061 -0.427121,0.21023 -0.722445,0.3317 -0.821495,0.33786 -1.010274,0.46933 -1.010274,0.70351 0,0.0782 0.229096,0.16795 0.572966,0.22455 0.475309,0.0782 2.379839,0.0189 2.815019,-0.0877 z m 10.390656,-2.0985 0.10857,-0.11758 -0.11459,-0.32755 c -0.34569,-0.98815 -0.54748,-2.1986 -0.61919,-3.71425 -0.0591,-1.25002 -0.18708,-1.91524 -0.51881,-2.69723 -0.36562,-0.86194 -0.84027,-1.4409 -1.53356,-1.8705 -0.30088,-0.18645 -0.3788,-0.32462 -0.29041,-0.51503 0.0848,-0.18275 0.29235,-0.14433 0.79873,0.1479 0.36249,0.20919 0.54176,0.36025 0.85205,0.71795 l 0.39296,0.45301 v -0.28212 c 0,-0.71878 -0.27095,-1.68192 -0.67203,-2.38898 -0.25719,-0.45335 -0.78613,-1.05178 -1.10334,-1.2483 -0.246,-0.15241 -0.26641,-0.1555 -0.6555,-0.0993 -0.54886,0.0793 -1.12819,0.25622 -1.44784,0.44206 -0.52512,0.30531 -0.85449,0.90844 -0.85449,1.56466 0,0.7903 0.51086,2.00956 1.21598,2.90215 l 0.27224,0.34462 -0.20851,0.0521 c -0.11468,0.0286 -0.21665,0.0596 -0.22661,0.0687 -0.0239,0.022 1.06514,2.45996 1.58804,3.55513 0.22623,0.47384 0.5524,1.18641 0.72483,1.58347 0.29872,0.68784 0.32278,0.72514 0.50934,0.78957 0.10769,0.0372 0.47369,0.22203 0.81334,0.41072 0.33965,0.1887 0.67215,0.34385 0.73888,0.34478 0.0667,8.7e-4 0.17021,-0.0512 0.22993,-0.11587 z m -1.26426,-2.25395 c -0.08,-0.11107 -0.50175,-1.10754 -0.94111,-2.22334 -0.61432,-1.56022 -0.75139,-2.01025 -0.61223,-2.01025 0.17579,0 1.8338,3.88184 1.78437,4.17772 -0.0212,0.12671 -0.15651,0.15952 -0.23103,0.056 z m -7.3621,1.60692 c 0.0847,-0.0714 0.0801,-0.10774 -0.0894,-0.7036 -0.31252,-1.09841 -0.37767,-1.48427 -0.43108,-2.55244 -0.0581,-1.16238 -0.141833,-1.6777 -0.374353,-2.30387 -0.441921,-1.19026 -1.090191,-1.92523 -2.090221,-2.36966 -0.590007,-0.26227 -0.672618,-0.31487 -0.672618,-0.42828 0,-0.0588 0.04433,-0.15315 0.09852,-0.20968 0.08894,-0.0928 0.128918,-0.0959 0.411039,-0.0324 0.357202,0.0804 0.934743,0.34449 1.598398,0.73087 0.474085,0.276 1.591315,0.82734 1.616875,0.79788 0.0302,-0.0348 -0.24983,-1.45783 -0.3657,-1.85834 -0.2171,-0.75043 -0.715476,-1.75727 -1.111657,-2.24592 l -0.157656,-0.19444 -0.434578,0.0405 c -0.574905,0.0535 -1.463136,0.23349 -1.887036,0.38232 -0.908832,0.31906 -1.31119,0.83956 -1.312207,1.69748 -9.42e-4,0.75251 0.26252,1.44941 0.7966,2.10758 0.257116,0.31685 0.288545,0.37854 0.224162,0.44013 -0.04344,0.0416 -0.13551,0.0576 -0.219379,0.0383 l -0.144515,-0.0333 0.272482,0.70104 c 0.332797,0.85623 0.479169,1.172 2.308282,4.9794 l 0.179036,0.37268 0.670528,0.35771 c 0.685538,0.36572 0.942028,0.4316 1.114508,0.2862 z m -1.346459,-2.32276 c -0.1608,-0.18489 -0.70544,-1.186 -1.007958,-1.85274 -0.333701,-0.73549 -0.536829,-1.36535 -0.466477,-1.44646 0.05326,-0.0614 0.105233,0.0235 0.586731,0.95879 0.195163,0.37906 0.537658,1.03208 0.761123,1.45114 0.223465,0.41905 0.406275,0.78644 0.406275,0.81644 0,0.03 -0.04328,0.0812 -0.09619,0.11388 -0.07386,0.0456 -0.116453,0.036 -0.183506,-0.0411 z m 10.707769,-4.18554 c 0.98338,-0.25602 1.55855,-0.92728 1.6908,-1.97324 0.0484,-0.38323 0.0443,-0.51995 -0.0274,-0.90093 -0.20083,-1.06682 -0.78306,-2.0104 -1.67433,-2.71351 l -0.36953,-0.29149 -0.1536,0.11861 c -0.0845,0.0652 -0.19283,0.13267 -0.24079,0.14985 -0.14396,0.0516 -0.1002,0.10488 0.14925,0.18179 0.54748,0.16881 0.85703,0.4316 0.7802,0.66238 -0.0612,0.18384 -0.1976,0.21445 -0.55427,0.12438 -0.1858,-0.0469 -0.48356,-0.11441 -0.66168,-0.14997 -0.36475,-0.0728 -1.64803,-0.16947 -1.70829,-0.12865 -0.0216,0.0146 0.0569,0.10527 0.17438,0.20149 0.34219,0.28025 0.48261,0.44931 0.74913,0.90193 0.53507,0.9087 0.795,1.82 0.80417,2.81944 0.003,0.3317 -0.0133,0.71292 -0.0362,0.84718 l -0.0418,0.24411 h 0.38067 c 0.20936,0 0.54204,-0.042 0.73928,-0.0934 z m -6.24487,-0.1177 c 0.0127,-0.0132 -0.0821,-0.25086 -0.21071,-0.52822 -0.31694,-0.68379 -0.46527,-1.15898 -0.53612,-1.7175 -0.15001,-1.1827 0.29132,-2.11557 1.25035,-2.64296 0.76694,-0.4217 1.30699,-0.52799 2.9361,-0.57792 1.40077,-0.0429 1.43713,-0.0517 1.83589,-0.44523 l 0.20223,-0.19954 -0.20061,-0.35679 c -0.30261,-0.53819 -0.52607,-1.1089 -0.65721,-1.67843 l -0.118,-0.51242 -0.32139,-0.23169 c -0.17676,-0.12742 -0.50474,-0.3803 -0.72884,-0.56193 -0.22409,-0.18165 -0.42283,-0.33027 -0.44164,-0.33027 -0.0188,0 -0.11104,0.1035 -0.20496,0.23 -0.2341,0.31529 -0.70386,0.72288 -1.03388,0.89704 -0.29134,0.15376 -0.72923,0.23349 -0.94286,0.17168 -0.18222,-0.0527 -0.16086,-0.11603 0.0816,-0.24179 0.54033,-0.28027 1.16582,-0.85541 1.41374,-1.29988 0.14709,-0.26371 0.14906,-0.34086 0.0123,-0.48044 -0.13332,-0.13609 -0.39104,-0.59417 -0.39104,-0.69503 0,-0.10062 0.18153,-0.30465 0.27107,-0.30465 0.0395,0 0.23565,0.17478 0.43595,0.3884 0.75107,0.80101 1.51223,1.38276 2.72501,2.08274 1.35162,0.78008 2.11583,1.08069 2.87358,1.13047 0.58831,0.0386 0.78139,-0.0172 1.01342,-0.29319 0.18708,-0.22251 0.27472,-0.57817 0.22733,-0.92255 -0.0869,-0.63123 -0.2572,-1.13208 -0.91563,-2.69267 -0.25113,-0.59524 -0.50164,-1.21554 -0.55666,-1.37846 -0.1211,-0.35853 -0.29463,-1.24946 -0.29463,-1.51269 0,-0.15243 -0.02,-0.19072 -0.0996,-0.19072 -0.0548,0 -0.0996,0.0241 -0.0996,0.0536 0,0.0979 -0.19234,0.12575 -0.39223,0.0567 -0.17401,-0.0601 -0.21695,-0.0543 -0.36341,0.0489 -0.2004,0.14123 -0.65232,0.30031 -0.85312,0.30031 h -0.14579 l 0.28182,0.35094 c 0.40406,0.5031 0.41904,0.54014 0.49909,1.23299 0.12105,1.04768 0.29119,1.91324 0.56062,2.85223 0.13662,0.4761 0.11486,0.61829 -0.0946,0.61829 -0.23421,0 -0.37367,-0.20807 -0.58531,-0.87325 -0.1055,-0.33157 -0.30213,-1.2564 -0.30213,-1.42099 0,-0.19804 -0.20898,-0.40495 -0.6877,-0.68086 -0.26572,-0.15315 -0.53347,-0.29349 -0.59499,-0.31188 -0.0615,-0.0184 -0.12588,-0.0811 -0.14302,-0.13938 -0.16202,-0.55086 -0.58027,-1.12513 -1.0277,-1.41102 -0.33428,-0.21361 -0.78294,-0.3996 -0.96549,-0.40026 -0.0855,-2.1e-4 -0.35074,0.0681 -0.58939,0.15203 -0.3394,0.11934 -0.44932,0.13782 -0.50468,0.0849 -0.11672,-0.11167 -0.0816,-0.21844 0.12663,-0.38445 0.10857,-0.0866 0.19825,-0.17144 0.19929,-0.18861 0.001,-0.0172 -0.0822,-0.0599 -0.18495,-0.095 -0.31029,-0.10595 -1.82327,-0.73823 -1.93825,-0.80999 -0.1486,-0.0928 -0.34592,-0.57396 -0.4442,-1.08319 -0.0818,-0.42398 -0.0814,-0.43249 0.0471,-1.01331 0.17445,-0.78814 0.20699,-1.20906 0.1303,-1.68568 -0.20814,-1.29367 -1.11906,-2.14244 -2.30151,-2.14454 -1.010136,-0.002 -1.771843,0.48776 -2.119027,1.36194 -0.320369,0.8067 -0.16522,2.21857 0.441319,4.01643 0.335791,0.99523 0.586806,1.28301 1.119398,1.2834 0.33839,2.2e-4 0.69875,-0.12471 1.13678,-0.39417 0.34323,-0.21115 0.38379,-0.2166 0.5009,-0.0674 0.14877,0.18952 0.0643,0.36711 -0.30956,0.65044 -0.5113,0.38753 -0.74956,0.47189 -1.33279,0.47189 -0.41341,0 -0.54824,-0.0237 -0.792024,-0.13932 -0.269149,-0.12764 -0.316942,-0.13372 -0.569915,-0.0725 -0.29152,0.0705 -0.547073,0.29308 -0.685065,0.59671 -0.113665,0.25012 -0.0872,0.867 0.06358,1.48184 0.07359,0.30009 0.135194,0.67488 0.136889,0.83283 0.0028,0.25887 -0.0085,0.28906 -0.1139,0.30628 -0.276738,0.0452 -0.535643,-0.5421 -0.714648,-1.62097 -0.0863,-0.5201 -0.127195,-0.65862 -0.206857,-0.70063 -0.268358,-0.14151 -0.222241,-0.44191 0.07239,-0.47141 0.128648,-0.0129 0.190756,-0.0592 0.256532,-0.19132 0.125553,-0.25218 0.111755,-0.27988 -0.139403,-0.27988 -0.127354,0 -0.310953,-0.0499 -0.420191,-0.1141 l -0.194014,-0.1141 -0.253312,0.15151 c -0.184606,0.11041 -0.354434,0.15899 -0.626087,0.17909 -0.24288,0.018 -0.372775,0.0515 -0.372775,0.0963 0,0.11377 0.293328,0.58792 0.425445,0.68771 0.108322,0.0818 0.119464,0.12106 0.09154,0.32239 -0.02491,0.17958 0.009,0.3689 0.156727,0.87429 0.545943,1.86807 1.306294,3.45093 1.840638,3.83148 0.283423,0.20192 0.637197,0.12403 1.083751,-0.23862 l 0.135396,-0.10995 -0.128089,-0.32769 c -0.456478,-1.16776 -0.729318,-2.70721 -0.551762,-3.11337 0.06407,-0.1465 0.260769,-0.22264 0.339802,-0.13154 0.02409,0.0278 0.08989,0.34657 0.146218,0.70845 0.253914,1.63118 0.839324,2.96662 1.428604,3.25881 0.13543,0.0672 0.40139,0.13992 0.59102,0.16166 0.18962,0.0217 0.40081,0.0636 0.46932,0.093 0.1174,0.0504 0.11935,0.0579 0.034,0.13018 -0.0498,0.0422 -0.22356,0.0945 -0.38613,0.11623 -0.16256,0.0217 -0.29556,0.0668 -0.29556,0.10018 0,0.14057 0.67862,1.42433 1.11572,2.11065 0.11066,0.17375 0.38795,0.56763 0.61622,0.87529 l 0.41503,0.5594 -0.37825,0.46744 -0.28845,-0.25824 c -0.33886,-0.30335 -0.51024,-0.35397 -1.48027,-0.4372 -0.85511,-0.0734 -1.395047,-0.074 -1.395047,-0.002 0,0.0309 0.0901,0.19249 0.200207,0.35897 0.25979,0.39276 0.69627,1.37775 0.88496,1.99705 0.0818,0.26851 0.21975,0.8759 0.30654,1.34975 0.0868,0.47384 0.17349,0.87761 0.19266,0.89728 0.0712,0.073 0.78696,0.24094 1.17657,0.27604 0.39025,0.0352 1.07654,0.014 1.12339,-0.0346 z m 11.36327,-12.01542 c -0.2966,-0.34193 -0.69798,-1.26072 -0.84373,-1.93146 -0.24002,-1.10448 -0.26156,-2.56589 -0.0521,-3.53234 0.14075,-0.6492 0.45307,-1.3884 0.73173,-1.7318 0.18821,-0.23195 0.2091,-0.27845 0.12515,-0.27845 -0.16586,0 -0.6839,0.43857 -0.9007,0.76249 -0.25646,0.38322 -0.47435,0.91862 -0.61298,1.50622 -0.0901,0.382 -0.10882,0.61931 -0.11092,1.40718 -0.003,1.14252 0.092,1.66434 0.46545,2.55591 0.30671,0.73228 0.74035,1.25716 1.19255,1.44352 0.2677,0.11033 0.26795,0.10119 0.006,-0.20132 z m -5.3327,-0.8316 c 0,-0.19255 -0.12185,-0.44523 -0.28308,-0.58698 -0.0967,-0.085 -0.27438,-0.33029 -0.3949,-0.54505 -0.32348,-0.57644 -0.48909,-0.69668 -1.05198,-0.7638 -0.30847,-0.0368 -0.37076,0.0248 -0.14873,0.14715 0.25885,0.1426 0.66091,0.59624 0.87535,0.98768 0.16983,0.30999 0.25395,0.39929 0.5641,0.59881 0.40569,0.261 0.43925,0.27337 0.43925,0.16224 z m 0.41125,-2.41676 c 0.0755,-0.0571 0.20793,-0.25667 0.29436,-0.4436 0.1454,-0.31447 0.38713,-0.62298 0.5476,-0.69892 0.0989,-0.0468 -0.0696,-0.18679 -0.39264,-0.32609 -0.55453,-0.23918 -1.2927,-0.1144 -1.62182,0.27415 -0.33233,0.39233 -0.36573,1.02284 -0.0662,1.2491 0.28366,0.21427 0.92009,0.18621 1.23867,-0.0546 z m -13.525612,-0.16999 c 0.17775,-0.10384 0.285532,-0.21878 0.380703,-0.40599 0.07302,-0.14363 0.198571,-0.31724 0.279016,-0.38582 0.171777,-0.1464 0.13423,-0.24172 -0.148991,-0.37819 -0.366109,-0.17642 -0.949996,-0.0538 -1.264942,0.26568 -0.235705,0.23909 -0.366655,0.85869 -0.218908,1.03574 0.09965,0.1194 0.67725,0.0414 0.973101,-0.13144 z m 2.293218,-0.16432 -0.116653,-0.24411 -0.44759,-0.0179 c -0.536698,-0.0215 -0.783438,0.0488 -0.861134,0.24541 -0.08713,0.22047 0.02979,0.25702 0.828312,0.25898 l 0.713707,0.002 z m 13.850824,0 -0.0153,-0.24411 -0.69753,-0.0165 c -0.38364,-0.009 -0.74736,-0.002 -0.80826,0.0151 -0.11322,0.0323 -0.31278,0.24284 -0.31278,0.33002 0,0.11191 0.27011,0.15255 1.03669,0.15599 l 0.8125,0.004 z m -20.214889,4.00101 c -0.83961,-0.26023 -1.518838,-1.1421 -1.867434,-2.42457 -0.07128,-0.26226 -0.129609,-0.52716 -0.129609,-0.58873 0,-0.10693 -0.04156,-0.11192 -0.934178,-0.11222 -0.513799,-1.8e-4 -1.013927,-0.0259 -1.111395,-0.0571 -0.280843,-0.0899 -0.446479,-0.33167 -0.479414,-0.69969 -0.0319,-0.3563 0.04694,-0.59198 0.263763,-0.78861 0.124474,-0.11287 0.193167,-0.11995 1.164988,-0.11995 h 1.032701 l 0.03235,-0.31728 c 0.05097,-0.49994 0.31069,-1.35331 0.532027,-1.74807 0.295776,-0.52755 0.688624,-0.9545 1.065128,-1.1576 0.378085,-0.20396 1.109418,-0.31127 1.72238,-0.25273 0.789896,0.0755 1.43843,0.65311 1.877245,1.67215 0.127778,0.29673 0.2229,0.54794 0.211375,0.55823 -0.01152,0.0103 -0.125599,0.0878 -0.2535,0.17217 l -0.232542,0.15345 -0.199023,-0.47401 c -0.450301,-1.07247 -1.152691,-1.58357 -1.766369,-1.2853 -0.246081,0.11961 -0.624072,0.62865 -0.808049,1.08819 -0.299485,0.74808 -0.34692,1.04639 -0.344209,2.16516 0.0022,0.92587 0.01316,1.0459 0.138509,1.52206 0.24222,0.92016 0.741765,1.75762 1.195041,2.00342 0.388103,0.21046 0.84912,-0.0171 1.329532,-0.65645 l 0.255251,-0.33965 0.382888,0.35471 -0.148935,0.27904 c -0.281145,0.52674 -0.786168,0.94858 -1.298856,1.0849 -0.319654,0.085 -1.315823,0.0657 -1.629657,-0.0316 z m 0.236308,-0.6698 c -0.271804,-0.2516 -0.588783,-0.86353 -0.795866,-1.53641 -0.542459,-1.76265 -0.278188,-4.16947 0.573079,-5.21884 0.153115,-0.18878 0.153864,-0.19232 0.0322,-0.1522 -0.581383,0.1917 -1.207903,1.15081 -1.426284,2.18339 -0.133026,0.62904 -0.120495,1.92547 0.02471,2.55591 0.227797,0.98907 0.715006,1.81154 1.252118,2.11376 0.25463,0.14328 0.473972,0.1784 0.340066,0.0545 z m -2.302821,-3.17806 c -0.01663,-0.05 -0.03024,-0.15335 -0.03024,-0.22974 v -0.13889 h -0.895066 c -0.844073,0 -0.898099,0.007 -0.948396,0.11487 -0.03789,0.0816 -0.03789,0.14813 0,0.22974 0.05039,0.10854 0.104321,0.11487 0.978638,0.11487 0.823284,0 0.921976,-0.01 0.895067,-0.0908 z m 3.058879,0.5646 c -0.336601,-0.19384 -0.456497,-0.78939 -0.23516,-1.16802 0.168167,-0.28768 0.296247,-0.33778 0.865672,-0.33874 l 0.505946,-8.6e-4 -0.02703,0.2441 c -0.01486,0.13426 -0.03298,0.25238 -0.04025,0.26248 -0.0073,0.0101 -0.183491,0.0332 -0.391587,0.0514 -0.413374,0.036 -0.507491,0.10419 -0.457985,0.33159 0.03045,0.13987 0.04442,0.14434 0.451036,0.14434 h 0.419608 l 0.0445,0.2441 c 0.02448,0.13426 0.03568,0.2635 0.0249,0.28718 -0.01077,0.0237 -0.236873,0.043 -0.502444,0.043 -0.359857,-7e-5 -0.527244,-0.0257 -0.657214,-0.10052 z m 22.792823,-0.006 c -0.46096,-0.32671 -0.4645,-1.13128 -0.007,-1.5248 0.13778,-0.11843 0.18938,-0.1212 2.55271,-0.13683 2.34424,-0.0155 2.41768,-0.0126 2.61145,0.10129 0.46614,0.27415 0.53391,1.0627 0.12839,1.49415 l -0.13495,0.14358 -2.49961,0.015 c -2.3676,0.0142 -2.5077,0.009 -2.65119,-0.0924 z m 4.86325,-0.52768 c 0.13623,-0.084 0.12778,-0.36815 -0.0144,-0.48292 -0.096,-0.0776 -0.39398,-0.0894 -2.24539,-0.0894 -1.35966,0 -2.16912,0.0213 -2.22975,0.0588 -0.16552,0.10212 -0.21515,0.27439 -0.12482,0.43332 l 0.0794,0.13973 h 2.21921 c 1.43451,0 2.25329,-0.021 2.31562,-0.0594 z"
         id="squat"
         style="stroke-width:0.202183" /></g></g></svg>
