<?xml version="1.0" encoding="UTF-8" standalone="no"?>
<!-- Created with Inkscape (http://www.inkscape.org/) -->

<svg
   width="33.865944mm"
   height="33.866451mm"
   viewBox="0 0 33.865944 33.866451"
   version="1.1"
   id="svg1"
   xml:space="preserve"
   xmlns="http://www.w3.org/2000/svg"
   xmlns:svg="http://www.w3.org/2000/svg"><defs
     id="defs1" /><g
     id="layer1"
     transform="translate(-88.066671,-131.5667)"><g
       id="g8"><path
         d="m 88.585675,165.40371 c -0.07554,-0.0345 -0.121499,-0.0846 -0.156126,-0.17033 -0.04528,-0.11206 -0.229881,-2.17698 -0.294275,-3.29177 -0.005,-0.0873 -0.0124,-0.21115 -0.01634,-0.27519 -0.0039,-0.064 -0.01918,-0.39742 -0.03385,-0.74088 -0.02246,-0.52599 -0.02365,-0.70958 -0.0075,-1.16424 0.04347,-1.22474 0.137113,-2.06434 0.324081,-2.90591 0.08467,-0.38106 0.319302,-1.29147 0.413162,-1.60312 0.250599,-0.83215 0.315761,-1.29868 0.338505,-2.42366 0.02492,-1.23309 0.09132,-2.16666 0.205777,-2.8928 0.146271,-0.92802 0.180633,-1.10028 0.400424,-2.00761 0.08769,-0.362 0.345013,-1.20529 0.497356,-1.62994 0.02297,-0.064 0.06224,-0.17358 0.08727,-0.24343 0.02503,-0.0699 0.07694,-0.21274 0.115367,-0.31752 0.287148,-0.78299 0.281472,-0.76527 0.281472,-0.87767 0,-0.0556 -0.01161,-0.18569 -0.02581,-0.28909 -0.07449,-0.54251 -0.09706,-1.55842 -0.0484,-2.1778 0.07411,-0.94316 0.260392,-1.83096 0.547562,-2.60955 0.03984,-0.10802 0.07244,-0.19923 0.07244,-0.20269 0,-0.0107 0.189868,-0.44133 0.248721,-0.56405 0.256722,-0.53542 0.717635,-1.20073 1.107477,-1.59862 0.231502,-0.23628 0.597339,-0.54319 0.794511,-0.66655 0.09517,-0.0595 0.232569,-0.14552 0.305348,-0.19107 0.593179,-0.37137 1.520553,-0.61294 2.353427,-0.61308 l 0.285975,-5e-5 0.235001,-0.19745 c 0.382779,-0.32161 0.447599,-0.3741 0.462108,-0.3741 0.0076,0 0.06378,-0.0414 0.12489,-0.0919 0.166521,-0.13779 0.256252,-0.20075 0.756126,-0.53057 0.210238,-0.13872 0.830613,-0.50177 1.290032,-0.75495 0.0182,-0.01 0.114947,-0.067 0.215009,-0.12666 0.100061,-0.0596 0.266217,-0.15576 0.36923,-0.2136 0.203205,-0.11408 0.750265,-0.45916 0.763685,-0.48175 0.005,-0.008 0.0641,-0.0561 0.13231,-0.10772 0.12924,-0.0978 0.27388,-0.22668 0.31881,-0.2842 0.0368,-0.0471 0.0575,-0.19964 0.0843,-0.62146 0.0204,-0.3209 0.0281,-0.37478 0.0623,-0.43956 0.10121,-0.19141 0.3471,-0.21125 0.45929,-0.0371 0.0585,0.0909 0.0829,0.22248 0.0737,0.3978 -0.0305,0.58045 -0.0658,1.01517 -0.10663,1.31243 -0.10967,0.79954 -0.24931,1.43066 -0.36995,1.67204 -0.1,0.20007 -0.24736,0.24944 -0.40531,0.13582 -0.0326,-0.0234 -0.0777,-0.0771 -0.10025,-0.11936 -0.0551,-0.10303 -0.056,-0.29092 -0.002,-0.42899 0.0611,-0.15631 0.18417,-0.67703 0.18417,-0.77947 0,-0.0375 -0.0536,-0.01 -0.4176,0.21804 -0.22969,0.1436 -0.46226,0.28502 -0.516838,0.31427 -0.05458,0.0293 -0.166217,0.0927 -0.248081,0.14098 -0.182409,0.10758 -0.231758,0.13583 -0.305967,0.17512 -0.05423,0.0287 -0.338441,0.19155 -0.719449,0.41219 -0.444356,0.25735 -1.001454,0.63119 -1.294171,0.86847 -0.121386,0.0984 -0.144353,0.13215 -0.08993,0.13215 0.09863,0 0.581038,0.25077 0.796965,0.4143 0.239525,0.18139 0.357281,0.29638 0.54323,0.53049 l 0.159674,0.20103 0.198469,0.0406 c 0.109158,0.0223 0.358476,0.0647 0.554048,0.0941 0.195573,0.0294 0.47467,0.0724 0.62021,0.0954 0.14554,0.023 0.33533,0.0521 0.42174,0.0645 0.0864,0.0124 0.2055,0.0313 0.26462,0.0418 0.0591,0.0106 0.21915,0.0381 0.35559,0.0612 0.13645,0.0231 0.36716,0.0621 0.51272,0.0867 0.23581,0.0399 0.39031,0.0726 0.86004,0.1823 0.1626,0.0379 0.58234,0.16597 0.69463,0.21184 0.66749,0.2727 1.27348,0.93215 1.58736,1.72749 l 0.0972,0.24636 0.0353,-0.10985 c 0.24731,-0.76917 0.9396,-1.57212 1.58789,-1.84174 0.41069,-0.17081 1.10054,-0.33849 1.97641,-0.48041 0.15009,-0.0243 0.28779,-0.0484 0.30597,-0.0536 0.0182,-0.005 0.20053,-0.0332 0.4052,-0.0625 0.20467,-0.0292 0.454,-0.0672 0.55405,-0.0844 0.10006,-0.0172 0.32568,-0.051 0.50137,-0.0752 0.17569,-0.0242 0.43036,-0.0662 0.56593,-0.0933 0.24076,-0.0482 0.24755,-0.051 0.29235,-0.12053 0.1748,-0.27145 0.50999,-0.59415 0.81653,-0.78613 0.15511,-0.0971 0.57402,-0.28977 0.63131,-0.29032 0.053,-5.5e-4 0.0286,-0.0311 -0.10827,-0.13589 -0.4644,-0.3555 -1.03942,-0.7343 -1.4836,-0.97734 -0.20306,-0.1111 -0.52885,-0.29496 -0.66157,-0.37337 -0.0682,-0.0403 -0.25428,-0.1484 -0.41348,-0.24023 -0.15919,-0.0918 -0.43424,-0.25971 -0.61121,-0.37304 -0.17698,-0.11334 -0.32512,-0.2018 -0.3292,-0.19658 -0.0128,0.0164 0.0653,0.36954 0.14268,0.64506 0.10607,0.37757 0.11143,0.50532 0.0266,0.63435 -0.13892,0.21132 -0.35809,0.19021 -0.47408,-0.0456 -0.15679,-0.31891 -0.29886,-0.99029 -0.40898,-1.93287 -0.043,-0.36831 -0.0877,-1.1172 -0.0746,-1.24893 0.0217,-0.21735 0.14764,-0.34409 0.31926,-0.3214 0.15935,0.0211 0.23152,0.12262 0.2528,0.35575 0.008,0.0859 0.0263,0.29428 0.0411,0.4631 0.0302,0.34482 0.0472,0.39827 0.15976,0.50073 0.14439,0.1315 0.41984,0.33218 0.6963,0.50728 0.15637,0.0991 0.30319,0.19311 0.32628,0.20903 0.0231,0.0159 0.0789,0.0478 0.12404,0.0708 0.0821,0.042 0.38952,0.22127 0.4393,0.2563 0.0145,0.0102 0.089,0.0518 0.16539,0.0923 0.0764,0.0405 0.18361,0.0995 0.23818,0.13111 0.12089,0.07 0.14463,0.0834 0.4052,0.23019 0.38502,0.21684 1.12073,0.70544 1.42236,0.94461 0.0864,0.0685 0.19061,0.15066 0.23155,0.18253 0.11179,0.087 0.38094,0.31451 0.44564,0.37664 0.0562,0.054 0.0608,0.0547 0.34731,0.0547 0.63361,1e-4 1.35917,0.14172 1.86156,0.36334 0.36669,0.16175 0.80437,0.41758 1.02541,0.59934 0.0455,0.0374 0.11247,0.0902 0.14885,0.11734 0.0364,0.0272 0.18069,0.15942 0.32067,0.29395 0.70445,0.67701 1.28745,1.65561 1.62798,2.7325 0.21397,0.67673 0.30751,1.10507 0.39791,1.82224 0.0601,0.47725 0.0808,0.83597 0.0803,1.39531 -4.2e-4,0.52915 -0.0164,0.81977 -0.0721,1.31078 -0.0393,0.3469 -0.0385,0.35485 0.0679,0.63345 0.0365,0.0957 0.0664,0.17755 0.0664,0.18198 0,0.004 0.0558,0.15698 0.12398,0.339 0.0682,0.18203 0.15835,0.43293 0.20036,0.55754 0.042,0.12461 0.0864,0.25514 0.0986,0.29007 0.11081,0.31738 0.30447,0.97458 0.40642,1.37916 0.15938,0.63252 0.20251,0.83299 0.28621,1.33036 0.0235,0.13971 0.0498,0.28737 0.0583,0.32812 0.0891,0.42413 0.19512,1.52032 0.22425,2.31789 0.006,0.15135 0.0129,0.30376 0.0164,0.33868 0.004,0.0349 0.008,0.2445 0.009,0.4657 0.005,0.66015 0.038,1.11047 0.1151,1.57701 0.0501,0.30302 0.0827,0.43426 0.29216,1.17484 0.4431,1.56702 0.59231,2.45447 0.65815,3.91468 0.0132,0.29177 0.024,0.65626 0.0242,0.80997 6.4e-4,0.57075 -0.0747,2.08608 -0.14018,2.82152 -0.013,0.14554 -0.0429,0.48369 -0.0665,0.75148 -0.0236,0.26778 -0.0569,0.63452 -0.0739,0.81497 -0.017,0.18046 -0.0355,0.38055 -0.0411,0.44467 -0.0133,0.15146 -0.0676,0.27259 -0.14977,0.33387 -0.0855,0.0638 -0.22916,0.0549 -0.31397,-0.0195 -0.093,-0.0815 -0.13268,-0.19418 -0.12954,-0.36741 0.002,-0.13582 0.0853,-1.07599 0.12125,-1.37592 0.0237,-0.19732 0.10121,-1.18784 0.1409,-1.7993 0.10067,-1.55097 0.056,-2.89034 -0.13485,-4.04304 -0.12426,-0.7506 -0.27351,-1.37924 -0.56604,-2.38409 -0.14579,-0.50081 -0.22962,-0.91858 -0.27342,-1.36267 -0.0258,-0.26123 -0.0318,-0.40198 -0.0608,-1.41827 -0.009,-0.32598 -0.0199,-0.63558 -0.0235,-0.68795 -0.004,-0.0524 -0.0112,-0.17285 -0.0168,-0.26769 -0.006,-0.0948 -0.0126,-0.19962 -0.0156,-0.23285 -0.003,-0.0332 -0.0101,-0.1271 -0.0159,-0.2086 -0.0428,-0.6075 -0.20112,-1.7017 -0.33377,-2.30732 -0.14754,-0.67362 -0.41346,-1.63666 -0.58451,-2.11683 -0.0166,-0.0466 -0.0658,-0.18469 -0.1093,-0.30695 -0.0435,-0.12225 -0.0906,-0.24495 -0.10459,-0.27268 -0.0238,-0.0472 -0.0262,-0.0479 -0.0378,-0.0106 -0.0101,0.0328 -0.0979,0.34054 -0.24001,0.84091 -0.0633,0.2228 -0.14332,0.34396 -0.24777,0.37492 -0.16067,0.0477 -0.31829,-0.0659 -0.37006,-0.2666 -0.0259,-0.10025 -0.0146,-0.16588 0.0821,-0.47793 0.0829,-0.26762 0.25203,-0.94698 0.31463,-1.2637 0.0698,-0.3531 0.13803,-0.86943 0.19359,-1.46448 0.0553,-0.59238 0.028,-1.39943 -0.071,-2.09563 -0.0923,-0.64945 -0.2794,-1.38523 -0.47877,-1.88268 -0.33469,-0.83512 -0.72986,-1.4582 -1.2658,-1.99582 -0.6111,-0.61299 -1.17731,-0.9301 -2.08689,-1.16872 -0.51468,-0.13503 -1.30516,-0.12314 -1.84122,0.0277 -0.55208,0.15532 -1.05023,0.48623 -1.2366,0.82144 -0.0605,0.1089 -0.0634,0.12108 -0.0527,0.22447 0.0259,0.25019 0.19645,0.6376 0.43286,0.98349 0.0697,0.10194 0.35551,0.47588 0.63519,0.83097 0.69973,0.88846 0.9716,1.30117 1.33213,2.02223 0.20222,0.40446 0.4393,1.06025 0.55266,1.52868 0.0472,0.19496 0.062,0.23007 0.14632,0.34665 0.28435,0.39313 0.69873,0.75866 1.07545,0.94873 0.17886,0.0902 0.53066,0.35351 0.73541,0.55035 0.21214,0.20395 0.60173,0.71362 0.6648,0.86972 0.0278,0.0689 0.0322,0.20393 0.009,0.28174 -0.0442,0.14871 -0.19038,0.21784 -0.32329,0.15287 -0.0549,-0.0268 -0.10134,-0.0786 -0.18873,-0.21035 -0.30371,-0.45783 -0.6449,-0.75539 -1.16818,-1.01875 -0.27339,-0.13759 -0.61989,-0.36378 -0.72094,-0.47058 -0.0245,-0.0259 -0.0275,0.016 -0.0352,0.49639 -0.007,0.43958 -0.0157,0.57943 -0.0533,0.86227 -0.066,0.49668 -0.15837,0.94973 -0.27635,1.35586 l -0.10453,0.35988 0.002,0.34425 c 10e-4,0.18933 0.007,0.41796 0.0129,0.50805 0.0168,0.25596 0.0752,0.92002 0.086,0.97876 0.005,0.0291 0.0233,0.16247 0.0399,0.29636 0.0585,0.47222 0.14857,1.11282 0.17404,1.23833 0.17472,0.86093 0.24831,1.17028 0.40529,1.70403 0.0291,0.099 0.0638,0.21803 0.0771,0.2646 0.0331,0.11594 0.25382,0.67755 0.35779,0.91022 0.17,0.38043 0.40536,0.79976 0.61386,1.09368 0.2121,0.29903 0.65936,0.69525 1.10805,0.98166 0.25521,0.16291 0.35621,0.31992 0.33513,0.52099 -0.01,0.0922 -0.0683,0.20296 -0.14403,0.27197 -0.036,0.0328 -0.0743,0.0453 -0.13851,0.0453 -0.0758,0 -0.11864,-0.0191 -0.29227,-0.13055 -0.11192,-0.0718 -0.25241,-0.16892 -0.3122,-0.21583 -0.14195,-0.11133 -0.21622,-0.16548 -0.21622,-0.15762 0,0.003 0.0197,0.15811 0.0437,0.34362 0.0436,0.33658 0.0437,0.33958 0.0408,1.42745 -0.002,0.61272 0.005,1.20141 0.0143,1.34418 0.0342,0.5051 0.14722,1.38501 0.21716,1.69021 0.11775,0.51381 0.21691,0.87636 0.51904,1.89778 0.0981,0.3318 0.25237,0.8843 0.34268,1.22774 0.14225,0.54081 0.16338,0.63915 0.15775,0.73421 -0.0163,0.27555 -0.23411,0.42651 -0.42725,0.29614 -0.0916,-0.0618 -0.13822,-0.14939 -0.18135,-0.34035 -0.0372,-0.16455 -0.18591,-0.70882 -0.36501,-1.33566 -0.12559,-0.43956 -0.13544,-0.47293 -0.27076,-0.91699 -0.10739,-0.35245 -0.25721,-0.90982 -0.31399,-1.16807 -0.0849,-0.38615 -0.19473,-1.10797 -0.23837,-1.56645 -0.009,-0.099 -0.0223,-0.22756 -0.0287,-0.28576 -0.006,-0.0582 -0.0131,-0.65832 -0.0149,-1.33358 -0.003,-1.14123 -0.006,-1.24789 -0.0388,-1.51352 -0.0654,-0.52586 -0.15755,-0.92809 -0.29116,-1.27081 -0.0574,-0.14719 -0.0909,-0.21145 -0.29078,-0.55679 -0.28503,-0.49262 -0.59126,-1.2007 -0.76118,-1.76004 -0.046,-0.15154 -0.0937,-0.30411 -0.1059,-0.33903 -0.0122,-0.0349 -0.0728,-0.25651 -0.1346,-0.4924 l -0.11239,-0.42889 -0.0883,0.33363 c -0.0486,0.1835 -0.0979,0.37173 -0.10967,0.41832 -0.0707,0.27999 -0.50312,1.44495 -0.68665,1.8499 -0.16487,0.36375 -0.43139,1.0915 -0.53869,1.4709 -0.0787,0.27824 -0.17107,0.77149 -0.19958,1.06571 -0.0282,0.2907 -0.0313,0.82038 -0.007,1.13082 0.0189,0.23794 0.0857,0.79261 0.21486,1.78399 0.15176,1.16498 0.181,1.60711 0.18112,2.73823 6e-5,0.60532 -0.004,0.73861 -0.0254,0.80361 -0.0328,0.10056 -0.0676,0.14864 -0.14347,0.19818 -0.06,0.0392 -0.23942,0.0401 -7.87556,0.0412 -7.71147,0.001 -7.814952,5.4e-4 -7.877255,-0.0401 -0.07216,-0.0471 -0.104155,-0.0891 -0.147925,-0.1939 -0.02872,-0.0688 -0.03084,-0.13098 -0.02959,-0.86789 0.0013,-0.78277 0.01863,-1.24109 0.06616,-1.75395 0.02524,-0.27229 0.04456,-0.42781 0.194985,-1.56945 0.04986,-0.37838 0.103794,-0.82608 0.119861,-0.9949 0.03898,-0.40958 0.03917,-1.07301 4.26e-4,-1.36319 -0.06372,-0.47675 -0.178154,-0.9685 -0.326386,-1.40251 -0.09843,-0.28822 -0.41233,-1.08407 -0.489525,-1.24118 -0.03957,-0.0805 -0.343093,-0.86027 -0.380901,-0.97854 -0.01112,-0.0348 -0.05117,-0.15368 -0.08902,-0.26429 -0.07753,-0.22656 -0.129432,-0.40302 -0.249062,-0.84672 -0.04551,-0.16882 -0.08501,-0.30982 -0.08777,-0.31337 -0.0028,-0.004 -0.0208,0.0632 -0.04012,0.14817 -0.08344,0.36752 -0.208898,0.83029 -0.282924,1.04365 -0.01615,0.0466 -0.04981,0.15136 -0.07478,0.23285 -0.05895,0.19241 -0.274666,0.72827 -0.395986,0.98366 -0.126315,0.26591 -0.201618,0.40791 -0.369785,0.69724 -0.193113,0.33229 -0.275498,0.53233 -0.367544,0.89247 -0.18019,0.705 -0.199873,0.93532 -0.195236,2.28469 0.0037,1.07456 -0.0038,1.29836 -0.06187,1.84163 -0.02891,0.27064 -0.139125,0.99764 -0.190935,1.2595 -0.04914,0.24836 -0.212651,0.86549 -0.370169,1.39711 -0.263037,0.88772 -0.325255,1.1028 -0.440814,1.52409 -0.06387,0.23285 -0.138649,0.51386 -0.16618,0.62446 -0.02753,0.11061 -0.06875,0.2331 -0.09159,0.2722 -0.04826,0.0826 -0.153164,0.15004 -0.234489,0.1507 -0.084,8.2e-4 -0.195403,-0.0771 -0.243408,-0.16993 -0.06319,-0.12221 -0.06608,-0.21697 -0.01361,-0.44592 0.05675,-0.24769 0.290263,-1.10182 0.401533,-1.46874 0.266921,-0.88018 0.485408,-1.66874 0.565996,-2.04273 0.118551,-0.55011 0.219596,-1.36234 0.245499,-1.97332 0.007,-0.16624 0.0094,-0.6979 0.0052,-1.18142 -0.0079,-0.92065 0.0033,-1.19852 0.06224,-1.54457 0.01686,-0.099 0.02872,-0.18258 0.02633,-0.18581 -0.0024,-0.003 -0.07973,0.0514 -0.171892,0.12147 -0.1968,0.14956 -0.536722,0.36951 -0.602589,0.38994 -0.109629,0.034 -0.256337,-0.0741 -0.311471,-0.22947 -0.03835,-0.10806 -0.03825,-0.16916 4.26e-4,-0.27825 0.04536,-0.12782 0.104168,-0.18821 0.317767,-0.32628 0.195893,-0.12663 0.422166,-0.296 0.60118,-0.45005 0.584559,-0.50302 1.134979,-1.47578 1.51413,-2.67591 0.13306,-0.42118 0.179249,-0.59514 0.280171,-1.05526 0.0382,-0.17415 0.08675,-0.39286 0.107885,-0.48598 0.133874,-0.58987 0.326215,-2.16382 0.368611,-3.01623 0.02454,-0.49352 0.01705,-0.59746 -0.06176,-0.85749 -0.236367,-0.77982 -0.358924,-1.57019 -0.376356,-2.42721 l -0.0093,-0.45857 -0.139157,0.1149 c -0.180505,0.14904 -0.285782,0.21615 -0.562987,0.35889 -0.125155,0.0644 -0.290498,0.15682 -0.367438,0.20529 -0.32884,0.20719 -0.677139,0.55876 -0.899893,0.90834 -0.07977,0.1252 -0.131757,0.1535 -0.270377,0.14714 -0.06976,-0.003 -0.164068,-0.10935 -0.18801,-0.21163 -0.0402,-0.17173 0.03417,-0.3239 0.363811,-0.74448 0.184627,-0.23556 0.342623,-0.39458 0.588314,-0.59219 0.14444,-0.11616 0.269758,-0.19824 0.639863,-0.41913 0.301934,-0.1802 0.5287,-0.38827 0.820115,-0.75257 l 0.169703,-0.21213 0.07595,-0.30799 c 0.04178,-0.16939 0.08156,-0.31752 0.08841,-0.32915 0.0068,-0.0116 0.03266,-0.0898 0.05735,-0.1737 0.09328,-0.317 0.3496,-0.91211 0.538749,-1.25079 0.343306,-0.61477 0.581231,-0.96123 1.216827,-1.77189 0.558955,-0.71291 0.655439,-0.84752 0.804112,-1.12191 0.135298,-0.2497 0.21276,-0.4651 0.236132,-0.65661 0.0093,-0.0759 0.0032,-0.0979 -0.05619,-0.20407 -0.223778,-0.39996 -0.84463,-0.76245 -1.539329,-0.89872 -0.224077,-0.0439 -0.846167,-0.0622 -1.077328,-0.0316 -1.208974,0.16 -2.150089,0.69118 -2.905832,1.64024 -0.358241,0.44977 -0.647608,0.95074 -0.87576,1.51611 -0.151015,0.37421 -0.196999,0.50893 -0.285463,0.83614 -0.158714,0.58713 -0.25015,1.1214 -0.304281,1.77811 -0.05244,0.63618 -0.04119,1.13309 0.04266,1.88396 0.0182,0.163 0.04323,0.36304 0.05563,0.44453 0.0124,0.0815 0.02738,0.19105 0.03331,0.24344 0.0059,0.0524 0.01748,0.12383 0.02568,0.15876 0.0082,0.0349 0.04557,0.20639 0.08305,0.38103 0.07938,0.36987 0.178743,0.76159 0.286188,1.1282 0.08455,0.28849 0.09262,0.38254 0.04194,0.48893 -0.06833,0.14345 -0.14173,0.19891 -0.264958,0.20019 -0.142183,10e-4 -0.215926,-0.0691 -0.29133,-0.2789 -0.06569,-0.18274 -0.269374,-0.89826 -0.269374,-0.9463 0,-0.0487 -0.02338,-0.0367 -0.05276,0.027 -0.05032,0.10923 -0.314992,0.88747 -0.419349,1.23304 -0.136789,0.45296 -0.292546,1.06585 -0.406121,1.5982 -0.05161,0.24185 -0.191398,1.13765 -0.236175,1.51352 -0.07699,0.64607 -0.137376,1.63669 -0.144528,2.37082 -0.0099,1.02031 -0.09151,1.64709 -0.31544,2.42375 -0.02685,0.0931 -0.05503,0.18839 -0.06262,0.21168 -0.07383,0.22653 -0.307375,1.12478 -0.363256,1.39711 -0.232057,1.13092 -0.309636,1.8294 -0.342068,3.07985 -0.01654,0.63722 0.05199,1.97406 0.158951,3.10116 0.177092,1.86608 0.179774,1.90456 0.141705,2.03214 -0.03259,0.10922 -0.102249,0.18612 -0.199346,0.22007 -0.083,0.029 -0.10092,0.0283 -0.178888,-0.007 z m 23.877795,-2.38251 c 0.0119,-0.16903 -4.3e-4,-0.79995 -0.0232,-1.18541 -0.0291,-0.49242 -0.12773,-1.37558 -0.24108,-2.15915 -0.22536,-1.5579 -0.22416,-2.36942 0.005,-3.42913 0.0744,-0.34404 0.12841,-0.54303 0.20393,-0.75148 0.0337,-0.0931 0.0858,-0.24079 0.11558,-0.32811 0.0592,-0.17328 0.20998,-0.5494 0.37384,-0.93237 0.2114,-0.49407 0.53192,-1.37499 0.64586,-1.775 0.2679,-0.9407 0.40525,-1.65569 0.40906,-2.12955 0.001,-0.13971 -0.008,-0.34928 -0.0196,-0.46569 -0.0119,-0.11643 -0.0283,-0.28314 -0.0363,-0.37044 -0.0414,-0.44945 -0.0395,-0.44003 -0.0762,-0.36515 -0.11901,0.24257 -0.48257,0.75853 -0.73603,1.04453 -0.5137,0.57968 -1.1937,1.0561 -1.81037,1.2684 -0.26161,0.0901 -0.5641,0.15968 -0.77601,0.17862 -0.54904,0.0491 -0.9012,0.0179 -1.67045,-0.14804 -0.13644,-0.0294 -0.29273,-0.063 -0.34731,-0.0746 -0.28453,-0.0606 -0.78308,-0.2095 -1.0833,-0.32353 -0.3281,-0.12462 -0.42494,-0.16328 -0.47963,-0.19144 -0.462,-0.23786 -0.83187,-0.48633 -1.08701,-0.73023 -0.30254,-0.28919 -0.64659,-0.77957 -0.77388,-1.10302 -0.0406,-0.10305 -0.0479,-0.1119 -0.0641,-0.0773 -0.0101,0.0215 -0.0674,0.13579 -0.12748,0.25397 -0.34136,0.6719 -0.88254,1.19843 -1.61915,1.57535 -0.5639,0.28854 -1.19753,0.4909 -2.17484,0.69462 -0.83404,0.17385 -1.324701,0.18989 -1.910241,0.0624 -0.461639,-0.10048 -0.791844,-0.23832 -1.21672,-0.50791 -0.459953,-0.29185 -0.854232,-0.65071 -1.19837,-1.09076 -0.286999,-0.367 -0.44617,-0.60128 -0.550207,-0.80992 -0.03999,-0.0802 -0.0613,-0.0729 -0.06161,0.0212 -2.13e-4,0.0698 -0.02078,0.29023 -0.08439,0.90495 -0.02282,0.22057 -0.0096,0.40564 0.06121,0.85664 0.08599,0.5477 0.17902,0.94589 0.3777,1.61661 0.151957,0.51299 0.293144,0.89283 0.708546,1.9063 0.304047,0.74181 0.452891,1.16466 0.540968,1.53693 0.02893,0.12225 0.06664,0.28029 0.08381,0.35124 0.04416,0.18245 0.109803,0.61491 0.133047,0.87652 0.02254,0.25374 0.01095,1.21518 -0.01799,1.49236 -0.0097,0.0931 -0.06173,0.47894 -0.115555,0.8573 -0.164432,1.15586 -0.223479,1.68144 -0.255612,2.27557 -0.01826,0.33769 -0.03078,1.27408 -0.01739,1.30185 0.0028,0.006 3.357744,0.0106 7.455434,0.0106 h 7.45032 z m -11.39119,-7.83783 c -0.072,-0.0528 -0.12576,-0.16281 -0.12576,-0.25723 0,-0.12173 0.0676,-0.24476 0.29165,-0.53107 0.27445,-0.35065 0.44994,-0.5411 0.72585,-0.78758 0.5821,-0.52009 1.20797,-0.84184 1.9054,-0.97956 0.20224,-0.0399 0.25779,-0.0363 0.34488,0.0222 0.0882,0.0593 0.12129,0.27464 0.0622,0.40417 -0.0466,0.10219 -0.11127,0.13971 -0.30392,0.17642 -0.91779,0.17489 -1.73818,0.73286 -2.42426,1.64878 -0.27885,0.37225 -0.33439,0.40769 -0.47596,0.30381 z m 7.63658,0.002 c -0.0379,-0.027 -0.14315,-0.15391 -0.23393,-0.28196 -0.0908,-0.12807 -0.17887,-0.24736 -0.19575,-0.26509 -0.0169,-0.0177 -0.0977,-0.10373 -0.17954,-0.19111 -0.28984,-0.30935 -0.51874,-0.50632 -0.80241,-0.69052 -0.43094,-0.2798 -0.68288,-0.38737 -1.18226,-0.50477 -0.27558,-0.0648 -0.30046,-0.0747 -0.35321,-0.14067 -0.0865,-0.1083 -0.0912,-0.31227 -0.01,-0.42123 0.0736,-0.0983 0.15682,-0.11123 0.39961,-0.0619 1.00869,0.20489 1.96766,0.87087 2.68457,1.86435 0.0959,0.13287 0.18333,0.26823 0.19433,0.30078 0.0905,0.26772 -0.12611,0.53164 -0.32175,0.3921 z m -10.325844,-0.62772 c -0.128354,-0.0816 -0.330056,-0.22952 -0.388497,-0.28483 -0.0272,-0.0257 -0.09418,-0.0894 -0.14885,-0.14149 -0.137007,-0.13053 -0.412031,-0.47435 -0.471795,-0.58984 -0.123834,-0.23928 -0.0035,-0.51542 0.211019,-0.48448 0.06807,0.01 0.08862,0.0296 0.266409,0.25576 0.276309,0.35154 0.475379,0.53623 0.767072,0.71171 0.135833,0.0817 0.190352,0.26034 0.131463,0.43074 -0.05908,0.17095 -0.19811,0.20979 -0.36684,0.10246 z m 12.954944,0.0185 c -0.12676,-0.0989 -0.14152,-0.36381 -0.0273,-0.48989 0.0169,-0.0186 0.0976,-0.0792 0.17948,-0.13459 0.2531,-0.17135 0.44877,-0.35996 0.66357,-0.63954 0.19376,-0.25222 0.2028,-0.26094 0.2704,-0.26094 0.14789,0 0.24859,0.12354 0.24859,0.30498 0,0.0701 -0.0112,0.1218 -0.0365,0.16803 -0.18962,0.34712 -0.55194,0.72532 -0.94628,0.98778 -0.17901,0.11914 -0.2621,0.13428 -0.35195,0.0642 z M 98.653991,152.976 c -0.293357,-0.0945 -0.748701,-0.33743 -1.057143,-0.56387 -0.256509,-0.18831 -0.636386,-0.5711 -0.689322,-0.69462 -0.02415,-0.0564 -0.02958,-0.0993 -0.02272,-0.17963 0.01133,-0.13253 0.05082,-0.20125 0.144267,-0.25106 0.111915,-0.0597 0.178033,-0.0274 0.355639,0.17331 0.354187,0.40031 0.891657,0.75781 1.387028,0.92262 0.0892,0.0297 0.179973,0.0689 0.201727,0.0871 0.130307,0.10927 0.139548,0.39744 0.01583,0.49384 -0.08091,0.063 -0.167992,0.0662 -0.335326,0.0123 z m 12.463989,0.0336 c -0.13181,-0.0314 -0.21151,-0.17805 -0.1891,-0.34785 0.0133,-0.10093 0.0933,-0.21485 0.1658,-0.23612 0.28002,-0.0822 0.6399,-0.25165 0.90155,-0.42459 0.17994,-0.11894 0.50344,-0.39576 0.60611,-0.5187 0.11865,-0.14204 0.16794,-0.18598 0.23424,-0.20883 0.085,-0.0293 0.16976,0.006 0.23163,0.096 0.043,0.0627 0.051,0.0915 0.0509,0.18471 -8e-5,0.14974 -0.0335,0.2123 -0.21802,0.40772 -0.21297,0.22561 -0.32756,0.32745 -0.53655,0.47686 -0.30161,0.21562 -0.57188,0.36342 -0.89927,0.49185 -0.2216,0.0869 -0.26884,0.0977 -0.34732,0.0789 z m -10.57677,-2.18078 c 0.14179,-0.0246 0.67985,-0.13372 0.84348,-0.17104 0.29739,-0.0678 0.89358,-0.24961 1.19908,-0.36561 0.42588,-0.1617 0.86315,-0.42391 1.1788,-0.70685 0.37273,-0.33412 0.69408,-0.86295 0.82026,-1.34995 0.11605,-0.4478 0.10751,-0.1823 0.11403,-3.54574 0.006,-3.20985 0.006,-3.23361 -0.0707,-3.63723 -0.0866,-0.45722 -0.28485,-0.96694 -0.50005,-1.28566 -0.40962,-0.60668 -0.75892,-0.84298 -1.54741,-1.04673 -0.50741,-0.13112 -0.97052,-0.22193 -1.62406,-0.31845 -0.16374,-0.0242 -0.52098,-0.0816 -0.79387,-0.12755 -0.272895,-0.046 -0.611529,-0.10263 -0.752521,-0.12593 -0.140992,-0.0233 -0.30729,-0.0528 -0.369529,-0.0655 -0.06276,-0.0128 -0.119164,-0.015 -0.12663,-0.005 -0.0074,0.01 -0.02829,0.0801 -0.04641,0.15574 -0.06757,0.28221 -0.239312,0.65816 -0.478602,1.04783 -0.05005,0.0815 -0.341641,0.46728 -0.647992,0.8573 -0.5999,0.76376 -0.726405,0.93668 -0.960147,1.31242 -0.305647,0.49131 -0.545833,1.00017 -0.704386,1.49236 -0.09233,0.2866 -0.19022,0.64563 -0.176035,0.64563 0.0069,0 0.05848,-0.0691 0.114633,-0.15348 0.112932,-0.16976 0.453851,-0.60272 0.608264,-0.77253 0.08608,-0.0946 0.319963,-0.32197 0.548756,-0.53333 0.127936,-0.1182 0.375801,-0.30378 0.617246,-0.46212 0.220194,-0.14442 0.246289,-0.15649 0.318919,-0.14761 0.134437,0.0164 0.219852,0.15661 0.206214,0.33835 -0.0091,0.12158 -0.05067,0.20286 -0.129533,0.25347 -0.0311,0.02 -0.132684,0.0843 -0.225741,0.14301 -0.690346,0.43547 -1.426544,1.25898 -1.885196,2.10883 -0.06225,0.11534 -0.141877,0.27163 -0.176946,0.34731 -0.03507,0.0757 -0.08123,0.17119 -0.102586,0.21226 -0.04708,0.0905 -0.05385,0.17555 -0.03702,0.46512 0.04977,0.85632 0.232547,1.70307 0.530044,2.45551 0.149595,0.37836 0.129741,0.3348 0.308826,0.67733 0.175425,0.33551 0.281323,0.50357 0.49838,0.79088 0.332083,0.43959 0.689855,0.77625 1.134915,1.06793 0.334345,0.21912 0.847896,0.40848 1.296306,0.47796 0.106115,0.0164 0.882931,-0.006 1.017161,-0.029 z m 10.18802,-0.0191 c 0.4212,-0.0971 0.73389,-0.23092 1.09158,-0.46703 0.67707,-0.44696 1.1517,-0.98827 1.58951,-1.81282 0.17916,-0.33743 0.16359,-0.30329 0.31124,-0.68241 0.1062,-0.27271 0.22348,-0.63433 0.29798,-0.91888 0.0227,-0.0868 0.0752,-0.34974 0.13207,-0.66188 0.0413,-0.22665 0.0926,-0.77723 0.0968,-1.03723 l 0.004,-0.23285 -0.11685,-0.24344 c -0.26444,-0.55092 -0.50866,-0.94061 -0.86537,-1.38077 -0.17169,-0.21187 -0.59384,-0.64194 -0.78745,-0.80225 -0.13604,-0.11263 -0.43147,-0.32333 -0.56079,-0.39993 -0.14743,-0.0873 -0.17778,-0.12102 -0.21684,-0.24068 -0.0611,-0.18721 0.0527,-0.41526 0.20704,-0.41477 0.15958,5.5e-4 0.71173,0.40507 1.22257,0.89581 0.21172,0.20339 0.74874,0.85462 0.90053,1.09201 0.0329,0.0515 0.0638,0.0885 0.0687,0.0824 0.0187,-0.024 -0.13433,-0.53151 -0.26376,-0.87453 -0.23786,-0.63042 -0.52349,-1.16368 -0.92673,-1.73022 -0.085,-0.11949 -0.38327,-0.50777 -0.66272,-0.86287 -0.50817,-0.64574 -0.69907,-0.92046 -0.86055,-1.23833 -0.11024,-0.21703 -0.22437,-0.51335 -0.26376,-0.68474 l -0.0309,-0.13437 -0.0589,0.012 c -0.21115,0.0431 -1.44242,0.24874 -1.98247,0.33114 -0.41101,0.0627 -1.11415,0.19005 -1.29327,0.23419 -0.54319,0.13386 -0.90203,0.24832 -1.05023,0.33497 -0.0182,0.0106 -0.0832,0.0482 -0.14434,0.0834 -0.0612,0.0353 -0.16439,0.10808 -0.22933,0.16184 -0.12854,0.10643 -0.47502,0.53536 -0.55588,0.68815 -0.2081,0.39325 -0.35963,0.84476 -0.43939,1.30923 -0.0347,0.20181 -0.0352,0.2405 -0.0411,3.17844 -0.006,3.14513 -0.004,3.25545 0.0698,3.62958 0.13022,0.65702 0.50435,1.28227 1.00557,1.68054 0.2532,0.2012 0.68373,0.44267 1.03758,0.58198 0.16542,0.0651 0.69124,0.24263 0.81041,0.2736 0.44858,0.11654 0.90734,0.21549 1.2487,0.26933 0.35355,0.0558 0.97449,0.0466 1.25696,-0.0185 z m -18.895697,8.13058 c -0.09806,-0.0687 -0.131722,-0.17234 -0.132055,-0.40657 -0.0013,-0.94646 -0.231118,-2.06947 -0.581124,-2.84009 -0.0497,-0.10946 -0.06416,-0.16365 -0.06416,-0.24055 0,-0.18695 0.09691,-0.32737 0.225827,-0.32721 0.1272,1.6e-4 0.195283,0.0942 0.360247,0.49737 0.284118,0.69446 0.496844,1.72139 0.530535,2.56135 0.0056,0.13971 0.01276,0.3064 0.01592,0.37044 0.0115,0.23408 -0.07552,0.40114 -0.217207,0.417 -0.05799,0.007 -0.09607,-0.002 -0.137984,-0.0316 z m 26.115997,8.2e-4 c -0.0934,-0.06 -0.13199,-0.17268 -0.13214,-0.38628 -1.8e-4,-0.24923 0.0277,-0.72032 0.058,-0.97937 0.0539,-0.46072 0.21912,-1.20119 0.36246,-1.62431 0.10021,-0.29581 0.24343,-0.63364 0.30832,-0.7272 0.0587,-0.0847 0.0644,-0.0878 0.16089,-0.0878 0.0884,0 0.10617,0.007 0.15278,0.0635 0.0595,0.0717 0.0983,0.1726 0.0983,0.256 0,0.0309 -0.054,0.18604 -0.11989,0.34466 -0.13773,0.33131 -0.17114,0.42872 -0.26236,0.76469 -0.15513,0.57138 -0.23045,1.07992 -0.26608,1.79652 -0.0176,0.35332 -0.0254,0.42189 -0.0544,0.47755 -0.04,0.0767 -0.12903,0.13902 -0.19863,0.13902 -0.0273,0 -0.0755,-0.0167 -0.10725,-0.037 z m -26.739026,-5.59279 c -0.0292,-0.0228 -0.06935,-0.0822 -0.08923,-0.13211 -0.03581,-0.0898 -0.03597,-0.0951 -0.01724,-0.57765 0.02804,-0.72264 0.08076,-1.19713 0.21757,-1.95816 0.103094,-0.57348 0.283968,-1.25584 0.477918,-1.80291 0.09051,-0.25528 0.298969,-0.29794 0.410303,-0.084 0.07063,0.13573 0.06752,0.19162 -0.02831,0.50846 -0.137869,0.45586 -0.210211,0.72722 -0.29692,1.1138 -0.205638,0.91672 -0.267412,1.42199 -0.306586,2.50764 -0.0071,0.19563 -0.017,0.28043 -0.03849,0.32811 -0.05852,0.12985 -0.224205,0.17859 -0.329011,0.0968 z m 27.334316,2.7e-4 c -0.10372,-0.0707 -0.11254,-0.11248 -0.13227,-0.62739 -0.01,-0.25509 -0.0207,-0.48762 -0.0241,-0.51673 -0.004,-0.0291 -0.0111,-0.12436 -0.017,-0.21168 -0.02,-0.29862 -0.092,-0.8148 -0.16531,-1.18541 -0.10975,-0.55453 -0.1785,-0.82843 -0.35602,-1.41827 -0.11559,-0.38407 -0.12027,-0.40758 -0.10016,-0.50316 0.0208,-0.0987 0.10808,-0.21115 0.1778,-0.22899 0.0688,-0.0176 0.15486,0.0209 0.20929,0.0936 0.0982,0.13124 0.37894,1.06384 0.48846,1.62284 0.10394,0.53053 0.15873,0.87123 0.20086,1.24893 0.0811,0.72676 0.10794,1.49463 0.0567,1.62137 -0.0558,0.13797 -0.21648,0.18782 -0.33825,0.10488 z M 92.198388,142.82552 c -0.067,-0.0359 -0.131614,-0.12828 -0.149674,-0.21412 -0.02031,-0.0966 0.0082,-0.33147 0.09219,-0.75814 0.205502,-1.04447 0.593755,-1.93003 1.173449,-2.67646 0.346699,-0.44641 0.718959,-0.79156 1.148934,-1.06533 0.622069,-0.39606 0.754569,-0.43544 0.881031,-0.26192 0.05616,0.0771 0.06263,0.0975 0.06258,0.1979 -6.6e-5,0.12267 -0.03794,0.22551 -0.102518,0.27833 -0.02091,0.0171 -0.09754,0.0565 -0.170315,0.0876 -0.142582,0.0609 -0.607368,0.34701 -0.747336,0.45996 -0.281814,0.22743 -0.450331,0.39851 -0.71371,0.72466 -0.135009,0.16717 -0.449199,0.63978 -0.449199,0.67572 0,0.007 -0.02767,0.0622 -0.06149,0.12247 -0.113481,0.20217 -0.295661,0.65699 -0.397714,0.99289 -0.08177,0.26912 -0.179087,0.71657 -0.219724,1.01028 -0.032,0.23124 -0.06351,0.32366 -0.132902,0.38985 -0.05132,0.049 -0.156463,0.0668 -0.213579,0.0362 z m 25.420432,-0.0155 c -0.0856,-0.0602 -0.11474,-0.14344 -0.1666,-0.47618 -0.1614,-1.03549 -0.53009,-1.95832 -1.06193,-2.65797 -0.41139,-0.5412 -0.92313,-0.97027 -1.46966,-1.2323 -0.22079,-0.10584 -0.25071,-0.12815 -0.29507,-0.22002 -0.0864,-0.17891 -0.002,-0.42962 0.15804,-0.46799 0.18387,-0.0441 0.9954,0.46013 1.44441,0.8975 0.71025,0.69189 1.21966,1.59875 1.52155,2.70868 0.0802,0.29474 0.20001,0.92538 0.21007,1.1054 0.008,0.13532 0.004,0.16874 -0.0246,0.2264 -0.0445,0.09 -0.0963,0.13069 -0.18496,0.14519 -0.0546,0.009 -0.0882,0.002 -0.13124,-0.0287 z m -13.53786,-4.81668 c -0.12847,-0.0746 -0.39505,-0.60382 -0.63688,-1.26439 -0.20869,-0.57004 -0.37954,-1.16236 -0.37954,-1.31581 0,-0.3259 0.27808,-0.4247 0.42264,-0.15016 0.0191,0.0363 0.0577,0.15532 0.0857,0.26449 0.028,0.10918 0.0693,0.25071 0.0918,0.31451 0.0225,0.0638 0.0761,0.22081 0.11905,0.34887 0.12776,0.38055 0.33526,0.88529 0.44418,1.08052 0.1557,0.27907 0.17569,0.32776 0.176,0.42874 6.4e-4,0.23015 -0.16791,0.3832 -0.32298,0.29319 z m 1.6877,0.0131 c -0.0644,-0.0207 -0.12182,-0.0921 -0.15002,-0.18655 -0.0395,-0.13245 -0.0192,-0.20673 0.14052,-0.51277 0.17522,-0.33582 0.3418,-0.73417 0.44592,-1.06635 0.0268,-0.0857 0.0708,-0.21764 0.0977,-0.29332 0.0269,-0.0757 0.0812,-0.25666 0.12062,-0.4022 0.0901,-0.33251 0.14715,-0.42413 0.27249,-0.43756 0.0974,-0.0104 0.14928,0.0199 0.20062,0.11743 0.0661,0.12551 0.0656,0.19472 -0.003,0.45507 -0.1835,0.69675 -0.41079,1.31802 -0.70187,1.91837 -0.18196,0.37533 -0.26745,0.45772 -0.4231,0.40785 z"
         id="upper"
         style="stroke-width:0.241386" /></g></g></svg>
